<svg width="203" height="70" viewBox="0 0 203 70" fill="none" xmlns="http://www.w3.org/2000/svg">
<path d="M101.539 6.96087V42.8769C101.539 42.8769 115.587 51.8819 128.486 50.5319C128.486 50.5319 127.089 46.2569 126.679 43.8009C126.679 43.8009 130.294 49.9859 138.263 52.2609C146.232 54.5359 158.966 54.2619 163.238 57.3549C163.238 57.3549 161.595 51.5329 158.966 49.4409C158.966 49.4409 162.991 50.0629 166.689 56.8999C171.967 66.6599 183.366 68.4519 191.089 69.3619C198.812 70.2719 202.919 67.1789 202.919 67.1789C202.919 67.1789 193.351 65.8939 187.638 55.1569C183.566 47.5039 173.727 25.9069 162.827 15.6789C143.438 -2.51414 112.712 -3.04513 101.539 6.96087Z" fill="#603813"/>
<path d="M190.696 62.5209C189.764 61.5839 188.988 60.4849 188.278 59.3199C187.572 58.1459 186.89 56.9499 186.252 55.7089C185.604 54.4799 184.949 53.2489 184.316 52.0009C183.05 49.5069 181.763 47.0169 180.469 44.5319C179.816 43.2879 179.179 42.0529 178.496 40.8129C177.801 39.5839 177.132 38.3349 176.41 37.1239C173.528 32.2759 170.248 27.6989 166.551 23.5749L165.862 22.7989L165.149 22.0479C164.671 21.5509 164.207 21.0389 163.71 20.5639L162.222 19.1409C161.72 18.6749 161.206 18.2229 160.695 17.7699C158.618 16.0079 156.461 14.3309 154.101 13.0889C156.168 14.8389 158.077 16.7609 159.902 18.7719C161.746 20.7569 163.466 22.8719 165.146 25.0149C168.472 29.3349 171.544 33.8789 174.354 38.6239C175.746 41.0019 177.1 43.4099 178.467 45.8639C179.845 48.2979 181.221 50.7329 182.682 53.1199C184.126 55.5169 185.615 57.8969 187.321 60.1379C188.204 61.2309 189.156 62.3029 190.281 63.1199C191.401 63.9479 192.633 64.4769 193.864 64.9369C192.743 64.2019 191.623 63.4659 190.696 62.5209Z" fill="#A58167"/>
<path d="M160.85 23.1639C158.239 20.0859 155.362 17.3799 152.373 14.8629C149.364 12.3739 146.251 10.0469 142.928 8.08594C145.644 10.9639 148.414 13.7149 151.135 16.5049C153.853 19.2909 156.557 22.0819 159.049 25.0259C161.54 27.9909 163.909 31.133 166.27 34.295C168.633 37.46 170.962 40.6709 173.407 43.8349C171.829 40.0499 169.902 36.4779 167.825 33.0139C165.721 29.5669 163.439 26.2419 160.85 23.1639Z" fill="#A58167"/>
<path d="M151.098 19.664C149.919 18.384 148.75 17.087 147.491 15.901C145.013 13.48 142.367 11.274 139.581 9.31296C136.792 7.36696 133.883 5.59696 130.768 4.35596C133.379 6.58796 135.94 8.78796 138.455 11.05C140.978 13.295 143.451 15.588 145.866 17.952C146.479 18.531 147.087 19.117 147.673 19.729L149.469 21.521C150.629 22.758 151.842 23.942 152.982 25.209C155.351 27.658 157.547 30.285 159.932 32.827C158.38 29.608 156.532 26.547 154.404 23.751C153.379 22.313 152.224 21.006 151.098 19.664Z" fill="#A58167"/>
<path d="M140.413 19.4529C139.911 18.8409 139.392 18.2459 138.871 17.6509C138.35 17.0569 137.835 16.4559 137.286 15.8909C136.176 14.7769 135.092 13.6299 133.9 12.6129C131.577 10.5079 129.047 8.65185 126.351 7.13585C125.005 6.37585 123.598 5.73386 122.16 5.21486C121.429 4.98486 120.704 4.74687 119.957 4.59587C119.213 4.44787 118.46 4.31785 117.704 4.35685C118.415 4.61585 119.084 4.96286 119.745 5.31086C120.07 5.50486 120.403 5.66285 120.725 5.85585L121.684 6.43886C122.946 7.24786 124.183 8.07885 125.381 8.98485C127.785 10.7748 130.107 12.6949 132.355 14.7369C132.927 15.2319 133.498 15.7299 134.044 16.2649L135.723 17.8139C136.833 18.8619 137.925 19.9389 139.052 20.9799C140.139 22.0699 141.256 23.1298 142.382 24.1918C143.494 25.2698 144.603 26.3578 145.802 27.3688C145.016 25.9568 144.139 24.6209 143.265 23.2749C142.356 21.9669 141.386 20.7099 140.413 19.4529Z" fill="#A58167"/>
<path d="M128.777 17.5368C127.11 15.5768 125.338 13.7048 123.372 12.0868C121.425 10.4488 119.337 8.98783 117.094 7.85483C116.533 7.57283 115.959 7.31883 115.39 7.06583C114.803 6.84483 114.229 6.60583 113.63 6.43183C112.443 6.07583 111.22 5.77983 109.984 5.81083C111.1 6.36783 112.146 6.97983 113.164 7.65983C113.679 7.97783 114.174 8.34482 114.68 8.66782L116.162 9.72584C118.127 11.1468 120.015 12.6838 121.883 14.2588C123.766 15.8128 125.582 17.4778 127.452 19.0998C128.372 19.9308 129.293 20.7688 130.253 21.5708C131.191 22.3998 132.127 23.2398 133.151 24.0018C132.532 22.8308 131.823 21.7378 131.117 20.6338C130.367 19.5798 129.589 18.5418 128.777 17.5368Z" fill="#A58167"/>
<path d="M115.098 13.2459C113.665 11.9889 112.121 10.8959 110.488 10.0039C108.851 9.12694 107.132 8.39994 105.3 8.08594C106.695 9.42194 108.084 10.6219 109.466 11.8189L113.562 15.3799C114.923 16.5579 116.23 17.79 117.556 19.028C118.895 20.263 120.14 21.5929 121.566 22.9129C121.003 20.9729 120.097 19.1559 118.965 17.5559C117.832 15.9589 116.541 14.4889 115.098 13.2459Z" fill="#A58167"/>
<path d="M101.539 6.96087V42.8769C101.539 42.8769 87.491 51.8819 74.592 50.5319C74.592 50.5319 75.989 46.2569 76.399 43.8009C76.399 43.8009 72.784 49.9859 64.815 52.2609C56.846 54.5349 44.112 54.2619 39.84 57.3549C39.84 57.3549 41.483 51.5329 44.112 49.4409C44.112 49.4409 40.086 50.0629 36.389 56.8999C31.111 66.6599 19.712 68.4519 11.989 69.3619C4.26599 70.2719 0.158997 67.1789 0.158997 67.1789C0.158997 67.1789 9.727 65.8939 15.44 55.1569C19.512 47.5039 29.351 25.9069 40.251 15.6789C59.64 -2.51414 90.366 -3.04513 101.539 6.96087Z" fill="#603813"/>
<path d="M12.382 62.5209C13.314 61.5839 14.09 60.4849 14.8 59.3199C15.506 58.1459 16.188 56.9499 16.826 55.7089C17.474 54.4799 18.129 53.2489 18.762 52.0009C20.028 49.5069 21.315 47.0169 22.609 44.5319C23.262 43.2879 23.899 42.0529 24.582 40.8129C25.278 39.5839 25.946 38.3349 26.668 37.1239C29.55 32.2759 32.83 27.6989 36.528 23.5749L37.217 22.7989L37.93 22.0479C38.408 21.5509 38.872 21.0389 39.369 20.5639L40.857 19.1409C41.359 18.6749 41.873 18.2229 42.384 17.7699C44.461 16.0079 46.618 14.3309 48.978 13.0889C46.911 14.8389 45.002 16.7609 43.178 18.7719C41.334 20.7569 39.613 22.8719 37.934 25.0149C34.608 29.3349 31.536 33.8789 28.726 38.6239C27.334 41.0019 25.98 43.4099 24.613 45.8639C23.235 48.2979 21.858 50.7329 20.398 53.1199C18.954 55.5169 17.465 57.8969 15.758 60.1379C14.875 61.2309 13.924 62.3029 12.798 63.1199C11.678 63.9479 10.446 64.4769 9.215 64.9369C10.335 64.2019 11.455 63.4659 12.382 62.5209Z" fill="#A58167"/>
<path d="M42.229 23.1639C44.84 20.0859 47.717 17.3799 50.707 14.8629C53.716 12.3739 56.829 10.0469 60.152 8.08594C57.436 10.9639 54.666 13.7149 51.945 16.5049C49.227 19.2909 46.523 22.0819 44.031 25.0259C41.54 27.9909 39.171 31.133 36.81 34.295C34.447 37.46 32.118 40.6709 29.673 43.8349C31.251 40.0499 33.178 36.4779 35.255 33.0139C37.357 29.5669 39.639 26.2419 42.229 23.1639Z" fill="#A58167"/>
<path d="M51.98 19.664C53.159 18.384 54.329 17.087 55.587 15.901C58.065 13.48 60.711 11.274 63.497 9.31296C66.286 7.36696 69.195 5.59696 72.31 4.35596C69.699 6.58796 67.138 8.78796 64.623 11.05C62.1 13.295 59.627 15.588 57.212 17.952C56.599 18.531 55.991 19.117 55.405 19.729L53.609 21.521C52.449 22.758 51.236 23.942 50.096 25.209C47.727 27.658 45.531 30.285 43.146 32.827C44.698 29.608 46.546 26.547 48.674 23.751C49.699 22.313 50.854 21.006 51.98 19.664Z" fill="#A58167"/>
<path d="M62.665 19.4529C63.167 18.8409 63.686 18.2459 64.206 17.6509C64.727 17.0569 65.242 16.4559 65.791 15.8909C66.901 14.7769 67.985 13.6299 69.177 12.6129C71.5 10.5079 74.03 8.65185 76.726 7.13585C78.071 6.37585 79.479 5.73386 80.917 5.21486C81.649 4.98486 82.373 4.74687 83.12 4.59587C83.865 4.44787 84.617 4.31785 85.373 4.35685C84.662 4.61585 83.993 4.96286 83.332 5.31086C83.007 5.50486 82.674 5.66285 82.352 5.85585L81.393 6.43886C80.131 7.24786 78.894 8.07885 77.696 8.98485C75.292 10.7748 72.971 12.6949 70.722 14.7369C70.15 15.2319 69.579 15.7299 69.033 16.2649L67.354 17.8139C66.244 18.8619 65.152 19.9389 64.025 20.9799C62.938 22.0699 61.821 23.1298 60.695 24.1918C59.583 25.2698 58.474 26.3578 57.275 27.3688C58.062 25.9568 58.938 24.6209 59.812 23.2749C60.723 21.9669 61.692 20.7099 62.665 19.4529Z" fill="#A58167"/>
<path d="M74.301 17.5368C75.968 15.5768 77.74 13.7048 79.706 12.0868C81.653 10.4488 83.741 8.98783 85.984 7.85483C86.545 7.57283 87.119 7.31883 87.688 7.06583C88.275 6.84483 88.849 6.60583 89.448 6.43183C90.635 6.07583 91.858 5.77983 93.094 5.81083C91.978 6.36783 90.932 6.97983 89.914 7.65983C89.399 7.97783 88.904 8.34482 88.398 8.66782L86.916 9.72584C84.951 11.1468 83.063 12.6838 81.195 14.2588C79.312 15.8128 77.496 17.4778 75.626 19.0998C74.706 19.9308 73.785 20.7688 72.825 21.5708C71.887 22.3998 70.951 23.2398 69.927 24.0018C70.546 22.8308 71.255 21.7378 71.961 20.6338C72.712 19.5798 73.489 18.5418 74.301 17.5368Z" fill="#A58167"/>
<path d="M87.98 13.2459C89.413 11.9889 90.957 10.8959 92.59 10.0039C94.227 9.12694 95.946 8.39994 97.778 8.08594C96.383 9.42194 94.994 10.6219 93.612 11.8189L89.516 15.3799C88.155 16.5579 86.848 17.79 85.522 19.028C84.183 20.263 82.938 21.5929 81.512 22.9129C82.075 20.9729 82.981 19.1559 84.113 17.5559C85.246 15.9589 86.538 14.4889 87.98 13.2459Z" fill="#A58167"/>
</svg>
