<svg width="174" height="41" viewBox="0 0 174 41" fill="none" xmlns="http://www.w3.org/2000/svg">
<path d="M87.365 3.37304V14.4571C87.365 14.4571 102.195 37.8561 117.316 40.3191C132.437 42.7821 149.447 22.7261 161.079 27.6521C172.71 32.5781 173.873 37.68 173.873 37.68C173.873 37.68 176.345 10.9391 159.479 5.83706C144.145 1.19806 120.66 13.93 94.068 1.29605C90.775 -0.269951 88.383 2.31704 87.365 3.37304Z" fill="#1A1A1A"/>
<path d="M104.237 9.82008C101.99 8.20908 99.723 6.63908 97.405 5.14408C97.107 4.95308 96.844 4.77709 96.503 4.58809L96.017 4.31306L95.512 4.09208C94.835 3.81808 94.138 3.62908 93.436 3.57908C92.041 3.48208 90.639 3.74508 89.455 4.51008C90.773 4.32708 92.065 4.46507 93.248 4.89207C93.842 5.09107 94.401 5.39307 94.93 5.73307C95.466 6.06807 95.921 6.49708 96.479 6.96608C98.622 8.80008 100.825 10.5421 103.086 12.1661C105.347 13.7921 107.667 15.3081 110.06 16.6611C112.456 17.9951 114.93 19.2141 117.531 19.9291C115.304 18.1701 113.119 16.4661 110.909 14.7771C108.701 13.0911 106.483 11.4301 104.237 9.82008Z" fill="#515150"/>
<path d="M129.084 17.9311C128.249 17.7021 127.416 17.4051 126.575 17.0761C125.731 16.7601 124.887 16.4131 124.042 16.0631C120.659 14.6641 117.272 13.1871 113.852 11.8131C110.438 10.4141 107.004 9.0641 103.492 7.9231C106.649 10.1091 109.91 12.0121 113.215 13.7901C116.519 15.5751 119.874 17.2121 123.314 18.6461C125.038 19.3451 126.78 20.0351 128.647 20.4661C130.502 20.8741 132.342 21.0401 134.175 21.0631C137.836 21.1251 141.471 20.7701 145.044 19.9301C141.419 19.6371 137.826 19.3921 134.286 18.9381C132.521 18.6801 130.764 18.4051 129.084 17.9311Z" fill="#515150"/>
<path d="M148.339 14.7179C146.575 14.5479 144.825 14.472 143.085 14.381C141.348 14.29 139.592 14.2319 137.934 14.0499C134.557 13.6229 131.159 12.8149 127.767 11.9259C124.369 11.0489 120.978 10.0539 117.532 9.14893C120.664 11.1249 123.952 12.6769 127.311 13.9909C130.675 15.2839 134.131 16.3069 137.716 16.7639C139.543 16.9549 141.287 16.9699 143.047 16.9679C144.804 16.9589 146.552 16.9029 148.285 16.8619C151.746 16.7869 155.171 16.8059 158.464 18.4269C157.062 17.1259 155.373 16.232 153.632 15.687C151.883 15.162 150.1 14.8819 148.339 14.7179Z" fill="#515150"/>
<path d="M168.493 18.8491C168.066 18.0131 167.582 17.2141 167.052 16.4651C165.983 14.9751 164.758 13.6351 163.385 12.5191C162.017 11.3981 160.503 10.4911 158.88 9.89909C157.245 9.32109 155.62 9.0741 154.026 8.8921C150.824 8.5391 147.645 8.5161 144.468 8.6341C141.293 8.7831 138.124 9.06511 134.97 9.69511C138.137 10.2021 141.29 10.4861 144.435 10.7721C147.577 11.0531 150.721 11.2631 153.816 11.6081L154.973 11.7401L156.114 11.9141C156.5 11.9571 156.86 12.0481 157.231 12.1191C157.606 12.1791 157.957 12.2961 158.314 12.3951C159.74 12.8161 161.131 13.5021 162.468 14.3541C163.8 15.2151 165.095 16.2261 166.277 17.4211C166.89 17.9941 167.443 18.6441 167.996 19.3071C168.261 19.6481 168.526 19.9951 168.762 20.3691C169.011 20.7351 169.217 21.1311 169.4 21.5651C169.284 20.5981 168.901 19.6941 168.493 18.8491Z" fill="#515150"/>
<path d="M87.365 3.37304V14.4571C87.365 14.4571 72.535 37.8561 57.415 40.3191C42.294 42.7821 25.284 22.7261 13.652 27.6521C2.02102 32.5781 0.858012 37.68 0.858012 37.68C0.858012 37.68 -1.61397 10.9391 15.252 5.83706C30.586 1.19806 54.071 13.93 80.663 1.29605C83.956 -0.269951 86.348 2.31704 87.365 3.37304Z" fill="#1A1A1A"/>
<path d="M70.494 9.82008C72.741 8.20908 75.008 6.63908 77.326 5.14408C77.624 4.95308 77.887 4.77709 78.228 4.58809L78.715 4.31306L79.22 4.09208C79.896 3.81808 80.594 3.62908 81.296 3.57908C82.691 3.48208 84.093 3.74508 85.278 4.51008C83.96 4.32708 82.667 4.46507 81.485 4.89207C80.891 5.09107 80.332 5.39307 79.803 5.73307C79.267 6.06807 78.812 6.49708 78.254 6.96608C76.111 8.80008 73.908 10.5421 71.647 12.1661C69.386 13.7921 67.066 15.3081 64.673 16.6611C62.277 17.9951 59.803 19.2141 57.202 19.9291C59.429 18.1701 61.614 16.4661 63.824 14.7771C66.03 13.0911 68.248 11.4301 70.494 9.82008Z" fill="#515150"/>
<path d="M45.646 17.9311C46.481 17.7021 47.314 17.4051 48.155 17.0761C48.999 16.7601 49.843 16.4131 50.688 16.0631C54.071 14.6641 57.458 13.1871 60.878 11.8131C64.292 10.4141 67.726 9.0641 71.238 7.9231C68.081 10.1091 64.82 12.0121 61.515 13.7901C58.211 15.5751 54.856 17.2121 51.416 18.6461C49.692 19.3451 47.95 20.0351 46.083 20.4661C44.228 20.8741 42.388 21.0401 40.555 21.0631C36.894 21.1251 33.26 20.7701 29.686 19.9301C33.311 19.6371 36.904 19.3921 40.444 18.9381C42.21 18.6801 43.967 18.4051 45.646 17.9311Z" fill="#515150"/>
<path d="M26.392 14.7179C28.156 14.5479 29.906 14.472 31.646 14.381C33.383 14.29 35.139 14.2319 36.797 14.0499C40.174 13.6229 43.572 12.8149 46.964 11.9259C50.363 11.0489 53.753 10.0539 57.199 9.14893C54.067 11.1249 50.779 12.6769 47.42 13.9909C44.055 15.2839 40.6 16.3069 37.015 16.7639C35.188 16.9549 33.444 16.9699 31.684 16.9679C29.927 16.9589 28.179 16.9029 26.446 16.8619C22.985 16.7869 19.559 16.8059 16.267 18.4269C17.669 17.1259 19.358 16.232 21.099 15.687C22.848 15.162 24.63 14.8819 26.392 14.7179Z" fill="#515150"/>
<path d="M6.23801 18.8491C6.66501 18.0131 7.14899 17.2141 7.67899 16.4651C8.74799 14.9751 9.97301 13.6351 11.346 12.5191C12.714 11.3981 14.228 10.4911 15.851 9.89909C17.486 9.32109 19.111 9.0741 20.705 8.8921C23.907 8.5391 27.086 8.5161 30.263 8.6341C33.438 8.7831 36.607 9.06511 39.761 9.69511C36.594 10.2021 33.441 10.4861 30.296 10.7721C27.154 11.0531 24.01 11.2631 20.916 11.6081L19.759 11.7401L18.619 11.9141C18.233 11.9571 17.873 12.0481 17.502 12.1191C17.127 12.1791 16.776 12.2961 16.419 12.3951C14.994 12.8161 13.602 13.5021 12.266 14.3541C10.934 15.2151 9.63899 16.2261 8.45599 17.4211C7.84299 17.9941 7.29 18.6441 6.737 19.3071C6.472 19.6481 6.20701 19.9951 5.97101 20.3691C5.72201 20.7351 5.51601 21.1311 5.33301 21.5651C5.44701 20.5981 5.83001 19.6941 6.23801 18.8491Z" fill="#515150"/>
</svg>
