<?xml version="1.0" encoding="utf-8"?>
<!-- Svg Vector Icons : http://www.onlinewebfonts.com/icon -->
<!DOCTYPE svg PUBLIC "-//W3C//DTD SVG 1.1//EN" "http://www.w3.org/Graphics/SVG/1.1/DTD/svg11.dtd">
<svg version="1.1" xmlns="http://www.w3.org/2000/svg" xmlns:xlink="http://www.w3.org/1999/xlink" x="0px" y="0px" viewBox="0 0 256 256" enable-background="new 0 0 256 256" xml:space="preserve">
<metadata> Svg Vector Icons : http://www.onlinewebfonts.com/icon </metadata>
<g><g><path fill="#000000" d="M63.9,146.1l-20.1-13.5l-10.1,4.9L45,161.2L69.5,147L63.9,146.1z"/><path fill="#000000" d="M61.9,163.3L45,165.6l13.4,14.6l4.8-2.9L61.9,163.3z"/><path fill="#000000" d="M17.4,145.1l-7.4,1.7l31,16.7l16.2-6.8L17.4,145.1z"/><path fill="#000000" d="M176.1,123l-38.6,17l32.3,44.6l8.4-3L176.1,123z"/><path fill="#000000" d="M239.5,81.7c-12.5-4.6-30.8,3.7-30.8,3.7C56.6,149.3,37.5,162.9,37.5,162.9c-6.7,4.5,0.7,4.5,0.7,4.5l36.6-4.2c20.7-2,35.3-9.5,35.3-9.5c12.5-4.5,118.8-51.1,118.8-51.1c5.7-3.1,11.4-8.3,11.4-8.3c3.9-2.8,5.7-8.5,5.7-8.5C246.4,82.9,239.5,81.7,239.5,81.7z"/><path fill="#000000" d="M224.5,97L76.5,161c-2.4,1-1.7,2.2-1.7,2.2c0.6-0.1,1.3-0.1,1.9-0.2c6.6-0.7,12.6-2,17.6-3.4c9.8-2.7,15.8-5.9,15.8-5.9c12.5-4.5,118.8-51.1,118.8-51.1c5.7-3.1,11.4-8.3,11.4-8.3C238.3,92.3,224.5,97,224.5,97z"/><path fill="#000000" d="M36.7,74.7l-6.6-3.3l-3,1l4,6.5l88.8,54.6L160,116L36.7,74.7z"/></g></g>
</svg>