<svg width="500" height="500" viewBox="0 0 500 500" fill="none" xmlns="http://www.w3.org/2000/svg">
<path d="M296.8 86.7H181.2V232.2H296.8V86.7Z" fill="#787878"/>
<path d="M290.7 94.3H187.3V224.4H290.7V94.3Z" fill="#152036"/>
<path opacity="0.4" d="M208.6 199.6L220.7 178.6L233 157.6L244.8 136.7L247 133.3L247.8 136.7L251.7 150.3L247.4 157.6L235.5 178.6L223.1 199.6H237.7L250 178.6L256.1 167.7L259.3 178.6L264.8 199.6H277.9L272.3 178.6L266.6 157.6L265.2 152.1L274.1 136.7H261.2L260.5 135.1L256.1 117.9L255.3 115.7H242.6L242.3 115.9L230.4 136.7L218.5 157.6L206.2 178.6L194.2 199.6H208.6Z" fill="#4F4FDE"/>
<path d="M310.1 196.6H304.1L302.3 197.7V199.8L304.1 200.9H310.1L311.9 199.8V197.7L310.1 196.6Z" fill="#949494" stroke="#263238" stroke-width="0.8886" stroke-linecap="round" stroke-linejoin="round"/>
<path d="M311.9 197.7H302.3V199.8H311.9V197.7Z" fill="#6E6E6E" stroke="#263238" stroke-width="0.8886" stroke-linecap="round" stroke-linejoin="round"/>
<path d="M310.8 200.8H303.3V201.9H310.8V200.8Z" fill="white" stroke="#263238" stroke-width="0.8886" stroke-linecap="round" stroke-linejoin="round"/>
<path d="M310.1 202H303.9V213.6H310.1V202Z" fill="white" stroke="#263238" stroke-width="0.8886" stroke-linecap="round" stroke-linejoin="round"/>
<path d="M318.2 242C318.1 241.8 318.1 241.7 318.1 241.5C318.3 239.3 319.9 223.1 319.8 221.8C319.7 220.5 317.5 219.9 314.3 218.2C312.5 217.3 311.1 215.8 310.4 213.9L309.2 213.4H304.5L303.3 213.9C302.6 215.8 301.2 217.4 299.4 218.2C296.2 219.9 294.1 220.4 293.9 221.8C293.7 223.2 295.3 239.3 295.6 241.5C295.6 241.7 295.6 241.8 295.5 242L295 243.4C294.8 243.8 295 244.3 295.3 244.6C295.5 244.8 295.8 244.9 296 244.9H317.5C317.8 244.9 318 244.8 318.2 244.6C318.6 244.3 318.7 243.8 318.5 243.4L318.2 242Z" fill="#666666" stroke="#263238" stroke-width="0.8886" stroke-linecap="round" stroke-linejoin="round"/>
<path d="M315 221.8H298.8C298.4 221.8 298.1 222.1 298.1 222.5V229.1C298.1 229.5 298.4 229.8 298.8 229.8H302.1C303.3 232.4 306.4 233.6 309 232.5C310.2 232 311.1 231 311.7 229.8H315C315.4 229.8 315.7 229.5 315.7 229.1V222.5C315.7 222.1 315.4 221.8 315 221.8Z" fill="white" stroke="#263238" stroke-width="0.8886" stroke-linecap="round" stroke-linejoin="round"/>
<path d="M310.7 207.2H303.2V208.3H303.5C303.2 209.9 303.2 211.5 303.5 213.1H303.2V214.2H310.7V213.1H310.4C310.7 211.5 310.7 209.9 310.4 208.3H310.7V207.2Z" fill="white" stroke="#263238" stroke-width="0.8886" stroke-linecap="round" stroke-linejoin="round"/>
<path d="M295.4 244.2H281.7L278.8 227.7H298.3L295.4 244.2Z" fill="white" stroke="#263238" stroke-linecap="round" stroke-linejoin="round"/>
<path opacity="0.4" d="M294 242.5H283.1L280.8 233.2H296.3L294 242.5Z" fill="#666666"/>
<path d="M141.1 215.1L128.1 196.6L141.6 211.3L137.8 195.4L142.4 203.8L134.8 172.2L146.2 201.2L138.6 154.6L147.4 187.4L148.3 167.2L152.5 183.6L158.8 154.6L156.7 196.2L162.6 182.8L160.5 200L167.6 189.9L159.2 208L168.5 200.8L158.4 217.2L140.7 217.6L141.1 215.1Z" fill="#FFC703" stroke="#919191" stroke-miterlimit="10"/>
<path d="M159.5 244.7H142.5L136.8 213.1H165.1L159.5 244.7Z" fill="#666666" stroke="#263238" stroke-linecap="round" stroke-linejoin="round"/>
<path d="M427.1 401.1H435.3" stroke="#263238" stroke-linecap="round" stroke-linejoin="round"/>
<path d="M63.3 401.1H416.8" stroke="#263238" stroke-linecap="round" stroke-linejoin="round"/>
<path d="M63.3 383.7H430.9" stroke="#263238" stroke-linecap="round" stroke-linejoin="round"/>
<path d="M340.1 250.1H137.9V400.7H340.1V250.1Z" fill="#152036" stroke="#263238" stroke-linecap="round" stroke-linejoin="round"/>
<path d="M306.3 271.1H171.8V379.7H306.3V271.1Z" fill="#152036" stroke="#263238" stroke-linecap="round" stroke-linejoin="round"/>
<path d="M290.3 283.7H187.8V367.1H290.3V283.7Z" fill="#263238" stroke="#263238" stroke-linecap="round" stroke-linejoin="round"/>
<path d="M285.7 287.7H192.3V363.1H285.7V287.7Z" fill="#9C9C9C"/>
<mask id="mask0_1_4" style="mask-type:luminance" maskUnits="userSpaceOnUse" x="192" y="287" width="94" height="77">
<path d="M285.7 287.7H192.3V363.1H285.7V287.7Z" fill="white"/>
</mask>
<g mask="url(#mask0_1_4)">
<path d="M195.5 342.7C195.7 339.3 197 336 199.4 333.6C203.3 329.7 210.3 331.5 215 328.4C219.7 325.3 219.7 319.3 219.7 319.3C219.7 319.3 221 321.4 222.8 323.7C223.9 325.2 224.5 327 224.6 328.9C224.6 328.9 232.2 328.6 231.9 319C231.6 309.4 230.1 303.9 233.2 301L236.3 298.1C236.3 298.1 235 304.6 236.8 308C238.6 311.4 243.8 310.9 251.6 315.8C259.4 320.8 259.2 327.3 259.2 327.3C259.8 325.3 260.5 323.3 261.3 321.3C262.3 319 262.3 314.5 262.3 314.5C262.3 314.5 263.3 320 267.8 322.8C272.3 325.6 275.6 327.2 275.9 330.9C276.2 334.6 276.2 336.1 276.2 336.1L279.1 329.9C279.1 329.9 279.4 329.4 282 332.5C284.6 335.6 287 344 287 344V363.8H191.2V350.6C191.1 350.5 191.1 343 195.5 342.7Z" fill="#4F4FDE"/>
<path opacity="0.5" d="M195.5 342.7C195.7 339.3 197 336 199.4 333.6C203.3 329.7 210.3 331.5 215 328.4C219.7 325.3 219.7 319.3 219.7 319.3C219.7 319.3 221 321.4 222.8 323.7C223.9 325.2 224.5 327 224.6 328.9C224.6 328.9 232.2 328.6 231.9 319C231.6 309.4 230.1 303.9 233.2 301L236.3 298.1C236.3 298.1 235 304.6 236.8 308C238.6 311.4 243.8 310.9 251.6 315.8C259.4 320.8 259.2 327.3 259.2 327.3C259.8 325.3 260.5 323.3 261.3 321.3C262.3 319 262.3 314.5 262.3 314.5C262.3 314.5 263.3 320 267.8 322.8C272.3 325.6 275.6 327.2 275.9 330.9C276.2 334.6 276.2 336.1 276.2 336.1L279.1 329.9C279.1 329.9 279.4 329.4 282 332.5C284.6 335.6 287 344 287 344V363.8H191.2V350.6C191.1 350.5 191.1 343 195.5 342.7Z" fill="white"/>
<path d="M206.1 344C206.1 344 240.5 329.9 243.9 329.4C247.3 328.9 248.9 331 249.1 332.3C249.3 333.6 249.4 336.5 248.1 336.7C246.8 336.9 219.2 345.8 219.2 345.8" stroke="#263238" stroke-miterlimit="10"/>
<path d="M248.6 338L270.7 344" stroke="#263238" stroke-miterlimit="10"/>
<path d="M237.4 340.9L262.4 347.2" stroke="#263238" stroke-miterlimit="10"/>
</g>
<path d="M285.7 287.7H192.3V363.1H285.7V287.7Z" stroke="#263238" stroke-linecap="round" stroke-linejoin="round"/>
<path d="M285.7 287.7H192.3V296.7H285.7V287.7Z" fill="#263238" stroke="#263238" stroke-linecap="round" stroke-linejoin="round"/>
<path d="M348.3 247.6H129.8V252.5H348.3V247.6Z" fill="white" stroke="#263238" stroke-linecap="round" stroke-linejoin="round"/>
<path d="M352.7 244.4H125.2V248.8H352.7V244.4Z" fill="#152036" stroke="#263238" stroke-linecap="round" stroke-linejoin="round"/>
<path d="M348.3 400.3H129.8V405.2H348.3V400.3Z" fill="#152036" stroke="#263238" stroke-linecap="round" stroke-linejoin="round"/>
<path d="M352.7 404.1H125.2V408.5H352.7V404.1Z" fill="#152036" stroke="#263238" stroke-linecap="round" stroke-linejoin="round"/>
<path d="M285.7 348.5H192.3V353.5H285.7V348.5Z" fill="#263238" stroke="#263238" stroke-linecap="round" stroke-linejoin="round"/>
<path d="M203.3 345H197.8V357.5H203.3V345Z" fill="#263238" stroke="#263238" stroke-linecap="round" stroke-linejoin="round"/>
<path d="M228.9 345H223.4V357.5H228.9V345Z" fill="#263238" stroke="#263238" stroke-linecap="round" stroke-linejoin="round"/>
<path d="M254.6 345H249.1V357.5H254.6V345Z" fill="#263238" stroke="#263238" stroke-linecap="round" stroke-linejoin="round"/>
<path d="M280.3 345H274.8V357.5H280.3V345Z" fill="#263238" stroke="#263238" stroke-linecap="round" stroke-linejoin="round"/>
<path d="M311.2 446.2C383.936 446.2 442.9 438.365 442.9 428.7C442.9 419.035 383.936 411.2 311.2 411.2C238.464 411.2 179.5 419.035 179.5 428.7C179.5 438.365 238.464 446.2 311.2 446.2Z" fill="#4F4FDE"/>
<path opacity="0.5" d="M311.2 446.2C383.936 446.2 442.9 438.365 442.9 428.7C442.9 419.035 383.936 411.2 311.2 411.2C238.464 411.2 179.5 419.035 179.5 428.7C179.5 438.365 238.464 446.2 311.2 446.2Z" fill="white"/>
<path d="M323.8 414.2C323.8 414.2 268.3 422.5 267.4 422.9C266.5 423.3 264.9 424.4 265.5 425.2C266.1 426 274.8 425.2 274.8 425.2L277.8 423.9L320.2 422L302.2 440.9C302.2 440.9 300.9 442.8 301.6 443.4C302.3 444 304.8 444.5 305.2 443.8C305.6 443.1 306.7 441.3 306.7 441.3L330.2 423.3L372.6 429.9C372.6 429.9 372.2 430.8 373.7 431.2C375.2 431.6 381.1 433.7 381.3 432.5C381.5 431.3 381.3 429.5 379.6 429.1C377.9 428.7 328 414.7 328 414.7L323.8 414.2Z" fill="#263238" stroke="#263238" stroke-linecap="round" stroke-linejoin="round"/>
<path d="M325.6 398.8H326.6C328.8 398.8 330.6 400.6 330.6 402.8V413.3C330.6 415.5 328.8 417.3 326.6 417.3H325.6C323.4 417.3 321.6 415.5 321.6 413.3V402.8C321.6 400.5 323.4 398.8 325.6 398.8Z" fill="#263238" stroke="#263238" stroke-linecap="round" stroke-linejoin="round"/>
<path d="M319.3 382H333.1V401.7C333.1 404.1 331.2 406 328.8 406H323.6C321.2 406 319.3 404.1 319.3 401.7V382Z" fill="#263238" stroke="#263238" stroke-linecap="round" stroke-linejoin="round"/>
<path d="M385.9 352.1C383.7 355.6 382.6 359.7 380.5 363.2C371.7 378.2 355.4 387.2 338 386.8C321.5 386.6 310.6 383.8 298.8 378.9C287 374 277.4 368.5 273.4 362.6C269.4 356.7 254.9 341.9 248.2 334C241.5 326.1 242.1 324.9 237.2 323.2C232.3 321.5 234.7 316 241 311.5C247.3 307 254.8 310.4 258.2 314.5C261.6 318.6 271.3 323.4 284.5 330.6C297.7 337.8 313.8 339.5 323.9 336.3C334 333.1 337.5 322.7 337.7 311.9C337.9 301.1 334.5 290.9 324.6 277.5C314.7 264.1 306.2 256.3 308.3 246.1C310.4 235.9 324.8 218.1 331 219.8C337.2 221.5 345.8 236.1 369.8 241.8C393.8 247.5 412.4 246.2 414.1 244.8C415.8 243.4 426 226.2 432.3 223.2C438.6 220.2 445.2 226 444.8 230.4C444.4 234.8 422.1 280.2 419.1 288C416.1 295.8 389.4 346.3 389.4 346.3L385.9 352.1Z" fill="#4F4FDE"/>
<mask id="mask1_1_4" style="mask-type:luminance" maskUnits="userSpaceOnUse" x="234" y="219" width="211" height="168">
<path d="M385.9 352.1C383.7 355.6 382.6 359.7 380.5 363.2C371.7 378.2 355.4 387.2 338 386.8C321.5 386.6 310.6 383.8 298.8 378.9C287 374 277.4 368.5 273.4 362.6C269.4 356.7 254.9 341.9 248.2 334C241.5 326.1 242.1 324.9 237.2 323.2C232.3 321.5 234.7 316 241 311.5C247.3 307 254.8 310.4 258.2 314.5C261.6 318.6 271.3 323.4 284.5 330.6C297.7 337.8 313.8 339.5 323.9 336.3C334 333.1 337.5 322.7 337.7 311.9C337.9 301.1 334.5 290.9 324.6 277.5C314.7 264.1 306.2 256.3 308.3 246.1C310.4 235.9 324.8 218.1 331 219.8C337.2 221.5 345.8 236.1 369.8 241.8C393.8 247.5 412.4 246.2 414.1 244.8C415.8 243.4 426 226.2 432.3 223.2C438.6 220.2 445.2 226 444.8 230.4C444.4 234.8 422.1 280.2 419.1 288C416.1 295.8 389.4 346.3 389.4 346.3L385.9 352.1Z" fill="white"/>
</mask>
<g mask="url(#mask1_1_4)">
<path opacity="0.2" d="M386 352C376.6 351.1 367.4 343.6 353.1 343.1C336.4 342.6 322.3 370.6 300.2 370.6C291 370.7 281.9 368.3 273.9 363.6C278.2 369.2 287.4 374.4 298.7 379C310.6 383.9 321.4 386.6 337.9 386.9C355.3 387.3 371.6 378.3 380.4 363.3C382.5 359.7 383.6 355.7 385.8 352.2L386 352Z" fill="black"/>
<path opacity="0.2" d="M414.6 279.5C414.6 279.5 441 226.6 442.7 226.1C444.4 225.6 446.5 227.7 446.5 231.5C446.5 235.3 419 288.3 419 288.3L414.6 279.5Z" fill="black"/>
</g>
<path d="M385.9 352.1C383.7 355.6 382.6 359.7 380.5 363.2C371.7 378.2 355.4 387.2 338 386.8C321.5 386.6 310.6 383.8 298.8 378.9C287 374 277.4 368.5 273.4 362.6C269.4 356.7 254.9 341.9 248.2 334C241.5 326.1 242.1 324.9 237.2 323.2C232.3 321.5 234.7 316 241 311.5C247.3 307 254.8 310.4 258.2 314.5C261.6 318.6 271.3 323.4 284.5 330.6C297.7 337.8 313.8 339.5 323.9 336.3C334 333.1 337.5 322.7 337.7 311.9C337.9 301.1 334.5 290.9 324.6 277.5C314.7 264.1 306.2 256.3 308.3 246.1C310.4 235.9 324.8 218.1 331 219.8C337.2 221.5 345.8 236.1 369.8 241.8C393.8 247.5 412.4 246.2 414.1 244.8C415.8 243.4 426 226.2 432.3 223.2C438.6 220.2 445.2 226 444.8 230.4C444.4 234.8 422.1 280.2 419.1 288C416.1 295.8 389.4 346.3 389.4 346.3L385.9 352.1Z" stroke="#263238" stroke-linecap="round" stroke-linejoin="round"/>
<path d="M413.9 245.1C413.9 245.1 404.4 262.5 403.9 264.2Z" fill="white"/>
<path d="M413.9 245.1C413.9 245.1 404.4 262.5 403.9 264.2" stroke="#263238" stroke-linecap="round" stroke-linejoin="round"/>
<path d="M293.7 283.8C293.7 283.8 292.5 283.8 289.2 282.4C285.9 281 284 279.5 281.2 279.4C278.4 279.3 271.1 285.3 271.1 288.6C271.1 291.9 282 292 285.7 292.1C289.4 292.2 293.7 292.5 294.5 292.2C295.3 291.9 295.3 284.2 294.6 283.9C294.4 283.8 294 283.7 293.7 283.8Z" fill="white" stroke="#263238" stroke-linecap="round" stroke-linejoin="round"/>
<path d="M297.6 283L292.8 283.4C293.4 285.7 293.7 288.1 293.7 290.5C293.7 293.4 293.3 296.3 292.5 299.1L298.9 299C298.9 299 301.9 291.6 301.9 288.5C301.9 285.4 297.6 283 297.6 283Z" fill="white" stroke="#263238" stroke-linecap="round" stroke-linejoin="round"/>
<path d="M349.1 254.6C349.1 254.6 338.3 268.4 334.6 273.1C330.9 277.8 323.4 280.8 322.5 281.2C321.6 281.6 297.6 283 297.6 283C298.8 285.4 299.2 288.1 298.9 290.7C298.4 295.4 297.3 300.2 297.3 300.2C297.3 300.2 302.8 300.6 311.9 298.7C321 296.8 326.2 298.4 331.5 293.7C336.8 289 346.7 264.8 348.6 260.5C350.5 256.2 351.4 253.8 349.1 254.6Z" fill="#263238" stroke="#263238" stroke-linecap="round" stroke-linejoin="round"/>
<path d="M222.2 395.8C222.2 395.8 216.1 401.1 209.7 406.6C203.3 412.1 190.2 416.4 183 417.8C175.8 419.2 167.7 419.9 167.1 421.2C166.5 422.5 165.8 424.4 171.3 425.9C177.4 427.6 183.5 428.9 189.7 429.9C195.4 430.8 198.2 430.3 200.9 429.5C203 428.9 205.1 428.5 207.3 428.2L206.7 431.2C206.7 431.2 209.7 431.8 217.7 431.6C225.7 431.4 227.9 431.2 228.7 429.9C229.2 429 229.5 428 229.5 426.9C229.5 426.9 233.3 418.6 232.9 414.8C232.7 412.7 232.1 410.7 231.2 408.9L235.9 401.1L222.2 395.8Z" fill="white" stroke="#263238" stroke-linecap="round" stroke-linejoin="round"/>
<path d="M233 414.9C232.8 413 232.3 411.2 231.6 409.5C227.2 410.4 222.7 411 218.2 411.3C218.2 411.3 220.8 407.3 219.1 404.5C217.4 401.7 213.2 403.9 213.2 403.9H212.9L209.8 406.6C203.4 412.1 190.3 416.4 183.1 417.8C175.9 419.2 167.8 419.9 167.2 421.2C166.6 422.5 165.9 424.4 171.4 425.9C177.5 427.6 183.6 428.9 189.8 429.9C195.5 430.8 198.3 430.3 201 429.5C203.1 428.9 205.2 428.5 207.4 428.2L206.8 431.2C206.8 431.2 209.8 431.8 217.8 431.6C225.8 431.4 228 431.2 228.8 429.9C229.3 429 229.6 428 229.6 426.9C229.6 426.9 233.5 418.7 233 414.9Z" fill="#263238" stroke="#263238" stroke-linecap="round" stroke-linejoin="round"/>
<path d="M168.2 422.7C175.9 426 184.2 427.8 192.6 428C205.5 428 204.3 427.1 208.9 427.1C213.5 427.1 222.7 428.4 227.8 426.2" stroke="white" stroke-linecap="round" stroke-linejoin="round"/>
<path d="M258 314.6C258 314.6 255.5 313.3 253.1 319.7C250.7 326.1 226 371.6 222 378.2C218.7 383.3 215.1 388.2 211.2 392.8C211.2 392.8 218.8 399.2 224.6 402.3C228.4 404.3 232.3 406.1 236.3 407.6C236.3 407.6 250.3 382.2 257.1 368.8C263.9 355.4 276.6 333.2 276.6 333.2C276.6 333.2 279.8 326.6 271.3 320.3C262.8 314 258 314.6 258 314.6Z" fill="#263238" stroke="#263238" stroke-linecap="round" stroke-linejoin="round"/>
<path d="M333.5 329.4C333.5 329.4 325 328.1 315 317.3C305 306.5 301.2 303.8 301.2 303.8C301.2 303.8 292.7 293.1 284.4 288.8C276.1 284.5 266.8 285.2 261.5 297.7C256.2 310.2 242.6 352.2 241.1 360.2C239.6 368.2 238.3 373.3 239 374.8C239.7 376.3 247.7 378.6 253.4 380.3C259.1 382 259.1 381.4 260.4 379.2C261.7 377 276.5 339.1 276.5 339.1C276.5 339.1 287.1 355.9 303.9 359.2C320.7 362.5 329.8 360.1 339.5 355.8C349.2 351.5 359 344.8 356.5 337.3C354 329.8 333.5 329.4 333.5 329.4Z" fill="#263238" stroke="#263238" stroke-linecap="round" stroke-linejoin="round"/>
<path d="M247.4 361.9C247.4 361.9 260.3 335.6 263.5 322.3" stroke="white" stroke-linecap="round" stroke-linejoin="round"/>
<path d="M276.7 339.4C276.7 339.4 286.5 307 287.1 302.1" stroke="white" stroke-linecap="round" stroke-linejoin="round"/>
<path d="M283.5 317.1C283.5 317.1 310.9 324.5 327 329.6" stroke="white" stroke-linecap="round" stroke-linejoin="round"/>
<path d="M305.3 311.1C305.3 311.1 328.3 332.6 337.1 336.1" stroke="white" stroke-linecap="round" stroke-linejoin="round"/>
<path d="M383.1 259.6L382.5 259.5C379.3 259.1 364.8 257.5 359.9 256.2C354.4 254.7 350.7 252.8 349.1 254.6C347.5 256.4 327.5 296.5 327.4 298.5C327.3 300.5 332.5 308.4 332 310.4C331.5 312.4 327.3 315.4 327 317.1C326.9 317.9 326.7 318.7 326.4 319.4C326.3 319.7 326.1 320.7 326.1 320.7C326.1 320.7 314.2 313.1 308.5 308.9C302.8 304.7 301 303.6 301.4 303.9C301.8 304.2 306.7 315.1 316.7 321.8C326.7 328.5 331 330.9 338 333.8C345 336.7 362.5 343.4 364.6 343.8C366.7 344.2 371.4 345.9 377.1 341C382.8 336.1 420.9 283 420.8 281.3C420.7 279.6 401.7 266 398 264.5C394.3 263 383 259.5 383 259.5" fill="#263238"/>
<path d="M383.1 259.6L382.5 259.5C379.3 259.1 364.8 257.5 359.9 256.2C354.4 254.7 350.7 252.8 349.1 254.6C347.5 256.4 327.5 296.5 327.4 298.5C327.3 300.5 332.5 308.4 332 310.4C331.5 312.4 327.3 315.4 327 317.1C326.9 317.9 326.7 318.7 326.4 319.4C326.3 319.7 326.1 320.7 326.1 320.7C326.1 320.7 314.2 313.1 308.5 308.9C302.8 304.7 301 303.6 301.4 303.9C301.8 304.2 306.7 315.1 316.7 321.8C326.7 328.5 331 330.9 338 333.8C345 336.7 362.5 343.4 364.6 343.8C366.7 344.2 371.4 345.9 377.1 341C382.8 336.1 420.9 283 420.8 281.3C420.7 279.6 401.7 266 398 264.5C394.3 263 383 259.5 383 259.5" stroke="#263238" stroke-linecap="round" stroke-linejoin="round"/>
<path d="M343.9 318.6C344.2 319.8 343.5 321.1 342.3 321.4C341.1 321.7 339.8 321 339.5 319.8C339.2 318.6 339.9 317.3 341.1 317C341.3 316.9 341.5 316.9 341.7 316.9C342.8 316.8 343.8 317.5 343.9 318.6Z" fill="white" stroke="#263238" stroke-linecap="round" stroke-linejoin="round"/>
<path d="M339.2 323.3C339.5 324.5 338.8 325.8 337.6 326.1C336.4 326.4 335.1 325.7 334.8 324.5C334.5 323.3 335.2 322 336.4 321.7C336.6 321.6 336.8 321.6 337 321.6C338.1 321.5 339.1 322.2 339.2 323.3Z" fill="white" stroke="#263238" stroke-linecap="round" stroke-linejoin="round"/>
<path d="M375.2 266.7C375.2 266.7 363.3 275 355.2 283.2C347.1 291.4 337.6 300.7 337.4 302.7C337.2 304.7 341.6 309.3 341.8 310.3C342.3 312.2 342.9 314.2 343.6 316L357.6 307.2L397.9 265.4C397.9 265.4 387.3 264.9 381.6 265.1C375.9 265.3 375.2 266.7 375.2 266.7Z" fill="white" stroke="#263238" stroke-linecap="round" stroke-linejoin="round"/>
<path d="M370.8 277L370.5 280.8C370.5 280.8 355.2 293.8 352.9 296.1C350.6 298.4 346.4 301.9 346.1 303.3C345.8 304.7 346.2 307.2 345 309.4C344.3 310.7 343.6 311.9 342.8 313.1L343.4 316.1L354.2 309.1C354.2 309.1 362.1 298.3 365.8 293C368.3 289.3 370.6 285.4 372.6 281.4L379.2 278.8L378.8 270.8L370.8 277Z" fill="#FFC703" stroke="#263238" stroke-linecap="round" stroke-linejoin="round"/>
<path d="M376 274.7L366.7 279.9L372.9 266.9C372.9 266.9 377.7 263 377.7 265.4C377.7 267.8 376 274.7 376 274.7Z" fill="white" stroke="#263238" stroke-linecap="round" stroke-linejoin="round"/>
<path d="M375.1 240.6H376.8" stroke="#263238" stroke-linecap="round" stroke-linejoin="round"/>
<path d="M371.9 224.1C371.9 224.1 367.9 229.2 367.7 230.5C367.5 231.8 368.9 234.5 369 235.5C369.1 236.5 370.4 235.8 371 233.7C371.6 231.6 374.5 224.8 374.5 224.8C374.5 224.8 373.7 222.1 371.9 224.1Z" fill="#263238" stroke="#263238" stroke-linecap="round" stroke-linejoin="round"/>
<path d="M371.3 227.4C371.3 227.4 369.5 233.2 368.6 237.4C367.7 241.9 367.5 246.6 368.1 251.2C368.7 255.3 369.5 266.1 369.9 267.3C370.3 268.5 372.9 269.1 374.3 269.3C375 269.4 375.8 269.3 376.4 269C376.4 269 375.2 274.7 376 274.7C376.8 274.7 394 264.7 395.4 263.8C396.8 262.9 398.3 253.6 398.3 253.6L402.1 250.3C402.9 249.7 403.6 248.9 403.9 248C404.2 246.3 405.2 243.2 404.9 241.7C404.7 240.4 403.9 239.4 402.7 238.9C402.7 238.9 406.2 227.5 405.6 224.2C405.6 224.2 406.8 220.3 398.3 217.7C389.8 215.1 377.4 215.3 373.4 218.6C369.4 221.9 370.4 224.2 371.1 225L371.9 225.8L371.3 227.4Z" fill="white" stroke="#263238" stroke-linecap="round" stroke-linejoin="round"/>
<path d="M398.3 217.7C389.8 215.1 377.4 215.3 373.4 218.6C369.4 221.9 370.4 224.2 371.1 225L371.9 225.8C374.3 227.7 377.3 228.7 380.4 228.5C385.6 228.2 392.8 225 396.8 225C400.8 225 398.5 229 395.6 231.1C392.7 233.2 393.8 234.1 396.1 235.8C398.4 237.5 397.5 238.8 396.9 240.7C396.3 242.6 398.9 243.1 399.8 242.2C400.4 241.4 401 240.5 401.5 239.6C401.9 239.2 402.3 239 402.9 239C402.9 239 406.4 227.6 405.8 224.3C405.6 224.2 406.8 220.3 398.3 217.7Z" fill="#263238" stroke="#263238" stroke-linecap="round" stroke-linejoin="round"/>
<path d="M376.5 255.7L371.6 254.4L375.6 245.5V240.2" stroke="#263238" stroke-linecap="round" stroke-linejoin="round"/>
<path d="M372.8 260.1L377.2 260.5" stroke="#263238" stroke-linecap="round" stroke-linejoin="round"/>
<path d="M376.5 269C376.5 269 391.5 262.3 393.3 261C395.1 259.7 396.9 254.3 396.9 254.3" stroke="#263238" stroke-linecap="round" stroke-linejoin="round"/>
<path d="M376.8 240.6H386.6C388.6 240.6 390.3 242.3 390.3 244.3V245.3C390.3 248 388.1 250.1 385.5 250.1H381.6C378.9 250.1 376.8 247.9 376.8 245.3V240.6Z" fill="#263238" stroke="#263238" stroke-linecap="round" stroke-linejoin="round"/>
<path d="M370.8 249.2H367.3C364.9 249.2 363 247.3 363 244.9V244C363 242.2 364.5 240.7 366.3 240.7H375.1V244.9C375.2 247.2 373.3 249.2 370.8 249.2Z" fill="#263238" stroke="#263238" stroke-linecap="round" stroke-linejoin="round"/>
<path d="M386.1 240.6L401.3 239.2L401 240L390.3 242.3C390.3 242.3 387.5 240.6 386.1 240.6Z" fill="#263238" stroke="#263238" stroke-linecap="round" stroke-linejoin="round"/>
<path d="M403.7 244.9C403.7 244.9 403.8 242 402.6 241.7C401.4 241.4 399.2 244.9 398.9 245.3C398.6 245.7 400 245.2 400.2 246.4C400.4 247.6 399.5 247.6 399.2 248.1" stroke="#263238" stroke-linecap="round" stroke-linejoin="round"/>
<path d="M398.8 245.2C398.8 245.2 400.1 243.1 401.5 244.7C402.3 245.6 402.4 247 401.8 248" stroke="#263238" stroke-linecap="round" stroke-linejoin="round"/>
<path d="M378.9 239.8C378.9 239.8 383.7 237.3 386.3 237.4C388.9 237.5 389.6 238.9 389.6 238.9C389.6 238.9 387.2 237.6 385.7 238.2C384.2 238.8 381.7 240.3 380.2 240.4C378.7 240.5 378.9 239.8 378.9 239.8Z" fill="#263238" stroke="#263238" stroke-linecap="round" stroke-linejoin="round"/>
<path d="M374.3 239.7C373.3 239.3 372.3 239 371.2 238.8C368.3 238.2 367.8 238.4 368.4 238.7C370 239.3 371.6 239.8 373.3 240.2C375.1 240.6 374.3 239.7 374.3 239.7Z" fill="#263238" stroke="#263238" stroke-linecap="round" stroke-linejoin="round"/>
<path d="M377.6 274.1L378.4 284.4L398.8 264.9L396.4 262.2L377.6 274.1Z" fill="white" stroke="#263238" stroke-linecap="round" stroke-linejoin="round"/>
<path d="M269.4 283.2C269.4 283.2 267.1 285 267 286.1C266.9 287.2 269.9 292.2 271 293C272.1 293.8 271.9 293.9 272.3 292.9C272.7 291.9 270.4 283.5 270.2 282.9C270 282.3 269.4 283.2 269.4 283.2Z" fill="white" stroke="#263238" stroke-linecap="round" stroke-linejoin="round"/>
<path d="M273 279.6C273 279.6 270.1 279.6 269.3 280.8C268.5 282 269.1 283.6 269.7 285.5C270.3 287.4 271.5 291.9 272.2 292.9C272.9 293.9 274.8 294.3 275.1 292.6C275.4 290.9 274.4 282.2 274.1 280.8C273.8 279.4 273 279.6 273 279.6Z" fill="white" stroke="#263238" stroke-linecap="round" stroke-linejoin="round"/>
<path d="M280.5 279C280.5 279 275.6 276.6 274.6 276.6C273.6 276.6 272.4 278.1 272.4 280.1C272.4 282.1 273.6 289.1 273.7 290.6C273.8 292.1 274.5 293.6 275.4 293.2C276.3 292.8 276.9 292.6 277.4 290.4C277.8 287.5 278.1 284.6 278.3 281.7" fill="white"/>
<path d="M280.5 279C280.5 279 275.6 276.6 274.6 276.6C273.6 276.6 272.4 278.1 272.4 280.1C272.4 282.1 273.6 289.1 273.7 290.6C273.8 292.1 274.5 293.6 275.4 293.2C276.3 292.8 276.9 292.6 277.4 290.4C277.8 287.5 278.1 284.6 278.3 281.7" stroke="#263238" stroke-linecap="round" stroke-linejoin="round"/>
<path d="M288.6 286.6L283 294.8C283 294.8 283.5 296.9 285 296.3C286.5 295.7 288.6 293.3 290.2 291.6C291.8 289.9 292.7 289.8 292.1 288.2C291.5 287.1 290.7 286.2 289.6 285.7C289.6 285.7 287.1 281.2 284.3 279.5C281.5 277.8 280.4 277.6 279.3 279.3C278.2 281 276.8 290.8 276.8 292.8C276.8 294.8 277.8 295.8 278.6 295.2C279.4 294.6 280.7 292.4 281.1 290.7C281.5 289 284.1 282.7 284.1 282.7" fill="white"/>
<path d="M288.6 286.6L283 294.8C283 294.8 283.5 296.9 285 296.3C286.5 295.7 288.6 293.3 290.2 291.6C291.8 289.9 292.7 289.8 292.1 288.2C291.5 287.1 290.7 286.2 289.6 285.7C289.6 285.7 287.1 281.2 284.3 279.5C281.5 277.8 280.4 277.6 279.3 279.3C278.2 281 276.8 290.8 276.8 292.8C276.8 294.8 277.8 295.8 278.6 295.2C279.4 294.6 280.7 292.4 281.1 290.7C281.5 289 284.1 282.7 284.1 282.7" stroke="#263238" stroke-linecap="round" stroke-linejoin="round"/>
<path d="M239.2 375L247.5 361.9L257 375.9C256.1 378.1 255.4 380.4 254.9 382.7C254.5 385.2 254.3 390.1 253.4 390.7C252.5 391.3 245.3 390.7 241.1 388.8C236.9 386.9 237.3 383.7 237.7 381.2C238.1 378.7 239.2 375 239.2 375Z" fill="white" stroke="#263238" stroke-linecap="round" stroke-linejoin="round"/>
<path d="M251.1 384.1C251.1 384.1 251.9 379 247.7 378C243.5 377 238.8 376.9 237.5 378.9C236.2 380.9 233.1 385.9 231.8 386.1C230.5 386.3 215.7 382.3 212.1 381.2C208.5 380.1 208.5 385.9 209.5 389.5C210.5 393.1 218.6 398.8 223.5 400.5C228.4 402.2 233.3 403.5 233.3 403.5L232.9 405C232.9 405 248.6 409.2 250.1 409.2C251.6 409.2 252 406.2 252 406.2C252 406.2 256.5 404.3 256.5 400.1C256.5 395.9 256.7 387.8 256.7 387.8C256.7 387.8 254 384.4 251.1 384.1Z" fill="#263238" stroke="#263238" stroke-linecap="round" stroke-linejoin="round"/>
<path d="M249.1 404.1C247.3 403.3 245.5 402.6 243.6 402C243.6 402 241.5 402.6 240.4 402.9C239.3 403.2 238.3 402.9 233.4 399.1C228.5 395.3 216 386.4 212.4 384.5C210.2 383.4 209.3 385.1 208.9 386.7C209 387.7 209.2 388.6 209.4 389.6C210.5 393.2 218.5 398.9 223.4 400.6C228.3 402.3 233.2 403.6 233.2 403.6L232.8 405.1C232.8 405.1 248.5 409.3 250 409.3C251.5 409.3 251.9 406.3 251.9 406.3C251.2 405.2 250.2 404.5 249.1 404.1Z" fill="white" stroke="#263238" stroke-linecap="round" stroke-linejoin="round"/>
<path d="M240.7 407L241.3 403.4H233.2L232.8 404.9L240.7 407Z" fill="#263238" stroke="#263238" stroke-linecap="round" stroke-linejoin="round"/>
<path d="M276.5 351.5C276.5 351.5 280.7 359.6 293.7 360.4C306.7 361.2 317.9 358.9 324.2 352.5C330.5 346.1 334 338.1 341.6 333.8C349.2 329.5 355 333.2 366.4 336.1C377.8 339 382.9 337.4 382.9 337.4C382.9 337.4 390.5 337 392.9 333.6C395.3 330.2 395.7 325.6 398 327.9C400.3 330.2 403.3 345.3 400.1 351.4C396.9 357.5 396.7 358.8 377 354.4C357.3 350 356.4 348.3 350.9 351.7C345.4 355.1 339.2 365.3 327.4 370.8C313.7 377.2 300.9 376.4 289 373.9C277.1 371.4 270.8 359.7 270.8 359.7" fill="#4F4FDE"/>
<path d="M276.5 351.5C276.5 351.5 280.7 359.6 293.7 360.4C306.7 361.2 317.9 358.9 324.2 352.5C330.5 346.1 334 338.1 341.6 333.8C349.2 329.5 355 333.2 366.4 336.1C377.8 339 382.9 337.4 382.9 337.4C382.9 337.4 390.5 337 392.9 333.6C395.3 330.2 395.7 325.6 398 327.9C400.3 330.2 403.3 345.3 400.1 351.4C396.9 357.5 396.7 358.8 377 354.4C357.3 350 356.4 348.3 350.9 351.7C345.4 355.1 339.2 365.3 327.4 370.8C313.7 377.2 300.9 376.4 289 373.9C277.1 371.4 270.8 359.7 270.8 359.7" stroke="#263238" stroke-linecap="round" stroke-linejoin="round"/>
<path d="M357.6 296.9C357.6 296.9 354.4 293.8 352.2 291.3C350.3 289.2 348.9 286.8 347.9 284.2C346.6 280.9 345.1 278.3 343.4 278.9C341.7 279.5 335.7 278.8 335 280C334.3 281.2 330.2 286.8 329.9 288.1C329.6 289.4 332 291 332.9 292C333.8 293 335 293.9 335.8 293.9C336.6 293.9 337.6 292.3 337.6 292.3C338.6 293.5 339.7 294.6 340.9 295.6C342 296.2 343.3 296.6 344.6 296.7L351.6 304.3L357.6 296.9Z" fill="white" stroke="#263238" stroke-linecap="round" stroke-linejoin="round"/>
<path d="M346.5 299L353.3 292.7L355.1 294.4L348.2 300.6L346.5 299Z" fill="#263238" stroke="#263238" stroke-linecap="round" stroke-linejoin="round"/>
<path d="M337.7 292.4L334.8 291.4" stroke="#263238" stroke-linecap="round" stroke-linejoin="round"/>
<path d="M356 294.1C356 295.5 354.9 296.7 353.5 296.7C352.1 296.7 350.9 295.6 350.9 294.2C350.9 292.8 352 291.6 353.4 291.6C353.4 291.6 353.4 291.6 353.5 291.6C354.8 291.5 356 292.7 356 294.1Z" fill="white" stroke="#263238" stroke-linecap="round" stroke-linejoin="round"/>
<path d="M413 275.4C413 275.4 417.5 277.5 419.4 279.4C421.3 281.3 422.6 282.6 421.1 287C419.6 291.4 393.1 338.5 391.4 341.1C389.7 343.7 386.1 345.3 383.1 343.6C380.1 341.9 347.3 305.2 347.3 305.2L358.1 294.8L380 314L398.2 286.6" fill="#263238"/>
<path d="M413 275.4C413 275.4 417.5 277.5 419.4 279.4C421.3 281.3 422.6 282.6 421.1 287C419.6 291.4 393.1 338.5 391.4 341.1C389.7 343.7 386.1 345.3 383.1 343.6C380.1 341.9 347.3 305.2 347.3 305.2L358.1 294.8L380 314L398.2 286.6" stroke="#263238" stroke-linecap="round" stroke-linejoin="round"/>
<path d="M392.6 323.1L380 314L393.6 317.2" stroke="white" stroke-linecap="round" stroke-linejoin="round"/>
<path d="M365.1 301.3L380 314L395.9 288.8" stroke="white" stroke-linecap="round" stroke-linejoin="round"/>
</svg>
