<?xml version="1.0" encoding="utf-8"?>
<!-- Generator: Adobe Illustrator 27.1.1, SVG Export Plug-In . SVG Version: 6.00 Build 0)  -->
<svg version="1.1" id="Layer_1" xmlns="http://www.w3.org/2000/svg" xmlns:xlink="http://www.w3.org/1999/xlink" x="0px" y="0px"
	 viewBox="0 0 500 500" style="enable-background:new 0 0 500 500;" xml:space="preserve">
<style type="text/css">
	.st0{display:none;}
	.st1{display:inline;fill:#4F4FDE;}
	.st2{display:inline;opacity:0.7;fill:#FFFFFF;enable-background:new    ;}
	.st3{fill:#787878;}
	.st4{fill:#FFFFFF;}
	.st5{opacity:0.4;fill:#4F4FDE;}
	.st6{fill:#949494;stroke:#263238;stroke-width:0.8886;stroke-linecap:round;stroke-linejoin:round;}
	.st7{fill:#6E6E6E;stroke:#263238;stroke-width:0.8886;stroke-linecap:round;stroke-linejoin:round;}
	.st8{fill:#FFFFFF;stroke:#263238;stroke-width:0.8886;stroke-linecap:round;stroke-linejoin:round;}
	.st9{fill:#666666;stroke:#263238;stroke-width:0.8886;stroke-linecap:round;stroke-linejoin:round;}
	.st10{fill:#FFFFFF;stroke:#263238;stroke-linecap:round;stroke-linejoin:round;}
	.st11{opacity:0.4;fill:#666666;enable-background:new    ;}
	.st12{fill:#FFC703;stroke:#919191;stroke-miterlimit:10;}
	.st13{fill:#666666;stroke:#263238;stroke-linecap:round;stroke-linejoin:round;}
	.st14{fill:none;stroke:#263238;stroke-linecap:round;stroke-linejoin:round;}
	.st15{fill:#263238;stroke:#263238;stroke-linecap:round;stroke-linejoin:round;}
	.st16{fill:#9C9C9C;}
	.st17{clip-path:url(#SVGID_00000043417931491091186970000017447939360528316590_);}
	.st18{fill:#4F4FDE;}
	.st19{opacity:0.5;fill:#FFFFFF;enable-background:new    ;}
	.st20{fill:none;stroke:#263238;stroke-miterlimit:10;}
	.st21{clip-path:url(#SVGID_00000120545095219667197690000015448165269253586305_);}
	.st22{opacity:0.2;enable-background:new    ;}
	.st23{fill:none;stroke:#FFFFFF;stroke-linecap:round;stroke-linejoin:round;}
	.st24{fill:#FFC703;stroke:#263238;stroke-linecap:round;stroke-linejoin:round;}
	.st25{fill:#4F4FDE;stroke:#263238;stroke-linecap:round;stroke-linejoin:round;}
</style>
<g id="freepik--background-simple--inject-125" class="st0">
	<path class="st1" d="M385.8,99.7c0,0-40.1-37.9-96.8-26.5s-83.3,57.6-117.5,88.2c-17.9,16-43,20.6-63.7,32.4
		C41.4,231.6,44,327.5,90.2,367c40,34.1,92.6,41.2,163,23.2s120.6-28.2,167.9-90.9S434.9,150.8,385.8,99.7z"/>
	<path class="st2" d="M385.8,99.7c0,0-40.1-37.9-96.8-26.5s-83.3,57.6-117.5,88.2c-17.9,16-43,20.6-63.7,32.4
		C41.4,231.6,44,327.5,90.2,367c40,34.1,92.6,41.2,163,23.2s120.6-28.2,167.9-90.9S434.9,150.8,385.8,99.7z"/>
</g>
<g id="freepik--Picture--inject-125">
	<rect x="181.2" y="86.7" class="st3" width="115.6" height="145.5"/>
	<rect x="187.3" y="94.3" class="st4" width="103.4" height="130.1"/>
	<polygon class="st5" points="208.6,199.6 220.7,178.6 233,157.6 244.8,136.7 247,133.3 247.8,136.7 251.7,150.3 247.4,157.6 
		235.5,178.6 223.1,199.6 237.7,199.6 250,178.6 256.1,167.7 259.3,178.6 264.8,199.6 277.9,199.6 272.3,178.6 266.6,157.6 
		265.2,152.1 274.1,136.7 261.2,136.7 260.5,135.1 256.1,117.9 255.3,115.7 242.6,115.7 242.3,115.9 230.4,136.7 218.5,157.6 
		206.2,178.6 194.2,199.6 	"/>
</g>
<g id="freepik--Bottle--inject-125">
	<polygon class="st6" points="310.1,196.6 304.1,196.6 302.3,197.7 302.3,199.8 304.1,200.9 310.1,200.9 311.9,199.8 311.9,197.7 	
		"/>
	<rect x="302.3" y="197.7" class="st7" width="9.6" height="2.1"/>
	<rect x="303.3" y="200.8" class="st8" width="7.5" height="1.1"/>
	<rect x="303.9" y="202" class="st8" width="6.2" height="11.6"/>
	<path class="st9" d="M318.2,242c-0.1-0.2-0.1-0.3-0.1-0.5c0.2-2.2,1.8-18.4,1.7-19.7s-2.3-1.9-5.5-3.6c-1.8-0.9-3.2-2.4-3.9-4.3
		l-1.2-0.5h-4.7l-1.2,0.5c-0.7,1.9-2.1,3.5-3.9,4.3c-3.2,1.7-5.3,2.2-5.5,3.6s1.4,17.5,1.7,19.7c0,0.2,0,0.3-0.1,0.5l-0.5,1.4
		c-0.2,0.4,0,0.9,0.3,1.2l0,0c0.2,0.2,0.5,0.3,0.7,0.3h21.5c0.3,0,0.5-0.1,0.7-0.3l0,0c0.4-0.3,0.5-0.8,0.3-1.2L318.2,242z"/>
	<path class="st8" d="M315,221.8h-16.2c-0.4,0-0.7,0.3-0.7,0.7l0,0v6.6c0,0.4,0.3,0.7,0.7,0.7l0,0h3.3c1.2,2.6,4.3,3.8,6.9,2.7
		c1.2-0.5,2.1-1.5,2.7-2.7h3.3c0.4,0,0.7-0.3,0.7-0.7l0,0v-6.6C315.7,222.1,315.4,221.8,315,221.8L315,221.8z"/>
	<path class="st8" d="M310.7,207.2h-7.5v1.1h0.3c-0.3,1.6-0.3,3.2,0,4.8h-0.3v1.1h7.5v-1.1h-0.3c0.3-1.6,0.3-3.2,0-4.8h0.3
		L310.7,207.2z"/>
	<polygon class="st10" points="295.4,244.2 281.7,244.2 278.8,227.7 298.3,227.7 	"/>
	<polygon class="st11" points="294,242.5 283.1,242.5 280.8,233.2 296.3,233.2 	"/>
</g>
<g id="freepik--Plants--inject-125">
	<polygon class="st12" points="141.1,215.1 128.1,196.6 141.6,211.3 137.8,195.4 142.4,203.8 134.8,172.2 146.2,201.2 138.6,154.6 
		147.4,187.4 148.3,167.2 152.5,183.6 158.8,154.6 156.7,196.2 162.6,182.8 160.5,200 167.6,189.9 159.2,208 168.5,200.8 
		158.4,217.2 140.7,217.6 	"/>
	<polygon class="st13" points="159.5,244.7 142.5,244.7 136.8,213.1 165.1,213.1 	"/>
</g>
<g id="freepik--Fireplace--inject-125">
	<line class="st14" x1="427.1" y1="401.1" x2="435.3" y2="401.1"/>
	<line class="st14" x1="63.3" y1="401.1" x2="416.8" y2="401.1"/>
	<line class="st14" x1="63.3" y1="383.7" x2="430.9" y2="383.7"/>
	<rect x="137.9" y="250.1" class="st10" width="202.2" height="150.6"/>
	<rect x="171.8" y="271.1" class="st10" width="134.5" height="108.6"/>
	<rect x="187.8" y="283.7" class="st15" width="102.5" height="83.4"/>
	<rect x="192.3" y="287.7" class="st16" width="93.4" height="75.4"/>
	<g>
		<defs>
			<rect id="SVGID_1_" x="192.3" y="287.7" width="93.4" height="75.4"/>
		</defs>
		<clipPath id="SVGID_00000162325434482649405940000011181216471749965977_">
			<use xlink:href="#SVGID_1_"  style="overflow:visible;"/>
		</clipPath>
		<g style="clip-path:url(#SVGID_00000162325434482649405940000011181216471749965977_);">
			<path class="st18" d="M195.5,342.7c0.2-3.4,1.5-6.7,3.9-9.1c3.9-3.9,10.9-2.1,15.6-5.2s4.7-9.1,4.7-9.1s1.3,2.1,3.1,4.4
				c1.1,1.5,1.7,3.3,1.8,5.2c0,0,7.6-0.3,7.3-9.9s-1.8-15.1,1.3-18l3.1-2.9c0,0-1.3,6.5,0.5,9.9s7,2.9,14.8,7.8
				c7.8,5,7.6,11.5,7.6,11.5c0.6-2,1.3-4,2.1-6c1-2.3,1-6.8,1-6.8s1,5.5,5.5,8.3s7.8,4.4,8.1,8.1s0.3,5.2,0.3,5.2l2.9-6.2
				c0,0,0.3-0.5,2.9,2.6s5,11.5,5,11.5v19.8h-95.8v-13.2C191.1,350.5,191.1,343,195.5,342.7z"/>
			<path class="st19" d="M195.5,342.7c0.2-3.4,1.5-6.7,3.9-9.1c3.9-3.9,10.9-2.1,15.6-5.2s4.7-9.1,4.7-9.1s1.3,2.1,3.1,4.4
				c1.1,1.5,1.7,3.3,1.8,5.2c0,0,7.6-0.3,7.3-9.9s-1.8-15.1,1.3-18l3.1-2.9c0,0-1.3,6.5,0.5,9.9s7,2.9,14.8,7.8
				c7.8,5,7.6,11.5,7.6,11.5c0.6-2,1.3-4,2.1-6c1-2.3,1-6.8,1-6.8s1,5.5,5.5,8.3s7.8,4.4,8.1,8.1s0.3,5.2,0.3,5.2l2.9-6.2
				c0,0,0.3-0.5,2.9,2.6s5,11.5,5,11.5v19.8h-95.8v-13.2C191.1,350.5,191.1,343,195.5,342.7z"/>
			<path class="st20" d="M206.1,344c0,0,34.4-14.1,37.8-14.6s5,1.6,5.2,2.9s0.3,4.2-1,4.4s-28.9,9.1-28.9,9.1"/>
			<line class="st20" x1="248.6" y1="338" x2="270.7" y2="344"/>
			<line class="st20" x1="237.4" y1="340.9" x2="262.4" y2="347.2"/>
		</g>
	</g>
	<rect x="192.3" y="287.7" class="st14" width="93.4" height="75.4"/>
	<rect x="192.3" y="287.7" class="st15" width="93.4" height="9"/>
	<rect x="129.8" y="247.6" class="st10" width="218.5" height="4.9"/>
	<rect x="125.2" y="244.4" class="st10" width="227.5" height="4.4"/>
	<rect x="129.8" y="400.3" class="st10" width="218.5" height="4.9"/>
	<rect x="125.2" y="404.1" class="st10" width="227.5" height="4.4"/>
	<rect x="192.3" y="348.5" class="st15" width="93.4" height="5"/>
	<rect x="197.8" y="345" class="st15" width="5.5" height="12.5"/>
	<rect x="223.4" y="345" class="st15" width="5.5" height="12.5"/>
	<rect x="249.1" y="345" class="st15" width="5.5" height="12.5"/>
	<rect x="274.8" y="345" class="st15" width="5.5" height="12.5"/>
</g>
<g id="freepik--Character--inject-125">
	<ellipse class="st18" cx="311.2" cy="428.7" rx="131.7" ry="17.5"/>
	<ellipse class="st19" cx="311.2" cy="428.7" rx="131.7" ry="17.5"/>
	<path class="st15" d="M323.8,414.2c0,0-55.5,8.3-56.4,8.7s-2.5,1.5-1.9,2.3s9.3,0,9.3,0l3-1.3l42.4-1.9l-18,18.9
		c0,0-1.3,1.9-0.6,2.5s3.2,1.1,3.6,0.4s1.5-2.5,1.5-2.5l23.5-18l42.4,6.6c0,0-0.4,0.9,1.1,1.3s7.4,2.5,7.6,1.3s0-3-1.7-3.4
		S328,414.7,328,414.7L323.8,414.2z"/>
	<path class="st15" d="M325.6,398.8h1c2.2,0,4,1.8,4,4v10.5c0,2.2-1.8,4-4,4h-1c-2.2,0-4-1.8-4-4v-10.5
		C321.6,400.5,323.4,398.8,325.6,398.8z"/>
	<path class="st15" d="M319.3,382h13.8l0,0v19.7c0,2.4-1.9,4.3-4.3,4.3h-5.2c-2.4,0-4.3-1.9-4.3-4.3L319.3,382L319.3,382z"/>
	<path class="st18" d="M385.9,352.1c-2.2,3.5-3.3,7.6-5.4,11.1c-8.8,15-25.1,24-42.5,23.6c-16.5-0.2-27.4-3-39.2-7.9
		s-21.4-10.4-25.4-16.3s-18.5-20.7-25.2-28.6s-6.1-9.1-11-10.8s-2.5-7.2,3.8-11.7s13.8-1.1,17.2,3s13.1,8.9,26.3,16.1
		s29.3,8.9,39.4,5.7s13.6-13.6,13.8-24.4s-3.2-21-13.1-34.4s-18.4-21.2-16.3-31.4s16.5-28,22.7-26.3s14.8,16.3,38.8,22
		s42.6,4.4,44.3,3s11.9-18.6,18.2-21.6s12.9,2.8,12.5,7.2s-22.7,49.8-25.7,57.6s-29.7,58.3-29.7,58.3L385.9,352.1z"/>
	<g>
		<defs>
			<path id="SVGID_00000013191494424054124100000006042634248923118229_" d="M385.9,352.1c-2.2,3.5-3.3,7.6-5.4,11.1
				c-8.8,15-25.1,24-42.5,23.6c-16.5-0.2-27.4-3-39.2-7.9s-21.4-10.4-25.4-16.3s-18.5-20.7-25.2-28.6s-6.1-9.1-11-10.8
				s-2.5-7.2,3.8-11.7s13.8-1.1,17.2,3s13.1,8.9,26.3,16.1s29.3,8.9,39.4,5.7s13.6-13.6,13.8-24.4s-3.2-21-13.1-34.4
				s-18.4-21.2-16.3-31.4s16.5-28,22.7-26.3s14.8,16.3,38.8,22s42.6,4.4,44.3,3s11.9-18.6,18.2-21.6s12.9,2.8,12.5,7.2
				s-22.7,49.8-25.7,57.6s-29.7,58.3-29.7,58.3L385.9,352.1z"/>
		</defs>
		<clipPath id="SVGID_00000128462929002477140250000016668372704642727602_">
			<use xlink:href="#SVGID_00000013191494424054124100000006042634248923118229_"  style="overflow:visible;"/>
		</clipPath>
		<g style="clip-path:url(#SVGID_00000128462929002477140250000016668372704642727602_);">
			<path class="st22" d="M386,352c-9.4-0.9-18.6-8.4-32.9-8.9c-16.7-0.5-30.8,27.5-52.9,27.5c-9.2,0.1-18.3-2.3-26.3-7
				c4.3,5.6,13.5,10.8,24.8,15.4c11.9,4.9,22.7,7.6,39.2,7.9c17.4,0.4,33.7-8.6,42.5-23.6c2.1-3.6,3.2-7.6,5.4-11.1L386,352z"/>
			<path class="st22" d="M414.6,279.5c0,0,26.4-52.9,28.1-53.4s3.8,1.6,3.8,5.4S419,288.3,419,288.3L414.6,279.5z"/>
		</g>
	</g>
	<path class="st14" d="M385.9,352.1c-2.2,3.5-3.3,7.6-5.4,11.1c-8.8,15-25.1,24-42.5,23.6c-16.5-0.2-27.4-3-39.2-7.9
		s-21.4-10.4-25.4-16.3s-18.5-20.7-25.2-28.6s-6.1-9.1-11-10.8s-2.5-7.2,3.8-11.7s13.8-1.1,17.2,3s13.1,8.9,26.3,16.1
		s29.3,8.9,39.4,5.7s13.6-13.6,13.8-24.4s-3.2-21-13.1-34.4s-18.4-21.2-16.3-31.4s16.5-28,22.7-26.3s14.8,16.3,38.8,22
		s42.6,4.4,44.3,3s11.9-18.6,18.2-21.6s12.9,2.8,12.5,7.2s-22.7,49.8-25.7,57.6s-29.7,58.3-29.7,58.3L385.9,352.1z"/>
	<path class="st10" d="M413.9,245.1c0,0-9.5,17.4-10,19.1"/>
	<path class="st10" d="M293.7,283.8c0,0-1.2,0-4.5-1.4s-5.2-2.9-8-3s-10.1,5.9-10.1,9.2s10.9,3.4,14.6,3.5s8,0.4,8.8,0.1
		s0.8-8,0.1-8.3C294.4,283.8,294,283.7,293.7,283.8z"/>
	<path class="st10" d="M297.6,283l-4.8,0.4c0.6,2.3,0.9,4.7,0.9,7.1c0,2.9-0.4,5.8-1.2,8.6l6.4-0.1c0,0,3-7.4,3-10.5
		S297.6,283,297.6,283z"/>
	<path class="st15" d="M349.1,254.6c0,0-10.8,13.8-14.5,18.5s-11.2,7.7-12.1,8.1s-24.9,1.8-24.9,1.8c1.2,2.4,1.6,5.1,1.3,7.7
		c-0.5,4.7-1.6,9.5-1.6,9.5s5.5,0.4,14.6-1.5s14.3-0.3,19.6-5s15.2-28.9,17.1-33.2S351.4,253.8,349.1,254.6z"/>
	<path class="st10" d="M222.2,395.8c0,0-6.1,5.3-12.5,10.8s-19.5,9.8-26.7,11.2s-15.3,2.1-15.9,3.4s-1.3,3.2,4.2,4.7
		c6.1,1.7,12.2,3,18.4,4c5.7,0.9,8.5,0.4,11.2-0.4c2.1-0.6,4.2-1,6.4-1.3l-0.6,3c0,0,3,0.6,11,0.4s10.2-0.4,11-1.7
		c0.5-0.9,0.8-1.9,0.8-3c0,0,3.8-8.3,3.4-12.1c-0.2-2.1-0.8-4.1-1.7-5.9l4.7-7.8L222.2,395.8z"/>
	<path class="st15" d="M233,414.9c-0.2-1.9-0.7-3.7-1.4-5.4c-4.4,0.9-8.9,1.5-13.4,1.8c0,0,2.6-4,0.9-6.8s-5.9-0.6-5.9-0.6h-0.3
		l-3.1,2.7c-6.4,5.5-19.5,9.8-26.7,11.2s-15.3,2.1-15.9,3.4s-1.3,3.2,4.2,4.7c6.1,1.7,12.2,3,18.4,4c5.7,0.9,8.5,0.4,11.2-0.4
		c2.1-0.6,4.2-1,6.4-1.3l-0.6,3c0,0,3,0.6,11,0.4s10.2-0.4,11-1.7c0.5-0.9,0.8-1.9,0.8-3C229.6,426.9,233.5,418.7,233,414.9z"/>
	<path class="st23" d="M168.2,422.7c7.7,3.3,16,5.1,24.4,5.3c12.9,0,11.7-0.9,16.3-0.9s13.8,1.3,18.9-0.9"/>
	<path class="st15" d="M258,314.6c0,0-2.5-1.3-4.9,5.1S226,371.6,222,378.2c-3.3,5.1-6.9,10-10.8,14.6c0,0,7.6,6.4,13.4,9.5
		c3.8,2,7.7,3.8,11.7,5.3c0,0,14-25.4,20.8-38.8c6.8-13.4,19.5-35.6,19.5-35.6s3.2-6.6-5.3-12.9S258,314.6,258,314.6z"/>
	<path class="st15" d="M333.5,329.4c0,0-8.5-1.3-18.5-12.1s-13.8-13.5-13.8-13.5s-8.5-10.7-16.8-15s-17.6-3.6-22.9,8.9
		s-18.9,54.5-20.4,62.5s-2.8,13.1-2.1,14.6s8.7,3.8,14.4,5.5s5.7,1.1,7-1.1s16.1-40.1,16.1-40.1s10.6,16.8,27.4,20.1
		s25.9,0.9,35.6-3.4s19.5-11,17-18.5S333.5,329.4,333.5,329.4z"/>
	<path class="st23" d="M247.4,361.9c0,0,12.9-26.3,16.1-39.6"/>
	<path class="st23" d="M276.7,339.4c0,0,9.8-32.4,10.4-37.3"/>
	<path class="st23" d="M283.5,317.1c0,0,27.4,7.4,43.5,12.5"/>
	<path class="st23" d="M305.3,311.1c0,0,23,21.5,31.8,25"/>
	<path class="st15" d="M383.1,259.6l-0.6-0.1c-3.2-0.4-17.7-2-22.6-3.3c-5.5-1.5-9.2-3.4-10.8-1.6c-1.6,1.8-21.6,41.9-21.7,43.9
		s5.1,9.9,4.6,11.9s-4.7,5-5,6.7c-0.1,0.8-0.3,1.6-0.6,2.3c-0.1,0.3-0.3,1.3-0.3,1.3s-11.9-7.6-17.6-11.8s-7.5-5.3-7.1-5
		s5.3,11.2,15.3,17.9s14.3,9.1,21.3,12s24.5,9.6,26.6,10s6.8,2.1,12.5-2.8s43.8-58,43.7-59.7s-19.1-15.3-22.8-16.8s-15-5-15-5"/>
	<path class="st10" d="M343.9,318.6c0.3,1.2-0.4,2.5-1.6,2.8s-2.5-0.4-2.8-1.6s0.4-2.5,1.6-2.8c0.2-0.1,0.4-0.1,0.6-0.1
		C342.8,316.8,343.8,317.5,343.9,318.6z"/>
	<path class="st10" d="M339.2,323.3c0.3,1.2-0.4,2.5-1.6,2.8c-1.2,0.3-2.5-0.4-2.8-1.6c-0.3-1.2,0.4-2.5,1.6-2.8
		c0.2-0.1,0.4-0.1,0.6-0.1C338.1,321.5,339.1,322.2,339.2,323.3z"/>
	<path class="st10" d="M375.2,266.7c0,0-11.9,8.3-20,16.5s-17.6,17.5-17.8,19.5s4.2,6.6,4.4,7.6c0.5,1.9,1.1,3.9,1.8,5.7l14-8.8
		l40.3-41.8c0,0-10.6-0.5-16.3-0.3S375.2,266.7,375.2,266.7z"/>
	<path class="st24" d="M370.8,277l-0.3,3.8c0,0-15.3,13-17.6,15.3s-6.5,5.8-6.8,7.2s0.1,3.9-1.1,6.1c-0.7,1.3-1.4,2.5-2.2,3.7l0.6,3
		l10.8-7c0,0,7.9-10.8,11.6-16.1c2.5-3.7,4.8-7.6,6.8-11.6l6.6-2.6l-0.4-8L370.8,277z"/>
	<path class="st10" d="M376,274.7l-9.3,5.2l6.2-13c0,0,4.8-3.9,4.8-1.5S376,274.7,376,274.7z"/>
	<line class="st14" x1="375.1" y1="240.6" x2="376.8" y2="240.6"/>
	<path class="st15" d="M371.9,224.1c0,0-4,5.1-4.2,6.4s1.2,4,1.3,5s1.4,0.3,2-1.8s3.5-8.9,3.5-8.9S373.7,222.1,371.9,224.1z"/>
	<path class="st10" d="M371.3,227.4c0,0-1.8,5.8-2.7,10c-0.9,4.5-1.1,9.2-0.5,13.8c0.6,4.1,1.4,14.9,1.8,16.1s3,1.8,4.4,2
		c0.7,0.1,1.5,0,2.1-0.3c0,0-1.2,5.7-0.4,5.7s18-10,19.4-10.9s2.9-10.2,2.9-10.2l3.8-3.3c0.8-0.6,1.5-1.4,1.8-2.3
		c0.3-1.7,1.3-4.8,1-6.3c-0.2-1.3-1-2.3-2.2-2.8c0,0,3.5-11.4,2.9-14.7c0,0,1.2-3.9-7.3-6.5s-20.9-2.4-24.9,0.9s-3,5.6-2.3,6.4
		l0.8,0.8L371.3,227.4z"/>
	<path class="st15" d="M398.3,217.7c-8.5-2.6-20.9-2.4-24.9,0.9s-3,5.6-2.3,6.4l0.8,0.8c2.4,1.9,5.4,2.9,8.5,2.7
		c5.2-0.3,12.4-3.5,16.4-3.5s1.7,4-1.2,6.1s-1.8,3,0.5,4.7s1.4,3,0.8,4.9s2,2.4,2.9,1.5c0.6-0.8,1.2-1.7,1.7-2.6
		c0.4-0.4,0.8-0.6,1.4-0.6c0,0,3.5-11.4,2.9-14.7C405.6,224.2,406.8,220.3,398.3,217.7z"/>
	<polyline class="st14" points="376.5,255.7 371.6,254.4 375.6,245.5 375.6,240.2 	"/>
	<line class="st14" x1="372.8" y1="260.1" x2="377.2" y2="260.5"/>
	<path class="st14" d="M376.5,269c0,0,15-6.7,16.8-8s3.6-6.7,3.6-6.7"/>
	<path class="st15" d="M376.8,240.6h9.8c2,0,3.7,1.7,3.7,3.7l0,0v1c0,2.7-2.2,4.8-4.8,4.8l0,0h-3.9c-2.7,0-4.8-2.2-4.8-4.8v0V240.6
		L376.8,240.6L376.8,240.6z"/>
	<path class="st15" d="M370.8,249.2h-3.5c-2.4,0-4.3-1.9-4.3-4.3v0v-0.9c0-1.8,1.5-3.3,3.3-3.3h8.8l0,0v4.2
		C375.2,247.2,373.3,249.2,370.8,249.2L370.8,249.2L370.8,249.2z"/>
	<path class="st15" d="M386.1,240.6l15.2-1.4L401,240l-10.7,2.3C390.3,242.3,387.5,240.6,386.1,240.6z"/>
	<path class="st14" d="M403.7,244.9c0,0,0.1-2.9-1.1-3.2s-3.4,3.2-3.7,3.6s1.1-0.1,1.3,1.1s-0.7,1.2-1,1.7"/>
	<path class="st14" d="M398.8,245.2c0,0,1.3-2.1,2.7-0.5c0.8,0.9,0.9,2.3,0.3,3.3"/>
	<path class="st15" d="M378.9,239.8c0,0,4.8-2.5,7.4-2.4s3.3,1.5,3.3,1.5s-2.4-1.3-3.9-0.7s-4,2.1-5.5,2.2S378.9,239.8,378.9,239.8z
		"/>
	<path class="st15" d="M374.3,239.7c-1-0.4-2-0.7-3.1-0.9c-2.9-0.6-3.4-0.4-2.8-0.1c1.6,0.6,3.2,1.1,4.9,1.5
		C375.1,240.6,374.3,239.7,374.3,239.7z"/>
	<polygon class="st10" points="377.6,274.1 378.4,284.4 398.8,264.9 396.4,262.2 	"/>
	<path class="st10" d="M269.4,283.2c0,0-2.3,1.8-2.4,2.9s2.9,6.1,4,6.9s0.9,0.9,1.3-0.1s-1.9-9.4-2.1-10S269.4,283.2,269.4,283.2z"
		/>
	<path class="st10" d="M273,279.6c0,0-2.9,0-3.7,1.2s-0.2,2.8,0.4,4.7s1.8,6.4,2.5,7.4s2.6,1.4,2.9-0.3s-0.7-10.4-1-11.8
		S273,279.6,273,279.6z"/>
	<path class="st10" d="M280.5,279c0,0-4.9-2.4-5.9-2.4s-2.2,1.5-2.2,3.5s1.2,9,1.3,10.5s0.8,3,1.7,2.6s1.5-0.6,2-2.8
		c0.4-2.9,0.7-5.8,0.9-8.7"/>
	<path class="st10" d="M288.6,286.6l-5.6,8.2c0,0,0.5,2.1,2,1.5s3.6-3,5.2-4.7s2.5-1.8,1.9-3.4c-0.6-1.1-1.4-2-2.5-2.5
		c0,0-2.5-4.5-5.3-6.2s-3.9-1.9-5-0.2s-2.5,11.5-2.5,13.5s1,3,1.8,2.4s2.1-2.8,2.5-4.5s3-8,3-8"/>
	<path class="st10" d="M239.2,375l8.3-13.1l9.5,14c-0.9,2.2-1.6,4.5-2.1,6.8c-0.4,2.5-0.6,7.4-1.5,8s-8.1,0-12.3-1.9
		s-3.8-5.1-3.4-7.6S239.2,375,239.2,375z"/>
	<path class="st15" d="M251.1,384.1c0,0,0.8-5.1-3.4-6.1s-8.9-1.1-10.2,0.9s-4.4,7-5.7,7.2s-16.1-3.8-19.7-4.9s-3.6,4.7-2.6,8.3
		s9.1,9.3,14,11s9.8,3,9.8,3l-0.4,1.5c0,0,15.7,4.2,17.2,4.2s1.9-3,1.9-3s4.5-1.9,4.5-6.1s0.2-12.3,0.2-12.3S254,384.4,251.1,384.1z
		"/>
	<path class="st10" d="M249.1,404.1c-1.8-0.8-3.6-1.5-5.5-2.1c0,0-2.1,0.6-3.2,0.9s-2.1,0-7-3.8s-17.4-12.7-21-14.6
		c-2.2-1.1-3.1,0.6-3.5,2.2c0.1,1,0.3,1.9,0.5,2.9c1.1,3.6,9.1,9.3,14,11s9.8,3,9.8,3l-0.4,1.5c0,0,15.7,4.2,17.2,4.2s1.9-3,1.9-3
		C251.2,405.2,250.2,404.5,249.1,404.1z"/>
	<polygon class="st15" points="240.7,407 241.3,403.4 233.2,403.4 232.8,404.9 	"/>
	<path class="st25" d="M276.5,351.5c0,0,4.2,8.1,17.2,8.9s24.2-1.5,30.5-7.9s9.8-14.4,17.4-18.7s13.4-0.6,24.8,2.3
		s16.5,1.3,16.5,1.3s7.6-0.4,10-3.8s2.8-8,5.1-5.7s5.3,17.4,2.1,23.5s-3.4,7.4-23.1,3s-20.6-6.1-26.1-2.7s-11.7,13.6-23.5,19.1
		c-13.7,6.4-26.5,5.6-38.4,3.1s-18.2-14.2-18.2-14.2"/>
	<path class="st10" d="M357.6,296.9c0,0-3.2-3.1-5.4-5.6c-1.9-2.1-3.3-4.5-4.3-7.1c-1.3-3.3-2.8-5.9-4.5-5.3s-7.7-0.1-8.4,1.1
		s-4.8,6.8-5.1,8.1s2.1,2.9,3,3.9s2.1,1.9,2.9,1.9s1.8-1.6,1.8-1.6c1,1.2,2.1,2.3,3.3,3.3c1.1,0.6,2.4,1,3.7,1.1l7,7.6L357.6,296.9z
		"/>
	<polygon class="st15" points="346.5,299 353.3,292.7 355.1,294.4 348.2,300.6 	"/>
	<line class="st14" x1="337.7" y1="292.4" x2="334.8" y2="291.4"/>
	<path class="st10" d="M356,294.1c0,1.4-1.1,2.6-2.5,2.6c-1.4,0-2.6-1.1-2.6-2.5c0-1.4,1.1-2.6,2.5-2.6c0,0,0,0,0.1,0
		C354.8,291.5,356,292.7,356,294.1C356,294.1,356,294.1,356,294.1z"/>
	<path class="st15" d="M413,275.4c0,0,4.5,2.1,6.4,4s3.2,3.2,1.7,7.6s-28,51.5-29.7,54.1s-5.3,4.2-8.3,2.5s-35.8-38.4-35.8-38.4
		l10.8-10.4L380,314l18.2-27.4"/>
	<polyline class="st23" points="392.6,323.1 380,314 393.6,317.2 	"/>
	<polyline class="st23" points="365.1,301.3 380,314 395.9,288.8 	"/>
</g>
</svg>
