<?xml version="1.0" encoding="utf-8"?>
<!-- Generator: Adobe Illustrator 27.1.1, SVG Export Plug-In . SVG Version: 6.00 Build 0)  -->
<svg version="1.1" id="Layer_1" xmlns="http://www.w3.org/2000/svg" xmlns:xlink="http://www.w3.org/1999/xlink" x="0px" y="0px"
	 viewBox="0 0 500 500" style="enable-background:new 0 0 500 500;" xml:space="preserve">
<style type="text/css">
	.st0{display:none;}
	.st1{display:inline;fill:#4F4FDE;}
	.st2{display:inline;opacity:0.7;fill:#FFFFFF;enable-background:new    ;}
	.st3{fill:#4F4FDE;stroke:#2E353A;stroke-width:1.501;stroke-miterlimit:10;}
	.st4{fill:#FFFFFF;stroke:#2E353A;stroke-width:1.501;stroke-miterlimit:10;}
	.st5{fill:none;stroke:#2E353A;stroke-linecap:round;stroke-linejoin:round;}
	.st6{fill:#2E353A;}
	.st7{fill:#FFC703;}
	.st8{fill:none;stroke:#2E353A;stroke-width:1.501;stroke-linecap:round;stroke-linejoin:round;}
	.st9{fill:#4F4FDE;}
	.st10{opacity:0.5;fill:#FFFFFF;enable-background:new    ;}
	.st11{fill:none;stroke:#FFFFFF;stroke-width:1.727;stroke-linecap:round;stroke-linejoin:round;}
	.st12{opacity:0.3;fill:#FFFFFF;enable-background:new    ;}
	.st13{fill:#2E353A;stroke:#2E353A;stroke-miterlimit:10;}
	.st14{fill:none;stroke:#FFFFFF;stroke-miterlimit:10;}
	.st15{fill:#FFFFFF;stroke:#2E353A;stroke-miterlimit:10;}
	.st16{fill:#FFFFFF;stroke:#2E353A;stroke-linecap:round;stroke-linejoin:round;}
	.st17{fill:#4F4FDE;stroke:#2E353A;stroke-linecap:round;stroke-linejoin:round;}
	.st18{fill:#4F4FDE;stroke:#2E353A;stroke-miterlimit:10;}
	.st19{fill:#FFFFFF;}
	.st20{clip-path:url(#SVGID_00000005244741173675922860000007335265757439463844_);}
	.st21{opacity:0.5;fill:#4F4FDE;enable-background:new    ;}
	.st22{fill:none;stroke:#2E353A;stroke-miterlimit:10;}
</style>
<g id="freepik--background-simple--inject-1--inject-120" class="st0">
	<path class="st1" d="M77,100c0,0-21,12-24,42s30,72,35,110s-35,47-19,95s100,59,145,40s66-67,133-67s115-31,111-100s-19-90-73-130
		S143,32,77,100z"/>
	<path class="st2" d="M77,100c0,0-21,12-24,42s30,72,35,110s-35,47-19,95s100,59,145,40s66-67,133-67s115-31,111-100s-19-90-73-130
		S143,32,77,100z"/>
</g>
<g id="freepik--Window--inject-1--inject-120">
	<path class="st3" d="M92.3,78.5h310.3c5.4,0,9.8,4.4,9.8,9.8v219.1c0,5.4-4.4,9.8-9.8,9.8H92.3c-5.4,0-9.8-4.4-9.8-9.8V88.3
		C82.5,82.9,86.9,78.5,92.3,78.5z"/>
	<rect x="88.7" y="101.4" class="st4" width="317.5" height="201.1"/>
	<line class="st5" x1="105.3" y1="260" x2="199.8" y2="260"/>
	<line class="st5" x1="120.9" y1="269.3" x2="199.8" y2="269.3"/>
	<line class="st5" x1="105.3" y1="269.3" x2="112.8" y2="269.3"/>
	<line class="st5" x1="105.3" y1="278.7" x2="199.8" y2="278.7"/>
	<line class="st5" x1="192.9" y1="288.1" x2="199.8" y2="288.1"/>
	<line class="st5" x1="105.3" y1="288.1" x2="184.7" y2="288.1"/>
	<path class="st6" d="M107.9,117.9h216.9c3.1,0,5.7,2.5,5.7,5.7v62c0,3.1-2.5,5.7-5.7,5.7H107.9c-3.1,0-5.7-2.5-5.7-5.7v-62
		C102.2,120.4,104.8,117.9,107.9,117.9z"/>
	<path class="st6" d="M324.9,118.4c2.9,0,5.2,2.3,5.2,5.2c0,0,0,0,0,0v62c0,2.9-2.3,5.2-5.2,5.2c0,0,0,0,0,0h-217
		c-2.9,0-5.2-2.3-5.2-5.2l0,0v-62c0-2.9,2.3-5.2,5.2-5.2c0,0,0,0,0,0H324.9 M324.9,117.4h-217c-3.4,0-6.2,2.8-6.2,6.2v62
		c0,3.4,2.8,6.2,6.2,6.2h217c3.4,0,6.2-2.8,6.2-6.2v-62C331,120.2,328.3,117.4,324.9,117.4z"/>
	<path class="st7" d="M284.4,118.4c-4.6,4.8-12.3,5-17.1,0.4c-0.1-0.1-0.2-0.2-0.4-0.4h-5.2l0.1,0.2l-1.9,1.9
		c-0.7,0.7-0.7,1.9,0,2.7l2.5,2.5c0.7,0.7,1.9,0.7,2.6,0c0,0,0,0,0,0l1.9-1.9c1.5,1,3.2,1.7,5,2.1v2.7c0,1,0.8,1.9,1.9,1.9l0,0h3.5
		c1,0,1.9-0.8,1.9-1.9c0,0,0,0,0,0v-2.7c1.8-0.4,3.5-1.1,5-2.1l1.9,1.9c0.7,0.7,1.9,0.7,2.6,0c0,0,0,0,0,0l2.5-2.5
		c0.7-0.7,0.7-1.9,0-2.7l-1.9-1.9l0.1-0.2L284.4,118.4z"/>
	<path class="st7" d="M195.4,189.9h-2.7c-0.4-1.8-1.1-3.5-2.1-5l1.9-1.9c0.7-0.7,0.7-1.9,0-2.6c0,0,0,0,0,0l-2.5-2.5
		c-0.7-0.7-1.9-0.7-2.7,0c0,0,0,0,0,0l-1.9,1.9c-1.5-1-3.2-1.7-5-2.1v-2.7c0-1-0.9-1.9-1.9-1.9H175c-1,0-1.9,0.8-1.9,1.9v2.7
		c-1.8,0.4-3.5,1.1-5,2.1l-1.9-1.9c-0.7-0.7-1.9-0.7-2.6,0c0,0,0,0,0,0l-2.5,2.5c-0.7,0.7-0.7,1.9,0,2.6c0,0,0,0,0,0l1.9,1.9
		c-1,1.5-1.7,3.2-2.1,5h-2.7c-0.7,0-1.3,0.4-1.6,0.9h8.4c1.5-6.5,8-10.6,14.5-9.1c4.5,1,8.1,4.6,9.1,9.1h8.5
		C196.7,190.2,196,189.9,195.4,189.9z"/>
	<path class="st7" d="M105.5,168.3h3.5c1,0,1.9-0.8,1.9-1.9v-2.7c1.8-0.4,3.5-1.1,5-2.1l1.9,1.9c0.7,0.7,1.9,0.7,2.6,0c0,0,0,0,0,0
		l2.5-2.5c0.7-0.7,0.7-1.9,0-2.6c0,0,0,0,0,0l-1.9-1.9c1-1.5,1.7-3.2,2.1-5h2.7c1,0,1.9-0.8,1.9-1.9l0,0V146c0-1-0.8-1.9-1.9-1.9
		l0,0h-2.7c-0.4-1.8-1.1-3.5-2.1-5l1.9-1.9c0.7-0.7,0.7-1.9,0-2.6c0,0,0,0,0,0l-2.5-2.5c-0.7-0.7-1.9-0.7-2.7,0l-1.9,2
		c-1.5-1-3.2-1.7-5-2.1v-2.7c0-1-0.8-1.9-1.9-1.9c0,0,0,0-0.1,0h-3.5c-1,0-1.9,0.8-1.9,1.9l0,0v2.7c-0.3,0.1-0.6,0.2-0.9,0.2v4.4
		c1.1-0.4,2.2-0.7,3.3-0.8c6.7-0.7,12.7,4.1,13.4,10.7c0.7,6.7-4.1,12.7-10.7,13.4c-2,0.2-4.1-0.1-6-0.8v4.4
		c0.3,0.1,0.6,0.2,0.9,0.2v2.7C103.6,167.4,104.5,168.3,105.5,168.3C105.5,168.3,105.5,168.3,105.5,168.3z"/>
	<rect x="188.1" y="84.7" class="st4" width="157.8" height="9.7"/>
	<polyline class="st8" points="96.3,83.2 91.8,87.6 96.5,92.6 	"/>
	<line class="st8" x1="91.8" y1="87.6" x2="101.9" y2="87.6"/>
	<polyline class="st8" points="122.1,83.2 126.7,87.6 121.9,92.6 	"/>
	<line class="st8" x1="126.7" y1="87.6" x2="116.5" y2="87.6"/>
	<path class="st8" d="M148.4,87c-0.6-2.1-2.5-3.5-4.6-3.6c-2.5,0-4.6,2-4.6,4.5c0,2.5,2,4.6,4.5,4.6c1.1,0,2.1-0.4,2.9-1"/>
	<polyline class="st8" points="145.3,87.5 148.9,87.5 148.9,83.3 	"/>
	<polygon class="st8" points="172.5,86 168.3,82.6 164.3,86 164.3,93.4 172.5,93.4 	"/>
	<rect x="166.7" y="88" class="st6" width="3.2" height="5.1"/>
	<line class="st8" x1="164.3" y1="86" x2="161.9" y2="88.2"/>
	<line class="st8" x1="172.5" y1="86" x2="174.8" y2="88"/>
	<line class="st8" x1="389.5" y1="86.5" x2="402.1" y2="86.5"/>
	<line class="st8" x1="389.5" y1="89.3" x2="402.1" y2="89.3"/>
	<line class="st8" x1="389.5" y1="92.2" x2="402.1" y2="92.2"/>
	<line class="st8" x1="389.5" y1="95.1" x2="402.1" y2="95.1"/>
	<path class="st9" d="M412.4,143.8h-206c-4.2,0-7.6,3.4-7.6,7.6l0,0v57.2c0,4.2,3.4,7.6,7.6,7.6l0,0h206V143.8z"/>
</g>
<g id="freepik--Plants--inject-1--inject-120">
	<path class="st9" d="M399.7,287.8c-0.4-13,0.7-35.3-10.8-44.4c-10-8-17.9,2.9-20.7,11.7c-6.8,21.4-3.6,45-3.6,67c0,0.3,0,0.7,0,1
		c-0.5,16.2-2.5,33.8-0.7,50c0,0-1.7-16.2-14.5-9.3s6.4,43.5,6.4,43.5s-15.1-11-22-1.7s8.7,19.7,8.7,19.7s-14.5-4-14.5,0
		s4.6,7.5,18,9.3h71.9c0,0,11.6-6.4,9.3-13.3s-14.5-2.9-14.5-2.9s18.5-22.6,17.4-32.5s-25,1.7-25,1.7s18.5-46.9,15.1-67.8
		c-2.7-16.4-15.5-5.2-22.4,1.1C399.3,309.9,400,298.9,399.7,287.8z"/>
	<path class="st10" d="M399.7,287.8c-0.4-13,0.7-35.3-10.8-44.4c-10-8-17.9,2.9-20.7,11.7c-6.8,21.4-3.6,45-3.6,67c0,0.3,0,0.7,0,1
		c-0.5,16.2-2.5,33.8-0.7,50c0,0-1.7-16.2-14.5-9.3s6.4,43.5,6.4,43.5s-15.1-11-22-1.7s8.7,19.7,8.7,19.7s-14.5-4-14.5,0
		s4.6,7.5,18,9.3h71.9c0,0,11.6-6.4,9.3-13.3s-14.5-2.9-14.5-2.9s18.5-22.6,17.4-32.5s-25,1.7-25,1.7s18.5-46.9,15.1-67.8
		c-2.7-16.4-15.5-5.2-22.4,1.1C399.3,309.9,400,298.9,399.7,287.8z"/>
	<line class="st11" x1="376.6" y1="433.9" x2="381.9" y2="274.5"/>
	<line class="st11" x1="379.5" y1="367.2" x2="406.8" y2="341.7"/>
	<line class="st11" x1="392.3" y1="355.6" x2="398.1" y2="339.4"/>
	<line class="st11" x1="356.9" y1="386.9" x2="377.8" y2="409.5"/>
	<line class="st11" x1="412.6" y1="399.7" x2="377.8" y2="417.6"/>
	<line class="st11" x1="394" y1="410.1" x2="406.8" y2="409.5"/>
</g>
<g id="freepik--Character--inject-1--inject-120">
	<ellipse class="st9" cx="265.7" cy="439.2" rx="175.2" ry="9"/>
	<ellipse class="st12" cx="265.7" cy="439.2" rx="175.2" ry="9"/>
	<path class="st6" d="M271.1,433c-0.8,0-1.6,0.2-2.4,0.6c-1.2,0.7-6.6,2.1-10.1,3.4c-5.4,1.9-9.7,0.9-9.2,2.3s8.9,4.3,13.8,4.3
		s7.3-1.1,9.6-1.1s0.6,1.2,4.5,1.6s5.2,0.5,6.5-1.7s2.1-2.7,1.7-5.4V437c-0.4-2.4-2.6-4.1-5-4.1L271.1,433z"/>
	<path class="st6" d="M301.5,430.4c-0.7,0-1.4,0.2-2,0.6c-1.1,0.7-5.7,2.1-8.7,3.3c-4.7,1.9-8.4,0.6-8,2.2s5.4,3.6,9.7,3.9
		c2.3,0.1,4.6,0.1,6.9-0.3c4.6-0.3,1.7,1.4,3.3,2c1.2,0.4,2.4,0.5,3.6,0.5c4.9,0.3,5.5,0.6,6.6-1.6s1.8-2.8,1.3-5.7v-0.1
		c-0.4-2.6-2.4-4.5-4.5-4.6L301.5,430.4z"/>
	<path class="st13" d="M257.9,278.1c0,0,0.8,29.4,0.8,39.3s2.5,54.5,5.9,70.6s5.2,39.3,5.2,41.8s-0.8,3.1,0.8,4.8s8,4.8,10.3,3.8
		s3.6-5,3.6-5s0-21.8,0.6-36.1s-0.4-33-0.4-33s8.2,37.8,10.5,45.4s4.2,21.3,4.6,24s2.3,2.8,4.6,2.8c2.8,0,6.3-0.4,7.6-2.5
		s-1.5-24.1-1.5-33s-6.9-63.5-6.3-77s4.6-36.8,3.4-43.7c-0.7-4.1-1.2-8.2-1.3-12.4C306.4,268,263.1,263,257.9,278.1z"/>
	<path class="st14" d="M260.4,281.4c0.7,2.6,1.6,5.2,2.7,7.6c0.8,1.7,2.1,3.1,3.8,4"/>
	<path class="st14" d="M274,427.4c0.2,3,0.2,5.9-0.2,8.9"/>
	<path class="st14" d="M267.8,311.9c0.6,22.9,1.7,61.8,2.7,71.1c1.1,10.4,2.1,26.2,2.8,35.8"/>
	<path class="st14" d="M266.8,281.7c-0.2,0.6,0.5,13.2,0.5,13.2s0.1,4.2,0.3,10.9"/>
	<path class="st15" d="M208.7,198.9c0,0-0.2-5,0.8-3.8s1.3,3.6,1.7,5.9c0,0,0.6-4.4,1.3-3.1c0.7,1.6,0.9,3.3,0.6,5
		c-0.1,2.4,0.4,4.8,1.5,6.9C215.5,211,210.2,207.5,208.7,198.9z"/>
	<path class="st16" d="M366.8,205.4c0,0,3-4.1,1.4-3.6s-3,2.3-4.7,3.9c0,0,1.9-4,0.7-3.3c-1.5,0.9-2.6,2.3-3.3,3.8
		c-1.2,2.1-3,3.8-5.1,4.9C354.4,211.8,360.8,211.8,366.8,205.4z"/>
	<path class="st16" d="M370,138.4v-2.5c0-0.7-0.6-1.4-1.3-1.4c0,0,0,0,0,0h-2c-0.3-1.3-0.8-2.5-1.5-3.6l1.4-1.4
		c0.5-0.5,0.5-1.4,0-1.9l-1.8-1.8c-0.5-0.5-1.4-0.5-1.9,0l-1.4,1.4c-1.1-0.7-2.3-1.2-3.6-1.5v-2c0-0.7-0.6-1.4-1.3-1.4c0,0,0,0,0,0
		H354c-0.7,0-1.4,0.6-1.4,1.4v2c-1.3,0.3-2.5,0.8-3.6,1.5l-1.4-1.4c-0.5-0.5-1.4-0.5-1.9,0c0,0,0,0,0,0l-1.7,1.8
		c-0.5,0.5-0.5,1.4,0,1.9l1.4,1.4c-0.7,1.1-1.2,2.3-1.5,3.6h-2c-0.8,0-1.4,0.6-1.4,1.4v2.5c0,0.8,0.6,1.4,1.4,1.4h2
		c0.3,1.3,0.8,2.5,1.5,3.6l-1.4,1.4c-0.5,0.5-0.5,1.4,0,1.9l1.8,1.8c0.5,0.5,1.4,0.5,1.9,0c0,0,0,0,0,0l1.4-1.4
		c1.1,0.7,2.3,1.2,3.6,1.5v1.9c0,0.7,0.6,1.4,1.4,1.4h2.5c0.7,0,1.4-0.6,1.4-1.3c0,0,0,0,0,0v-1.9c1.3-0.3,2.5-0.8,3.6-1.5l1.4,1.4
		c0.5,0.5,1.4,0.5,1.9,0l1.8-1.8c0.5-0.5,0.5-1.4,0-1.9l-1.4-1.4c0.7-1.1,1.2-2.3,1.5-3.6h2C369.5,139.7,370,139.1,370,138.4z
		 M355.8,142.9c-3.2,0.3-6-2-6.4-5.2c-0.3-3.2,2-6,5.2-6.4c3.2-0.3,6,2,6.4,5.2c0,0.4,0,0.8,0,1.2
		C360.7,140.4,358.6,142.6,355.8,142.9L355.8,142.9z"/>
	<path class="st16" d="M248.3,208.5v-2.5c0-0.7-0.6-1.4-1.3-1.4c0,0,0,0,0,0h-2c-0.3-1.3-0.8-2.5-1.4-3.6l1.4-1.4
		c0.5-0.5,0.5-1.4,0-1.9c0,0,0,0,0,0l-1.8-1.8c-0.5-0.5-1.4-0.5-1.9,0l-1.4,1.4c-1.1-0.7-2.3-1.2-3.6-1.5v-2c0-0.7-0.6-1.4-1.4-1.4
		h-2.5c-0.7,0-1.4,0.6-1.4,1.4v2c-1.3,0.3-2.5,0.8-3.6,1.5l-1.4-1.4c-0.5-0.5-1.4-0.5-1.9,0l-1.8,1.8c-0.5,0.5-0.5,1.4,0,1.9
		c0,0,0,0,0,0l1.4,1.4c-0.7,1.1-1.2,2.3-1.5,3.6h-2c-0.7,0-1.4,0.6-1.4,1.3c0,0,0,0,0,0v2.5c0,0.7,0.6,1.4,1.3,1.4c0,0,0,0,0,0h2
		c0.3,1.3,0.8,2.5,1.5,3.6l-1.4,1.4c-0.5,0.5-0.5,1.4,0,1.9l1.8,1.8c0.5,0.5,1.4,0.5,1.9,0l1.4-1.4c1.1,0.7,2.3,1.2,3.6,1.5v2
		c0,0.7,0.6,1.4,1.3,1.4c0,0,0,0,0,0h2.5c0.7,0,1.4-0.6,1.4-1.3c0,0,0,0,0,0v-2c1.3-0.3,2.5-0.8,3.6-1.5l1.4,1.4
		c0.5,0.5,1.4,0.5,1.9,0l1.8-1.8c0.5-0.5,0.5-1.4,0-1.9l-1.4-1.4c0.7-1.1,1.2-2.3,1.5-3.6h2C247.7,209.8,248.3,209.2,248.3,208.5
		C248.3,208.5,248.3,208.5,248.3,208.5z M234.2,213.2c-3.3,0.3-6.2-2-6.6-5.3c-0.3-3.3,2-6.2,5.3-6.6c3.3-0.3,6.2,2,6.6,5.3
		c0,0.4,0,0.8,0,1.2C239.2,210.6,237,212.9,234.2,213.2L234.2,213.2z"/>
	<path class="st16" d="M211.1,135.9h212.1c4.2,0,7.6,3.4,7.6,7.6v57.2c0,4.2-3.4,7.6-7.6,7.6H211.1c-4.2,0-7.6-3.4-7.6-7.6v-57.2
		C203.5,139.4,206.9,135.9,211.1,135.9z"/>
	<line class="st5" x1="423.7" y1="155" x2="218.5" y2="155"/>
	<line class="st5" x1="423.7" y1="170.9" x2="218.5" y2="170.9"/>
	<line class="st5" x1="423.7" y1="186.7" x2="218.5" y2="186.7"/>
	<path class="st15" d="M224.3,220.7c0,0-2.5-2.1-2.8-3c-0.3-1.4-0.7-2.8-1.2-4.1c-0.9-1.9-4-3.5-5-5.8s-2.3-6.1-3-6.9
		s-1.7-0.4-2,1.7s3.6,7.2,3.8,8s-4.1-0.6-6.9-2.4s-4.5-5.6-6.2-7.9s-3.1-0.7-3,0.7s5.1,9.1,6.1,11.9s4.2,5.9,6,7.4s5.8,2.2,5.8,2.2
		l2.6,2.6L224.3,220.7z"/>
	<path class="st17" d="M216.7,231.6l-3.6-7.8c1.4-2,3.6-3.4,6.1-3.8c4.4-0.8,5,0,5,0l2.3,8C226.5,228.1,219,228.7,216.7,231.6z"/>
	<path class="st17" d="M251.4,205c0,0-10.7,30.7-12.2,34.6c-0.4,1-1.1,2.7-2,4.6c-1.9-3.2-6-10.4-7.2-13.5c-1.7-4-4-5-7.8-4.6
		s-7.1,4.4-7.1,7.4c0,5.6,4.9,13,7.1,18c2.3,5.3,3.9,7.3,7.9,11.7c5,5.6,10.7,3.7,14.5-1.8c2.9-4.2,10.4-19.5,10.4-19.5
		S253.1,209.8,251.4,205z"/>
	<path class="st5" d="M237.2,244.2c0,0-4.1,5.9-4.5,9.1"/>
	<path class="st16" d="M340.9,216.8c0,0,2.9-1.4,3.5-2.2c0.6-1.3,1.4-2.5,2.2-3.7c1.3-1.6,4.8-2.4,6.4-4.3s3.8-5.3,4.7-5.8
		s1.7,0,1.5,2.1s-5.3,6.1-5.8,6.7s4.9-1.2,8.1-0.5s7.1-0.8,10-1.3s2.7,1.6,1.7,2.6s-10,2.9-12.7,4.3s-5,2.4-7.2,3.4
		c-1.6,0.8-3.1,1.7-4.6,2.6l-3.2,1.9L340.9,216.8z"/>
	<path class="st18" d="M348,228.5l3.6-7.8c-1.4-2-3.6-3.4-6.1-3.8c-4.4-0.8-5,0-5,0l-2.3,8C338.2,224.9,345.7,225.5,348,228.5z"/>
	<path class="st17" d="M342.6,223c-3.8-0.4-6.1,0.6-7.8,4.6c-1.3,3-5.4,10.2-7.2,13.5c-0.9-1.9-1.6-3.6-2-4.6
		c-1.5-4-12.2-34.6-12.2-34.6c-1.7,4.8-3.6,37-3.6,37s8,15.3,11,19.5c1.7,2.5,3.1,4.8,6.3,5.2c9.3,1.4,12.1-7.4,15-13.9
		c1.8-4.1,3.6-8.2,5.3-12.3c0.8-2,2.4-4.7,2.4-6.9C349.7,227.4,346.4,223.4,342.6,223z"/>
	<path class="st5" d="M327.6,241.1c0,0,4.2,5.9,5,9.1"/>
	<path class="st19" d="M268,148.7c0,0-2.9,10.9-2.3,12s2.1,0.6,1.3,2.7s-2.7,6.1-2.3,7.8s2.7,2.9,2.7,2.9s1,7.6,2.1,9
		s6.7,0.6,6.7,0.6l0.4,5.7l16.8-1l-0.6-10.1l-0.8-31.1L268,148.7z"/>
	<g>
		<defs>
			<path id="SVGID_1_" d="M268,148.7c0,0-2.9,10.9-2.3,12s2.1,0.6,1.3,2.7s-2.7,6.1-2.3,7.8s2.7,2.9,2.7,2.9s1,7.6,2.1,9
				s6.7,0.6,6.7,0.6l0.4,5.7l16.8-1l-0.6-10.1l-0.8-31.1L268,148.7z"/>
		</defs>
		<clipPath id="SVGID_00000150066054374211347360000018313897524142722458_">
			<use xlink:href="#SVGID_1_"  style="overflow:visible;"/>
		</clipPath>
		<g style="clip-path:url(#SVGID_00000150066054374211347360000018313897524142722458_);">
			<path class="st21" d="M276.1,183.7l0.4,5.7l16.8-1l-0.6-10.1l-0.4-13.1c-2.2,0-4.2,0.1-4.8,0.1c-1.5,0-4.9-0.3-5.6,0
				s-1.8,0.5-1.8,0.5l-3.8,4.1c0,0,0.2,5.4-1.5,8.2c-1.5,2.4-5.4,3.3-5.7,4.4c0.1,0.2,0.2,0.4,0.3,0.6c0.2,0.1,0.4,0.3,0.7,0.5
				C271.9,184.4,276.1,183.7,276.1,183.7z"/>
		</g>
	</g>
	<path class="st22" d="M268,148.7c0,0-2.9,10.9-2.3,12s2.1,0.6,1.3,2.7s-2.7,6.1-2.3,7.8s2.7,2.9,2.7,2.9s1,7.6,2.1,9
		s6.7,0.6,6.7,0.6l0.4,5.7l16.8-1l-0.6-10.1l-0.8-31.1L268,148.7z"/>
	<path class="st6" d="M269.5,163.8c0,0.9-0.3,1.5-0.7,1.5s-0.7-0.7-0.7-1.5s0.3-1.5,0.7-1.5S269.5,162.9,269.5,163.8z"/>
	<path class="st15" d="M288.1,140.3c-1,0.2-9,0-15.3,1.1s-8.2,1.5-8,4.2s-0.4,3.8,1.9,4.8c1,0.5,2,0.9,3.1,1c0,0-0.6,2.9-0.8,5
		s3.6,4.4,3.6,4.4c-0.1,1.4,0,2.8,0.2,4.2c0.4,1,1.5,1.3,2.1,0.4s1-4.8,1.7-3.2s3.1,14.3,4.8,15.8s9.2,0.6,11.3,0.2s6.1-9.2,8-14.5
		s1-14.5-1.7-18.7S290.9,139.8,288.1,140.3z"/>
	<path class="st6" d="M299.7,146.3c-0.8,2-1.5,4.5-3.6,4.7c-3.3,0.3-3.3-4.1-5.6-5.6s1.5,7.7-0.2,5.1s-6.4-5.1-10.5-5.4
		s2.3,7.4,0.8,7.4s-4.1-4.9-4.1-6.1s-3.8-1.3-8.2-1.3s-2.6,2.6-2.6,4.1c0,0.2,0.1,0.4,0.2,0.6c0.3,0.2,0.6,0.4,1,0.6
		c1,0.5,2,0.9,3.1,1c0,0-0.6,2.9-0.8,5s3.6,4.4,3.6,4.4c-0.1,1.4,0,2.8,0.2,4.2c0.4,1,1.5,1.3,2.1,0.4s1-4.8,1.7-3.2
		s3.1,14.3,4.8,15.8s9.2,0.6,11.3,0.2s6.1-9.2,8-14.5C302.5,159,301.9,150.8,299.7,146.3z"/>
	<path class="st18" d="M272.6,188.8l-4.6,8.4c0,0,11.5-3.4,17.9-3.4c4.4,0.1,8.9,0.5,13.2,1.3l-2.9-8.2
		C296.1,186.9,280.1,185.2,272.6,188.8z"/>
	<path class="st18" d="M269.6,196.1c0,0-7.6,4-12,6.1c-2.1,1-4.2,1.9-6.3,2.7c0,0,5.3,66.8,5.3,70.4s-0.2,3.8,1,4.8
		s7.8,1.5,19.3,1.3s26-2.6,27.1-2.6c1.7-0.1,3.3-1.1,4.2-2.5c1.3-1.9,5.2-73.1,5.5-74s-13.9-6.9-15.3-7.4S288.5,189,269.6,196.1z"/>
	<path class="st5" d="M295.1,249.6c-1.3,1.2-2.7,2.3-4.2,3.3"/>
	<path class="st5" d="M310.5,222.3c0,0-2.9,12.9-11.4,23.2"/>
	<path class="st15" d="M274.8,162.2c0.3,2,0.4,3.9,0.5,5.9c0,2.3-1.5,3.6-0.5,4.6s1.8,0.5,2.6-1.3c0.8-2.1,1.2-4.4,1-6.7
		C278.1,163,277.8,159.1,274.8,162.2z"/>
	<polyline class="st14" points="286.1,370.4 291.7,312.9 300.5,302.2 	"/>
</g>
</svg>
