<?xml version="1.0" encoding="utf-8"?>
<!-- Generator: Adobe Illustrator 27.1.1, SVG Export Plug-In . SVG Version: 6.00 Build 0)  -->
<svg version="1.1" id="Layer_1" xmlns="http://www.w3.org/2000/svg" xmlns:xlink="http://www.w3.org/1999/xlink" x="0px" y="0px"
	 viewBox="0 0 500 500" style="enable-background:new 0 0 500 500;" xml:space="preserve">
<style type="text/css">
	.st0{display:none;}
	.st1{display:inline;opacity:0.7;fill:#FFFFFF;enable-background:new    ;}
	.st2{display:inline;fill:#4F4FDE;}
	.st3{fill:none;stroke:#263238;stroke-linecap:round;stroke-linejoin:round;}
	.st4{fill:none;stroke:#263238;stroke-miterlimit:10;}
	.st5{fill:#263238;}
	.st6{fill:#999999;stroke:#263238;stroke-linecap:round;stroke-linejoin:round;}
	.st7{fill:#4F4FDE;stroke:#263238;stroke-linecap:round;stroke-linejoin:round;}
	.st8{fill:#FFFFFF;}
	.st9{clip-path:url(#SVGID_00000147218208456048056770000013978915810417136310_);}
	.st10{opacity:0.4;fill:#4F4FDE;enable-background:new    ;}
	.st11{fill:#FFC703;}
	.st12{clip-path:url(#SVGID_00000096039939236324686820000012573354794382047126_);}
	.st13{opacity:0.3;fill-opacity:0.7;enable-background:new    ;}
	.st14{opacity:0.3;fill:#FFFFFF;fill-opacity:0.7;enable-background:new    ;}
	.st15{fill:none;stroke:#263238;stroke-width:1.004;stroke-linecap:round;stroke-linejoin:round;stroke-miterlimit:4.0162;}
	.st16{clip-path:url(#SVGID_00000055665536502121204260000014824253030877997744_);}
	.st17{fill:#FFC703;stroke:#263238;stroke-linecap:round;stroke-linejoin:round;}
	.st18{clip-path:url(#SVGID_00000092429603848721735320000003729563128707596423_);}
	.st19{clip-path:url(#SVGID_00000027575401550987345340000002540142951654344118_);}
	.st20{fill:#999999;}
	.st21{clip-path:url(#SVGID_00000137132290490492275180000009122574758656092600_);}
	.st22{opacity:0.2;enable-background:new    ;}
	.st23{fill:#FFFFFF;stroke:#263238;stroke-linecap:round;stroke-linejoin:round;}
	.st24{fill:none;stroke:#FFFFFF;stroke-linecap:round;stroke-linejoin:round;}
	.st25{fill:#BFBFBF;}
	.st26{clip-path:url(#SVGID_00000048483520338671346930000007105863385509436837_);}
	.st27{fill:#4F4FDE;}
	.st28{clip-path:url(#SVGID_00000020381989911918858670000002287144944348263087_);}
	.st29{clip-path:url(#SVGID_00000139988026302274184910000013112306243311609784_);}
	.st30{clip-path:url(#SVGID_00000018935429170705224170000015436725401563425689_);}
	.st31{fill:#757575;stroke:#263238;stroke-linecap:round;stroke-linejoin:round;}
	.st32{clip-path:url(#SVGID_00000007399651783205260170000017719960959086250157_);}
	.st33{clip-path:url(#SVGID_00000121238429165915298920000012781931130065912227_);}
	.st34{clip-path:url(#SVGID_00000165221407051256173800000016592924486655738772_);}
</style>
<g id="freepik--background-simple--inject-13" class="st0">
	<path class="st1" d="M67.9,167.1c0,0-27.9,72,11.3,144.5s119.9,110.8,184.5,143.6s131.7,16.8,163.5-36.8s-11.8-91.9-11.9-168.4
		s11.5-96.7-30-161.4s-143.1-78.9-219.9-31S67.9,167.1,67.9,167.1z"/>
	<path class="st2" d="M110,112.5c13.5-16.1,31.6-28.5,53.3-28.3c37,0.5,57,33.2,78.2,58.5c11,13.1,23.5,25.7,39.8,31.9
		c24.5,9.2,51.8,3.8,75.7-4.7c10.7-3.8,23.4-9.2,35.4-6.5c36.6,8.4,32.8,53.1,26.8,81.4c-8.2,38.2-21.4,78.9-48.4,108.2
		c-64.4,70.3-180.4,27.2-238.5-28.9c-4.3-4.1-8.4-8.4-12.2-13c-10-11.7-18.5-24.6-25.2-38.4c-18.7-38.9-21.3-86.3-5-126.5
		C94.9,134,101.6,122.6,110,112.5z"/>
	<path class="st1" d="M110,112.5c13.5-16.1,31.6-28.5,53.3-28.3c37,0.5,57,33.2,78.2,58.5c11,13.1,23.5,25.7,39.8,31.9
		c24.5,9.2,51.8,3.8,75.7-4.7c10.7-3.8,23.4-9.2,35.4-6.5c36.6,8.4,32.8,53.1,26.8,81.4c-8.2,38.2-21.4,78.9-48.4,108.2
		c-64.4,70.3-180.4,27.2-238.5-28.9c-4.3-4.1-8.4-8.4-12.2-13c-10-11.7-18.5-24.6-25.2-38.4c-18.7-38.9-21.3-86.3-5-126.5
		C94.9,134,101.6,122.6,110,112.5z"/>
</g>
<g id="freepik--Floor--inject-13">
	<line class="st3" x1="54" y1="443.4" x2="446" y2="443.4"/>
</g>
<g id="freepik--Window--inject-13">
	<polyline class="st3" points="292,240.8 292,93.7 301.1,93.7 	"/>
	<line class="st3" x1="292" y1="258.3" x2="292" y2="254.4"/>
	<polyline class="st3" points="324.5,93.7 418.5,93.7 418.5,272 292,272 	"/>
	<line class="st3" x1="313" y1="93.7" x2="321.2" y2="93.7"/>
	<rect x="296.7" y="98.4" class="st3" width="117" height="168.9"/>
	<polyline class="st3" points="408.3,107.4 408.3,177.6 302.2,177.6 302.2,173 	"/>
	<polyline class="st3" points="302.2,162.3 302.2,103.4 408.3,103.4 	"/>
	<line class="st3" x1="302.2" y1="169.5" x2="302.2" y2="165"/>
	<line class="st3" x1="390.4" y1="182.8" x2="413.8" y2="182.8"/>
	<line class="st3" x1="382.1" y1="182.8" x2="385.4" y2="182.8"/>
	<line class="st3" x1="296.7" y1="182.8" x2="378.1" y2="182.8"/>
	<polyline class="st3" points="349.4,177.6 349.4,175.2 359.1,175.2 359.1,176.5 355.2,176.5 355.2,177.6 	"/>
	<path class="st3" d="M296.9,246c0,0,1.6,1.2,2.8,8.7c0,0,2-11.9,4.3-12.1s1.9,7.7,1.9,7.7s0.4-3.9,2.3-3.7s0,8,0,8s2.2-6.1,4.4-6
		s-1.4,11.1-1.4,11.1s5.4-3.9,7.6-2s-1.2,6.8-1.2,6.8s7.8-1.7,9,2.9"/>
	<path class="st3" d="M326.6,263c0,0,3.4-2.2,6.1-1.2c0,0-1.7-2.6,0-4.2s3.9,4.2,3.9,4.2s0.2-9.6,3.6-9.2s0,9.2,0,9.2
		s6.1-5.4,7.5-3.5s-1,4.7-1,4.7c2.2-0.6,4.6,0,6.3,1.5c0,0,4.1-4.1,8.6-4.8c0,0-3-8.7-1.5-10.5s4.1,7.6,4.1,7.6s1.2-6.1,5-6.6
		c0,0-3.2-1.7-2.2-4.3s5.3,0.6,5.3,0.6s-1.8-4.6,1-5.9s4,3.8,4,3.8s0.8-5.3,4.1-5s2.3,6.4,2.3,6.4s3.1-4.9,4.8-4.4
		c3.4,1,2.4,8.7,2.4,8.7s4.7-3.3,5.9-1.8s-4.9,5.8-4.9,5.8s4.7,0.5,7.6,3.2"/>
	<path class="st3" d="M413.8,247.8c0,0-0.5-4.9-5.4-5.2s1.4,10.8,1.4,10.8s-4-3.4-5.5-2.3s4.1,6.7,4.1,6.7s-2.7-2.5-5.5-1.7
		c-2.8,0.8,1.6,8.7,1.6,8.7c-4.2-0.8-8.5-0.3-12.4,1.5"/>
</g>
<g id="freepik--Table--inject-13">
	<line class="st3" x1="246.7" y1="399.6" x2="246.7" y2="443.2"/>
	<line class="st3" x1="246.7" y1="385.4" x2="246.7" y2="394.7"/>
	<polyline class="st3" points="63.5,443.4 63.5,362.3 246.7,362.3 246.7,380.1 	"/>
	<polyline class="st3" points="90.2,371.2 74.3,371.2 74.3,436 	"/>
	<polyline class="st3" points="235.9,443.2 235.9,371.2 99.4,371.2 	"/>
	<line class="st3" x1="228.3" y1="353.9" x2="223.2" y2="353.9"/>
	<polyline class="st3" points="216,353.9 58.9,353.9 58.9,362.3 251.2,362.3 251.2,353.9 231.5,353.9 	"/>
	<path class="st3" d="M69.8,300.5c0,0,15,1.2,15.7,12.3C85.4,312.8,70.2,319.8,69.8,300.5z"/>
	<path class="st3" d="M99.5,303.2c0,0,8.4-11.4,22-5.5C121.5,297.7,113.2,311.5,99.5,303.2z"/>
	<path class="st3" d="M120.4,267.4c0,0,2.4,21.9-17.5,15.9C102.9,283.2,109.2,267.1,120.4,267.4z"/>
	<path class="st3" d="M95.9,255.2c0,0,15.8,8.5,4.2,21.4C100.1,276.5,89.1,267.4,95.9,255.2z"/>
	<path class="st3" d="M76.6,274.7c0,0,17.1-1.7,17.1,14.1C93.7,288.8,76.6,289.5,76.6,274.7z"/>
	<path class="st3" d="M89.4,321.7c-0.2-5.3-0.2-12.2,3-19.4c7.5-16.7,10-30.7,6.1-40.6"/>
	<path class="st3" d="M82.2,279c0,0,10.3,4.1,13.8,14.6"/>
	<path class="st3" d="M115,276.1c0,0-5.9,8.1-16,7.2"/>
	<path class="st3" d="M115,300c0,0-16.4,4.7-23,3.2"/>
	<path class="st3" d="M74.7,305.5c0,0,7.3,8.1,14.7,7.9"/>
	<path class="st4" d="M108.9,321.7H73.2c-0.5,0-0.9,0.4-0.9,0.9v2.7c0,0.5,0.4,0.9,0.9,0.9c0,0,0,0,0,0h1l3.2,27.8h27.3l3.2-27.8
		h1.1c0.5,0,0.9-0.4,0.9-0.8c0,0,0,0,0,0v-2.7C109.8,322.1,109.4,321.7,108.9,321.7C108.9,321.7,108.9,321.7,108.9,321.7z"/>
	<line class="st3" x1="76.6" y1="326.2" x2="97.3" y2="326.2"/>
	<line class="st3" x1="101.2" y1="326.2" x2="104.4" y2="326.2"/>
</g>
<g id="freepik--character-3--inject-13">
	<path class="st5" d="M328.7,211.1l-4,21.7l-32.6,19.8l4.5,8.3c0,0,37.7-11.5,38.6-14.2s9.6-31.2,9.6-31.2L328.7,211.1z"/>
	<path class="st6" d="M343,174.3l-2.2,26.4l-1.1,13.8c-6.3,3.1-12.4-1.5-12.8-1.8l0,0C328.6,207.7,330.5,179.3,343,174.3z"/>
	<path class="st5" d="M340.8,200.7l-1.1,13.8c-6.3,3.1-12.4-1.5-12.8-1.8c0.3,0.1,3.6,1.5,5.7,0c-0.8-0.8-1.4-1.7-2-2.6
		c-0.1-0.5,2-0.7,2-0.7s-1.4-11.2,2.3-16C336.3,191.6,338.6,195.4,340.8,200.7z"/>
	<path class="st7" d="M365.6,418.4l1,2.9c-1.5,2.5-3.2,4.9-5.1,7.1c0,0-1-0.3-2.6,1.1c-1,1-1.6,2.3-1.8,3.8c0,0-7.6,9.2-17.3,9.3
		S333,438,333,438L365.6,418.4z"/>
	<path class="st8" d="M356.5,395.1c0,0-13-4.8-15.5,4.8c0,0,2.3,10.5,0.9,16.3s-8.4,16.8-8.8,18.9c-0.9,4.1-0.2,4.4-0.2,4.4
		s5.1,2.9,11.9-0.2s18.7-16.7,20.5-19.5s-5.8-13.8-5.8-13.8L356.5,395.1z"/>
	<g>
		<defs>
			<path id="SVGID_1_" d="M356.5,395.1c0,0-13-4.8-15.5,4.8c0,0,2.3,10.5,0.9,16.3s-8.4,16.8-8.8,18.9c-0.9,4.1-0.2,4.4-0.2,4.4
				s5.1,2.9,11.9-0.2s18.7-16.7,20.5-19.5s-5.8-13.8-5.8-13.8L356.5,395.1z"/>
		</defs>
		<clipPath id="SVGID_00000174594867822841883200000006988634546310226096_">
			<use xlink:href="#SVGID_1_"  style="overflow:visible;"/>
		</clipPath>
		<g style="clip-path:url(#SVGID_00000174594867822841883200000006988634546310226096_);">
			<path class="st10" d="M356.5,395.1c0,0-13-4.8-15.5,4.8c0,0,2.3,10.5,0.9,16.3s-8.4,16.8-8.8,18.9c-0.9,4.1-0.2,4.4-0.2,4.4
				s5.1,2.9,11.9-0.2s18.7-16.7,20.5-19.5s-5.8-13.8-5.8-13.8L356.5,395.1z"/>
		</g>
	</g>
	<path class="st3" d="M356.5,395.1c0,0-13-4.8-15.5,4.8c0,0,2.3,10.5,0.9,16.3s-8.4,16.8-8.8,18.9c-0.9,4.1-0.2,4.4-0.2,4.4
		s5.1,2.9,11.9-0.2s18.7-16.7,20.5-19.5s-5.8-13.8-5.8-13.8L356.5,395.1z"/>
	<path class="st3" d="M349.8,408.7c1.1,6.5,0,13.1-3.2,18.8"/>
	<path class="st7" d="M346.6,430c-1,2.5-3,4.4-5.6,5.1c-2.6,0.7-5.4,0.7-8,0l3.1-6.3C339.5,430.1,343.1,430.5,346.6,430z"/>
	<path class="st3" d="M348.4,426.2c0,0-6.8,0.4-10.4-1"/>
	<path class="st3" d="M349.7,422.4c0,0-6.4,1-9.9-1"/>
	<path class="st3" d="M350.8,418.2c0,0-5.6,0.8-9.2-0.9"/>
	<path class="st3" d="M351.4,413.5c0,0-6.2,1.9-9.1,0"/>
	<path class="st7" d="M352.3,401.9l1.1,6.8c0,0-8.2,5.4-13.6-1.4v-7.1C339.8,400.2,341.8,405,352.3,401.9z"/>
	<path class="st5" d="M345.2,249c-8.3,26.3-34.1,68.6-31.5,79.4c1.4,5.9,9.9,39.3,16.6,54c2.5,5.6,8,9.4,8,9.4l4,8.5
		c9.6,4.2,13.1-4.3,13.1-4.3l-1.9-9.6c5.2-9.4,3-9.4-3.7-58c-0.8-5.7,12.5-23.4,12.5-23.4l6.8,44.6l1.1,36.5l3.5,11.3
		c0,0,0.9,10.6,0.8,11.2h15.8l1.7-11.6c0,0,7.4-6.9,7.4-14.9s-1.6-48.8,0-60.6s-3.7-67.2-3.7-67.2L345.2,249z"/>
	<path class="st11" d="M237.6,225.5l22,2c1,0.1,1.8,1,1.7,2c0,0,0,0,0,0l-1.4,15.7l0,0l-25.8-2.3l0,0l1.4-15.7
		C235.6,226.2,236.5,225.4,237.6,225.5C237.6,225.5,237.6,225.5,237.6,225.5z"/>
	<g>
		<defs>
			<path id="SVGID_00000183209629035780922120000002651751750603814044_" d="M237.6,225.5l22,2c1,0.1,1.8,1,1.7,2c0,0,0,0,0,0
				l-1.4,15.7l0,0l-25.8-2.3l0,0l1.4-15.7C235.6,226.2,236.5,225.4,237.6,225.5C237.6,225.5,237.6,225.5,237.6,225.5z"/>
		</defs>
		<clipPath id="SVGID_00000063610164667041923930000006712139883699388343_">
			<use xlink:href="#SVGID_00000183209629035780922120000002651751750603814044_"  style="overflow:visible;"/>
		</clipPath>
		<g style="clip-path:url(#SVGID_00000063610164667041923930000006712139883699388343_);">
			<path class="st13" d="M237.6,225.5l22,2c1,0.1,1.8,1,1.7,2c0,0,0,0,0,0l-1.4,15.7l0,0l-25.8-2.3l0,0l1.4-15.7
				C235.6,226.2,236.5,225.4,237.6,225.5C237.6,225.5,237.6,225.5,237.6,225.5z"/>
			
				<rect x="249.9" y="230.1" transform="matrix(8.559082e-02 -0.9963 0.9963 8.559082e-02 1.8692 468.6021)" class="st14" width="12.7" height="6.3"/>
		</g>
	</g>
	<path class="st15" d="M237.6,225.5l22,2c1,0.1,1.8,1,1.7,2c0,0,0,0,0,0l-1.4,15.7l0,0l-25.8-2.3l0,0l1.4-15.7
		C235.6,226.2,236.5,225.4,237.6,225.5C237.6,225.5,237.6,225.5,237.6,225.5z"/>
	<path class="st11" d="M275.5,226.9l21.9,1.9c1,0.1,1.8,1,1.7,2c0,0,0,0,0,0l-1.3,15.6l0,0l-25.7-2.2l0,0l1.3-15.6
		C273.6,227.6,274.5,226.8,275.5,226.9L275.5,226.9z"/>
	<g>
		<defs>
			<path id="SVGID_00000108999066514386853960000009231634864542894779_" d="M275.5,226.9l21.9,1.9c1,0.1,1.8,1,1.7,2c0,0,0,0,0,0
				l-1.3,15.6l0,0l-25.7-2.2l0,0l1.3-15.6C273.6,227.6,274.5,226.8,275.5,226.9L275.5,226.9z"/>
		</defs>
		<clipPath id="SVGID_00000021080300055950713270000004205263413473560448_">
			<use xlink:href="#SVGID_00000108999066514386853960000009231634864542894779_"  style="overflow:visible;"/>
		</clipPath>
		<g style="clip-path:url(#SVGID_00000021080300055950713270000004205263413473560448_);">
			<path class="st13" d="M275.5,226.9l21.9,1.9c1,0.1,1.8,1,1.7,2c0,0,0,0,0,0l-1.3,15.6l0,0l-25.7-2.2l0,0l1.3-15.6
				C273.6,227.6,274.5,226.8,275.5,226.9L275.5,226.9z"/>
			
				<rect x="288.6" y="234.7" transform="matrix(8.559082e-02 -0.9963 0.9963 8.559082e-02 33.9201 510.1821)" class="st14" width="12.7" height="3.8"/>
		</g>
	</g>
	<path class="st3" d="M275.5,226.9l21.9,1.9c1,0.1,1.8,1,1.7,2c0,0,0,0,0,0l-1.3,15.6l0,0l-25.7-2.2l0,0l1.3-15.6
		C273.6,227.6,274.5,226.8,275.5,226.9L275.5,226.9z"/>
	<path class="st17" d="M267.6,226.2l21.9,1.9c1,0.1,1.8,1,1.7,2c0,0,0,0,0,0l-1.3,15.6l0,0l-25.7-2.2l0,0l1.3-15.6
		C265.6,226.9,266.6,226.2,267.6,226.2z"/>
	<path class="st17" d="M305.4,229.5l21.9,1.9c1,0.1,1.8,1,1.7,2c0,0,0,0,0,0l-1.3,15.6l0,0l-25.7-2.2l0,0l1.3-15.6
		C303.5,230.2,304.4,229.4,305.4,229.5z"/>
	
		<rect x="279.8" y="232.7" transform="matrix(8.559082e-02 -0.9963 0.9963 8.559082e-02 26.6418 500.7317)" class="st14" width="12.7" height="6.3"/>
	
		<rect x="317.2" y="235.9" transform="matrix(8.559082e-02 -0.9963 0.9963 8.559082e-02 57.6736 540.9691)" class="st14" width="12.7" height="6.3"/>
	<path class="st11" d="M339.2,246.4l-6.2,71.9l-115.9-10l6.2-71.9c0.2-2.5,2.4-4.4,4.9-4.1c0,0,0,0,0,0l106.8,9.2
		C337.5,241.6,339.4,243.8,339.2,246.4C339.2,246.4,339.2,246.4,339.2,246.4z"/>
	<g>
		<defs>
			<path id="SVGID_00000087378842068161592100000014100375272404435896_" d="M339.2,246.4l-6.2,71.9l-115.9-10l6.2-71.9
				c0.2-2.5,2.4-4.4,4.9-4.1c0,0,0,0,0,0l106.8,9.2C337.5,241.6,339.4,243.8,339.2,246.4C339.2,246.4,339.2,246.4,339.2,246.4z"/>
		</defs>
		<clipPath id="SVGID_00000049942865638495685600000011071152054379802558_">
			<use xlink:href="#SVGID_00000087378842068161592100000014100375272404435896_"  style="overflow:visible;"/>
		</clipPath>
		<g style="clip-path:url(#SVGID_00000049942865638495685600000011071152054379802558_);">
			<path class="st13" d="M339.2,246.4l-6.2,71.9l-115.9-10l6.2-71.9c0.2-2.5,2.4-4.4,4.9-4.1c0,0,0,0,0,0l106.8,9.2
				C337.5,241.6,339.4,243.8,339.2,246.4C339.2,246.4,339.2,246.4,339.2,246.4z"/>
		</g>
	</g>
	<path class="st3" d="M339.2,246.4l-6.2,71.9l-115.9-10l6.2-71.9c0.2-2.5,2.4-4.4,4.9-4.1c0,0,0,0,0,0l106.8,9.2
		C337.5,241.6,339.4,243.8,339.2,246.4C339.2,246.4,339.2,246.4,339.2,246.4z"/>
	<path class="st17" d="M339.2,246.4l-6.2,71.9l-86-7.4l6.2-71.9c0.2-2.5,2.4-4.4,4.9-4.1c0,0,0,0,0,0l76.9,6.6
		C337.5,241.7,339.4,243.9,339.2,246.4C339.2,246.4,339.2,246.4,339.2,246.4z"/>
	<path class="st14" d="M333.1,248.4l-73.5-6.3c-1-0.1-1.8-1-1.7-2l0,0c0.1-1,1-1.8,2-1.7l73.5,6.3c1,0.1,1.8,1,1.7,2l0,0
		C335.1,247.8,334.2,248.5,333.1,248.4z"/>
	<path class="st8" d="M390.8,408.8c0,0-5.5-4-17-3.2c0,0-0.8,13.8-2.4,17.8s-9.8,10.9-11.3,12.1s-1.5,5.3-1.5,5.3h34.8
		c-0.4-6-1.4-11.9-2.8-17.7L390.8,408.8z"/>
	<g>
		<defs>
			<path id="SVGID_00000112595116000025026590000004941355040194781625_" d="M390.8,408.8c0,0-5.5-4-17-3.2c0,0-0.8,13.8-2.4,17.8
				s-9.8,10.9-11.3,12.1s-1.5,5.3-1.5,5.3h34.8c-0.4-6-1.4-11.9-2.8-17.7L390.8,408.8z"/>
		</defs>
		<clipPath id="SVGID_00000076569885840189764480000001308698523368365485_">
			<use xlink:href="#SVGID_00000112595116000025026590000004941355040194781625_"  style="overflow:visible;"/>
		</clipPath>
		<g style="clip-path:url(#SVGID_00000076569885840189764480000001308698523368365485_);">
			<path class="st10" d="M390.8,408.8c0,0-5.5-4-17-3.2c0,0-0.8,13.8-2.4,17.8s-9.8,10.9-11.3,12.1s-1.5,5.3-1.5,5.3h34.8
				c-0.4-6-1.4-11.9-2.8-17.7L390.8,408.8z"/>
		</g>
	</g>
	<path class="st3" d="M390.8,408.8c0,0-5.5-4-17-3.2c0,0-0.8,13.8-2.4,17.8s-9.8,10.9-11.3,12.1s-1.5,5.3-1.5,5.3h34.8
		c-0.4-6-1.4-11.9-2.8-17.7L390.8,408.8z"/>
	<path class="st3" d="M383.6,410.6c0,0-0.8,12.7-2.8,16c-1.1,1.8-2.4,3.5-3.9,5"/>
	<path class="st7" d="M376,433.3c0,0-1.8,2.2-3.7,2.5s-12.2-0.3-12.2-0.3l4.2-3.6C364.3,431.9,372.8,430.5,376,433.3z"/>
	<path class="st3" d="M379.6,430.4c0,0-7.4-4.3-12.7-1"/>
	<path class="st3" d="M381.4,427.5c0,0-5.2-4-11.3-1.8"/>
	<path class="st3" d="M383.6,423.1c0,0-5.6-4.3-11.5-1.6"/>
	<path class="st3" d="M384.4,417.6c0,0-6.8-3.6-11.7-0.9"/>
	<path class="st7" d="M393.4,440.9v2.6h-4c0,0-3.4-2-6.7,0h-18.8c-2,0-3.9-0.4-5.7-1.3l0.4-1.3H393.4z"/>
	<path class="st7" d="M388.4,408l-0.9,5.6c0,0-10.5-3.4-16.2-1.2v-6.9C371.3,405.5,382,401.8,388.4,408z"/>
	<path class="st20" d="M399.7,268.2c0,0-22.2,4.4-44-2.7c-5-1.6-9.7-3.8-14.1-6.5c0,0,0.1-1.4,0.1-3.7c0.2-8.9,0.1-31.4-4.6-37
		c-3-3.5-5.4-25.2,0.4-36.2l17.7-14.2c24.5,4.8,29.7,11.3,33.8,25.3c0.8,2.6,1.5,5.4,2.2,8.5c0.9,3.4,1.6,7.5,2.4,12
		C397.3,236,399.7,268.2,399.7,268.2z"/>
	<g>
		<defs>
			<path id="SVGID_00000152245223539186692800000000281687516554873498_" d="M399.7,268.2c0,0-22.2,4.4-44-2.7
				c-5-1.6-9.7-3.8-14.1-6.5c0,0,0.1-1.4,0.1-3.7c0.2-8.9,0.1-31.4-4.6-37c-3-3.5-5.4-25.2,0.4-36.2l17.7-14.2
				c24.5,4.8,29.7,11.3,33.8,25.3c0.8,2.6,1.5,5.4,2.2,8.5c0.9,3.4,1.6,7.5,2.4,12C397.3,236,399.7,268.2,399.7,268.2z"/>
		</defs>
		<clipPath id="SVGID_00000096023951885229282160000017425467766781126821_">
			<use xlink:href="#SVGID_00000152245223539186692800000000281687516554873498_"  style="overflow:visible;"/>
		</clipPath>
		<g style="clip-path:url(#SVGID_00000096023951885229282160000017425467766781126821_);">
			<path class="st22" d="M393.6,213.6l-10,44.7c0,0-14.5,4-27.9,7.2c-5-1.6-9.7-3.8-14.1-6.5c0,0,0.1-1.4,0.1-3.7
				c12.1-6.2,29.8-15.3,29.6-15.7c-0.2-0.7,0-24,0-24s16-3.7,17.7-22.4c0.8,2.6,1.5,5.4,2.2,8.5C392,205,392.9,209.1,393.6,213.6z"
				/>
		</g>
	</g>
	<path class="st3" d="M399.7,268.2c0,0-22.2,4.4-44-2.7c-5-1.6-9.7-3.8-14.1-6.5c0,0,0.1-1.4,0.1-3.7c0.2-8.9,0.1-31.4-4.6-37
		c-3-3.5-5.4-25.2,0.4-36.2l17.7-14.2c24.5,4.8,29.7,11.3,33.8,25.3c0.8,2.6,1.5,5.4,2.2,8.5c0.9,3.4,1.6,7.5,2.4,12
		C397.3,236,399.7,268.2,399.7,268.2z"/>
	<path class="st23" d="M356,149.2c0,0-7.8,11.2,2.6,19.9c0,0-12.6,14.2-16.8,12.2c-1.8-0.8,0-5.9,0-5.9l-7.3-13.5L356,149.2z"/>
	<path class="st23" d="M353.5,155c2.4-10.7,1.3-26.6-13.7-25.1c-10.5,1-18,6.8-15,20.9c1.2,5.9,2.2,14.3,7.7,21.9
		c1.5,2.1,17.3-5.3,16.4-11.3"/>
	<path class="st3" d="M332.1,148.3c2.1-0.8,4.5-0.6,6.5,0.6"/>
	<path class="st3" d="M324.5,149.6c0.4-0.8,1.4-1.3,2.2-1"/>
	<path class="st23" d="M328.3,151.9c0,0-3.1,5.6-3.1,6.4s3.8,1.1,3.8,1.1"/>
	<path class="st5" d="M334.9,153c0,0.6-0.3,1.1-0.6,1.1s-0.7-0.5-0.7-1.1s0.3-1.1,0.6-1.1S334.9,152.4,334.9,153z"/>
	<path class="st3" d="M330.5,163.4c0,0,5.9-1.1,7-3.2"/>
	<path class="st5" d="M324.5,141l4.6-1.3c0,0,6.5-3,7.8-2.6s4.1,4.7,4.1,7.1c0,0,4.3,3.8,4.9,9.4l1.3-0.6c0,0-0.1-5,2.8-4.9
		s4.1,3.5,3.9,4.6s-3.3,5.5-3.3,5.5s7.1-1.1,7.4-15s-15.1-16.2-22.5-15.6c-3.8,0.4-7.5,0.5-11.3,0.4l0.4,4l-3,0.8l2.3,2.8l-2.5,1.1
		L324.5,141z"/>
	<path class="st24" d="M350.3,293c0,0,18.1,4.8,23,18.3"/>
	<path class="st24" d="M358.5,300.2c0,0-9.8,16.3-24.8,24.8"/>
	<path class="st24" d="M344.8,391.9c0,0,5.6-1.2,7.1-3.4"/>
	<path class="st24" d="M375.8,393.9c0,0,5.4-2.8,10.9,0"/>
	<path class="st24" d="M393.4,318.1c0,0-9.1,23.6-13.8,25.8"/>
	<path class="st24" d="M353.4,281c0.2,2.6,11,14.5,19.9,19.2"/>
	<path class="st24" d="M362.6,271c1.3,3.2,1.6,6.7,0.8,10c-0.9,2.9-0.9,6,0,8.9"/>
	<path class="st3" d="M343,221.8c0,0,16.8,21.8,34.9,28.9"/>
	<path class="st3" d="M360.4,186.6c0,0-0.1,14.8,10.6,21.5"/>
	<path class="st23" d="M366.4,208.2c-2.3,2.2,0.2,30.1,0.2,30.1s-13.1,5.1-17.2,8.4s-23.6,10.9-23.6,10.9s-3,10.2,0.7,10.6
		s42.5-12.9,51.3-17.5c0,0,5.8-34,5.7-42.7"/>
	<path class="st23" d="M327.4,257c-1.8-0.3-5-1.5-6.7-1.1c-1.7,0.4-4.8,2.2-7.9,3s-1.9,2,0,2.4c1.4,0.2,2.7,0.2,4.1,0l-2.6,2.5
		c-1.5,0.8-3,1.5-4.5,2.1c-0.9,0-4.2,0.9-4,2.3s2.1,1.2,4.2,1.3c0,0-3.4,0.7-3,2.6c0.2,1.3,4,0.1,5.9,0.1c0,0-1.6,1.7-0.4,2.2
		s3.8-0.8,3.8-0.8s-0.1,1.4,1.1,1.6s4.1-1,6.2-2.2c2-1.3,3.9-2.7,5.7-4.2c0.8-0.7,1.6-1.3,2.6-1.7"/>
	<path class="st3" d="M310,269.6c0.9-0.1,1.9-0.2,2.8-0.3c0.8-0.2,1.6-0.5,1.6-0.5"/>
	<path class="st3" d="M312.9,272.3c1.2-0.2,2.4-0.6,3.4-1.2"/>
	<path class="st3" d="M316.3,273.7c0.9-0.1,1.7-0.4,2.5-0.9"/>
	<path class="st3" d="M314.6,264.6c0,0-0.7,1.6,0,2.6s1.6,1,1.7,2s1.9,1,2.5,1.6s1.1,1.9,3.1,2"/>
	<path class="st6" d="M365.6,179.3c-6.8,15.4,0,36.8,0,36.8s16.5,5.6,18,3.2s4.3-14.2,4.8-19.7"/>
	<path class="st3" d="M383.6,201.3c0,0-7,9.6-12.6,9.8"/>
</g>
<g id="freepik--character-2--inject-13">
	<path class="st5" d="M133.4,443.4c0,0-1.7-6.5,0.3-9c3.6-4.3-0.4-8,3.2-9.5l1.5,1.8c0.3-1.8-0.6-7.2,6.1-7.9c8.1-0.9,8.2,5,8.7,7
		l-0.1-2.7c3.4,0,1.7,3.4,6.9,9.1c2.8,3.1,4.1,7.1,3.8,11.3L133.4,443.4z"/>
	<path class="st5" d="M195,443.4c-3.2-1.5-0.3-13.7-0.3-13.7s-4.4-2.9,0-6c3.4,2.9,8.2,3.7,12.4,2c0,0,0.9-8.2,6-7.1
		c0,0,1.3,5.2,4.3,8.2c8.1,8,18.7,9,20.4,12.8c0.5,1.2-0.1,3.8-0.1,3.8L195,443.4z"/>
	<path class="st25" d="M181.1,247.9l4,8.5c0,0,16.5,34.2,26.7,73.3c0.2,0.9,5.5,19.5,1.3,65.6l2.4,8.1l-2.6,13.4
		c0,0,3.9,5.7,3.8,7.5c0,0-9.7,1.8-13,3.5c-2.5,1.4-10.1,8.8-10.1,8.8c-2.1-0.4-2.3-9.1-2.3-9.1s-4.5-77.1-5.8-80.4
		s-9.2-17.6-21.5-50.4c0,0-0.3,45.8-3.6,57.4c-2.9,10.3,0.5,39.1,0.5,39.1l-2,32.1c0,0,6.9,7.2,1.3,9.1c0,0-3.8-7.2-14.4-8.9
		c-5.4-0.8-12.2,8.8-12.2,8.8c-2.4-0.8,1-12.9,1-12.9c-7.6-57.1-2-46.8-3.5-74.7c-1-17.9-6.1-94.6-0.1-100.8L181.1,247.9z"/>
	<g>
		<defs>
			<path id="SVGID_00000094596047413486893080000006944509824025071488_" d="M181.1,247.9l4,8.5c0,0,16.5,34.2,26.7,73.3
				c0.2,0.9,5.5,19.5,1.3,65.6l2.4,8.1l-2.6,13.4c0,0,3.9,5.7,3.8,7.5c0,0-9.7,1.8-13,3.5c-2.5,1.4-10.1,8.8-10.1,8.8
				c-2.1-0.4-2.3-9.1-2.3-9.1s-4.5-77.1-5.8-80.4s-9.2-17.6-21.5-50.4c0,0-0.3,45.8-3.6,57.4c-2.9,10.3,0.5,39.1,0.5,39.1l-2,32.1
				c0,0,6.9,7.2,1.3,9.1c0,0-3.8-7.2-14.4-8.9c-5.4-0.8-12.2,8.8-12.2,8.8c-2.4-0.8,1-12.9,1-12.9c-7.6-57.1-2-46.8-3.5-74.7
				c-1-17.9-6.1-94.6-0.1-100.8L181.1,247.9z"/>
		</defs>
		<clipPath id="SVGID_00000093857933853169201230000014584633606361714561_">
			<use xlink:href="#SVGID_00000094596047413486893080000006944509824025071488_"  style="overflow:visible;"/>
		</clipPath>
		<g style="clip-path:url(#SVGID_00000093857933853169201230000014584633606361714561_);">
			<path class="st22" d="M128.3,274.3c26.7,2.1,49.9-6.6,59.9-11.2c-1.9-4.3-3.1-6.7-3.1-6.7l-4-8.5l-50-1.8
				C129,248.4,128.2,259.8,128.3,274.3z"/>
			<path class="st22" d="M164.2,297.4c12.2,32.4,20,46.5,21.3,49.8c0.7,1.9,2.5,28.1,3.9,50c1.6-20,3.2-41.1,3.4-45.2
				c0.3-8.2-5.6-19.5-6.5-22.5s1.1-6.1,1.1-6.1l-10.7-13.5c0.4-4.6-5.3-24.6-5.3-24.6C168,288.7,165,295.5,164.2,297.4z"/>
		</g>
	</g>
	<path class="st3" d="M181.1,247.9l4,8.5c0,0,16.5,34.2,26.7,73.3c0.2,0.9,5.5,19.5,1.3,65.6l2.4,8.1l-2.6,13.4c0,0,3.9,5.7,3.8,7.5
		c0,0-9.7,1.8-13,3.5c-2.5,1.4-10.1,8.8-10.1,8.8c-2.1-0.4-2.3-9.1-2.3-9.1s-4.5-77.1-5.8-80.4s-9.2-17.6-21.5-50.4
		c0,0-0.3,45.8-3.6,57.4c-2.9,10.3,0.5,39.1,0.5,39.1l-2,32.1c0,0,6.9,7.2,1.3,9.1c0,0-3.8-7.2-14.4-8.9c-5.4-0.8-12.2,8.8-12.2,8.8
		c-2.4-0.8,1-12.9,1-12.9c-7.6-57.1-2-46.8-3.5-74.7c-1-17.9-6.1-94.6-0.1-100.8L181.1,247.9z"/>
	<path class="st3" d="M164,296.8c0,0,6.1-11.8,11.3-15.1"/>
	<path class="st3" d="M177.6,277.9c0,0-18.6,5.6-25,6.7"/>
	<path class="st3" d="M168.1,259c0.8,15.5,6.2,18.1,1,21.5c0,0,0.1,7.2-2.5,11.8"/>
	<path class="st3" d="M135.6,253.1c0,0,2.2,23.8-5.1,28.2"/>
	<path class="st3" d="M130.5,260.8c0,0-0.6,15.8,0,28.5c0,0,1.8,53.9,3.7,60.6s-2.8,17-2.4,46.2"/>
	<path class="st3" d="M148,419c-1.7-0.4-3.5-0.1-5.1,0.7"/>
	<path class="st3" d="M159,425.4c-2.3-2.2-5-4.1-7.9-5.4"/>
	<path class="st3" d="M156,300.6c-4.1,4.6-10.6,13.3-17.3,14"/>
	<path class="st3" d="M162.3,293.1c-1.3,1.6-2.6,3.1-3.9,4.7"/>
	<path class="st3" d="M156.4,346.9c0,0-9.3,12.7-14.4,13.4"/>
	<path class="st3" d="M167.4,294.5c0,0,16.6,46.2,22.4,50.8c0,0,0.6,34,0.8,45.9s2.9,27.6,2.9,27.6"/>
	<path class="st3" d="M211.2,418.5c0,0-6.4,2.2-9.5,3.6c-1.9,0.9-3.4,2.5-4.2,4.5"/>
	<path class="st3" d="M195.1,328.7c-8.9-5.6-20.7-12.6-25.4-22.4"/>
	<path class="st3" d="M202.8,333.3c-1.7-0.9-3.4-1.9-5-2.9"/>
	<path class="st3" d="M174.8,265.2c-4.8-0.1-10-0.7-14.1-3.4"/>
	<path class="st3" d="M182.4,264.8c-1.4,0.2-2.8,0.3-4.1,0.4"/>
	<path class="st5" d="M191.3,158.6c-3.7-5.5-22.3-6.9-34.3-6.9s-26.5-2-33.1,11.5c-5,10.3,6.5,64.8,6.5,64.8l-2.8,23.5
		c21.7,6.8,58.8,5.3,58.8,5.3l-5-21.3C181.4,235.6,194.9,164.2,191.3,158.6z"/>
	<path class="st23" d="M149.9,138c0,0,1.6,12.8-3.3,15.6c0,0,2.4,9.4,11,10s12.3-8.6,12.3-8.6L149.9,138z"/>
	<path class="st27" d="M195.2,105.1l21.9-2c1-0.1,1.9,0.7,2,1.7l0,0l1.4,15.6l0,0l-25.6,2.4l0,0l-1.4-15.6
		C193.5,106.1,194.2,105.2,195.2,105.1z"/>
	<g>
		<defs>
			<path id="SVGID_00000102512824142244647680000017461652593694122899_" d="M195.2,105.1l21.9-2c1-0.1,1.9,0.7,2,1.7l0,0l1.4,15.6
				l0,0l-25.6,2.4l0,0l-1.4-15.6C193.5,106.1,194.2,105.2,195.2,105.1z"/>
		</defs>
		<clipPath id="SVGID_00000178206374964772056400000003727813879243792812_">
			<use xlink:href="#SVGID_00000102512824142244647680000017461652593694122899_"  style="overflow:visible;"/>
		</clipPath>
		<g style="clip-path:url(#SVGID_00000178206374964772056400000003727813879243792812_);">
			<path class="st13" d="M195.2,105.1l21.9-2c1-0.1,1.9,0.7,2,1.7l0,0l1.4,15.6l0,0l-25.6,2.4l0,0l-1.4-15.6
				C193.5,106.1,194.2,105.2,195.2,105.1z"/>
			
				<rect x="212" y="104.9" transform="matrix(0.9958 -9.184922e-02 9.184922e-02 0.9958 -9.3051 20.2369)" class="st14" width="6.3" height="12.7"/>
		</g>
	</g>
	<path class="st3" d="M195.2,105.1l21.9-2c1-0.1,1.9,0.7,2,1.7l0,0l1.4,15.6l0,0l-25.6,2.4l0,0l-1.4-15.6
		C193.5,106.1,194.2,105.2,195.2,105.1z"/>
	<path class="st27" d="M233.1,101.5l21.9-2c1-0.1,1.9,0.7,2,1.7l0,0l1.4,15.6l0,0l-25.7,2.4l0,0l-1.4-15.6
		C231.3,102.6,232.1,101.6,233.1,101.5L233.1,101.5z"/>
	<g>
		<defs>
			<path id="SVGID_00000027567821265056175640000016676607530997013127_" d="M233.1,101.5l21.9-2c1-0.1,1.9,0.7,2,1.7l0,0l1.4,15.6
				l0,0l-25.7,2.4l0,0l-1.4-15.6C231.3,102.6,232.1,101.6,233.1,101.5L233.1,101.5z"/>
		</defs>
		<clipPath id="SVGID_00000147942497613942707600000008254714418956893569_">
			<use xlink:href="#SVGID_00000027567821265056175640000016676607530997013127_"  style="overflow:visible;"/>
		</clipPath>
		<g style="clip-path:url(#SVGID_00000147942497613942707600000008254714418956893569_);">
			<path class="st13" d="M233.1,101.5l21.9-2c1-0.1,1.9,0.7,2,1.7l0,0l1.4,15.6l0,0l-25.7,2.4l0,0l-1.4-15.6
				C231.3,102.6,232.1,101.6,233.1,101.5L233.1,101.5z"/>
			
				<rect x="252" y="101.3" transform="matrix(0.9958 -9.184922e-02 9.184922e-02 0.9958 -8.8149 23.7741)" class="st14" width="3.8" height="12.7"/>
		</g>
	</g>
	<path class="st3" d="M233.1,101.5l21.9-2c1-0.1,1.9,0.7,2,1.7l0,0l1.4,15.6l0,0l-25.7,2.4l0,0l-1.4-15.6
		C231.3,102.6,232.1,101.6,233.1,101.5L233.1,101.5z"/>
	<path class="st7" d="M225.2,102.3l21.9-2c1-0.1,1.9,0.7,2,1.7l0,0l1.4,15.6l0,0l-25.7,2.4l0,0l-1.4-15.6
		C223.3,103.3,224.1,102.4,225.2,102.3C225.1,102.3,225.1,102.3,225.2,102.3z"/>
	<path class="st7" d="M263,98.8l21.9-2c1-0.1,1.9,0.7,2,1.7l0,0l1.4,15.6l0,0l-25.7,2.4l0,0l-1.4-15.6C261.2,99.8,262,98.9,263,98.8
		L263,98.8z"/>
	
		<rect x="241.9" y="102.1" transform="matrix(0.9958 -9.184922e-02 9.184922e-02 0.9958 -8.9259 22.9698)" class="st14" width="6.3" height="12.7"/>
	
		<rect x="279.3" y="98.7" transform="matrix(0.9958 -9.184922e-02 9.184922e-02 0.9958 -8.4497 26.3925)" class="st14" width="6.3" height="12.7"/>
	<path class="st27" d="M299.2,109.4l6.6,71.9L190,192l-6.6-71.9c-0.2-2.5,1.6-4.7,4.1-4.9l106.8-9.8
		C296.8,105.1,299,106.9,299.2,109.4C299.2,109.4,299.2,109.4,299.2,109.4z"/>
	<g>
		<defs>
			<path id="SVGID_00000071551792659335387930000010169133830423144081_" d="M299.2,109.4l6.6,71.9L190,192l-6.6-71.9
				c-0.2-2.5,1.6-4.7,4.1-4.9l106.8-9.8C296.8,105.1,299,106.9,299.2,109.4C299.2,109.4,299.2,109.4,299.2,109.4z"/>
		</defs>
		<clipPath id="SVGID_00000041253985412971522110000017439663981683136442_">
			<use xlink:href="#SVGID_00000071551792659335387930000010169133830423144081_"  style="overflow:visible;"/>
		</clipPath>
		<g style="clip-path:url(#SVGID_00000041253985412971522110000017439663981683136442_);">
			<path class="st13" d="M299.2,109.4l6.6,71.9L190,192l-6.6-71.9c-0.2-2.5,1.6-4.7,4.1-4.9l106.8-9.8
				C296.8,105.1,299,106.9,299.2,109.4C299.2,109.4,299.2,109.4,299.2,109.4z"/>
		</g>
	</g>
	<path class="st3" d="M299.2,109.4l6.6,71.9L190,192l-6.6-71.9c-0.2-2.5,1.6-4.7,4.1-4.9l106.8-9.8
		C296.8,105.1,299,106.9,299.2,109.4C299.2,109.4,299.2,109.4,299.2,109.4z"/>
	<path class="st7" d="M299.2,109.4l6.6,71.9l-86,7.9l-6.6-71.9c-0.2-2.5,1.6-4.7,4.1-4.9l76.9-7.1
		C296.7,105,298.9,106.9,299.2,109.4C299.2,109.4,299.2,109.4,299.2,109.4z"/>
	<path class="st14" d="M293.6,112.5l-73.5,6.8c-1,0.1-1.9-0.7-2-1.7l0,0c-0.1-1,0.7-1.9,1.7-2l73.5-6.8c1-0.1,1.9,0.7,2,1.7l0,0
		C295.4,111.5,294.6,112.4,293.6,112.5z"/>
	<path class="st5" d="M164.5,112.6c0,0-16.9-3.4-18.9,7.5s4.3,15.5,4.3,15.5L164.5,112.6z"/>
	<path class="st23" d="M150,141.6c-1.9-5.4-2.2-11.3-0.9-16.9c1.7-7,10-16.6,22.6-7.9c6.5,4.5,6.9,14.3,4.9,23.3
		c-0.5,2.1-0.1,4.2-0.8,6.2c-2.5,6.9-7.1,12.2-9.6,12.3c-4.2,0.2-12.5-4.8-12.2-9.2"/>
	<path class="st3" d="M166.9,138.4c0,0-3.4-2.4-6.6-0.4"/>
	<path class="st3" d="M173.2,138c0,0,2.6-2.3,4.2-2"/>
	<path class="st5" d="M162.1,142.2c0,0.6,0.3,1.1,0.7,1.1s0.7-0.5,0.7-1.1s-0.3-1.1-0.7-1.1S162.1,141.6,162.1,142.2z"/>
	<ellipse class="st5" cx="173.2" cy="141.6" rx="0.7" ry="1.1"/>
	<path class="st3" d="M171.8,140.4c-1.2,1.6,0.5,7.8,0,8.2s-3.7-0.8-3.7-0.8s-0.7-0.9,0.8-1.4"/>
	<path class="st3" d="M169,151.7c0,0-4.3,0-5.4-1.6"/>
	<path class="st31" d="M158.8,128.6l-0.3,5.2c0,0-3.7,1.9-4.6,3.8c-0.5,1.3-0.7,2.6-0.6,4c0,0-2.2-3.9-3.4-3.6
		c-0.4,0.1-0.4,1.7-0.4,1.7s-5-11.2-0.5-17.1S158.8,128.6,158.8,128.6z"/>
	<path class="st23" d="M151.7,140.4c0,0-1-3.8-4.4-4.7s-1.1,8,1.8,9.2s3.6,2,3.8,0.9"/>
	<path class="st5" d="M147.1,127.9c-0.3-0.4-1.5-10,4.8-14.3s17.1-3.9,23.9,2.1s4.9,16.3,0,19.9v-4.3c0,0-2.2,4.3-9,4.7l2.1-3.2
		c0,0-3.3,2-9.2,1.8c0,0,2.8-2.2,2.4-4.1C162.1,130.5,152.8,135.7,147.1,127.9z"/>
	<path class="st23" d="M148.3,162.6c-4.7,0.6-11.3,6.7-7,17.5c2.8,6.9,25.5,2.8,25.5,2.8c8.4-3.5,20.8-16,29.8-21.8
		c0,0-1.9-12-4.1-10.3c-10.2,7.8-18.6,8.4-32.9,15.2C159.7,166,151.3,162.3,148.3,162.6z"/>
	<path class="st23" d="M158.8,175.9c-0.1,4.5,1.7,5.3,4.8,6.3"/>
	<path class="st23" d="M191.9,151.7c0.2-0.6,4-7.3,5.1-9s5.9-3.2,7.7-4.2s2-2.6,3-1.5s0,3.6-5.5,6.3c2,0.1,3.9,0.1,5.9,0
		c1.5-0.2,2.8-1.6,3.5-0.6s0.8,2.6-2.5,3.6c-1.6,0.6-3.2,0.9-4.9,1c1.6,0.3,3.2,0.8,4.8,1.4c0.5,0.4,1.3,1.3,2.1,1.4s1.6,1,0.2,2
		c-1,0.6-2.3,0.6-3.4,0.1c0,0,3.8,1.9,2.6,3s-5,0.9-5,0.9s-5.7,6.9-10.4,5.5"/>
	<path class="st3" d="M198.7,142.7c0.7,0.2,1.2,0.7,1.3,1.3c0.3,1.2,1.3,1.2,1.9,2.6s0.4,3.4,1,4.1s0,3.6,0,3.6"/>
	<path class="st24" d="M149.3,161.8c-2.4-3.1-7.9-1.7-7.9-1.7"/>
	<path class="st24" d="M138.4,154.3c0,0,5.7,0.8,7.3,5.5"/>
	<path class="st24" d="M148.3,184.1c0,0-5.5,4.3-13.9-1.9"/>
	<path class="st24" d="M141.4,185.4c0,0-2.8,3.9-9.6,3.8"/>
	<path class="st24" d="M176.4,234.1c0,0-14.4,11.5-29.1,10"/>
	<path class="st24" d="M137.4,208.8c0,0,22.4,16.4,39,17.5"/>
</g>
<g id="freepik--character-1--inject-13">
	<path class="st5" d="M138,330.5c3.9-2.1,8.4-2.7,12.6-1.6c7.3,1.8,26.3,29,28.9,31.6s7.6,4,12.1,8.8c7.2,7.5,17.7,14.1,18.7,14.1
		s1.9-0.7,3.2-0.9s11.5-1.2,11.5-1.2s3.4,0.8,0,2.2s-3.2,2.8-3.2,2.8s-0.7,1.1,0.7,2.2s2.2,0.5,4.2,3.3s-2.8,1.2-2.8,1.2
		s1.1,3-1.1,2.7s-0.3,2.9-3.7,2.5s-10.8-5.1-12.6-9.9c0,0-29.9-14.3-34.4-18s-23.3-23.5-24.6-23.7"/>
	<path class="st27" d="M216.3,357.3h22c1,0,1.9,0.8,1.9,1.9l0,0v15.7l0,0h-25.8l0,0v-15.7C214.4,358.2,215.3,357.3,216.3,357.3
		C216.3,357.3,216.3,357.3,216.3,357.3z"/>
	<g>
		<defs>
			<path id="SVGID_00000162335201355839140750000004639971900097302419_" d="M216.3,357.3h22c1,0,1.9,0.8,1.9,1.9l0,0v15.7l0,0
				h-25.8l0,0v-15.7C214.4,358.2,215.3,357.3,216.3,357.3C216.3,357.3,216.3,357.3,216.3,357.3z"/>
		</defs>
		<clipPath id="SVGID_00000137814619527817474600000009298656605714090941_">
			<use xlink:href="#SVGID_00000162335201355839140750000004639971900097302419_"  style="overflow:visible;"/>
		</clipPath>
		<g style="clip-path:url(#SVGID_00000137814619527817474600000009298656605714090941_);">
			<path class="st13" d="M216.3,357.3h22c1,0,1.9,0.8,1.9,1.9l0,0v15.7l0,0h-25.8l0,0v-15.7C214.4,358.2,215.3,357.3,216.3,357.3
				C216.3,357.3,216.3,357.3,216.3,357.3z"/>
			<rect x="232.4" y="359" class="st14" width="6.3" height="12.7"/>
		</g>
	</g>
	<path class="st3" d="M216.3,357.3h22c1,0,1.9,0.8,1.9,1.9l0,0v15.7l0,0h-25.8l0,0v-15.7C214.4,358.2,215.3,357.3,216.3,357.3
		C216.3,357.3,216.3,357.3,216.3,357.3z"/>
	<path class="st27" d="M254.3,357.3h22c1,0,1.9,0.8,1.9,1.9l0,0v15.7l0,0h-25.8l0,0v-15.7C252.4,358.2,253.3,357.3,254.3,357.3
		C254.3,357.3,254.3,357.3,254.3,357.3z"/>
	<g>
		<defs>
			<path id="SVGID_00000142176608582874560840000002350412946820841869_" d="M254.3,357.3h22c1,0,1.9,0.8,1.9,1.9l0,0v15.7l0,0
				h-25.8l0,0v-15.7C252.4,358.2,253.3,357.3,254.3,357.3C254.3,357.3,254.3,357.3,254.3,357.3z"/>
		</defs>
		<clipPath id="SVGID_00000090259254132170146230000012882714592129788560_">
			<use xlink:href="#SVGID_00000142176608582874560840000002350412946820841869_"  style="overflow:visible;"/>
		</clipPath>
		<g style="clip-path:url(#SVGID_00000090259254132170146230000012882714592129788560_);">
			<path class="st13" d="M254.3,357.3h22c1,0,1.9,0.8,1.9,1.9l0,0v15.7l0,0h-25.8l0,0v-15.7C252.4,358.2,253.3,357.3,254.3,357.3
				C254.3,357.3,254.3,357.3,254.3,357.3z"/>
			<rect x="272.5" y="359" class="st14" width="3.8" height="12.7"/>
		</g>
	</g>
	<path class="st3" d="M254.3,357.3h22c1,0,1.9,0.8,1.9,1.9l0,0v15.7l0,0h-25.8l0,0v-15.7C252.4,358.2,253.3,357.3,254.3,357.3
		C254.3,357.3,254.3,357.3,254.3,357.3z"/>
	<path class="st7" d="M246.3,357.3h22c1,0,1.9,0.8,1.9,1.9l0,0v15.7l0,0h-25.8l0,0v-15.7C244.4,358.2,245.3,357.3,246.3,357.3
		C246.3,357.3,246.3,357.3,246.3,357.3z"/>
	<path class="st7" d="M284.3,357.3h22c1,0,1.9,0.8,1.9,1.9l0,0v15.7l0,0h-25.8l0,0v-15.7C282.5,358.2,283.3,357.3,284.3,357.3z"/>
	<rect x="262.5" y="359" class="st14" width="6.3" height="12.7"/>
	<rect x="300" y="359" class="st14" width="6.3" height="12.7"/>
	<path class="st27" d="M319.4,371.2v72.2H203.1v-72.2c0-2.5,2-4.5,4.6-4.5h107.2C317.4,366.7,319.4,368.7,319.4,371.2L319.4,371.2z"
		/>
	<g>
		<defs>
			<path id="SVGID_00000049939793570045281130000014143979270433546115_" d="M319.4,371.2v72.2H203.1v-72.2c0-2.5,2-4.5,4.6-4.5
				h107.2C317.4,366.7,319.4,368.7,319.4,371.2L319.4,371.2z"/>
		</defs>
		<clipPath id="SVGID_00000003102854899154468790000012416896171011536543_">
			<use xlink:href="#SVGID_00000049939793570045281130000014143979270433546115_"  style="overflow:visible;"/>
		</clipPath>
		<g style="clip-path:url(#SVGID_00000003102854899154468790000012416896171011536543_);">
			<path class="st13" d="M319.4,371.2v72.2H203.1v-72.2c0-2.5,2-4.5,4.6-4.5h107.2C317.4,366.7,319.4,368.7,319.4,371.2L319.4,371.2
				z"/>
		</g>
	</g>
	<path class="st3" d="M319.4,371.2v72.2H203.1v-72.2c0-2.5,2-4.5,4.6-4.5h107.2C317.4,366.7,319.4,368.7,319.4,371.2L319.4,371.2z"
		/>
	<path class="st7" d="M319.4,371.2v72.2h-86.3v-72.2c0-2.5,2-4.5,4.6-4.5h77.2C317.4,366.7,319.4,368.7,319.4,371.2L319.4,371.2z"/>
	<path class="st14" d="M313.6,373.8h-73.8c-1,0-1.9-0.8-1.9-1.9l0,0l0,0c0-1,0.8-1.9,1.8-1.9c0,0,0,0,0,0h73.8c1,0,1.9,0.8,1.9,1.9
		l0,0l0,0C315.5,372.9,314.7,373.8,313.6,373.8C313.6,373.8,313.6,373.8,313.6,373.8z"/>
	<path class="st31" d="M177,443.4c-6,0-14.4-3.9-24.1-7.9c-10.1-4.2-21.5-8.7-33.2-9.4c-4.3-0.2-1.7,17.3-1.7,17.3h-9.5
		c0,0-9.4-12.5-10.5-23.7c0,0,7.7-4.7,9.5-5c0.6-0.1,1.3-0.1,1.9-0.1c2.1,0,4.8,0.1,4.8,0.1l0,0c-0.4-0.3-7.4-4.5-11.3-8.8
		c-3.2-3.5-4.7-9.1-4.8-12.5c0.1-2.2,0.4-4.4,0.7-6.6l49.9,0.8c0,0,0.5,0.4,1.5,1.1c5.8,4.2,26.9,19.9,37.5,31.8
		c3.4,3.8,5.7,7.2,6.1,9.8C195.5,441.8,186.1,443.4,177,443.4z"/>
	<path class="st5" d="M187.8,420.5l-24.3,5.5c-4.2,2.4-7.8,5.6-10.7,9.4c-10.1-4.2-21.5-8.7-33.2-9.4c-4.3-0.2-1.7,17.3-1.7,17.3
		h-9.5c0,0-9.4-12.5-10.4-23.7c0,0,8.8,12.6,11,19c0,0,3.4-11.8,9-16.6c-2.5-2.8-5.4-5.3-8.5-7.5c2.1,0,4.8,0.1,4.8,0.1l0,0
		c-0.4-0.3-7.4-4.5-11.3-8.8c-3.2-3.5-4.5-9.1-4.8-12.5c-0.1-1.6,0.1-6.6,0.1-6.6s37.2,5.3,52.1,1.9
		C156.1,393,177.2,408.7,187.8,420.5z"/>
	<path class="st3" d="M148.8,419.7c0,0,19.8,9.9,25.1,13.8s6.9,2.8,6.9,2.8"/>
	<path class="st3" d="M102.9,418.6c0,0,4.8,7.2,5,9.4"/>
	<path class="st5" d="M182.5,279.5c0,0,10.5-4.6,9.5,14.9s2.6,20.5,2.6,20.5s-26.5,10.9-33.2,1.6S161,281.7,182.5,279.5z"/>
	<path class="st23" d="M181,314.9c0,0-10.9,5.1-11.9,9.9s-14.6-2.4-14.6-2.4l9.9-14.2L181,314.9z"/>
	<path class="st31" d="M109.5,367c-25,31.8-4.7,47.2,23.6,44.7l-5.7,9l14.3,2.5c0,0,10.9-7.1,25.8-14.8c25.4-13,35.6-12.2,33-25.2
		s-33.7-21.5-64.9-7.7C135.7,375.4,118.8,355.3,109.5,367z"/>
	<path class="st23" d="M118.2,436.3c0,0,6.5-18,9.2-19c2.7-1,13,2.9,14.3,5.8c0,0,3.5-5.3,4.9-3.1s-0.6,6,0,8.9s7.7,6.9,10.5,7.4
		s4.4,2.1,4.4,3.7v3.4h-43.3C117.3,441.1,117.3,438.6,118.2,436.3z"/>
	<path class="st3" d="M146.6,426.1c0,0-5.7,2.8-7.8,2s1.1,4.8,1.9,5.3s6-1.9,6-1.9"/>
	<path class="st3" d="M123.7,423.1c0,0,7.8,0.1,10.1,3"/>
	<path class="st3" d="M118.2,436.3c0,0,12.4,2.9,13.4,2.9c1.7-0.3,3.4-0.8,5-1.5c0,0,3.4,1.7,5.7,2.8s17,0,17,0"/>
	<path class="st3" d="M133.2,411.7c11.8-1.3,34.8-15.9,42.8-20.9s10-3.7,10-3.7"/>
	<path class="st7" d="M98.2,386.8l1.9-14.4l4.6-3.4c7.4-17.9,40.9-51.4,50-51.3c13.7,0.2,16.1,14.5,17.8,30.3s-19.7,13.4-19.7,13.4
		v4l-12.1,6.3l7.4-0.2C148,371.4,126.8,392,98.2,386.8z"/>
	<path class="st23" d="M157.6,290c2.9-9,16-11.4,20.7-9.9c3.9,1.5,7,4.4,8.9,8.1c1.2,2.6-1.3,7.2,0.5,9.8c2.6,3.8,2.3,11.9,1.4,17
		c-0.5,2.7-11.7,4.3-20.9-2C158.3,306.2,154.8,298.7,157.6,290z"/>
	<path class="st5" d="M170.8,277.4c0,0,11.6-1.9,11.6,1.1c0.5,19.7-11.3,23.9-11.3,23.9s-4.8-3.9-5.9-1.2s1.7,9.9,5.1,10.1
		c-1.6,2.5-1.7,5.7-0.1,8.2c0,0-19.6,3.3-21.2-5.8c0.8-3.2,1.3-6.4,1.6-9.6C151.9,291.4,148.9,282.8,170.8,277.4z"/>
	<path class="st23" d="M186.3,297.5c2.4,2.2,4.1,2.2,4.1,3c-0.1,2.4-3,3.6-3,3.6"/>
	<path class="st3" d="M187.3,308.1c-1.7,0.6-3.5,0.6-5.3,0.1"/>
	<path class="st5" d="M180.9,285.4c0,0,7.7-2.2,6.3,10.2c0,0,3.2-4.4,3.2-9.2c0-8.5-11.3-6.8-11.3-6.8l1.5,6"/>
	<path class="st3" d="M187.9,291.5c-0.6-0.4-1.3-0.5-2-0.4"/>
	<path class="st3" d="M182.7,291.4c0,0-4.1,0.2-5.9,3"/>
	<path class="st5" d="M181.7,297.9c0.1,0.7-0.2,1.2-0.6,1.3s-0.8-0.5-0.9-1.1s0.2-1.2,0.6-1.3S181.7,297.3,181.7,297.9z"/>
	<path class="st3" d="M133.8,414.7c0,0,9.2,1,11.2,5"/>
	<path class="st23" d="M157.1,324.5c3.9-2.1,8.4-2.7,12.6-1.6c7.3,1.9,26.3,29,28.9,31.6s7.6,4,12.1,8.8
		c7.2,7.5,17.7,14.1,18.7,14.1s1.9-0.7,3.2-0.9s11.5-1.2,11.5-1.2s3.4,0.8,0,2.2s-3.2,2.8-3.2,2.8s-0.7,1.1,0.7,2.2s2.2,0.5,4.2,3.3
		s-2.8,1.2-2.8,1.2s1.1,3-1.1,2.7s-0.3,2.9-3.7,2.5s-10.8-5.1-12.6-9.9c0,0-29.9-14.3-34.4-18s-23.3-23.5-24.6-23.7"/>
	<path class="st7" d="M152.8,321.6c0,0,14.8-4,19.9-1s14.9,16.4,14.9,16.4s-11.9,10.6-15.6,9.7s-14.9-2.6-14.9-2.6"/>
	<path class="st3" d="M165.6,345.3c0,0-5.4,2.9-7.3,2.9"/>
	<path class="st3" d="M157.1,330.5c0.4,0.8,0.3,9.4,9.7,12.1"/>
	<path class="st3" d="M106.9,369.3c0,0,20,3.4,26.9-2.6"/>
	<path class="st3" d="M140.6,371.6c0,0-5-0.9-6.8,1.7s-11.9,5-11.9,5"/>
	<path class="st3" d="M100.4,390.7c0,0-2.9,12.5,9.4,18"/>
	<path class="st3" d="M106.9,391.6c0,0,0.1,6.1,2,9.5l6.1,2l6.9-3.8c0,0-1.5-7.9-1.6-9.4"/>
</g>
</svg>
