<?xml version="1.0" encoding="utf-8"?>
<!-- Generator: Adobe Illustrator 27.1.1, SVG Export Plug-In . SVG Version: 6.00 Build 0)  -->
<svg version="1.1" id="Layer_1" xmlns="http://www.w3.org/2000/svg" xmlns:xlink="http://www.w3.org/1999/xlink" x="0px" y="0px"
	 viewBox="0 0 609.8 443.5" style="enable-background:new 0 0 609.8 443.5;" xml:space="preserve">
<style type="text/css">
	.st0{display:none;}
	.st1{display:inline;fill:#4F4FDE;}
	.st2{display:inline;opacity:0.7;fill:#FFFFFF;enable-background:new    ;}
	.st3{fill:#4F4FDE;}
	.st4{opacity:0.4;fill:#FFFFFF;enable-background:new    ;}
	.st5{fill:none;stroke:#FFFFFF;stroke-width:1.2133;stroke-linecap:round;stroke-linejoin:round;}
	.st6{opacity:0.7;}
	.st7{fill:#263238;stroke:#263238;stroke-width:1.3505;stroke-linecap:round;stroke-linejoin:round;}
	.st8{fill:#FFC703;stroke:#263238;stroke-width:1.3505;stroke-linecap:round;stroke-linejoin:round;}
	.st9{fill:#4F4FDE;stroke:#263238;stroke-width:1.3505;stroke-linecap:round;stroke-linejoin:round;}
	.st10{fill:#FFFFFF;stroke:#263238;stroke-width:1.3505;stroke-linecap:round;stroke-linejoin:round;}
	.st11{fill:none;stroke:#263238;stroke-width:1.3505;stroke-linecap:round;stroke-linejoin:round;}
	.st12{fill:#FFFFFF;}
	.st13{opacity:0.5;fill:#4F4FDE;enable-background:new    ;}
	.st14{fill:none;stroke:#FFFFFF;stroke-width:0.6752;stroke-linecap:round;stroke-linejoin:round;}
	.st15{fill:#263238;}
	.st16{opacity:0.5;}
	.st17{fill:none;stroke:#263238;stroke-width:0.6752;stroke-linecap:round;stroke-linejoin:round;}
	.st18{fill:#FFFFFF;stroke:#263238;stroke-width:0.6752;stroke-linecap:round;stroke-linejoin:round;}
	.st19{fill:#FFFFFF;stroke:#263238;stroke-width:1.3505;stroke-miterlimit:10;}
	.st20{fill:none;stroke:#FFFFFF;stroke-width:1.0129;stroke-linecap:round;stroke-linejoin:round;}
</style>
<g id="freepik--background-simple--inject-55" class="st0">
	<path class="st1" d="M475.6,101.1c0,0-30-41-84.1-41.8s-86.9,34.7-123.8,55c-19.3,10.6-43.2,9.9-64.4,16.3
		c-67.7,20.5-82.6,105.3-47.3,148.8c30.6,37.7,77.6,54,145.5,51.6s115.8-1.7,170.5-47.7S511.6,155.4,475.6,101.1z"/>
	<path class="st2" d="M475.6,101.1c0,0-30-41-84.1-41.8s-86.9,34.7-123.8,55c-19.3,10.6-43.2,9.9-64.4,16.3
		c-67.7,20.5-82.6,105.3-47.3,148.8c30.6,37.7,77.6,54,145.5,51.6s115.8-1.7,170.5-47.7S511.6,155.4,475.6,101.1z"/>
</g>
<g id="freepik--Shadow--inject-55">
	<path class="st3" d="M551.7,392c0-6.5-57.9-11.7-129.4-11.7c-63.7,0-116.7,4.2-127.4,9.6h-7.3c-122.9,0-222.6,12-222.6,26.8
		s99.7,26.8,222.6,26.8s222.6-12,222.6-26.8c0-5.2-12.3-10-33.5-14.1C521,400.8,551.7,396.7,551.7,392z"/>
	<path class="st4" d="M551.7,392c0-6.5-57.9-11.7-129.4-11.7c-63.7,0-116.7,4.2-127.4,9.6h-7.3c-122.9,0-222.6,12-222.6,26.8
		s99.7,26.8,222.6,26.8s222.6-12,222.6-26.8c0-5.2-12.3-10-33.5-14.1C521,400.8,551.7,396.7,551.7,392z"/>
</g>
<g id="freepik--Plants--inject-55">
	<path class="st3" d="M19.6,287.2c20.9,31.5,62.8,40.5,62.8,40.5s8-42.1-12.9-73.6S6.6,213.6,6.6,213.6S-1.4,255.7,19.6,287.2z"/>
	<path class="st4" d="M19.6,287.2c20.9,31.5,62.8,40.5,62.8,40.5s8-42.1-12.9-73.6S6.6,213.6,6.6,213.6S-1.4,255.7,19.6,287.2z"/>
	<line class="st5" x1="82.4" y1="327.7" x2="6.7" y2="213.6"/>
	<line class="st5" x1="33.6" y1="254.1" x2="11.5" y2="251.2"/>
	<line class="st5" x1="46.3" y1="272.8" x2="47" y2="236.3"/>
	<line class="st5" x1="53.3" y1="283.8" x2="20.5" y2="279.1"/>
	<line class="st5" x1="63.2" y1="298.3" x2="71.6" y2="266.6"/>
	<line class="st5" x1="71.6" y1="311" x2="47.3" y2="308.9"/>
	<path class="st3" d="M34.5,347.2c21.2,5.6,42.8-6.6,42.8-6.6s-12.7-21.4-33.9-27s-42.8,6.6-42.8,6.6S13.3,341.6,34.5,347.2z"/>
	<path class="st4" d="M34.5,347.2c21.2,5.6,42.8-6.6,42.8-6.6s-12.7-21.4-33.9-27s-42.8,6.6-42.8,6.6S13.3,341.6,34.5,347.2z"/>
	<line class="st5" x1="77.3" y1="340.6" x2="0.6" y2="320.3"/>
	<line class="st5" x1="27.9" y1="327.5" x2="17.2" y2="334.7"/>
	<line class="st5" x1="40.6" y1="330.7" x2="26.8" y2="314.6"/>
	<line class="st5" x1="47.9" y1="332.8" x2="31.8" y2="343.4"/>
	<line class="st5" x1="57.8" y1="335.3" x2="49.2" y2="318.3"/>
	<line class="st5" x1="66.3" y1="337.5" x2="54.9" y2="346"/>
	<path class="st3" d="M85,285.4c-4,21.6,9.8,42.2,9.8,42.2s20.4-14.2,24.4-35.9s-9.8-42.2-9.8-42.2S89.1,263.8,85,285.4z"/>
	<path class="st4" d="M85,285.4c-4,21.6,9.8,42.2,9.8,42.2s20.4-14.2,24.4-35.9s-9.8-42.2-9.8-42.2S89.1,263.8,85,285.4z"/>
	<line class="st5" x1="94.8" y1="327.6" x2="109.4" y2="249.5"/>
	<line class="st5" x1="104.2" y1="277.3" x2="96.2" y2="267.1"/>
	<line class="st5" x1="102" y1="290.2" x2="117" y2="275.3"/>
	<line class="st5" x1="100.4" y1="297.6" x2="88.7" y2="282.4"/>
	<line class="st5" x1="98.7" y1="307.6" x2="115" y2="297.8"/>
	<line class="st5" x1="97.1" y1="316.3" x2="87.8" y2="305.6"/>
	<path class="st3" d="M190.2,49.4c1.5-1.3,2.9-2.8,4.4-4.2s2.9-2.9,4.3-4.3c5.6-5.9,10.6-12.3,15-19.1c4.4-6.8,8-14.1,10.5-21.8
		c-2.7,7.6-6.3,14.9-10.9,21.5c-4.5,6.7-9.6,12.9-15.3,18.7c-11.1,11.6-24.8,20.2-37.2,30.6c1.2-2.4,2.2-4.9,3-7.5
		c1.2-4.1,1.3-8.2-2.6-10c-4.9-2.4-10.3,2-8.3,8.7c1.2,3.9,3.4,7.4,6.3,10.2c-2.6,2.2-5.1,4.5-7.6,6.8c-1.8,1.8-3.6,3.5-5.3,5.4
		c0.7-1.5,1.3-3.1,1.8-4.8c1.2-4.1,1.3-8.2-2.6-10.1c-4.9-2.3-10.3,2.1-8.3,8.7c1.2,3.7,3.2,7,5.8,9.8c-4.8,5.6-9.1,11.6-12.8,18
		c0.3-1.8,0.6-3.6,0.7-5.4c0.2-4.3-0.7-8.2-5-9.1c-5.3-1.1-9.5,4.5-6,10.5c2,3.3,4.8,6.1,8.1,8.1c-3.6,6.9-6.5,14.2-8.6,21.6
		c-0.2-1.5-0.4-3-0.8-4.5c-1-4.2-3-7.7-7.4-7.3c-5.4,0.5-7.9,7-2.7,11.7c2.7,2.5,6,4.3,9.5,5.3c-1.4,5.8-2.5,11.6-3.2,17.5
		c-0.1,0.9-0.2,1.9-0.3,2.8c-0.2,0.2-0.4,0.4-0.5,0.6l-0.8-2.3c-1.6-4-4.1-7.2-8.4-6.1c-5.3,1.3-6.7,8.1-0.9,12
		c2.9,1.9,6.3,3.2,9.7,3.7c0,0.2,0.1,0.3,0.2,0.5c-0.3,4.4-0.4,8.8-0.4,13.3c0,3.3,0.1,6.6,0.3,9.9c-4.6,0.3-7.5,5.6-3.9,10.9
		c1.5,2.2,3.4,4.1,5.5,5.7c0.8,6.2,1.9,12.3,3.1,18.4c-1.4-1.1-3.3-1.4-5-0.8c-2.8,1-4,3.4-4.2,6.3c-0.9,1.2-1.4,2.6-1.2,4.1
		c-2.4-3-4.7-6.2-6.9-9.4c2.8-2.5,5.1-5.6,6.7-9.1c3-6.7-1.3-12.1-6.3-10.3c-4,1.4-4.7,5.6-4.2,10.2c0.2,1.7,0.5,3.4,0.8,5.1
		c-0.8-1.2-1.6-2.4-2.4-3.6c-2-3-3.8-6.2-5.6-9.3c-0.5-0.8-0.9-1.5-1.3-2.3c3.3-2,6.1-4.6,8.3-7.7c4.2-6,1-12.1-4.2-11.3
		c-4.2,0.6-5.6,4.7-6,9.2c-0.2,2-0.2,3.9-0.1,5.9l-1.8-3.4c-3.8-7.7-7-15.6-9.7-23.8c3.7-1.6,7.1-4.1,9.8-7.1
		c4.8-5.6,2.2-11.9-3.1-11.7c-4.3,0.2-6.1,4.1-6.9,8.5c-0.4,2.4-0.7,4.8-0.8,7.2c-1.5-4.7-2.8-9.4-3.9-14.2c-0.8-3-1.3-6-1.9-9
		c4.1-1.1,7.9-3.1,11.1-5.9c5.5-4.9,3.7-11.6-1.5-12c-4.2-0.4-6.5,3.3-8,7.6c-0.8,2.7-1.5,5.5-2,8.3c-0.6-3.5-1.2-7-1.6-10.5
		c-1-7.2-1.5-14.5-1.5-21.9c-0.2,7.3,0.1,14.7,0.8,21.9c0.3,3.4,0.8,6.7,1.2,10.1c-1.1-2.2-2.3-4.3-3.7-6.4
		c-2.5-3.5-5.6-6.1-9.5-4.2c-4.8,2.4-4.8,9.4,1.7,12c3.9,1.4,8,1.8,12.1,1.3c0.5,3,1,6,1.6,8.9c1,4.7,2.1,9.3,3.4,14
		c-1.1-1.7-2.4-3.4-3.7-4.9c-2.9-3.2-6.4-5.4-10-2.9c-4.5,3-3.5,9.9,3.2,11.7c3.8,0.9,7.8,0.9,11.6-0.1c2.4,8.3,5.4,16.4,9,24.2
		l1.1,2.4c-0.9-1.1-1.9-2.1-3-3.1c-3.2-2.9-6.8-4.6-10.2-1.8c-4.2,3.5-2.5,10.2,4.4,11.2c3.8,0.5,7.7,0.1,11.3-1.1
		c0.4,0.8,0.8,1.6,1.2,2.4c1.8,3.2,3.5,6.5,5.5,9.6c0.5,0.9,1.1,1.8,1.7,2.7c-0.9-0.7-1.8-1.3-2.8-1.9c-3.7-2.2-7.6-3.3-10.4,0
		c-3.4,4.2-0.6,10.5,6.4,10.2c3.6-0.2,7.1-1.2,10.3-2.9c2.2,3.5,4.6,6.9,7,10.3c0.9,1.3,1.9,2.5,2.8,3.8c-1.4-1.1-2.8-2.1-4.2-3
		c-3.7-2.2-7.6-3.3-10.4,0c-3.4,4.2-0.6,10.5,6.4,10.2c4-0.2,7.8-1.4,11.3-3.5c1.3,1.5,2.6,3,3.9,4.5c-2.4,3.2-1.2,8.2,4.3,10.1
		c2.6,0.9,5.4,1.3,8.2,1.2c0.4,0.2,0.7,0.5,1.1,0.7l0.2,0.1c4.2,12.2,9.1,24.2,14.5,35.9c3.4,7.4,7,14.7,10.9,21.9
		c3.9,7.2,7.9,14.2,12.4,21.2l6.7-4.5c-4.4-6.5-8.5-13.4-12.4-20.4s-7.6-14.1-11.1-21.2c-4.6-9.6-8.9-19.3-12.8-29.3l0,0
		c0.6,0.1,1.1,0.2,1.7,0.3c0.7,0.1,1.5,0.1,2.2-0.1l-1.2-5.2l-0.1,0.1h-0.5c-0.3,0-0.7-0.1-1-0.1c-0.8-0.2-1.5-0.4-2.2-0.6l-0.9-0.3
		c3-1.3,5.8-3.1,8.2-5.4c5.3-5.2,3.2-11.7-2.1-11.9c-4.3-0.1-6.4,3.6-7.6,7.9c-0.3,1.2-0.6,2.5-0.8,3.8c-0.4-1.1-0.8-2.2-1.1-3.3
		c-1.1-3.3-2.1-6.6-3.1-9.9c3.3-1.3,6.3-3.3,8.8-5.7c5.2-5.2,3.2-11.7-2.1-11.9c-4.3-0.1-6.4,3.6-7.6,7.9c-0.4,1.3-0.6,2.6-0.9,3.9
		c-0.7-2.4-1.3-4.9-1.9-7.3c-0.4-1.8-0.9-3.6-1.2-5.4c-0.3-2.6-0.5-5.2-0.7-7.8c-0.1-1.4-0.1-2.9-0.2-4.3c3.2,0.8,6.6,1,9.9,0.6
		c7.3-1,9.6-7.5,5.5-10.8c-3.3-2.7-7.2-0.9-10.8,1.8c-1.6,1.3-3.1,2.6-4.5,4.1c0-6.2,0.5-12.3,1.5-18.4c0.6-3.6,1.4-7.1,2.4-10.6
		c3.5,0.9,7.1,1.2,10.6,0.7c7.3-1,9.6-7.5,5.5-10.8c-3.3-2.6-7.3-1-10.8,1.8c-1.3,1-2.5,2.1-3.6,3.2c1.2-3.4,2.6-6.8,4.2-10
		c3.3-6.5,7.6-12.5,12.7-17.7c3,2.4,6.5,4.1,10.2,5.1c7.1,1.8,11.6-3.4,9.1-8c-2.1-3.7-6.4-3.6-10.8-2.4c-1.6,0.5-3.3,1.1-4.8,1.7
		h0.1c5.7-5.1,11.8-9.6,18.4-13.5c2.6,3,5.9,5.4,9.5,7c6.8,2.9,12-1.5,10.2-6.4c-1.5-4-5.8-4.6-10.2-4c-1.8,0.2-3.5,0.6-5.2,1
		c7-3.9,14.2-7.7,21.1-12l0.2-0.1c3.4,2.5,7.3,4.2,11.5,5c7.3,1.3,11.3-4.2,8.5-8.6c-2.4-3.6-6.6-3.1-10.9-1.6
		c-1.2,0.4-2.4,1-3.5,1.5c4.6-3.1,9-6.4,13.2-10l0.4,0.4l0.1-0.2c3.4,2.6,7.4,4.3,11.6,5.1c7.3,1.3,11.3-4.2,8.5-8.6
		c-2.4-3.6-6.6-3.1-10.9-1.6c-3,1.2-5.9,2.6-8.8,4.2c1.5-1.3,3-2.6,4.5-4c6.8-6.3,13.2-13,19.1-20c-7,7.9-14.6,15.3-22.7,22.1
		c1-2.1,1.9-4.3,2.7-6.6c1.2-4.1,1.3-8.2-2.7-10c-4.9-2.3-10.3,2-8.3,8.7c1.2,3.7,3.2,7.1,5.9,9.8c-5.3,4.2-10.8,8.1-16.6,11.6
		l-0.6,0.3c1.1-2.3,2.1-4.7,2.9-7.1c1.2-4.1,1.3-8.2-2.7-10c-4.9-2.3-10.3,2.1-8.3,8.7c1.2,3.7,3.1,7,5.8,9.8
		c-7,4.1-14.2,7.6-21.5,11.5l-1.1,0.6c1.3-1.7,2.6-3.4,3.7-5.2c2.2-3.7,3.2-7.6-0.2-10.4c-4.2-3.4-10.5-0.4-10.1,6.6
		c0.3,3.8,1.5,7.6,3.4,10.9c-6.7,3.6-13,7.9-18.9,12.9l-0.2,0.2c0.7-1.4,1.4-2.8,2-4.3c1.5-4,1.9-8-1.9-10.2
		c-2.9-1.7-6.5-0.7-8.2,2.2c0,0,0,0,0,0c-0.2,0.4-0.4,0.8-0.5,1.2c-0.5-0.7-1.2-1.3-2-1.7c-3.9-1.9-7.3,0.7-10.2,4.2
		c-0.8,0.9-1.5,1.9-2.1,2.8c1.9-6.8,4.5-13.5,7.6-19.8c3.5,1.3,7.3,1.8,11,1.5c7.3-0.5,10-6.9,6.1-10.4c-3.1-2.9-7.2-1.4-10.9,1.1
		c-1.2,0.8-2.4,1.8-3.6,2.7c3.3-5.9,7.2-11.5,11.5-16.7c3.2,2.3,6.9,3.8,10.8,4.5c7.3,1.3,11.3-4.2,8.5-8.6
		c-2.4-3.6-6.6-3.1-10.9-1.5c-2,0.8-3.9,1.6-5.8,2.6c1.8-2,3.7-4,5.6-6c2.5-2.5,5.1-4.9,7.8-7.2c3.2,2.2,6.8,3.7,10.7,4.4
		c7.3,1.2,11.3-4.2,8.5-8.6c-2.4-3.6-6.6-3.1-10.9-1.6c-1,0.4-2,0.8-2.9,1.2c4.8-4,9.6-7.8,14.5-11.6
		C184,54.7,187.1,52.1,190.2,49.4z M125,163.4c0.6-0.2,1.2-0.5,1.7-0.8c-0.6,1.3-1.2,2.6-1.7,4c0-0.7,0.1-1.4,0.1-2.2
		C125.1,164.1,125.1,163.8,125,163.4z M114.2,241.2l1-1c2.1,0.5,4.2,0.7,6.3,0.7l0.1,0.3l1-0.3c0.7,2.5,1.4,5,2.2,7.5
		c-1.5-1.7-3.7-2.5-5.9-2.2C117.3,244.6,115.7,242.9,114.2,241.2L114.2,241.2z M119.7,185.2c-0.4,1.9-0.6,3.9-0.9,5.8l-0.4-0.3
		c-0.3-3.9-0.6-7.8-0.7-11.8c-0.1-2.7-0.1-5.5,0-8.2c1.4,1.3,3,2.4,4.6,3.3C121.3,177.7,120.4,181.4,119.7,185.2L119.7,185.2z
		 M132.6,135.8c2.2-0.7,4-2.2,5.1-4.1c0.9,3.2,2.5,6.2,4.6,8.8c-3.7,3.6-7,7.6-9.9,11.9c-0.7-1.2-1.8-2.2-3.1-2.5
		c-4.1-1.2-7.1,1.8-9.5,5.7l-0.1,0.2l-0.3-0.1c-0.3,0-0.6,0-0.8,0c0-0.2,0-0.5,0.1-0.7c0.6-5.9,1.6-11.8,3-17.6
		C125.4,137.6,129.1,137.1,132.6,135.8L132.6,135.8z"/>
	<path class="st3" d="M224.3,0.1c-2.7,7.6-6.3,14.9-10.9,21.5c-4.5,6.7-9.6,12.9-15.3,18.6l-0.6,0.7c1.2-2.5,2.3-5,3.2-7.6
		c1.2-4.1,1.3-8.2-2.7-10c-4.9-2.3-10.3,2-8.3,8.7c1.3,3.9,3.5,7.5,6.5,10.4c-4.8,4.6-9.9,9-15.2,13c1.2-2.4,2.2-4.8,3-7.4
		c1.2-4.1,1.3-8.2-2.7-10c-4.9-2.4-10.3,2-8.3,8.7c1.2,3.8,3.3,7.3,6.1,10.1c-6.1,4.7-12.3,9.2-18.2,14.1c1.2-2.4,2.2-4.9,3-7.5
		c1.2-4.1,1.3-8.2-2.6-10.1c-4.9-2.3-10.3,2.1-8.3,8.7c1.2,3.9,3.4,7.4,6.3,10.2c-2.6,2.3-5.1,4.5-7.6,6.8c-1.8,1.8-3.6,3.5-5.3,5.4
		c0.7-1.5,1.3-3.1,1.8-4.8c1.2-4.1,1.3-8.2-2.6-10c-4.9-2.3-10.3,2-8.3,8.7c1.2,3.7,3.2,7,5.8,9.8c-4.8,5.6-9.1,11.6-12.8,18
		c0.3-1.8,0.6-3.6,0.7-5.4c0.2-4.3-0.7-8.2-5-9.1c-5.3-1.1-9.5,4.5-6,10.5c2,3.3,4.8,6.1,8.1,8.1c-3.6,6.9-6.4,14.1-8.6,21.5
		c-0.2-1.5-0.4-3-0.8-4.5c-1-4.2-3-7.7-7.4-7.3c-5.4,0.5-7.9,7-2.7,11.7c2.7,2.5,6,4.3,9.5,5.3c-1.4,5.8-2.5,11.6-3.2,17.5
		c-0.1,0.9-0.2,1.9-0.3,2.8c-0.2,0.2-0.4,0.4-0.5,0.6l-0.9-2.3c-1.6-4-4.1-7.2-8.4-6.1c-5.3,1.3-6.7,8.1-0.9,12
		c2.9,1.9,6.3,3.2,9.7,3.7c0.1,0.2,0.1,0.3,0.2,0.4c-0.3,4.4-0.4,8.8-0.4,13.3c0,3.3,0.1,6.6,0.3,9.9c-4.6,0.3-7.5,5.6-3.9,10.9
		c1.5,2.2,3.4,4.1,5.5,5.7c0.8,6.2,1.9,12.3,3.2,18.4c-1.4-1.1-3.3-1.4-5-0.8c-2.8,1-4,3.4-4.2,6.3c-0.9,1.2-1.4,2.6-1.2,4.1
		c-2.4-3-4.7-6.2-6.9-9.4c2.8-2.5,5.1-5.6,6.7-9.1c3-6.7-1.3-12.1-6.3-10.3c-4,1.4-4.7,5.6-4.2,10.2c0.2,1.7,0.5,3.4,0.8,5
		c-0.8-1.2-1.6-2.4-2.4-3.6c-2-3-3.8-6.2-5.7-9.3c-0.5-0.8-0.9-1.5-1.3-2.3c3.3-2,6.1-4.6,8.3-7.7c4.2-6,1-12.1-4.2-11.3
		c-4.2,0.6-5.6,4.7-6,9.2c-0.2,2-0.2,3.9-0.1,5.9l-1.8-3.4c-3.8-7.7-7-15.6-9.7-23.8c3.7-1.6,7.1-4.1,9.8-7.1
		c4.8-5.6,2.2-11.9-3.1-11.7c-4.3,0.2-6.1,4.1-6.9,8.6c-0.4,2.4-0.7,4.8-0.8,7.2c-1.5-4.7-2.8-9.4-3.9-14.2c-0.8-3-1.3-6-1.9-9
		c4.1-1.1,7.8-3.1,11-5.9c5.5-4.9,3.7-11.6-1.5-12c-4.2-0.4-6.5,3.3-8,7.6c-0.8,2.7-1.5,5.5-1.9,8.3c-0.6-3.5-1.2-7-1.6-10.5
		c-1-7.3-1.5-14.6-1.5-21.9c-0.2,7.3,0.1,14.7,0.8,22c0.3,3.4,0.8,6.7,1.2,10.1c-1.1-2.2-2.3-4.3-3.7-6.4c-2.5-3.5-5.6-6.1-9.6-4.1
		c-4.8,2.4-4.8,9.4,1.7,12c3.9,1.4,8,1.8,12.1,1.2c0.5,3,1,6,1.6,8.9c1,4.7,2.1,9.3,3.4,14c-1.2-1.7-2.4-3.4-3.8-4.9
		c-2.9-3.2-6.4-5.4-10-2.9c-4.5,3-3.5,9.9,3.2,11.7c3.8,0.9,7.8,0.9,11.6-0.1c2.4,8.3,5.4,16.4,9,24.2l1.1,2.4
		c-0.9-1.1-1.9-2.1-3-3.1c-3.2-2.9-6.8-4.6-10.2-1.8c-4.2,3.5-2.5,10.2,4.4,11.2c3.8,0.5,7.7,0.1,11.3-1.1c0.4,0.8,0.8,1.6,1.2,2.4
		c1.8,3.2,3.5,6.5,5.5,9.6c0.5,0.9,1.1,1.8,1.7,2.7c-0.9-0.7-1.8-1.3-2.8-1.9c-3.7-2.2-7.6-3.3-10.4,0c-3.4,4.2-0.6,10.5,6.4,10.2
		c3.6-0.2,7.1-1.1,10.3-2.8c2.2,3.5,4.6,6.9,7,10.3c0.9,1.3,1.9,2.5,2.8,3.8c-1.4-1.1-2.8-2.1-4.2-3c-3.7-2.2-7.6-3.3-10.4,0
		c-3.4,4.2-0.6,10.5,6.4,10.2c4-0.2,7.8-1.4,11.3-3.5c1.3,1.5,2.6,3,3.9,4.5c-2.4,3.2-1.2,8.2,4.3,10.1c2.6,0.9,5.4,1.3,8.2,1.2
		c0.4,0.2,0.7,0.5,1.1,0.7l0.2,0.1c4.2,12.2,9.1,24.2,14.5,35.9c3.4,7.4,7,14.7,10.9,21.9c3.9,7.2,7.9,14.2,12.4,21.2l6.7-4.5
		c-4.4-6.5-8.5-13.4-12.4-20.4s-7.6-14.1-11.1-21.2c-4.6-9.6-8.9-19.3-12.8-29.3l0,0c0.6,0.1,1.1,0.2,1.7,0.3
		c0.7,0.1,1.5,0.1,2.2-0.1l-1.2-5.2l-0.1,0.1h-0.5c-0.3,0-0.7-0.1-1-0.1c-0.8-0.2-1.5-0.4-2.2-0.6l-0.9-0.3c3-1.3,5.8-3.1,8.2-5.4
		c5.3-5.2,3.2-11.7-2.1-11.9c-4.3-0.1-6.4,3.6-7.6,7.9c-0.3,1.2-0.6,2.5-0.8,3.8c-0.4-1.1-0.8-2.2-1.1-3.3c-1.1-3.3-2.1-6.6-3.1-9.9
		c3.3-1.3,6.3-3.3,8.8-5.7c5.2-5.2,3.2-11.7-2.1-11.9c-4.3-0.1-6.4,3.6-7.6,7.9c-0.4,1.3-0.6,2.6-0.9,3.9c-0.7-2.4-1.3-4.9-1.9-7.3
		c-0.4-1.8-0.9-3.6-1.2-5.4c-0.3-2.6-0.5-5.2-0.7-7.8c-0.1-1.4-0.1-2.9-0.2-4.3c3.2,0.8,6.6,1,9.9,0.6c7.3-1,9.6-7.5,5.5-10.8
		c-3.3-2.7-7.2-0.9-10.8,1.8c-1.6,1.3-3.1,2.6-4.5,4.1c0-6.2,0.5-12.3,1.5-18.4c0.6-3.6,1.4-7.1,2.4-10.6c3.5,0.9,7.1,1.2,10.6,0.7
		c7.3-1,9.6-7.5,5.5-10.8c-3.3-2.6-7.3-1-10.8,1.8c-1.3,1-2.5,2.1-3.6,3.2c1.2-3.4,2.6-6.8,4.2-10c3.3-6.5,7.6-12.5,12.7-17.7
		c3,2.4,6.5,4.1,10.2,5.1c7.1,1.8,11.6-3.4,9.1-8c-2.1-3.7-6.4-3.6-10.8-2.4c-1.6,0.5-3.3,1.1-4.8,1.7h0.1
		c5.7-5.1,11.8-9.6,18.4-13.5c2.6,3,5.9,5.4,9.5,7c6.8,2.9,12-1.5,10.2-6.4c-1.5-4-5.8-4.6-10.2-4c-1.8,0.2-3.5,0.6-5.2,1
		c7-3.9,14.2-7.7,21.1-12l0.2-0.1c3.4,2.5,7.3,4.2,11.5,5c7.3,1.3,11.3-4.2,8.5-8.6c-2.4-3.6-6.6-3.1-10.9-1.6
		c-1.2,0.4-2.4,1-3.5,1.5c4.6-3.1,9-6.4,13.2-10l0.4,0.4l0.1-0.2c3.4,2.6,7.4,4.3,11.6,5.1c7.3,1.3,11.3-4.2,8.5-8.6
		c-2.4-3.6-6.6-3.1-10.9-1.6c-3,1.2-5.9,2.6-8.8,4.2c1.5-1.3,3-2.6,4.5-4c6.8-6.3,13.2-13,19.1-20c-7,7.9-14.6,15.3-22.7,22.1
		c1-2.1,1.9-4.3,2.7-6.6c1.2-4.1,1.3-8.2-2.7-10c-4.9-2.3-10.3,2-8.3,8.7c1.2,3.7,3.2,7.1,5.9,9.8c-5.3,4.2-10.8,8.1-16.6,11.6
		l-0.6,0.3c1.1-2.3,2.1-4.7,2.9-7.1c1.2-4.1,1.3-8.2-2.7-10c-4.9-2.3-10.3,2.1-8.3,8.7c1.2,3.7,3.1,7,5.8,9.8
		c-7,4.1-14.2,7.6-21.5,11.5l-1.1,0.6c1.3-1.7,2.6-3.4,3.7-5.2c2.2-3.7,3.2-7.6-0.2-10.4c-4.2-3.4-10.5-0.4-10.1,6.6
		c0.3,3.8,1.5,7.6,3.4,10.9c-6.7,3.6-13,7.9-18.9,12.9l-0.2,0.2c0.7-1.4,1.4-2.8,2-4.3c1.5-4,1.9-8-1.9-10.2
		c-2.9-1.7-6.5-0.7-8.2,2.2c0,0,0,0,0,0c-0.2,0.4-0.4,0.8-0.5,1.2c-0.5-0.7-1.2-1.3-2-1.7c-3.9-1.9-7.3,0.7-10.2,4.2
		c-0.8,0.9-1.5,1.9-2.1,2.8c1.9-6.8,4.5-13.5,7.6-19.8c3.5,1.3,7.3,1.8,11,1.5c7.3-0.5,10-6.9,6.1-10.4c-3.1-2.9-7.2-1.4-10.9,1.1
		c-1.2,0.8-2.4,1.8-3.6,2.7c3.3-5.9,7.2-11.5,11.5-16.7c3.2,2.3,6.9,3.8,10.8,4.5c7.3,1.3,11.3-4.2,8.5-8.6
		c-2.4-3.6-6.6-3.1-10.9-1.5c-2,0.8-3.9,1.6-5.8,2.6c1.8-2,3.7-4,5.6-6c2.5-2.5,5.1-4.9,7.8-7.2c3.2,2.2,6.8,3.7,10.7,4.4
		c7.3,1.2,11.3-4.2,8.5-8.6c-2.4-3.6-6.6-3.1-10.9-1.6c-1,0.4-2,0.8-2.9,1.2c4.6-3.8,9.4-7.5,14.1-11.3c3.3,2.4,7.2,4.1,11.2,4.8
		c7.3,1.2,11.3-4.2,8.5-8.6c-2.4-3.6-6.6-3.1-10.9-1.6c-1.6,0.6-3.3,1.3-4.8,2.2c2-1.6,3.9-3.2,5.8-4.9c1.5-1.3,2.9-2.8,4.4-4.2
		c0.8-0.8,1.7-1.6,2.5-2.4c3.4,2.4,7.2,4.1,11.3,4.8c7.3,1.2,11.4-4.3,8.5-8.6c-2.4-3.6-6.6-3.1-10.9-1.5c-2.3,0.9-4.6,2-6.8,3.2
		c5.5-5.8,10.4-12.1,14.7-18.8C218.1,15.1,221.7,7.8,224.3,0.1z M124.7,248.4c-1.5-1.7-3.7-2.5-5.9-2.2c-1.6-1.6-3.1-3.3-4.6-5l1-1
		c2.1,0.5,4.2,0.7,6.3,0.7l0.1,0.3l1-0.3C123.2,243.4,123.9,245.9,124.7,248.4z M119.7,185.2c-0.4,1.9-0.6,3.9-0.9,5.8l-0.3-0.3
		c-0.3-3.9-0.6-7.8-0.7-11.8c-0.1-2.7-0.1-5.5,0-8.2c1.4,1.3,3,2.4,4.6,3.3C121.3,177.7,120.4,181.4,119.7,185.2L119.7,185.2z
		 M125,166.6c0-0.7,0.1-1.4,0.1-2.2c0-0.4,0-0.7,0-1.1c0.6-0.2,1.2-0.4,1.7-0.7C126.2,164,125.6,165.3,125,166.6L125,166.6z
		 M132.6,135.8c2.2-0.7,4-2.2,5.1-4.1c0.9,3.2,2.5,6.2,4.6,8.8c-3.7,3.6-7,7.6-9.8,11.9c-0.7-1.2-1.8-2.2-3.1-2.5
		c-4.1-1.2-7.1,1.8-9.5,5.7l-0.1,0.2l-0.3,0c-0.3,0-0.6,0-0.8,0c0-0.2,0-0.5,0.1-0.7c0.6-5.9,1.6-11.8,3-17.5
		C125.4,137.6,129.1,137.1,132.6,135.8L132.6,135.8z"/>
	<g class="st6">
		<path class="st4" d="M224.3,0.1c-2.7,7.6-6.3,14.9-10.9,21.5c-4.5,6.7-9.6,12.9-15.3,18.6l-0.6,0.7c1.2-2.5,2.3-5,3.2-7.6
			c1.2-4.1,1.3-8.2-2.7-10c-4.9-2.3-10.3,2-8.3,8.7c1.3,3.9,3.5,7.5,6.5,10.4c-4.8,4.6-9.9,9-15.2,13c1.2-2.4,2.2-4.8,3-7.4
			c1.2-4.1,1.3-8.2-2.7-10c-4.9-2.4-10.3,2-8.3,8.7c1.2,3.8,3.3,7.3,6.1,10.1c-6.1,4.7-12.3,9.2-18.2,14.1c1.2-2.4,2.2-4.9,3-7.5
			c1.2-4.1,1.3-8.2-2.6-10.1c-4.9-2.3-10.3,2.1-8.3,8.7c1.2,3.9,3.4,7.4,6.3,10.2c-2.6,2.3-5.1,4.5-7.6,6.8
			c-1.8,1.8-3.6,3.5-5.3,5.4c0.7-1.5,1.3-3.1,1.8-4.8c1.2-4.1,1.3-8.2-2.6-10c-4.9-2.3-10.3,2-8.3,8.7c1.2,3.7,3.2,7,5.8,9.8
			c-4.8,5.6-9.1,11.6-12.8,18c0.3-1.8,0.6-3.6,0.7-5.4c0.2-4.3-0.7-8.2-5-9.1c-5.3-1.1-9.5,4.5-6,10.5c2,3.3,4.8,6.1,8.1,8.1
			c-3.6,6.9-6.4,14.1-8.6,21.5c-0.2-1.5-0.4-3-0.8-4.5c-1-4.2-3-7.7-7.4-7.3c-5.4,0.5-7.9,7-2.7,11.7c2.7,2.5,6,4.3,9.5,5.3
			c-1.4,5.8-2.5,11.6-3.2,17.5c-0.1,0.9-0.2,1.9-0.3,2.8c-0.2,0.2-0.4,0.4-0.5,0.6l-0.9-2.3c-1.6-4-4.1-7.2-8.4-6.1
			c-5.3,1.3-6.7,8.1-0.9,12c2.9,1.9,6.3,3.2,9.7,3.7c0.1,0.2,0.1,0.3,0.2,0.4c-0.3,4.4-0.4,8.8-0.4,13.3c0,3.3,0.1,6.6,0.3,9.9
			c-4.6,0.3-7.5,5.6-3.9,10.9c1.5,2.2,3.4,4.1,5.5,5.7c0.8,6.2,1.9,12.3,3.2,18.4c-1.4-1.1-3.3-1.4-5-0.8c-2.8,1-4,3.4-4.2,6.3
			c-0.9,1.2-1.4,2.6-1.2,4.1c-2.4-3-4.7-6.2-6.9-9.4c2.8-2.5,5.1-5.6,6.7-9.1c3-6.7-1.3-12.1-6.3-10.3c-4,1.4-4.7,5.6-4.2,10.2
			c0.2,1.7,0.5,3.4,0.8,5c-0.8-1.2-1.6-2.4-2.4-3.6c-2-3-3.8-6.2-5.7-9.3c-0.5-0.8-0.9-1.5-1.3-2.3c3.3-2,6.1-4.6,8.3-7.7
			c4.2-6,1-12.1-4.2-11.3c-4.2,0.6-5.6,4.7-6,9.2c-0.2,2-0.2,3.9-0.1,5.9l-1.8-3.4c-3.8-7.7-7-15.6-9.7-23.8
			c3.7-1.6,7.1-4.1,9.8-7.1c4.8-5.6,2.2-11.9-3.1-11.7c-4.3,0.2-6.1,4.1-6.9,8.6c-0.4,2.4-0.7,4.8-0.8,7.2
			c-1.5-4.7-2.8-9.4-3.9-14.2c-0.8-3-1.3-6-1.9-9c4.1-1.1,7.8-3.1,11-5.9c5.5-4.9,3.7-11.6-1.5-12c-4.2-0.4-6.5,3.3-8,7.6
			c-0.8,2.7-1.5,5.5-1.9,8.3c-0.6-3.5-1.2-7-1.6-10.5c-1-7.3-1.5-14.6-1.5-21.9c-0.2,7.3,0.1,14.7,0.8,22c0.3,3.4,0.8,6.7,1.2,10.1
			c-1.1-2.2-2.3-4.3-3.7-6.4c-2.5-3.5-5.6-6.1-9.6-4.1c-4.8,2.4-4.8,9.4,1.7,12c3.9,1.4,8,1.8,12.1,1.2c0.5,3,1,6,1.6,8.9
			c1,4.7,2.1,9.3,3.4,14c-1.2-1.7-2.4-3.4-3.8-4.9c-2.9-3.2-6.4-5.4-10-2.9c-4.5,3-3.5,9.9,3.2,11.7c3.8,0.9,7.8,0.9,11.6-0.1
			c2.4,8.3,5.4,16.4,9,24.2l1.1,2.4c-0.9-1.1-1.9-2.1-3-3.1c-3.2-2.9-6.8-4.6-10.2-1.8c-4.2,3.5-2.5,10.2,4.4,11.2
			c3.8,0.5,7.7,0.1,11.3-1.1c0.4,0.8,0.8,1.6,1.2,2.4c1.8,3.2,3.5,6.5,5.5,9.6c0.5,0.9,1.1,1.8,1.7,2.7c-0.9-0.7-1.8-1.3-2.8-1.9
			c-3.7-2.2-7.6-3.3-10.4,0c-3.4,4.2-0.6,10.5,6.4,10.2c3.6-0.2,7.1-1.1,10.3-2.8c2.2,3.5,4.6,6.9,7,10.3c0.9,1.3,1.9,2.5,2.8,3.8
			c-1.4-1.1-2.8-2.1-4.2-3c-3.7-2.2-7.6-3.3-10.4,0c-3.4,4.2-0.6,10.5,6.4,10.2c4-0.2,7.8-1.4,11.3-3.5c1.3,1.5,2.6,3,3.9,4.5
			c-2.4,3.2-1.2,8.2,4.3,10.1c2.6,0.9,5.4,1.3,8.2,1.2c0.4,0.2,0.7,0.5,1.1,0.7l0.2,0.1c4.2,12.2,9.1,24.2,14.5,35.9
			c3.4,7.4,7,14.7,10.9,21.9c3.9,7.2,7.9,14.2,12.4,21.2l6.7-4.5c-4.4-6.5-8.5-13.4-12.4-20.4s-7.6-14.1-11.1-21.2
			c-4.6-9.6-8.9-19.3-12.8-29.3l0,0c0.6,0.1,1.1,0.2,1.7,0.3c0.7,0.1,1.5,0.1,2.2-0.1l-1.2-5.2l-0.1,0.1h-0.5c-0.3,0-0.7-0.1-1-0.1
			c-0.8-0.2-1.5-0.4-2.2-0.6l-0.9-0.3c3-1.3,5.8-3.1,8.2-5.4c5.3-5.2,3.2-11.7-2.1-11.9c-4.3-0.1-6.4,3.6-7.6,7.9
			c-0.3,1.2-0.6,2.5-0.8,3.8c-0.4-1.1-0.8-2.2-1.1-3.3c-1.1-3.3-2.1-6.6-3.1-9.9c3.3-1.3,6.3-3.3,8.8-5.7c5.2-5.2,3.2-11.7-2.1-11.9
			c-4.3-0.1-6.4,3.6-7.6,7.9c-0.4,1.3-0.6,2.6-0.9,3.9c-0.7-2.4-1.3-4.9-1.9-7.3c-0.4-1.8-0.9-3.6-1.2-5.4c-0.3-2.6-0.5-5.2-0.7-7.8
			c-0.1-1.4-0.1-2.9-0.2-4.3c3.2,0.8,6.6,1,9.9,0.6c7.3-1,9.6-7.5,5.5-10.8c-3.3-2.7-7.2-0.9-10.8,1.8c-1.6,1.3-3.1,2.6-4.5,4.1
			c0-6.2,0.5-12.3,1.5-18.4c0.6-3.6,1.4-7.1,2.4-10.6c3.5,0.9,7.1,1.2,10.6,0.7c7.3-1,9.6-7.5,5.5-10.8c-3.3-2.6-7.3-1-10.8,1.8
			c-1.3,1-2.5,2.1-3.6,3.2c1.2-3.4,2.6-6.8,4.2-10c3.3-6.5,7.6-12.5,12.7-17.7c3,2.4,6.5,4.1,10.2,5.1c7.1,1.8,11.6-3.4,9.1-8
			c-2.1-3.7-6.4-3.6-10.8-2.4c-1.6,0.5-3.3,1.1-4.8,1.7h0.1c5.7-5.1,11.8-9.6,18.4-13.5c2.6,3,5.9,5.4,9.5,7
			c6.8,2.9,12-1.5,10.2-6.4c-1.5-4-5.8-4.6-10.2-4c-1.8,0.2-3.5,0.6-5.2,1c7-3.9,14.2-7.7,21.1-12l0.2-0.1c3.4,2.5,7.3,4.2,11.5,5
			c7.3,1.3,11.3-4.2,8.5-8.6c-2.4-3.6-6.6-3.1-10.9-1.6c-1.2,0.4-2.4,1-3.5,1.5c4.6-3.1,9-6.4,13.2-10l0.4,0.4l0.1-0.2
			c3.4,2.6,7.4,4.3,11.6,5.1c7.3,1.3,11.3-4.2,8.5-8.6c-2.4-3.6-6.6-3.1-10.9-1.6c-3,1.2-5.9,2.6-8.8,4.2c1.5-1.3,3-2.6,4.5-4
			c6.8-6.3,13.2-13,19.1-20c-7,7.9-14.6,15.3-22.7,22.1c1-2.1,1.9-4.3,2.7-6.6c1.2-4.1,1.3-8.2-2.7-10c-4.9-2.3-10.3,2-8.3,8.7
			c1.2,3.7,3.2,7.1,5.9,9.8c-5.3,4.2-10.8,8.1-16.6,11.6l-0.6,0.3c1.1-2.3,2.1-4.7,2.9-7.1c1.2-4.1,1.3-8.2-2.7-10
			c-4.9-2.3-10.3,2.1-8.3,8.7c1.2,3.7,3.1,7,5.8,9.8c-7,4.1-14.2,7.6-21.5,11.5l-1.1,0.6c1.3-1.7,2.6-3.4,3.7-5.2
			c2.2-3.7,3.2-7.6-0.2-10.4c-4.2-3.4-10.5-0.4-10.1,6.6c0.3,3.8,1.5,7.6,3.4,10.9c-6.7,3.6-13,7.9-18.9,12.9l-0.2,0.2
			c0.7-1.4,1.4-2.8,2-4.3c1.5-4,1.9-8-1.9-10.2c-2.9-1.7-6.5-0.7-8.2,2.2c0,0,0,0,0,0c-0.2,0.4-0.4,0.8-0.5,1.2
			c-0.5-0.7-1.2-1.3-2-1.7c-3.9-1.9-7.3,0.7-10.2,4.2c-0.8,0.9-1.5,1.9-2.1,2.8c1.9-6.8,4.5-13.5,7.6-19.8c3.5,1.3,7.3,1.8,11,1.5
			c7.3-0.5,10-6.9,6.1-10.4c-3.1-2.9-7.2-1.4-10.9,1.1c-1.2,0.8-2.4,1.8-3.6,2.7c3.3-5.9,7.2-11.5,11.5-16.7
			c3.2,2.3,6.9,3.8,10.8,4.5c7.3,1.3,11.3-4.2,8.5-8.6c-2.4-3.6-6.6-3.1-10.9-1.5c-2,0.8-3.9,1.6-5.8,2.6c1.8-2,3.7-4,5.6-6
			c2.5-2.5,5.1-4.9,7.8-7.2c3.2,2.2,6.8,3.7,10.7,4.4c7.3,1.2,11.3-4.2,8.5-8.6c-2.4-3.6-6.6-3.1-10.9-1.6c-1,0.4-2,0.8-2.9,1.2
			c4.6-3.8,9.4-7.5,14.1-11.3c3.3,2.4,7.2,4.1,11.2,4.8c7.3,1.2,11.3-4.2,8.5-8.6c-2.4-3.6-6.6-3.1-10.9-1.6
			c-1.6,0.6-3.3,1.3-4.8,2.2c2-1.6,3.9-3.2,5.8-4.9c1.5-1.3,2.9-2.8,4.4-4.2c0.8-0.8,1.7-1.6,2.5-2.4c3.4,2.4,7.2,4.1,11.3,4.8
			c7.3,1.2,11.4-4.3,8.5-8.6c-2.4-3.6-6.6-3.1-10.9-1.5c-2.3,0.9-4.6,2-6.8,3.2c5.5-5.8,10.4-12.1,14.7-18.8
			C218.1,15.1,221.7,7.8,224.3,0.1z M124.7,248.4c-1.5-1.7-3.7-2.5-5.9-2.2c-1.6-1.6-3.1-3.3-4.6-5l1-1c2.1,0.5,4.2,0.7,6.3,0.7
			l0.1,0.3l1-0.3C123.2,243.4,123.9,245.9,124.7,248.4z M119.7,185.2c-0.4,1.9-0.6,3.9-0.9,5.8l-0.3-0.3c-0.3-3.9-0.6-7.8-0.7-11.8
			c-0.1-2.7-0.1-5.5,0-8.2c1.4,1.3,3,2.4,4.6,3.3C121.3,177.7,120.4,181.4,119.7,185.2L119.7,185.2z M125,166.6
			c0-0.7,0.1-1.4,0.1-2.2c0-0.4,0-0.7,0-1.1c0.6-0.2,1.2-0.4,1.7-0.7C126.2,164,125.6,165.3,125,166.6L125,166.6z M132.6,135.8
			c2.2-0.7,4-2.2,5.1-4.1c0.9,3.2,2.5,6.2,4.6,8.8c-3.7,3.6-7,7.6-9.8,11.9c-0.7-1.2-1.8-2.2-3.1-2.5c-4.1-1.2-7.1,1.8-9.5,5.7
			l-0.1,0.2l-0.3,0c-0.3,0-0.6,0-0.8,0c0-0.2,0-0.5,0.1-0.7c0.6-5.9,1.6-11.8,3-17.5C125.4,137.6,129.1,137.1,132.6,135.8
			L132.6,135.8z"/>
	</g>
	<path class="st3" d="M575.2,177.3c0-2,0.2-4,0.2-6s0.3-4,0.4-6c0.7-8,2.2-15.8,4.4-23.5c2.1-7.7,5.3-15.1,9.3-21.9
		c-3.9,6.9-6.9,14.4-8.8,22.1c-2,7.7-3.3,15.5-3.9,23.5c-1.4,15.8,1.2,31.5,1.5,47.4c1-2.5,2.2-4.8,3.6-7.1c2.2-3.6,5.2-6.3,9.2-4.6
		c4.9,2.1,5.2,9-1.1,11.9c-3.7,1.6-7.7,2.3-11.7,2c0,3.4,0,6.7-0.1,10.1c-0.1,2.5-0.3,4.9-0.5,7.4c0.7-1.5,1.5-3,2.3-4.4
		c2.2-3.6,5.2-6.3,9.2-4.6c4.9,2.1,5.2,9-1,11.9c-3.5,1.5-7.2,2.2-11,2c-1,7.2-2.6,14.3-5,21.1c1.1-1.4,2.3-2.7,3.6-4
		c3.1-2.9,6.6-4.9,10-2.2c4.2,3.3,2.9,9.9-3.9,11.2c-3.8,0.6-7.6,0.4-11.3-0.7c-2.8,7.1-6.3,14-10.4,20.4c1.2-0.9,2.5-1.6,3.8-2.4
		c3.8-2,7.7-2.8,10.2,0.7c3.2,4.3-0.1,10.4-6.9,9.7c-3.6-0.4-7.1-1.6-10.2-3.5c-3.3,4.8-7,9.4-10.9,13.8c-0.6,0.7-1.2,1.4-1.9,2
		c0,0.3-0.1,0.5-0.1,0.8c0.7-0.3,1.5-0.6,2.3-0.9c4-1.4,8-1.6,10,2.3c2.5,4.8-1.7,10.2-8.3,8.4c-3.3-0.9-6.4-2.6-9.1-4.8l-0.5,0.1
		c-3.1,3.1-6.3,6-9.6,8.9c-2.5,2.1-5,4.2-7.6,6.2c2.8,3.6,0.7,9.2-5.5,10c-2.6,0.3-5.2,0.1-7.7-0.4c-5.1,3.4-10.4,6.6-15.7,9.6
		c1.8,0.3,3.2,1.5,3.8,3.2c1.1,2.8,0,5.2-1.9,7.3c-0.3,1.4-1,2.7-2.2,3.6c3.8-0.2,7.6-0.6,11.4-1c0-3.8,0.8-7.5,2.4-10.9
		c3-6.6,9.8-6.9,11.7-2.1c1.6,3.9-1.2,7.1-4.8,9.7c-1.4,1-2.8,1.9-4.3,2.6l4.2-0.6c3.5-0.5,7-1.3,10.6-1.9c0.9-0.1,1.7-0.3,2.6-0.5
		c-0.7-3.7-0.6-7.5,0.3-11.1c1.7-7.1,8.3-8.6,11.1-4.2c2.3,3.5,0.2,7.2-2.9,10.5c-1.4,1.4-2.8,2.7-4.3,3.9l3.7-0.9
		c8.2-2.2,16.2-5,23.9-8.3c-1.1-3.8-1.4-7.8-0.9-11.8c1-7.2,7.4-9.4,10.7-5.3c2.6,3.3,0.9,7.2-1.8,10.7c-1.5,1.8-3.1,3.6-4.8,5.2
		c4.4-2,8.8-4.1,13.1-6.3c2.7-1.4,5.3-2.9,7.9-4.4c-1.8-3.7-2.8-7.8-2.8-12c0.1-7.3,6.2-10.3,9.9-6.7c3,2.9,1.8,7-0.4,10.8
		c-1.5,2.4-3.1,4.6-4.9,6.8c3-1.8,5.9-3.7,8.8-5.6c6-4,11.8-8.4,17.2-13.1c-5.3,4.9-10.9,9.5-16.8,13.7c-2.7,2-5.5,3.8-8.2,5.6
		c2.3-0.6,4.7-1.1,7.2-1.5c4.2-0.5,8.2,0.2,9.3,4.4c1.4,5.2-3.8,9.7-10,6.5c-3.5-1.9-6.6-4.7-8.8-8c-2.5,1.6-5.1,3.2-7.7,4.6
		c-4.1,2.3-8.3,4.5-12.6,6.5c2-0.3,4.1-0.4,6.1-0.4c4.2,0.1,8,1.2,8.6,5.5c0.7,5.3-5,9.1-10.7,5.2c-3.2-2.3-5.7-5.2-7.5-8.7
		c-7.7,3.6-15.6,6.7-23.8,9.1l-2.5,0.7c1.4,0,2.8,0.1,4.2,0.2c4.2,0.5,7.9,2,8,6.4c0.1,5.3-5.9,8.5-11.2,4.1
		c-2.9-2.5-5.1-5.6-6.5-9.1c-0.8,0.2-1.7,0.5-2.6,0.6c-3.6,0.7-7.1,1.6-10.7,2.2l-3.1,0.5c1.1,0.2,2.1,0.5,3.2,0.8
		c4,1.3,7.4,3.5,6.7,7.8c-0.8,5.3-7.4,7.2-11.7,1.9c-2.2-2.8-3.8-6-4.7-9.5c-4,0.6-8.1,1.1-12.1,1.4c-1.5,0.1-3.1,0.3-4.7,0.4
		c1.7,0.3,3.4,0.7,5,1.2c4,1.3,7.4,3.5,6.7,7.8c-0.8,5.3-7.4,7.3-11.8,1.9c-2.4-3.1-4.1-6.7-4.8-10.6c-2,0.1-3.9,0.1-5.9,0.1
		c-0.8,3.8-5.3,6.2-10.2,3.4c-2.4-1.4-4.5-3.2-6.2-5.3c-0.4-0.1-0.8-0.2-1.2-0.3h-0.2c-11.8,4.8-23.8,9-36,12.6
		c-7.7,2.3-15.5,4.3-23.3,6.2c-7.9,1.8-15.6,3.4-23.8,4.7l-1-7.9c7.6-1,15.5-2.5,23.2-4s15.4-3.5,23-5.6c10.1-2.8,20.2-6,30-9.6l0,0
		c-0.5-0.3-0.9-0.7-1.3-1.1c-0.5-0.5-1-1-1.4-1.6l4.7-2.5l-0.1-0.1l0,0l0.1,0.1l0.3,0.3c0.2,0.2,0.5,0.5,0.8,0.7
		c0.6,0.5,1.2,0.9,1.9,1.2l0.8,0.4c-1-3.1-1.4-6.3-1.3-9.6c0.4-7.2,6.6-10,10.2-6.2c2.9,3.1,1.5,7.1-0.9,10.8
		c-0.7,1-1.5,2.1-2.2,3.1l3.2-1.3c3.1-1.3,6.3-2.7,9.3-4.1c-1.2-3.3-1.7-6.8-1.5-10.3c0.4-7.2,6.6-10,10.2-6.2
		c2.9,3.1,1.5,7.1-0.9,10.8c-0.7,1.1-1.5,2.1-2.3,3.1c2.2-1.1,4.4-2.2,6.6-3.3c1.6-0.9,3.2-1.7,4.8-2.6c2.1-1.5,4.2-3,6.2-4.6
		c1.1-0.9,2.2-1.8,3.3-2.7c-2.7-1.9-5-4.3-6.8-7c-4-6.1-0.7-12,4.4-11.1c4.2,0.7,5.4,4.8,5.7,9.2c0.1,2,0.1,4-0.1,6
		c4.5-4,8.8-8.3,12.6-13c2.3-2.8,4.4-5.7,6.4-8.7c-2.9-2-5.5-4.5-7.4-7.4c-4-6.1-0.7-11.9,4.4-11.1c4.2,0.7,5.4,4.8,5.7,9.2
		c0.1,1.6,0.1,3.2,0,4.8c1.8-3.1,3.3-6.3,4.7-9.6c2.7-6.7,4.3-13.7,4.8-20.9c-3.7-0.7-7.2-2.1-10.3-4.2c-6-4.1-5.1-10.9,0-11.9
		c4.1-0.8,6.8,2.4,8.7,6.4c0.7,1.5,1.3,3.1,1.9,4.7v-0.1c0.1-7.5-0.6-15-2-22.4c-3.9,0-7.8-0.9-11.4-2.5c-6.6-3.1-6.7-9.9-1.9-11.8
		c3.9-1.5,7.1,1.3,9.7,5c1,1.4,1.9,2.9,2.7,4.4c-1.6-7.7-3.5-15.5-4.8-23.4l0,0v-0.2c-4.1-0.8-7.9-2.6-11.2-5.1
		c-5.7-4.6-4.2-11.2,0.9-11.9c4.2-0.6,6.6,2.9,8.2,7c0.4,1.2,0.8,2.4,1.2,3.6c-0.7-5.4-1.1-10.9-1.2-16.3l-0.5-0.1
		c0-0.1,0-0.1,0-0.2c-4.1-0.9-8-2.7-11.3-5.3c-5.7-4.6-4.3-11.2,0.9-11.9c4.2-0.6,6.6,2.9,8.2,7.1c1,3,1.9,6.1,2.6,9.2
		c0-2,0-4,0-5.9c0.2-9.1,1-18.2,2.4-27.2c-1.2,10.3-1.7,20.7-1.4,31.1c0.9-2.1,2-4.2,3.2-6.2c2.2-3.6,5.2-6.3,9.2-4.6
		c4.9,2.1,5.2,9-1.1,11.8c-3.5,1.5-7.3,2.2-11.2,2c0.3,6.7,1,13.3,2.2,19.9c0,0.2,0.1,0.4,0.1,0.6c1-2.3,2.1-4.6,3.4-6.7
		c2.2-3.6,5.2-6.3,9.2-4.6c4.9,2.1,5.2,9-1.1,11.9c-3.5,1.5-7.2,2.2-11,2c1.5,7.8,3.6,15.5,5.5,23.3c0.1,0.4,0.2,0.8,0.3,1.1
		c0.4-2.1,0.9-4.1,1.5-6.1c1.3-4,3.6-7.3,7.8-6.6c5.3,0.9,7.2,7.5,1.7,11.8c-3,2.3-6.6,3.8-10.3,4.5c1.6,7.4,2.5,15,2.5,22.6v0.2
		c0.6-1.4,1.2-2.9,1.9-4.2c2-3.7,4.7-6.7,8.9-5.2c3.1,1,4.8,4.4,3.8,7.5c0,0,0,0,0,0l0,0c-0.1,0.4-0.4,0.9-0.6,1.3
		c0.9-0.1,1.8,0.1,2.6,0.4c3.9,1.6,4.2,5.9,3.5,10.2c-0.2,1.1-0.4,2.3-0.7,3.4c3.8-5.9,7-12.1,9.7-18.5c-3.2-1.8-6.1-4.2-8.3-7.1
		c-4.4-5.8-1.4-11.9,3.7-11.3c4.2,0.5,5.7,4.4,6.3,8.8c0.2,1.5,0.3,2.9,0.3,4.4c2.2-6.3,3.8-12.8,4.9-19.3
		c-3.8-0.9-7.3-2.7-10.4-5.1c-5.6-4.6-4.2-11.2,0.9-11.9c4.2-0.6,6.6,2.9,8.2,7c0.7,2,1.3,4,1.8,6c0.3-2.7,0.6-5.4,0.8-8.1
		c0.2-3.5,0.3-7,0.3-10.5c-3.7-0.9-7.2-2.7-10.2-5c-5.6-4.6-4.2-11.2,0.9-11.9c4.2-0.6,6.6,2.9,8.2,7c0.4,1,0.7,2,1,3
		c-0.2-6.1-0.5-12.2-0.8-18.3C575.3,185.3,575.2,181.3,575.2,177.3z M533.1,299.8c-0.2-0.6-0.4-1.2-0.6-1.8
		c-0.6,1.3-1.2,2.6-1.9,3.8c0.5-0.5,1-1,1.5-1.4L533.1,299.8z M482.5,358.3l0.2-1.3c-1.7-1.2-3.2-2.6-4.6-4.2l-0.3,0.2l-0.4-0.9
		c-2.3,1.1-4.6,2.2-7,3.3c2.2,0,4.2,1.1,5.4,2.9C478,358.3,480.3,358.4,482.5,358.3L482.5,358.3z M520.5,317.8
		c-1.2,1.5-2.4,3-3.7,4.5l0.4,0.1c3.1-2.3,6.2-4.7,9.1-7.2c2.1-1.7,4.1-3.5,6.2-5.3c-1.9-0.2-3.7-0.7-5.5-1.3
		C525,311.8,522.9,314.9,520.5,317.8L520.5,317.8z M548.7,276.2c-0.9-2.1-1-4.4-0.3-6.5c-3,1.4-6.2,2.1-9.5,2.3
		c-0.3,5.1-1.1,10.2-2.4,15.1c1.4-0.3,2.8-0.1,4,0.7c3.6,2.2,3.2,6.4,1.9,10.7v0.2l0.2,0.2c0.2,0.2,0.4,0.4,0.6,0.6
		c0.2-0.2,0.3-0.3,0.5-0.5c4-4.3,7.7-8.8,11.1-13.5C552.1,282.8,550.1,279.7,548.7,276.2L548.7,276.2z"/>
	<path class="st3" d="M589.6,119.9c-3.9,6.9-6.9,14.4-8.8,22.1c-2,7.7-3.3,15.5-3.9,23.5l-0.1,0.9c1.1-2.5,2.3-5,3.7-7.3
		c2.2-3.6,5.2-6.3,9.2-4.6c4.9,2.1,5.2,9-1,11.9c-3.7,1.6-7.8,2.3-11.9,2c-0.3,6.6-0.2,13.1,0.2,19.7c1-2.4,2.2-4.7,3.5-7
		c2.2-3.6,5.2-6.3,9.2-4.6c4.9,2.1,5.2,9-1,11.9c-3.6,1.6-7.5,2.3-11.5,2c0.5,7.5,1.2,15.1,1.3,22.6c1-2.4,2.2-4.8,3.5-7.1
		c2.2-3.6,5.2-6.3,9.2-4.6c4.9,2.1,5.2,9-1,11.9c-3.7,1.6-7.7,2.3-11.7,2c0,3.4,0,6.7-0.1,10.1c-0.1,2.5-0.3,4.9-0.5,7.4
		c0.7-1.5,1.5-3,2.3-4.5c2.2-3.6,5.2-6.3,9.2-4.6c4.9,2.1,5.2,9-1,11.9c-3.5,1.5-7.2,2.2-11,2c-1,7.2-2.6,14.3-5,21.1
		c1.1-1.4,2.3-2.7,3.6-4c3.1-2.9,6.6-4.9,10-2.2c4.2,3.3,2.9,9.9-3.9,11.2c-3.8,0.6-7.6,0.4-11.3-0.7c-2.8,7.1-6.3,14-10.4,20.4
		c1.2-0.9,2.5-1.6,3.8-2.4c3.8-2,7.7-2.8,10.2,0.7c3.2,4.3-0.1,10.4-6.9,9.7c-3.7-0.4-7.2-1.6-10.3-3.6c-3.3,4.8-7,9.4-10.9,13.8
		c-0.6,0.7-1.2,1.4-1.9,2c0,0.3-0.1,0.5-0.1,0.8c0.7-0.3,1.5-0.6,2.3-0.9c4-1.4,8-1.6,10,2.3c2.5,4.8-1.7,10.2-8.3,8.4
		c-3.3-0.9-6.4-2.6-9.1-4.8l-0.5,0.1c-3.1,3.1-6.3,6-9.6,8.9c-2.5,2.1-5,4.2-7.6,6.2c2.8,3.6,0.7,9.2-5.5,10
		c-2.6,0.3-5.2,0.1-7.7-0.4c-5.1,3.4-10.4,6.6-15.7,9.6c1.8,0.3,3.2,1.5,3.8,3.2c1.1,2.8,0,5.2-1.9,7.3c-0.3,1.4-1,2.7-2.2,3.6
		c3.8-0.2,7.6-0.6,11.4-1c0-3.8,0.8-7.5,2.4-10.9c3-6.6,9.8-6.9,11.7-2.1c1.6,3.9-1.2,7.1-4.8,9.7c-1.4,1-2.8,1.9-4.3,2.6l4.2-0.6
		c3.5-0.5,7-1.3,10.6-1.9c0.9-0.1,1.7-0.3,2.6-0.5c-0.7-3.7-0.6-7.5,0.3-11.1c1.7-7.1,8.3-8.6,11.1-4.2c2.3,3.5,0.2,7.2-2.9,10.5
		c-1.4,1.4-2.8,2.7-4.3,3.9l3.7-0.9c8.2-2.2,16.2-5,23.9-8.3c-1.1-3.8-1.4-7.8-0.9-11.8c1-7.2,7.4-9.4,10.7-5.3
		c2.6,3.3,0.9,7.2-1.8,10.7c-1.5,1.8-3.1,3.6-4.8,5.2c4.4-2,8.8-4.1,13.1-6.3c2.7-1.4,5.3-2.9,7.9-4.4c-1.8-3.7-2.8-7.8-2.8-12
		c0.1-7.3,6.2-10.3,9.9-6.7c3,2.9,1.8,7-0.4,10.8c-1.5,2.4-3.1,4.6-4.9,6.8c3-1.8,5.9-3.7,8.8-5.6c6-4,11.8-8.4,17.2-13.1
		c-5.3,4.9-10.9,9.5-16.8,13.7c-2.7,2-5.5,3.8-8.2,5.6c2.3-0.6,4.7-1.1,7.2-1.5c4.2-0.5,8.2,0.2,9.3,4.4c1.4,5.2-3.8,9.7-10,6.5
		c-3.5-1.9-6.6-4.7-8.8-8c-2.5,1.6-5.1,3.2-7.7,4.6c-4.1,2.3-8.3,4.5-12.6,6.5c2-0.3,4.1-0.4,6.1-0.4c4.2,0.1,8,1.2,8.6,5.5
		c0.7,5.3-5,9.1-10.7,5.2c-3.2-2.3-5.7-5.2-7.5-8.7c-7.7,3.6-15.6,6.7-23.8,9.1l-2.5,0.7c1.4,0,2.8,0.1,4.2,0.2c4.2,0.5,7.9,2,8,6.4
		c0.1,5.3-5.9,8.5-11.2,4.1c-2.9-2.5-5.1-5.6-6.5-9.1c-0.8,0.2-1.7,0.5-2.6,0.6c-3.6,0.7-7.1,1.6-10.7,2.2l-3.1,0.5
		c1.1,0.2,2.1,0.5,3.2,0.8c4,1.3,7.4,3.5,6.7,7.8c-0.8,5.3-7.4,7.2-11.7,1.9c-2.2-2.8-3.8-6-4.7-9.5c-4,0.6-8.1,1.1-12.1,1.4
		c-1.5,0.1-3.1,0.3-4.7,0.4c1.7,0.3,3.4,0.7,5,1.2c4,1.3,7.4,3.5,6.7,7.8c-0.8,5.3-7.4,7.3-11.8,1.9c-2.4-3.1-4.1-6.7-4.8-10.6
		c-2,0.1-3.9,0.1-5.9,0.1c-0.8,3.8-5.3,6.2-10.2,3.4c-2.4-1.4-4.5-3.2-6.2-5.3c-0.4-0.1-0.8-0.2-1.2-0.3h-0.2
		c-11.8,4.8-23.8,9-36,12.6c-7.7,2.3-15.5,4.3-23.3,6.2c-7.9,1.8-15.6,3.4-23.8,4.7l-1-7.9c7.6-1,15.5-2.5,23.2-4s15.4-3.5,23-5.6
		c10.1-2.8,20.2-6,30-9.6l0,0c-0.5-0.3-0.9-0.7-1.3-1.1c-0.5-0.5-1-1-1.4-1.6l4.7-2.5l-0.1-0.1l0,0l0.1,0.1l0.3,0.3
		c0.2,0.2,0.5,0.5,0.8,0.7c0.6,0.5,1.2,0.9,1.9,1.2l0.8,0.4c-1-3.1-1.4-6.3-1.3-9.6c0.4-7.2,6.6-10,10.2-6.2
		c2.9,3.1,1.5,7.1-0.9,10.8c-0.7,1-1.5,2.1-2.2,3.1l3.2-1.3c3.1-1.3,6.3-2.7,9.3-4.1c-1.2-3.3-1.7-6.8-1.5-10.3
		c0.4-7.2,6.6-10,10.2-6.2c2.9,3.1,1.5,7.1-0.9,10.8c-0.7,1.1-1.5,2.1-2.3,3.1c2.2-1.1,4.4-2.2,6.6-3.3c1.6-0.9,3.2-1.7,4.8-2.6
		c2.1-1.5,4.2-3,6.2-4.6c1.1-0.9,2.2-1.8,3.3-2.7c-2.7-1.9-5-4.3-6.8-7c-4-6.1-0.7-12,4.4-11.1c4.2,0.7,5.4,4.8,5.7,9.2
		c0.1,2,0.1,4-0.1,6c4.5-4,8.8-8.3,12.6-13c2.3-2.8,4.4-5.7,6.4-8.7c-2.9-2-5.5-4.5-7.4-7.4c-4-6.1-0.7-11.9,4.4-11.1
		c4.2,0.7,5.4,4.8,5.7,9.2c0.1,1.6,0.1,3.2,0,4.8c1.8-3.1,3.3-6.3,4.7-9.6c2.7-6.7,4.3-13.7,4.8-20.9c-3.7-0.7-7.2-2.1-10.3-4.2
		c-6-4.1-5.1-10.9,0-11.9c4.1-0.8,6.8,2.4,8.7,6.4c0.7,1.5,1.3,3.1,1.9,4.7v-0.1c0.1-7.5-0.6-15-2-22.4c-3.9,0-7.8-0.9-11.4-2.5
		c-6.6-3.1-6.7-9.9-1.9-11.8c3.9-1.5,7.1,1.3,9.7,5c1,1.4,1.9,2.9,2.7,4.4c-1.6-7.7-3.5-15.5-4.8-23.4l0,0v-0.2
		c-4.1-0.8-7.9-2.6-11.2-5.1c-5.7-4.6-4.2-11.2,0.9-11.9c4.2-0.6,6.6,2.9,8.2,7c0.4,1.2,0.8,2.4,1.2,3.6c-0.7-5.4-1.1-10.9-1.2-16.3
		l-0.5-0.1c0-0.1,0-0.1,0-0.2c-4.1-0.9-8-2.7-11.3-5.3c-5.7-4.6-4.3-11.2,0.9-11.9c4.2-0.6,6.6,2.9,8.2,7.1c1,3,1.9,6.1,2.6,9.2
		c0-2,0-4,0-5.9c0.2-9.1,1-18.2,2.4-27.2c-1.2,10.3-1.7,20.7-1.4,31.1c0.9-2.1,2-4.2,3.2-6.2c2.2-3.6,5.2-6.3,9.2-4.6
		c4.9,2.1,5.2,9-1.1,11.8c-3.5,1.5-7.3,2.2-11.2,2c0.3,6.7,1,13.3,2.2,19.9c0,0.2,0.1,0.4,0.1,0.6c1-2.3,2.1-4.6,3.4-6.7
		c2.2-3.6,5.2-6.3,9.2-4.6c4.9,2.1,5.2,9-1.1,11.9c-3.5,1.5-7.2,2.2-11,2c1.5,7.8,3.6,15.5,5.5,23.3c0.1,0.4,0.2,0.8,0.3,1.1
		c0.4-2.1,0.9-4.1,1.5-6.1c1.3-4,3.6-7.3,7.8-6.6c5.3,0.9,7.2,7.5,1.7,11.8c-3,2.3-6.6,3.8-10.3,4.5c1.6,7.4,2.5,15,2.5,22.6v0.2
		c0.6-1.4,1.2-2.9,1.9-4.2c2-3.7,4.7-6.7,8.9-5.2c3.1,1,4.8,4.4,3.8,7.5c0,0,0,0,0,0l0,0c-0.1,0.4-0.4,0.9-0.6,1.3
		c0.9-0.1,1.8,0.1,2.6,0.4c3.9,1.6,4.2,5.9,3.5,10.2c-0.2,1.1-0.4,2.3-0.7,3.4c3.8-5.9,7-12.1,9.7-18.5c-3.2-1.8-6.1-4.2-8.3-7.1
		c-4.4-5.8-1.4-11.9,3.7-11.3c4.2,0.5,5.7,4.4,6.3,8.8c0.2,1.5,0.3,2.9,0.3,4.4c2.2-6.3,3.8-12.8,4.9-19.3
		c-3.8-0.9-7.3-2.7-10.4-5.1c-5.6-4.6-4.2-11.2,0.9-11.9c4.2-0.6,6.6,2.9,8.2,7c0.7,2,1.3,4,1.8,6c0.3-2.7,0.6-5.4,0.8-8.1
		c0.2-3.5,0.3-7,0.3-10.5c-3.7-0.9-7.2-2.7-10.2-5c-5.6-4.6-4.2-11.2,0.9-11.9c4.2-0.6,6.6,2.9,8.2,7c0.4,1,0.7,2,1,3
		c-0.2-5.9-0.5-11.8-0.8-17.8c-4-0.9-7.7-2.7-10.9-5.2c-5.7-4.6-4.2-11.2,0.9-11.9c4.2-0.6,6.6,2.9,8.2,7.1c0.6,1.6,1.1,3.3,1.5,5
		c-0.1-2.5-0.1-5-0.1-7.5c0-2,0.1-4,0.2-6c0-1.1,0.1-2.3,0.2-3.4c-4-0.9-7.7-2.7-11-5.2c-5.7-4.6-4.2-11.2,0.9-11.9
		c4.2-0.6,6.6,2.9,8.2,7.1c0.8,2.3,1.6,4.7,2.1,7.1c0.8-7.8,2.2-15.6,4.4-23.1C582.5,134.1,585.6,126.8,589.6,119.9z M470.4,355.4
		c2.2,0,4.2,1.1,5.4,2.9c2.2,0.1,4.4,0.1,6.7,0.1l0.2-1.3c-1.7-1.2-3.2-2.6-4.6-4.2l-0.3,0.2l-0.4-0.9
		C475,353.2,472.7,354.2,470.4,355.4z M520.4,317.9c-1.2,1.5-2.4,3-3.7,4.5l0.4,0.1c3.1-2.3,6.2-4.7,9.1-7.2
		c2.1-1.7,4.1-3.5,6.2-5.3c-1.9-0.2-3.7-0.7-5.5-1.3C524.9,311.8,522.7,314.9,520.4,317.9L520.4,317.9z M530.7,301.9
		c0.5-0.5,1-1,1.5-1.4l0.8-0.7c-0.2-0.6-0.4-1.1-0.6-1.8C531.9,299.3,531.3,300.6,530.7,301.9L530.7,301.9z M548.6,276.2
		c-0.9-2.1-1-4.4-0.3-6.5c-3,1.4-6.2,2.2-9.5,2.3c-0.3,5.1-1.1,10.2-2.4,15.1c1.4-0.3,2.8-0.1,4,0.7c3.6,2.2,3.2,6.4,1.9,10.7v0.2
		l0.2,0.2c0.2,0.2,0.4,0.4,0.6,0.6c0.2-0.2,0.3-0.3,0.5-0.5c4-4.3,7.7-8.8,11.1-13.5C552,282.8,549.9,279.7,548.6,276.2L548.6,276.2
		z"/>
	<g class="st6">
		<path class="st4" d="M575.2,177.3c0-2,0.2-4,0.2-6s0.3-4,0.4-6c0.7-8,2.2-15.8,4.4-23.5c2.1-7.7,5.3-15.1,9.3-21.9
			c-3.9,6.9-6.9,14.4-8.8,22.1c-2,7.7-3.3,15.5-3.9,23.5c-1.4,15.8,1.2,31.5,1.5,47.4c1-2.5,2.2-4.8,3.6-7.1
			c2.2-3.6,5.2-6.3,9.2-4.6c4.9,2.1,5.2,9-1.1,11.9c-3.7,1.6-7.7,2.3-11.7,2c0,3.4,0,6.7-0.1,10.1c-0.1,2.5-0.3,4.9-0.5,7.4
			c0.7-1.5,1.5-3,2.3-4.4c2.2-3.6,5.2-6.3,9.2-4.6c4.9,2.1,5.2,9-1,11.9c-3.5,1.5-7.2,2.2-11,2c-1,7.2-2.6,14.3-5,21.1
			c1.1-1.4,2.3-2.7,3.6-4c3.1-2.9,6.6-4.9,10-2.2c4.2,3.3,2.9,9.9-3.9,11.2c-3.8,0.6-7.6,0.4-11.3-0.7c-2.8,7.1-6.3,14-10.4,20.4
			c1.2-0.9,2.5-1.6,3.8-2.4c3.8-2,7.7-2.8,10.2,0.7c3.2,4.3-0.1,10.4-6.9,9.7c-3.6-0.4-7.1-1.6-10.2-3.5c-3.3,4.8-7,9.4-10.9,13.8
			c-0.6,0.7-1.2,1.4-1.9,2c0,0.3-0.1,0.5-0.1,0.8c0.7-0.3,1.5-0.6,2.3-0.9c4-1.4,8-1.6,10,2.3c2.5,4.8-1.7,10.2-8.3,8.4
			c-3.3-0.9-6.4-2.6-9.1-4.8l-0.5,0.1c-3.1,3.1-6.3,6-9.6,8.9c-2.5,2.1-5,4.2-7.6,6.2c2.8,3.6,0.7,9.2-5.5,10
			c-2.6,0.3-5.2,0.1-7.7-0.4c-5.1,3.4-10.4,6.6-15.7,9.6c1.8,0.3,3.2,1.5,3.8,3.2c1.1,2.8,0,5.2-1.9,7.3c-0.3,1.4-1,2.7-2.2,3.6
			c3.8-0.2,7.6-0.6,11.4-1c0-3.8,0.8-7.5,2.4-10.9c3-6.6,9.8-6.9,11.7-2.1c1.6,3.9-1.2,7.1-4.8,9.7c-1.4,1-2.8,1.9-4.3,2.6l4.2-0.6
			c3.5-0.5,7-1.3,10.6-1.9c0.9-0.1,1.7-0.3,2.6-0.5c-0.7-3.7-0.6-7.5,0.3-11.1c1.7-7.1,8.3-8.6,11.1-4.2c2.3,3.5,0.2,7.2-2.9,10.5
			c-1.4,1.4-2.8,2.7-4.3,3.9l3.7-0.9c8.2-2.2,16.2-5,23.9-8.3c-1.1-3.8-1.4-7.8-0.9-11.8c1-7.2,7.4-9.4,10.7-5.3
			c2.6,3.3,0.9,7.2-1.8,10.7c-1.5,1.8-3.1,3.6-4.8,5.2c4.4-2,8.8-4.1,13.1-6.3c2.7-1.4,5.3-2.9,7.9-4.4c-1.8-3.7-2.8-7.8-2.8-12
			c0.1-7.3,6.2-10.3,9.9-6.7c3,2.9,1.8,7-0.4,10.8c-1.5,2.4-3.1,4.6-4.9,6.8c3-1.8,5.9-3.7,8.8-5.6c6-4,11.8-8.4,17.2-13.1
			c-5.3,4.9-10.9,9.5-16.8,13.7c-2.7,2-5.5,3.8-8.2,5.6c2.3-0.6,4.7-1.1,7.2-1.5c4.2-0.5,8.2,0.2,9.3,4.4c1.4,5.2-3.8,9.7-10,6.5
			c-3.5-1.9-6.6-4.7-8.8-8c-2.5,1.6-5.1,3.2-7.7,4.6c-4.1,2.3-8.3,4.5-12.6,6.5c2-0.3,4.1-0.4,6.1-0.4c4.2,0.1,8,1.2,8.6,5.5
			c0.7,5.3-5,9.1-10.7,5.2c-3.2-2.3-5.7-5.2-7.5-8.7c-7.7,3.6-15.6,6.7-23.8,9.1l-2.5,0.7c1.4,0,2.8,0.1,4.2,0.2
			c4.2,0.5,7.9,2,8,6.4c0.1,5.3-5.9,8.5-11.2,4.1c-2.9-2.5-5.1-5.6-6.5-9.1c-0.8,0.2-1.7,0.5-2.6,0.6c-3.6,0.7-7.1,1.6-10.7,2.2
			l-3.1,0.5c1.1,0.2,2.1,0.5,3.2,0.8c4,1.3,7.4,3.5,6.7,7.8c-0.8,5.3-7.4,7.2-11.7,1.9c-2.2-2.8-3.8-6-4.7-9.5
			c-4,0.6-8.1,1.1-12.1,1.4c-1.5,0.1-3.1,0.3-4.7,0.4c1.7,0.3,3.4,0.7,5,1.2c4,1.3,7.4,3.5,6.7,7.8c-0.8,5.3-7.4,7.3-11.8,1.9
			c-2.4-3.1-4.1-6.7-4.8-10.6c-2,0.1-3.9,0.1-5.9,0.1c-0.8,3.8-5.3,6.2-10.2,3.4c-2.4-1.4-4.5-3.2-6.2-5.3c-0.4-0.1-0.8-0.2-1.2-0.3
			h-0.2c-11.8,4.8-23.8,9-36,12.6c-7.7,2.3-15.5,4.3-23.3,6.2c-7.9,1.8-15.6,3.4-23.8,4.7l-1-7.9c7.6-1,15.5-2.5,23.2-4
			s15.4-3.5,23-5.6c10.1-2.8,20.2-6,30-9.6l0,0c-0.5-0.3-0.9-0.7-1.3-1.1c-0.5-0.5-1-1-1.4-1.6l4.7-2.5l-0.1-0.1l0,0l0.1,0.1
			l0.3,0.3c0.2,0.2,0.5,0.5,0.8,0.7c0.6,0.5,1.2,0.9,1.9,1.2l0.8,0.4c-1-3.1-1.4-6.3-1.3-9.6c0.4-7.2,6.6-10,10.2-6.2
			c2.9,3.1,1.5,7.1-0.9,10.8c-0.7,1-1.5,2.1-2.2,3.1l3.2-1.3c3.1-1.3,6.3-2.7,9.3-4.1c-1.2-3.3-1.7-6.8-1.5-10.3
			c0.4-7.2,6.6-10,10.2-6.2c2.9,3.1,1.5,7.1-0.9,10.8c-0.7,1.1-1.5,2.1-2.3,3.1c2.2-1.1,4.4-2.2,6.6-3.3c1.6-0.9,3.2-1.7,4.8-2.6
			c2.1-1.5,4.2-3,6.2-4.6c1.1-0.9,2.2-1.8,3.3-2.7c-2.7-1.9-5-4.3-6.8-7c-4-6.1-0.7-12,4.4-11.1c4.2,0.7,5.4,4.8,5.7,9.2
			c0.1,2,0.1,4-0.1,6c4.5-4,8.8-8.3,12.6-13c2.3-2.8,4.4-5.7,6.4-8.7c-2.9-2-5.5-4.5-7.4-7.4c-4-6.1-0.7-11.9,4.4-11.1
			c4.2,0.7,5.4,4.8,5.7,9.2c0.1,1.6,0.1,3.2,0,4.8c1.8-3.1,3.3-6.3,4.7-9.6c2.7-6.7,4.3-13.7,4.8-20.9c-3.7-0.7-7.2-2.1-10.3-4.2
			c-6-4.1-5.1-10.9,0-11.9c4.1-0.8,6.8,2.4,8.7,6.4c0.7,1.5,1.3,3.1,1.9,4.7v-0.1c0.1-7.5-0.6-15-2-22.4c-3.9,0-7.8-0.9-11.4-2.5
			c-6.6-3.1-6.7-9.9-1.9-11.8c3.9-1.5,7.1,1.3,9.7,5c1,1.4,1.9,2.9,2.7,4.4c-1.6-7.7-3.5-15.5-4.8-23.4l0,0v-0.2
			c-4.1-0.8-7.9-2.6-11.2-5.1c-5.7-4.6-4.2-11.2,0.9-11.9c4.2-0.6,6.6,2.9,8.2,7c0.4,1.2,0.8,2.4,1.2,3.6
			c-0.7-5.4-1.1-10.9-1.2-16.3l-0.5-0.1c0-0.1,0-0.1,0-0.2c-4.1-0.9-8-2.7-11.3-5.3c-5.7-4.6-4.3-11.2,0.9-11.9
			c4.2-0.6,6.6,2.9,8.2,7.1c1,3,1.9,6.1,2.6,9.2c0-2,0-4,0-5.9c0.2-9.1,1-18.2,2.4-27.2c-1.2,10.3-1.7,20.7-1.4,31.1
			c0.9-2.1,2-4.2,3.2-6.2c2.2-3.6,5.2-6.3,9.2-4.6c4.9,2.1,5.2,9-1.1,11.8c-3.5,1.5-7.3,2.2-11.2,2c0.3,6.7,1,13.3,2.2,19.9
			c0,0.2,0.1,0.4,0.1,0.6c1-2.3,2.1-4.6,3.4-6.7c2.2-3.6,5.2-6.3,9.2-4.6c4.9,2.1,5.2,9-1.1,11.9c-3.5,1.5-7.2,2.2-11,2
			c1.5,7.8,3.6,15.5,5.5,23.3c0.1,0.4,0.2,0.8,0.3,1.1c0.4-2.1,0.9-4.1,1.5-6.1c1.3-4,3.6-7.3,7.8-6.6c5.3,0.9,7.2,7.5,1.7,11.8
			c-3,2.3-6.6,3.8-10.3,4.5c1.6,7.4,2.5,15,2.5,22.6v0.2c0.6-1.4,1.2-2.9,1.9-4.2c2-3.7,4.7-6.7,8.9-5.2c3.1,1,4.8,4.4,3.8,7.5
			c0,0,0,0,0,0l0,0c-0.1,0.4-0.4,0.9-0.6,1.3c0.9-0.1,1.8,0.1,2.6,0.4c3.9,1.6,4.2,5.9,3.5,10.2c-0.2,1.1-0.4,2.3-0.7,3.4
			c3.8-5.9,7-12.1,9.7-18.5c-3.2-1.8-6.1-4.2-8.3-7.1c-4.4-5.8-1.4-11.9,3.7-11.3c4.2,0.5,5.7,4.4,6.3,8.8c0.2,1.5,0.3,2.9,0.3,4.4
			c2.2-6.3,3.8-12.8,4.9-19.3c-3.8-0.9-7.3-2.7-10.4-5.1c-5.6-4.6-4.2-11.2,0.9-11.9c4.2-0.6,6.6,2.9,8.2,7c0.7,2,1.3,4,1.8,6
			c0.3-2.7,0.6-5.4,0.8-8.1c0.2-3.5,0.3-7,0.3-10.5c-3.7-0.9-7.2-2.7-10.2-5c-5.6-4.6-4.2-11.2,0.9-11.9c4.2-0.6,6.6,2.9,8.2,7
			c0.4,1,0.7,2,1,3c-0.2-6.1-0.5-12.2-0.8-18.3C575.3,185.3,575.2,181.3,575.2,177.3z M533.1,299.8c-0.2-0.6-0.4-1.2-0.6-1.8
			c-0.6,1.3-1.2,2.6-1.9,3.8c0.5-0.5,1-1,1.5-1.4L533.1,299.8z M482.5,358.3l0.2-1.3c-1.7-1.2-3.2-2.6-4.6-4.2l-0.3,0.2l-0.4-0.9
			c-2.3,1.1-4.6,2.2-7,3.3c2.2,0,4.2,1.1,5.4,2.9C478,358.3,480.3,358.4,482.5,358.3L482.5,358.3z M520.5,317.8
			c-1.2,1.5-2.4,3-3.7,4.5l0.4,0.1c3.1-2.3,6.2-4.7,9.1-7.2c2.1-1.7,4.1-3.5,6.2-5.3c-1.9-0.2-3.7-0.7-5.5-1.3
			C525,311.8,522.9,314.9,520.5,317.8L520.5,317.8z M548.7,276.2c-0.9-2.1-1-4.4-0.3-6.5c-3,1.4-6.2,2.1-9.5,2.3
			c-0.3,5.1-1.1,10.2-2.4,15.1c1.4-0.3,2.8-0.1,4,0.7c3.6,2.2,3.2,6.4,1.9,10.7v0.2l0.2,0.2c0.2,0.2,0.4,0.4,0.6,0.6
			c0.2-0.2,0.3-0.3,0.5-0.5c4-4.3,7.7-8.8,11.1-13.5C552.1,282.8,550.1,279.7,548.7,276.2L548.7,276.2z"/>
		<path class="st4" d="M589.6,119.9c-3.9,6.9-6.9,14.4-8.8,22.1c-2,7.7-3.3,15.5-3.9,23.5l-0.1,0.9c1.1-2.5,2.3-5,3.7-7.3
			c2.2-3.6,5.2-6.3,9.2-4.6c4.9,2.1,5.2,9-1,11.9c-3.7,1.6-7.8,2.3-11.9,2c-0.3,6.6-0.2,13.1,0.2,19.7c1-2.4,2.2-4.7,3.5-7
			c2.2-3.6,5.2-6.3,9.2-4.6c4.9,2.1,5.2,9-1,11.9c-3.6,1.6-7.5,2.3-11.5,2c0.5,7.5,1.2,15.1,1.3,22.6c1-2.4,2.2-4.8,3.5-7.1
			c2.2-3.6,5.2-6.3,9.2-4.6c4.9,2.1,5.2,9-1,11.9c-3.7,1.6-7.7,2.3-11.7,2c0,3.4,0,6.7-0.1,10.1c-0.1,2.5-0.3,4.9-0.5,7.4
			c0.7-1.5,1.5-3,2.3-4.5c2.2-3.6,5.2-6.3,9.2-4.6c4.9,2.1,5.2,9-1,11.9c-3.5,1.5-7.2,2.2-11,2c-1,7.2-2.6,14.3-5,21.1
			c1.1-1.4,2.3-2.7,3.6-4c3.1-2.9,6.6-4.9,10-2.2c4.2,3.3,2.9,9.9-3.9,11.2c-3.8,0.6-7.6,0.4-11.3-0.7c-2.8,7.1-6.3,14-10.4,20.4
			c1.2-0.9,2.5-1.6,3.8-2.4c3.8-2,7.7-2.8,10.2,0.7c3.2,4.3-0.1,10.4-6.9,9.7c-3.7-0.4-7.2-1.6-10.3-3.6c-3.3,4.8-7,9.4-10.9,13.8
			c-0.6,0.7-1.2,1.4-1.9,2c0,0.3-0.1,0.5-0.1,0.8c0.7-0.3,1.5-0.6,2.3-0.9c4-1.4,8-1.6,10,2.3c2.5,4.8-1.7,10.2-8.3,8.4
			c-3.3-0.9-6.4-2.6-9.1-4.8l-0.5,0.1c-3.1,3.1-6.3,6-9.6,8.9c-2.5,2.1-5,4.2-7.6,6.2c2.8,3.6,0.7,9.2-5.5,10
			c-2.6,0.3-5.2,0.1-7.7-0.4c-5.1,3.4-10.4,6.6-15.7,9.6c1.8,0.3,3.2,1.5,3.8,3.2c1.1,2.8,0,5.2-1.9,7.3c-0.3,1.4-1,2.7-2.2,3.6
			c3.8-0.2,7.6-0.6,11.4-1c0-3.8,0.8-7.5,2.4-10.9c3-6.6,9.8-6.9,11.7-2.1c1.6,3.9-1.2,7.1-4.8,9.7c-1.4,1-2.8,1.9-4.3,2.6l4.2-0.6
			c3.5-0.5,7-1.3,10.6-1.9c0.9-0.1,1.7-0.3,2.6-0.5c-0.7-3.7-0.6-7.5,0.3-11.1c1.7-7.1,8.3-8.6,11.1-4.2c2.3,3.5,0.2,7.2-2.9,10.5
			c-1.4,1.4-2.8,2.7-4.3,3.9l3.7-0.9c8.2-2.2,16.2-5,23.9-8.3c-1.1-3.8-1.4-7.8-0.9-11.8c1-7.2,7.4-9.4,10.7-5.3
			c2.6,3.3,0.9,7.2-1.8,10.7c-1.5,1.8-3.1,3.6-4.8,5.2c4.4-2,8.8-4.1,13.1-6.3c2.7-1.4,5.3-2.9,7.9-4.4c-1.8-3.7-2.8-7.8-2.8-12
			c0.1-7.3,6.2-10.3,9.9-6.7c3,2.9,1.8,7-0.4,10.8c-1.5,2.4-3.1,4.6-4.9,6.8c3-1.8,5.9-3.7,8.8-5.6c6-4,11.8-8.4,17.2-13.1
			c-5.3,4.9-10.9,9.5-16.8,13.7c-2.7,2-5.5,3.8-8.2,5.6c2.3-0.6,4.7-1.1,7.2-1.5c4.2-0.5,8.2,0.2,9.3,4.4c1.4,5.2-3.8,9.7-10,6.5
			c-3.5-1.9-6.6-4.7-8.8-8c-2.5,1.6-5.1,3.2-7.7,4.6c-4.1,2.3-8.3,4.5-12.6,6.5c2-0.3,4.1-0.4,6.1-0.4c4.2,0.1,8,1.2,8.6,5.5
			c0.7,5.3-5,9.1-10.7,5.2c-3.2-2.3-5.7-5.2-7.5-8.7c-7.7,3.6-15.6,6.7-23.8,9.1l-2.5,0.7c1.4,0,2.8,0.1,4.2,0.2
			c4.2,0.5,7.9,2,8,6.4c0.1,5.3-5.9,8.5-11.2,4.1c-2.9-2.5-5.1-5.6-6.5-9.1c-0.8,0.2-1.7,0.5-2.6,0.6c-3.6,0.7-7.1,1.6-10.7,2.2
			l-3.1,0.5c1.1,0.2,2.1,0.5,3.2,0.8c4,1.3,7.4,3.5,6.7,7.8c-0.8,5.3-7.4,7.2-11.7,1.9c-2.2-2.8-3.8-6-4.7-9.5
			c-4,0.6-8.1,1.1-12.1,1.4c-1.5,0.1-3.1,0.3-4.7,0.4c1.7,0.3,3.4,0.7,5,1.2c4,1.3,7.4,3.5,6.7,7.8c-0.8,5.3-7.4,7.3-11.8,1.9
			c-2.4-3.1-4.1-6.7-4.8-10.6c-2,0.1-3.9,0.1-5.9,0.1c-0.8,3.8-5.3,6.2-10.2,3.4c-2.4-1.4-4.5-3.2-6.2-5.3c-0.4-0.1-0.8-0.2-1.2-0.3
			h-0.2c-11.8,4.8-23.8,9-36,12.6c-7.7,2.3-15.5,4.3-23.3,6.2c-7.9,1.8-15.6,3.4-23.8,4.7l-1-7.9c7.6-1,15.5-2.5,23.2-4
			s15.4-3.5,23-5.6c10.1-2.8,20.2-6,30-9.6l0,0c-0.5-0.3-0.9-0.7-1.3-1.1c-0.5-0.5-1-1-1.4-1.6l4.7-2.5l-0.1-0.1l0,0l0.1,0.1
			l0.3,0.3c0.2,0.2,0.5,0.5,0.8,0.7c0.6,0.5,1.2,0.9,1.9,1.2l0.8,0.4c-1-3.1-1.4-6.3-1.3-9.6c0.4-7.2,6.6-10,10.2-6.2
			c2.9,3.1,1.5,7.1-0.9,10.8c-0.7,1-1.5,2.1-2.2,3.1l3.2-1.3c3.1-1.3,6.3-2.7,9.3-4.1c-1.2-3.3-1.7-6.8-1.5-10.3
			c0.4-7.2,6.6-10,10.2-6.2c2.9,3.1,1.5,7.1-0.9,10.8c-0.7,1.1-1.5,2.1-2.3,3.1c2.2-1.1,4.4-2.2,6.6-3.3c1.6-0.9,3.2-1.7,4.8-2.6
			c2.1-1.5,4.2-3,6.2-4.6c1.1-0.9,2.2-1.8,3.3-2.7c-2.7-1.9-5-4.3-6.8-7c-4-6.1-0.7-12,4.4-11.1c4.2,0.7,5.4,4.8,5.7,9.2
			c0.1,2,0.1,4-0.1,6c4.5-4,8.8-8.3,12.6-13c2.3-2.8,4.4-5.7,6.4-8.7c-2.9-2-5.5-4.5-7.4-7.4c-4-6.1-0.7-11.9,4.4-11.1
			c4.2,0.7,5.4,4.8,5.7,9.2c0.1,1.6,0.1,3.2,0,4.8c1.8-3.1,3.3-6.3,4.7-9.6c2.7-6.7,4.3-13.7,4.8-20.9c-3.7-0.7-7.2-2.1-10.3-4.2
			c-6-4.1-5.1-10.9,0-11.9c4.1-0.8,6.8,2.4,8.7,6.4c0.7,1.5,1.3,3.1,1.9,4.7v-0.1c0.1-7.5-0.6-15-2-22.4c-3.9,0-7.8-0.9-11.4-2.5
			c-6.6-3.1-6.7-9.9-1.9-11.8c3.9-1.5,7.1,1.3,9.7,5c1,1.4,1.9,2.9,2.7,4.4c-1.6-7.7-3.5-15.5-4.8-23.4l0,0v-0.2
			c-4.1-0.8-7.9-2.6-11.2-5.1c-5.7-4.6-4.2-11.2,0.9-11.9c4.2-0.6,6.6,2.9,8.2,7c0.4,1.2,0.8,2.4,1.2,3.6
			c-0.7-5.4-1.1-10.9-1.2-16.3l-0.5-0.1c0-0.1,0-0.1,0-0.2c-4.1-0.9-8-2.7-11.3-5.3c-5.7-4.6-4.3-11.2,0.9-11.9
			c4.2-0.6,6.6,2.9,8.2,7.1c1,3,1.9,6.1,2.6,9.2c0-2,0-4,0-5.9c0.2-9.1,1-18.2,2.4-27.2c-1.2,10.3-1.7,20.7-1.4,31.1
			c0.9-2.1,2-4.2,3.2-6.2c2.2-3.6,5.2-6.3,9.2-4.6c4.9,2.1,5.2,9-1.1,11.8c-3.5,1.5-7.3,2.2-11.2,2c0.3,6.7,1,13.3,2.2,19.9
			c0,0.2,0.1,0.4,0.1,0.6c1-2.3,2.1-4.6,3.4-6.7c2.2-3.6,5.2-6.3,9.2-4.6c4.9,2.1,5.2,9-1.1,11.9c-3.5,1.5-7.2,2.2-11,2
			c1.5,7.8,3.6,15.5,5.5,23.3c0.1,0.4,0.2,0.8,0.3,1.1c0.4-2.1,0.9-4.1,1.5-6.1c1.3-4,3.6-7.3,7.8-6.6c5.3,0.9,7.2,7.5,1.7,11.8
			c-3,2.3-6.6,3.8-10.3,4.5c1.6,7.4,2.5,15,2.5,22.6v0.2c0.6-1.4,1.2-2.9,1.9-4.2c2-3.7,4.7-6.7,8.9-5.2c3.1,1,4.8,4.4,3.8,7.5
			c0,0,0,0,0,0l0,0c-0.1,0.4-0.4,0.9-0.6,1.3c0.9-0.1,1.8,0.1,2.6,0.4c3.9,1.6,4.2,5.9,3.5,10.2c-0.2,1.1-0.4,2.3-0.7,3.4
			c3.8-5.9,7-12.1,9.7-18.5c-3.2-1.8-6.1-4.2-8.3-7.1c-4.4-5.8-1.4-11.9,3.7-11.3c4.2,0.5,5.7,4.4,6.3,8.8c0.2,1.5,0.3,2.9,0.3,4.4
			c2.2-6.3,3.8-12.8,4.9-19.3c-3.8-0.9-7.3-2.7-10.4-5.1c-5.6-4.6-4.2-11.2,0.9-11.9c4.2-0.6,6.6,2.9,8.2,7c0.7,2,1.3,4,1.8,6
			c0.3-2.7,0.6-5.4,0.8-8.1c0.2-3.5,0.3-7,0.3-10.5c-3.7-0.9-7.2-2.7-10.2-5c-5.6-4.6-4.2-11.2,0.9-11.9c4.2-0.6,6.6,2.9,8.2,7
			c0.4,1,0.7,2,1,3c-0.2-5.9-0.5-11.8-0.8-17.8c-4-0.9-7.7-2.7-10.9-5.2c-5.7-4.6-4.2-11.2,0.9-11.9c4.2-0.6,6.6,2.9,8.2,7.1
			c0.6,1.6,1.1,3.3,1.5,5c-0.1-2.5-0.1-5-0.1-7.5c0-2,0.1-4,0.2-6c0-1.1,0.1-2.3,0.2-3.4c-4-0.9-7.7-2.7-11-5.2
			c-5.7-4.6-4.2-11.2,0.9-11.9c4.2-0.6,6.6,2.9,8.2,7.1c0.8,2.3,1.6,4.7,2.1,7.1c0.8-7.8,2.2-15.6,4.4-23.1
			C582.5,134.1,585.6,126.8,589.6,119.9z M470.4,355.4c2.2,0,4.2,1.1,5.4,2.9c2.2,0.1,4.4,0.1,6.7,0.1l0.2-1.3
			c-1.7-1.2-3.2-2.6-4.6-4.2l-0.3,0.2l-0.4-0.9C475,353.2,472.7,354.2,470.4,355.4z M520.4,317.9c-1.2,1.5-2.4,3-3.7,4.5l0.4,0.1
			c3.1-2.3,6.2-4.7,9.1-7.2c2.1-1.7,4.1-3.5,6.2-5.3c-1.9-0.2-3.7-0.7-5.5-1.3C524.9,311.8,522.7,314.9,520.4,317.9L520.4,317.9z
			 M530.7,301.9c0.5-0.5,1-1,1.5-1.4l0.8-0.7c-0.2-0.6-0.4-1.1-0.6-1.8C531.9,299.3,531.3,300.6,530.7,301.9L530.7,301.9z
			 M548.6,276.2c-0.9-2.1-1-4.4-0.3-6.5c-3,1.4-6.2,2.2-9.5,2.3c-0.3,5.1-1.1,10.2-2.4,15.1c1.4-0.3,2.8-0.1,4,0.7
			c3.6,2.2,3.2,6.4,1.9,10.7v0.2l0.2,0.2c0.2,0.2,0.4,0.4,0.6,0.6c0.2-0.2,0.3-0.3,0.5-0.5c4-4.3,7.7-8.8,11.1-13.5
			C552,282.8,549.9,279.7,548.6,276.2L548.6,276.2z"/>
	</g>
</g>
<g id="freepik--credit-card--inject-55">
	<path class="st7" d="M353.6,310.4l-200.2-36.6c-6-1.1-9.9-6.8-8.8-12.8l20.9-114c1.1-6,6.8-9.9,12.8-8.8l200.2,36.6
		c6,1.1,9.9,6.8,8.8,12.8l-20.9,114C365.2,307.5,359.5,311.5,353.6,310.4z"/>
	<path class="st8" d="M350.4,169.7c-14.3,7.9-31,14.5-48.5,15.5c-48,3-68.3-18.6-121.7-11.7c-6.9,0.9-13.7,2.3-20.4,4.3l-8.9,48.9
		c14.5-10.9,31.2-18.5,49-22.2c47.1-9.9,66.9,7.6,109.5,1.5c25.3-3.6,47.9-19.8,62-32.4L350.4,169.7z"/>
	<path class="st9" d="M162.2,164.7c1.9-0.5,3.8-1,5.8-1.4c47.1-9.9,66.9,7.6,109.5,1.5c6.5-1,12.8-2.6,18.9-5l-117-21.4
		c-6.6-1.2-13,3.2-14.2,9.8L162.2,164.7z"/>
	<path class="st10" d="M185.5,173.7l15.6,2.9c2.2,0.4,3.7,2.6,3.3,4.8l-2.7,14.8c-0.4,2.2-2.6,3.7-4.8,3.3l-15.6-2.9
		c-2.2-0.4-3.7-2.6-3.3-4.8l2.7-14.8C181.1,174.8,183.2,173.3,185.5,173.7z"/>
	<path class="st10" d="M190.1,182.7l3.4,0.6c1.1,0.2,1.8,1.3,1.6,2.4l-0.6,3.1c-0.2,1.1-1.3,1.8-2.4,1.6l-3.4-0.6
		c-1.1-0.2-1.8-1.3-1.6-2.4l0.6-3.1C188,183.3,189,182.5,190.1,182.7z"/>
	<path class="st11" d="M180.9,175.5l7,1.3c1.3,0.2,2.2,1.5,2,2.9c0,0,0,0,0,0l-0.5,2.9"/>
	<path class="st11" d="M204.7,179.9l-6.9-1.2c-1.4-0.2-2.7,0.6-2.9,2c0,0,0,0,0,0l-0.5,2.9"/>
	<path class="st11" d="M177.6,193.5l7,1.3c1.4,0.2,2.6-0.6,2.9-2l0.5-2.9"/>
	<path class="st11" d="M201.4,197.9l-6.9-1.3c-1.4-0.3-2.2-1.5-2-2.9l0.5-2.9"/>
	<line class="st11" x1="179.2" y1="185" x2="187.4" y2="186.5"/>
	<line class="st11" x1="194.5" y1="187.8" x2="202.7" y2="189.3"/>
	<path class="st12" d="M335.5,295.4c6.1,1.1,12-2.9,13.1-9.1s-2.9-12-9.1-13.1l0,0l-15.1-2.8c-6.1-1.1-12,2.9-13.1,9.1
		s2.9,12,9.1,13.1L335.5,295.4z"/>
</g>
<g id="freepik--Character--inject-55">
	<path class="st10" d="M332.1,159c0,0,40.2-6.6,45.6-6.3c5.3,0.3,50.2,11.8,50.2,11.8c0.7,2.7,1.1,5.5,1,8.2
		c-0.2,4.3-4.9,11.1-4.9,11.1L377.8,163l-42.4,2L332.1,159z"/>
	<path class="st13" d="M409.9,160l12.2,13.5l-7.7-3.1l5.5,5.9l-5.9-2.5l-2.8,2.1l-16.9-11.1l4.3,4.6c0,0-20.6-10.8-21.5-10.8
		s-40.3,5.9-40.3,5.9l3.5,0.3l37.5-1.8l46.2,20.9c0,0,4.7-6.9,4.9-11.1c0.1-2.8-0.2-5.6-1-8.2C428,164.5,419.7,162.4,409.9,160z"/>
	<path class="st10" d="M335.4,165c0,0-10,3.4-11.5,3.3c-1.1-0.1-6.6-0.4-9.4-0.5c-1,0-1.9,0-1.9-1l0,0c0-0.9,0.6-1.7,1.5-1.9
		l3.6-0.6c0,0-12.7-1.8-13.6-3.3s5.1-0.8,6.6-1.1c2.4-0.4,14.4-0.3,14.4-0.3l7-0.7L335.4,165z"/>
	<path class="st10" d="M393.3,130.3l-0.8,14.4l4.6,0.7c0,0,4.2,16.1,5.5,17.1c1.3,1,11.9-4.9,11.9-4.9l6.5,7.8l8.7-6l-4.7-7.3
		c0,0,3-27.3,2-33.3s-4.7-7.7-13-8.2c-5.1-0.3-10.2,0.6-15,2.4c0,0,2.6-5-6.2-4.6s-12.2,10-10.6,14.7S393.3,130.3,393.3,130.3z"/>
	<path class="st13" d="M425,152.1c0,0,3-27.3,2-33.3s-4.7-7.7-13-8.2c-5.1-0.3-10.2,0.6-15,2.4c0.5-1,0.4-2.3-0.3-3.2
		c-2.1,0.4-4.1,0.9-6.1,1.5c-2.9,1-6.3,2.1-9.2,3.1c-1.4,2.4-1.9,5.2-1.5,8l3,4.2c2.6,1.7,5.4,3,8.5,3.8l-0.2,2.8
		c1.7,0.4,3.5,0.6,5.3,0.6c3.1,0,7.7-2.5,7.7-2.5s-2.8,4.3,0.6,6.8c1.9,1.4,4.1,2.3,6.5,2.5c0,0,2.2,7.4,2.2,9.9
		c0,1.9-8.8,9.1-12.7,12.1c1.6,0.8,11.8-4.9,11.8-4.9l6.5,7.8l8.7-6L425,152.1z"/>
	<path class="st7" d="M427,118.8c-1-6.1-4.7-7.7-13-8.2c-5.1-0.3-10.2,0.6-15,2.4c0,0,2.6-5-6.2-4.6s-12.2,10-10.6,14.7
		s11.2,7.2,11.2,7.2s11.6-0.3,17.4-4.1c0,0-4,5.3-3.3,8.6c0.4,1.8,2.1,2.9,3.9,2.6c0,0,0.1,0,0.1,0l1.1,4.7c0,0,2.7,1.5,3.2,0.2
		c0.5-1.4,0.5-7.9,4-5.4s3.8,7.2,1.8,8.5c-1.9,1.3-3.3,0.3-2,3.1s5.4,3.6,5.4,3.6S428,124.8,427,118.8z"/>
	<path class="st14" d="M401,117.3c0,0-4.1-4.1-6.3,1.1s2.2,8.2,12.3,6.7s16.7-4.5,17.8-4.5"/>
	<path class="st14" d="M408,129.2c0,0,7.8,1.5,18.6-1.5"/>
	<path class="st15" d="M400.5,137.6c0.1,0.9-0.1,1.7-0.5,1.8s-0.9-0.6-1-1.5c-0.1-0.9,0.1-1.7,0.5-1.8S400.3,136.7,400.5,137.6z"/>
	<path class="st11" d="M402.3,152.8c0,0,3.8,0,5.3-2.8"/>
	<path class="st11" d="M397.5,131.8c1.2-0.6,2.7-0.4,3.8,0.4"/>
	<path class="st7" d="M446.4,246.7l1.8,5.5c0,0-32,21.4-40.4,29.9s-16.3,16.5-15.5,20.7s10.5,65.1,10.5,65.1l12.2-0.9
		c0,0,0.8-59.2,2.5-60.7s50.1-33.6,50.1-33.6s4.3-0.8,6.3,0.4s13.3,43.6,16.4,45.9s41.6,49.1,41.6,49.1l10.2-2.6c0,0-34-61.4-34-63
		c0.1-0.9-7.3-34-14.8-55.3c-5.6-16-12-21.9-12-21.9L446.4,246.7z"/>
	<path class="st14" d="M479.9,231.5c0,0,6.4,11.4,9.2,15.6s3.2,14.2,3.2,14.2s13.8,39,14.9,45.6s32.8,58.6,32.8,58.6"/>
	<polyline class="st14" points="449.9,264.9 467.6,272.8 455,271.2 	"/>
	<path class="st14" d="M425.6,292.6l-12.8,13.3c0,0-11-0.1-7.6,1.6c2.6,1.4,5,3.1,7.2,4.9v52.7"/>
	<path class="st14" d="M450.3,248.8c0,0,18.7-1.9,31.3-20.3"/>
	<line class="st14" x1="460.2" y1="242.4" x2="462" y2="246.5"/>
	<line class="st14" x1="471.2" y1="235" x2="473.5" y2="238.6"/>
	<path class="st10" d="M419.2,167.4c0,0-1.6,9.4,1.7,25s25.4,54.4,25.4,54.4l3.5-0.7c10-2.1,19-7.2,26-14.6l5.5-5.9
		c0,0-20-37.7-27.7-51.8c-7.7-14.2-20.3-14.9-24-15.1C426.1,158.3,418.8,165.2,419.2,167.4z"/>
	<g class="st16">
		<path class="st3" d="M453.8,173.6c-5.5-10.2-13.5-13.4-19-14.5c2.4,1.2,9.8,5.3,13.2,12.5c4,8.6-1.2,21.5-1.2,21.5s0-0.7-0.1-1.9
			c-2.7,9.9-7.2,24.8-10.5,34.4l4.1-10.4l1.8-6.8l13.6,5.3l-7.1-7.1c0,0,14.8,8.9,18.8,12.6c4,3.7,5.2,8.3,3.1,13.5
			c-1.2,2.4-2.7,4.6-4.4,6.6c3.6-2.3,7-5,9.9-8.1l5.5-5.9C481.5,225.5,461.4,187.8,453.8,173.6z"/>
	</g>
	<path class="st17" d="M443.2,198.8c0,0,8.3-7.9,12.4-11.5"/>
	<path class="st17" d="M456,198c0.8-0.2,1.6-0.4,2.5-0.7"/>
	<path class="st17" d="M440.7,199.1c4,0.2,8.1,0,12.1-0.5"/>
	<polygon class="st10" points="430.6,154.3 414.6,165.5 419,171.1 434,158.7 	"/>
	<path class="st10" d="M449,181.7c-0.6,5.4-14.6,51.8-16.4,53.1S373,251.6,373,251.6l-3.1-4.6l49.6-24.6l10.7-48.3"/>
	<path class="st13" d="M446.7,191.3c-0.1-3.6-0.5-11.3-1.5-9.9c-1.2,1.9-3.7,16.6-7.7,27.4s-11.7,15.4-10.2,15.7s2.8,5.2,2.8,5.2
		l-55.8,21.5c3.1-0.8,11.6-3.1,21.2-5.7l37.1-10.7l3.6-9.2C439.4,216.1,444,201.1,446.7,191.3z"/>
	<path class="st18" d="M373.3,251.9l-3.4-5l-16.6-3.3c-0.6-0.2-1.1,0.2-1.3,0.7s0.2,1.1,0.7,1.3l6.1,2.5l-4.4,3.6
		c-1.2,1-6.7,4.2-7.1,5.5c-0.8,2.4,2.5,0.4,3.3,0.1c1.8-0.6,2.9-1.4,5.9-2.6c0.6,0.8-6.1,4.5-6.9,5.2c-0.3,0.2-0.9,0.6-0.9,1
		c-0.1,1.9,3,0,3.8-0.4c2.1-0.9,4.2-1.9,6.2-2.7c-1.5,1.1-3.9,2.3-5.4,3.4c-0.7,0.4-1.3,0.8-1.9,1.3c-0.8,0.8-0.1,1.6,1,1.3
		c1.2-0.5,2.4-1.1,3.5-1.8c1.7-0.9,2.6-1.7,4.3-2.6c-1.2,1-1.8,1.6-3,2.6c-0.5,0.4-1.5,1-1.8,1.6c-0.8,2,3.7-0.8,4.2-1.1
		c1.7-1.2,3.8-2.3,5.4-3.6c0.2-0.2,2.7-2.6,2.7-2.6L373.3,251.9z"/>
	<line class="st17" x1="418.7" y1="181.2" x2="409.7" y2="168"/>
	<line class="st17" x1="417.8" y1="180.8" x2="407.8" y2="172.4"/>
	<path class="st10" d="M402.9,368l-0.9,1l-6.4,6.8c0,0-14.3,5.2-14.4,7.2s15.3,0.9,20,0.5s10.3-4.8,10.3-4.8s6,1,6.9-3.6
		s-3.2-7.9-3.2-7.9L402.9,368z"/>
	<path class="st10" d="M531.9,368.2c-1.8,3.9-3.4,7.8-4.8,11.8c-1.6,5.2-7.1,6.9-4.6,9.8s8.6,1.2,13.7-5.2s9.8-8.8,10-11.4
		s-4.1-7.5-4.1-7.5L531.9,368.2z"/>
	<path class="st17" d="M522.6,389.8c3.5-0.1,7-1.3,9.8-3.5c4.2-3.5,7.8-10.6,10.3-12.4l2.5-1.8"/>
	<path class="st17" d="M382.7,382.4c0,0,13.8-1.4,19.5-2.1s7.5-4.6,9.2-5s5.7-1.8,5.7-1.8"/>
</g>
<g id="freepik--Device--inject-55">
	<path class="st10" d="M67.1,307.8c0,0-13.6,15.6-11,37.2S81.6,378,81.6,378l28.1-55c0,0-14.2-14-4.2-31.8
		C105.5,291.2,82,294.1,67.1,307.8z"/>
	<path class="st13" d="M67.1,307.8c0,0-13.6,15.6-11,37.2S81.6,378,81.6,378l28.1-55c0,0-14.2-14-4.2-31.8
		C105.5,291.2,82,294.1,67.1,307.8z"/>
	<path class="st10" d="M188.3,267.2c0,0-17.7,0.5-23.6,3.4s-44.3,30.2-66.2,62c-7.4,10.8-10.2,16.8-11.1,19.7
		c-0.7,1.9-1.4,3.8-2.2,5.6c-2.4,5.3-6.5,16.2-5,27.5c2.1,15.9,11.4,31.4,47,37.9s49.2-20,50.1-31.3c0,0,86.6,6.2,140.4,12.3
		s71.7,2.7,89.7,9.8s22.4,11.7,30,11.9c7.6,0.1,29.5-24.4,30.1-31.5s-6.8-17.2-9.1-17.9s-30.5-42.4-30.5-42.4s-1.3-8.2-13.6-14.9
		s-73.7-25.2-107.3-34.5S205.5,267.1,188.3,267.2z"/>
	<path class="st13" d="M464,383.2c-7.5-3.8-15.4-6.8-23.6-8.9l-101.6-27.8L205,323.2c0,0-55.6-9-80.5,3c-17.7,8.6-35.7,36.5-44.6,52
		c-0.1,2.4,0,4.8,0.3,7.2c2.1,15.9,11.4,31.4,47,37.9s49.2-20,50-31.3c0,0,86.6,6.2,140.4,12.3s71.7,2.7,89.7,9.8s22.4,11.7,30,11.9
		s29.5-24.4,30.1-31.5C467.7,391,466,386.7,464,383.2z"/>
	<path class="st11" d="M88,363.6c0,0,25.5-40.9,51-43.6s106.4,9.2,106.4,9.2"/>
	<path class="st11" d="M253.8,330.8c0,0,49.9,7.2,115.3,23.7s91.8,25.7,95.4,28.8"/>
	<path class="st10" d="M302.5,295.4c0,0,106.8,27.7,113.6,30.5c4,1.6,7.4,4.2,10.1,7.5"/>
	<path class="st7" d="M168.9,272.8l-27.4,39.8c0,0,38.6-0.8,140.7,15.7l2.4-36.5c0,0-49.3-15.2-69.6-16.8S168.9,272.8,168.9,272.8z"
		/>
	<path class="st10" d="M141.9,312.6c2.1,0,11.2,0,29.2,1.5l-19-17l-1.2,1.8L141.9,312.6z"/>
	<path class="st10" d="M168.9,272.8l-5.2,7.6l45.3,37.5c11.5,1.4,24.7,3.1,39.7,5.3c5.3,0.6,10.8,1.2,16.5,1.9l-62.5-50.9
		C185.5,273.2,168.9,272.8,168.9,272.8z"/>
	<path class="st19" d="M286.3,299.4L286,321c5.3-0.3,13.6-0.1,19.6,3c0.6-7.4-0.6-14.8-3.3-21.6L286.3,299.4z"/>
	<path class="st19" d="M301.3,300c-1.1-2.4-2.5-4.7-4.1-6.8l-10.8-2.3l-0.1,6.8L301.3,300z"/>
	<path class="st19" d="M285.9,324l-0.1,6l18.4,2.8c0.6-2.2,1-4.4,1.2-6.6C302,324.8,295.8,323.1,285.9,324z"/>
	<path class="st10" d="M327.7,301.3c0,0-10.2-2.5-12-2.4s-2.2,3.1-2.2,3.1l3.7,7.2c0,0-0.6,1.2,4.8,2.9s10,2,10.6,1.3
		s0.5-2.7,0.8-4.4S330.2,301.5,327.7,301.3z"/>
	<path class="st10" d="M334.4,314c0,0-10.2-3.3-12-3.2s-3.5,3.7-3.5,3.7s1.3,9,2.5,10.1s12.4,3.7,14.1,3.8s2.4-2,2.6-4.3
		S336.4,314.6,334.4,314z"/>
	<path class="st10" d="M338.3,328.2c0,0-12.9-3.5-14.1-3.6s-3,3.2-2.8,4s-0.1,7.5-0.1,7.5l20.1,4l-1.5-9.3
		C339.8,330.8,339.9,330.3,338.3,328.2z"/>
	<path class="st10" d="M337.4,304l-1.4,2.6l4.4,8c0,0,0.1,1.5,4.3,2.6s11.7,2.7,11.7,2.7s2.2-2.3,1.8-3.4s-5-8.6-7-9.7
		S338,302.8,337.4,304z"/>
	<path class="st10" d="M344.6,317.3c-0.7,1-1.2,2.2-1.5,3.4c-0.1,1,1.3,9.1,3.4,11s14.2,3.3,15.9,3.5s2.2-2.6,2.3-4.5
		s-2.5-8.9-4.4-10s-12.9-3.7-12.9-3.7S345.5,315.9,344.6,317.3z"/>
	<path class="st10" d="M365.7,335.2c-0.4-0.3-0.8-0.5-1.2-0.7c-2.8-1-13.1-4.4-14.9-3.5c-2.1,1.1-2.8,3.8-2.7,6
		c0.1,1.6,0.3,3.2,0.6,4.8l21.4,5.9l-1.9-10.2C366.9,336.7,366.4,335.8,365.7,335.2L365.7,335.2z"/>
	<path class="st10" d="M359.6,309.7l-0.6,4.2c0,0,2.3,6.1,4.7,7.1s13.7,3.5,14.4,3.6s2.4-2.5,2.3-4s-4.4-8-6.8-9s-12.2-2.7-12.2-2.7
		S359.2,308.5,359.6,309.7z"/>
	<path class="st10" d="M368.9,321.6l-2.1,5.3c0,0,2.8,8.7,3.2,10s16.1,4.5,16.9,4s2.6-1,2.3-4.5s-5-11.8-7-12.2s-10.2-2.5-11-2.6
		S369.2,320.7,368.9,321.6z"/>
	<path class="st10" d="M374.9,338c0,0-2.6,5.3-2.1,7.8c0.4,1.7,0.9,3.3,1.6,4.9l21.2,5.4c0,0-2.5-9.1-3-12.2s-5.9-4.4-10.2-5.8
		S374.5,336.5,374.9,338z"/>
	<path class="st10" d="M381.9,314.5l-0.3,4.2c0,0,5.2,7.1,6.6,8.5s12.7,3.5,13.7,3.3s1.5-2.6,1.1-4.1s-5.9-7.9-8-8.8
		s-11.2-3.6-11.2-3.6S381.3,312.9,381.9,314.5z"/>
	<path class="st10" d="M391.6,327.6c0,0-1.4,5.6-0.7,6.2s3.8,8.8,5.5,9.6s13.9,3.6,15.4,3.2s1.8-3.4,1-5.9s-5.8-9.1-8.6-10.4
		c-2.1-0.9-10.2-2.8-10.2-2.8S392.2,326.4,391.6,327.6z"/>
	<path class="st10" d="M410.1,345.8c0,0-7.5-2.8-8.8-2.4s-2.8,4.5-2.9,5.2s2.7,9.7,2.7,9.7l19.9,5.8c0,0,0-0.5,0-3.7
		s-4.8-11.8-5.7-12.6S410.1,345.8,410.1,345.8z"/>
	<path class="st8" d="M405,321.2c-0.4,1.3-0.6,2.6-0.8,3.9c-0.1,1.5,4.2,6.3,6.4,7.7s12.6,4.2,13.4,4.3s2.7-2.3,1.4-4.6
		c-2.1-3.1-4.8-5.7-7.9-7.8C415,323.2,407.5,321.2,405,321.2z"/>
	<path class="st8" d="M415.7,334.5c-0.4,1-0.8,2.1-1,3.2c-0.1,1,4.8,8.8,5.9,10.2s11.9,3.7,13.1,3.8s4-0.2,3-3.7s-4-9.3-6.9-10.2
		s-8.2-2.6-10.7-3.3S415.7,334.5,415.7,334.5z"/>
	<path class="st8" d="M426.2,349.5c-1.1,1.8-1.9,3.7-2.2,5.8c-0.2,2.7,2,9.4,4.1,11s16.5,5.5,16.5,5.5s1.3-4.4,1.8-7.1
		s-6.8-11.2-7.5-12.3S427.9,349.4,426.2,349.5z"/>
	<path class="st7" d="M453.6,406.8c-5.1-1.4-13.1-2.5-16.1-7s-6.3-10.5-36.6-12.8s-234.7-31.1-255.5-32.2s-37.1,23.8-37.1,23.8
		s-12.7-1.5-20.6-4c-2.5-0.8-4.8-2.1-6.8-3.9c-1.1,4.8-1.3,9.8-0.7,14.7c2.1,15.9,11.4,31.4,47,37.9s49.2-20,50.1-31.3
		c0,0,86.6,6.2,140.4,12.3s71.7,2.7,89.7,9.8s22.4,11.7,30,11.9c4.6,0.1,14.4-8.9,21.6-17.5C456.9,407.8,455,407.2,453.6,406.8z"/>
	<path class="st20" d="M104.9,384.5c0,0-6.3,13.8-8.8,21.2"/>
	<path class="st20" d="M113.4,379.9c0,0,36.5,8.5,59.1,11.3"/>
	<path class="st10" d="M141.5,312.6c0,0-22.6-15.1-41.1-16.5s-33.3,11.8-33.3,11.8s45.5-39.8,57.9-41.2s28.8-3,43.8,6.3L141.5,312.6
		z"/>
</g>
</svg>
