<?xml version="1.0" encoding="utf-8"?>
<!-- Generator: Adobe Illustrator 27.1.1, SVG Export Plug-In . SVG Version: 6.00 Build 0)  -->
<svg version="1.1" id="Layer_1" xmlns="http://www.w3.org/2000/svg" xmlns:xlink="http://www.w3.org/1999/xlink" x="0px" y="0px"
	 viewBox="0 0 500 500" style="enable-background:new 0 0 500 500;" xml:space="preserve">
<style type="text/css">
	.st0{fill:none;stroke:#263238;stroke-linecap:round;stroke-linejoin:round;}
	.st1{fill:#4F4FDE;stroke:#263238;stroke-miterlimit:10;}
	.st2{fill:none;stroke:#263238;stroke-miterlimit:10;}
	.st3{fill:#263238;stroke:#263238;stroke-linecap:round;stroke-linejoin:round;}
	.st4{fill:#E8E8E8;stroke:#263238;stroke-linejoin:round;}
	.st5{fill:#CFCFCF;stroke:#263238;stroke-linejoin:round;}
	.st6{fill:#333333;stroke:#263238;stroke-linejoin:round;}
	.st7{fill:#7D7D7D;stroke:#263238;stroke-linejoin:round;}
	.st8{fill:#D4D4D4;stroke:#263238;stroke-linejoin:round;}
	.st9{fill:#FFFFFF;stroke:#263238;stroke-linejoin:round;}
	.st10{fill:#263238;}
	.st11{fill:#263238;stroke:#263238;stroke-miterlimit:10;}
	.st12{fill:#FFFFFF;stroke:#263238;stroke-miterlimit:10;}
	.st13{fill:#F7F7F7;stroke:#263238;stroke-linejoin:round;}
	.st14{fill:#263238;stroke:#FFFFFF;stroke-miterlimit:10;}
	.st15{fill:#FFFFFF;stroke:#263238;stroke-linecap:round;stroke-linejoin:round;}
	.st16{fill:none;stroke:#FFFFFF;stroke-linecap:round;stroke-linejoin:round;}
	.st17{fill:#4F4FDE;stroke:#263238;stroke-linecap:round;stroke-linejoin:round;}
	.st18{fill:none;stroke:#263238;stroke-linejoin:round;}
</style>
<g id="freepik--Plant--inject-2">
	<line class="st0" x1="40.6" y1="138.4" x2="65.4" y2="376.1"/>
	<line class="st0" x1="60.6" y1="329.6" x2="50.2" y2="318.8"/>
	<path class="st1" d="M53.6,322.3c0-3.7-1.7-7.2-4.5-9.5c-2.9-2.6-18.1-9-19.5-3.6C28,315,43.6,326.4,53.6,322.3z"/>
	<line class="st0" x1="53.6" y1="322.3" x2="39.1" y2="313.3"/>
	<line class="st0" x1="63.1" y1="354.2" x2="53" y2="345.8"/>
	<path class="st1" d="M56.4,349.4c0-3.7-1.7-7.1-4.4-9.5c-2.9-2.6-18.1-9-19.5-3.6C30.9,342,46.4,353.5,56.4,349.4z"/>
	<line class="st0" x1="56.4" y1="349.4" x2="42" y2="340.3"/>
	<line class="st0" x1="53.5" y1="262" x2="43.3" y2="252.8"/>
	<path class="st1" d="M46.7,256.3c0-3.7-1.7-7.2-4.5-9.5c-2.9-2.6-18.1-9-19.5-3.6C21.1,249,36.7,260.4,46.7,256.3z"/>
	<line class="st0" x1="46.7" y1="256.3" x2="32.3" y2="247.3"/>
	<line class="st0" x1="56.4" y1="290.7" x2="46.1" y2="279.8"/>
	<path class="st1" d="M49.5,283.4c0-3.7-1.7-7.2-4.5-9.5c-2.9-2.6-18.1-9-19.5-3.6C24,276,39.5,287.5,49.5,283.4z"/>
	<line class="st0" x1="49.5" y1="283.4" x2="35.1" y2="274.4"/>
	<line class="st0" x1="49" y1="219.3" x2="38.7" y2="208.8"/>
	<path class="st1" d="M42.1,212.4c0-3.7-1.7-7.2-4.5-9.5c-2.9-2.6-18.1-9-19.5-3.6C16.6,205.1,32.1,216.5,42.1,212.4z"/>
	<line class="st0" x1="42.1" y1="212.4" x2="27.7" y2="203.4"/>
	<line class="st0" x1="44" y1="172.3" x2="34.1" y2="164.7"/>
	<path class="st1" d="M37.5,168.3c0-3.7-1.7-7.2-4.5-9.5c-2.9-2.6-18.1-9-19.5-3.6C12,160.9,27.5,172.4,37.5,168.3z"/>
	<line class="st0" x1="37.5" y1="168.3" x2="23.1" y2="159.2"/>
	<line class="st0" x1="59.5" y1="314.6" x2="68.1" y2="300.7"/>
	<path class="st1" d="M65.5,304.9c-0.7-3.6,0.2-7.4,2.4-10.3c2.3-3.1,15.8-12.5,18.4-7.6C89,292.4,76.2,306.8,65.5,304.9z"/>
	<line class="st0" x1="65.5" y1="304.9" x2="75.7" y2="295.3"/>
	<line class="st0" x1="52.1" y1="243.5" x2="60.7" y2="229.5"/>
	<path class="st1" d="M58.1,233.7c-0.7-3.6,0.2-7.3,2.4-10.3c2.3-3.1,12.9-10.9,15.4-6C78.6,222.8,68.7,235.6,58.1,233.7z"/>
	<line class="st0" x1="58.1" y1="233.7" x2="71.1" y2="221.3"/>
	<line class="st0" x1="48.9" y1="212.2" x2="57.4" y2="198.2"/>
	<path class="st1" d="M54.8,202.4c-0.7-3.6,0.2-7.4,2.4-10.3c2.3-3.1,15.8-12.5,18.4-7.6C78.3,190,65.5,204.4,54.8,202.4z"/>
	<line class="st0" x1="54.8" y1="202.4" x2="67.8" y2="190"/>
	<line class="st0" x1="44.1" y1="166.4" x2="52.6" y2="152.4"/>
	<path class="st1" d="M50,156.6c-0.7-3.6,0.2-7.4,2.4-10.3c2.3-3.1,15.9-12.5,18.4-7.6C73.5,144.1,60.7,158.5,50,156.6z"/>
	<line class="st0" x1="50" y1="156.6" x2="63" y2="144.1"/>
	<path class="st1" d="M40.4,137c-0.7-3.6,0.2-7.3,2.4-10.3c2.3-3.1,15.8-12.5,18.4-7.6C63.9,124.6,51.1,139,40.4,137z"/>
	<line class="st0" x1="40.4" y1="137" x2="53.5" y2="124.6"/>
	<path class="st1" d="M41.2,137.6c-3.7,0.3-7.3-0.9-10-3.5c-2.8-2.6-10.7-17.1-5.5-19.1C31.2,112.9,44.2,127.2,41.2,137.6z"/>
	<line class="st0" x1="41.2" y1="137.6" x2="30.2" y2="123.3"/>
	<line class="st0" x1="77.8" y1="74.3" x2="77.8" y2="375"/>
	<line class="st0" x1="106.1" y1="171.1" x2="81.4" y2="408.9"/>
	<line class="st0" x1="86.6" y1="360.3" x2="80.9" y2="353.8"/>
	<path class="st1" d="M80.9,353.8c0.7-3.6-0.2-7.4-2.4-10.3c-2.3-3.1-15.9-12.5-18.4-7.5C57.4,341.3,70.3,355.7,80.9,353.8z"/>
	<line class="st0" x1="80.9" y1="353.8" x2="68.6" y2="342"/>
	<line class="st0" x1="93.6" y1="292.4" x2="85.1" y2="285.4"/>
	<path class="st1" d="M87.8,287.8c0.7-3.6-0.2-7.4-2.4-10.3C83.1,274.4,69.5,265,67,270C64.2,275.4,77.1,289.7,87.8,287.8z"/>
	<line class="st0" x1="87.8" y1="287.8" x2="75.5" y2="276"/>
	<line class="st0" x1="90.9" y1="324.6" x2="82.3" y2="310.7"/>
	<path class="st1" d="M85,314.8c0.7-3.6-0.2-7.3-2.4-10.3c-2.3-3.1-15.8-12.5-18.4-7.6C61.4,302.4,74.3,316.8,85,314.8z"/>
	<line class="st0" x1="84.9" y1="314.8" x2="72.7" y2="303"/>
	<line class="st0" x1="97.9" y1="249.1" x2="89.7" y2="239.7"/>
	<path class="st1" d="M92.3,243.9c0.7-3.6-0.2-7.4-2.4-10.3c-2.3-3.1-15.8-12.5-18.4-7.6C68.8,231.4,81.7,245.8,92.3,243.9z"/>
	<line class="st0" x1="92.3" y1="243.9" x2="80" y2="232.1"/>
	<line class="st0" x1="102.2" y1="207.8" x2="94.3" y2="195.6"/>
	<path class="st1" d="M96.9,199.7c0.7-3.6-0.2-7.3-2.4-10.3c-2.3-3.1-15.8-12.5-18.4-7.6C73.4,187.3,86.2,201.7,96.9,199.7z"/>
	<line class="st0" x1="96.9" y1="199.7" x2="84.6" y2="187.9"/>
	<line class="st0" x1="88.3" y1="347.5" x2="99.6" y2="335.6"/>
	<path class="st1" d="M96.1,339.2c0-3.7,1.7-7.2,4.5-9.5c2.9-2.6,18.1-9,19.5-3.6C121.7,331.8,106.2,343.3,96.1,339.2z"/>
	<line class="st0" x1="96.1" y1="339.2" x2="111.4" y2="329.7"/>
	<line class="st0" x1="95.7" y1="276.3" x2="106.9" y2="264.4"/>
	<path class="st1" d="M103.5,268c0-3.7,1.7-7.2,4.5-9.5c2.9-2.6,18.1-9,19.5-3.6C129.1,260.6,113.5,272.1,103.5,268z"/>
	<line class="st0" x1="103.5" y1="268" x2="118.8" y2="258.5"/>
	<line class="st0" x1="98.9" y1="245.1" x2="110.2" y2="233.2"/>
	<path class="st1" d="M106.8,236.7c0-3.7,1.7-7.2,4.5-9.6c2.9-2.6,18.1-9,19.5-3.6C132.3,229.4,116.8,240.8,106.8,236.7z"/>
	<line class="st0" x1="106.8" y1="236.7" x2="122.1" y2="227.2"/>
	<line class="st0" x1="103.6" y1="196.9" x2="114.9" y2="187.3"/>
	<path class="st1" d="M111.5,190.9c0-3.7,1.7-7.2,4.5-9.6c2.9-2.6,18.1-9,19.5-3.6C137.1,183.5,121.5,195,111.5,190.9z"/>
	<line class="st2" x1="111.5" y1="190.9" x2="126.8" y2="181.4"/>
	<path class="st1" d="M106.2,169.8c0-3.7,1.7-7.2,4.5-9.6c2.9-2.6,18.1-9,19.5-3.6C131.7,162.4,116.2,173.9,106.2,169.8z"/>
	<line class="st0" x1="106.2" y1="169.8" x2="121.5" y2="160.3"/>
	<path class="st1" d="M106.8,170.4c-3.6-0.4-6.9-2.4-9-5.4c-2.3-3.1-7-18.9-1.6-19.8C102.1,144.2,111.9,160.9,106.8,170.4z"/>
	<line class="st0" x1="106.8" y1="170.4" x2="98.9" y2="154.2"/>
	<line class="st0" x1="77.4" y1="329.2" x2="68.1" y2="316.8"/>
	<path class="st1" d="M71.1,320.7c0.3-3.7-0.9-7.3-3.5-10c-2.6-2.9-17-10.8-19-5.6C46.4,310.7,60.7,323.7,71.1,320.7z"/>
	<line class="st0" x1="71.1" y1="320.7" x2="57.7" y2="310.2"/>
	<line class="st0" x1="77.7" y1="269.2" x2="68.1" y2="260.3"/>
	<path class="st1" d="M71.1,264.2c0.3-3.7-0.9-7.3-3.5-10c-2.6-2.9-17-10.8-19-5.6C46.4,254.2,60.7,267.2,71.1,264.2z"/>
	<line class="st0" x1="71.1" y1="264.2" x2="57.7" y2="253.7"/>
	<line class="st0" x1="78" y1="206.9" x2="68.1" y2="193.9"/>
	<path class="st1" d="M71.1,197.8c0.3-3.7-0.9-7.3-3.5-10c-2.6-2.9-17-10.8-19-5.6C46.4,187.9,60.7,200.9,71.1,197.8z"/>
	<line class="st0" x1="71.1" y1="197.8" x2="57.7" y2="187.4"/>
	<line class="st0" x1="77.4" y1="158.1" x2="68.1" y2="149.8"/>
	<path class="st1" d="M71.1,153.6c0.3-3.7-0.9-7.3-3.5-10c-2.6-2.9-17-10.8-19-5.6C46.4,143.7,60.7,156.7,71.1,153.6z"/>
	<line class="st0" x1="71.1" y1="153.6" x2="57.7" y2="143.2"/>
	<line class="st0" x1="77.9" y1="113.9" x2="68.3" y2="106.9"/>
	<path class="st1" d="M71.1,109.3c0.3-3.7-0.9-7.3-3.5-10c-2.6-2.9-17-10.8-19-5.6C46.4,99.3,60.7,112.3,71.1,109.3z"/>
	<line class="st0" x1="71.1" y1="109.3" x2="57.7" y2="98.8"/>
	<line class="st0" x1="79.8" y1="344.2" x2="87.8" y2="334"/>
	<path class="st1" d="M84.8,337.9c-0.4-3.7,0.9-7.3,3.5-10c2.6-2.9,17.1-10.8,19-5.6C109.4,328,95.1,341,84.8,337.9z"/>
	<line class="st0" x1="84.8" y1="337.9" x2="99" y2="326.9"/>
	<line class="st0" x1="77.8" y1="257.1" x2="87.8" y2="244.2"/>
	<path class="st1" d="M84.8,248.1c-0.4-3.7,0.9-7.3,3.5-10c2.6-2.9,17.1-10.8,19-5.6C109.4,238.1,95.1,251.1,84.8,248.1z"/>
	<line class="st0" x1="84.8" y1="248.1" x2="99" y2="237"/>
	<line class="st0" x1="77.8" y1="212.8" x2="87.8" y2="199.8"/>
	<path class="st1" d="M84.8,203.7c-0.3-3.7,0.9-7.3,3.5-9.9c2.6-2.9,17.1-10.8,19-5.6C109.4,193.7,95.1,206.7,84.8,203.7z"/>
	<line class="st0" x1="84.8" y1="203.7" x2="99" y2="192.7"/>
	<line class="st0" x1="77.8" y1="154.1" x2="87.8" y2="141.2"/>
	<path class="st1" d="M84.8,145.1c-0.4-3.7,0.9-7.3,3.5-10c2.6-2.9,17.1-10.8,19-5.6C109.4,135.1,95.1,148.1,84.8,145.1z"/>
	<line class="st0" x1="84.8" y1="145.1" x2="99" y2="134"/>
	<line class="st0" x1="78.2" y1="103.6" x2="88" y2="95.9"/>
	<path class="st1" d="M84.8,99c-0.4-3.7,0.9-7.3,3.5-10c2.6-2.9,17.1-10.8,19-5.6C109.4,89,95.1,102,84.8,99z"/>
	<line class="st0" x1="84.8" y1="99" x2="99" y2="87.9"/>
	<path class="st1" d="M77.2,78.5c-0.4-3.7,0.9-7.3,3.5-10c2.6-2.9,17.1-10.8,19-5.6C101.9,68.6,87.6,81.6,77.2,78.5z"/>
	<line class="st0" x1="77.2" y1="78.5" x2="91.5" y2="67.5"/>
	<path class="st1" d="M77.9,79.1c-3.7-0.1-7.2-1.7-9.5-4.5c-2.6-2.9-9-18.1-3.6-19.5C70.6,53.5,82,69.1,77.9,79.1z"/>
	<line class="st0" x1="77.9" y1="79.1" x2="68.4" y2="63.8"/>
	<polygon class="st3" points="90.2,453 58.3,453 54.3,372.5 94.2,372.5 	"/>
</g>
<g id="freepik--coins-3--inject-2">
	<rect x="145.6" y="438.4" class="st4" width="12.9" height="14.6"/>
	<rect x="158.7" y="438.4" class="st5" width="12.9" height="14.6"/>
	<rect x="171.8" y="438.4" class="st6" width="12.9" height="14.6"/>
	<rect x="184.8" y="438.4" class="st7" width="12.9" height="14.6"/>
	<rect x="197.9" y="438.4" class="st8" width="12.9" height="14.6"/>
	<rect x="211" y="438.4" class="st5" width="12.9" height="14.6"/>
	<rect x="224.1" y="438.4" class="st4" width="12.9" height="14.6"/>
	<rect x="237.2" y="438.4" class="st9" width="12.9" height="14.6"/>
	<rect x="250.3" y="438.4" class="st9" width="12.9" height="14.6"/>
	<rect x="263.4" y="438.4" class="st10" width="12.9" height="14.6"/>
	<rect x="276.5" y="438.4" class="st9" width="12.9" height="14.6"/>
	<rect x="289.5" y="438.4" class="st9" width="12.9" height="14.6"/>
	<rect x="154.9" y="423.4" class="st4" width="12.9" height="14.6"/>
	<rect x="168" y="423.4" class="st5" width="12.9" height="14.6"/>
	<rect x="181.1" y="423.4" class="st6" width="12.9" height="14.6"/>
	<rect x="194.1" y="423.4" class="st7" width="12.9" height="14.6"/>
	<rect x="207.2" y="423.4" class="st8" width="12.9" height="14.6"/>
	<rect x="220.3" y="423.4" class="st5" width="12.9" height="14.6"/>
	<rect x="233.4" y="423.4" class="st4" width="12.9" height="14.6"/>
	<rect x="246.5" y="423.4" class="st9" width="12.9" height="14.6"/>
	<rect x="259.6" y="423.4" class="st9" width="12.9" height="14.6"/>
	<rect x="272.7" y="423.4" class="st10" width="12.9" height="14.6"/>
	<rect x="285.8" y="423.4" class="st9" width="12.9" height="14.6"/>
	<rect x="298.9" y="423.4" class="st9" width="12.9" height="14.6"/>
	<rect x="154.2" y="408.4" class="st4" width="12.9" height="14.6"/>
	<rect x="167.3" y="408.4" class="st5" width="12.9" height="14.6"/>
	<rect x="180.4" y="408.4" class="st6" width="12.9" height="14.6"/>
	<rect x="193.5" y="408.4" class="st7" width="12.9" height="14.6"/>
	<rect x="206.6" y="408.4" class="st8" width="12.9" height="14.6"/>
	<rect x="219.7" y="408.4" class="st5" width="12.9" height="14.6"/>
	<rect x="232.7" y="408.4" class="st4" width="12.9" height="14.6"/>
	<rect x="245.8" y="408.4" class="st9" width="12.9" height="14.6"/>
	<rect x="258.9" y="408.4" class="st9" width="12.9" height="14.6"/>
	<rect x="272" y="408.4" class="st10" width="12.9" height="14.6"/>
	<rect x="285.1" y="408.4" class="st9" width="12.9" height="14.6"/>
	<rect x="298.2" y="408.4" class="st9" width="12.9" height="14.6"/>
	<rect x="153.6" y="393.4" class="st4" width="12.9" height="14.6"/>
	<rect x="166.6" y="393.4" class="st5" width="12.9" height="14.6"/>
	<rect x="179.7" y="393.4" class="st6" width="12.9" height="14.6"/>
	<rect x="192.8" y="393.4" class="st7" width="12.9" height="14.6"/>
	<rect x="205.9" y="393.4" class="st8" width="12.9" height="14.6"/>
	<rect x="219" y="393.4" class="st5" width="12.9" height="14.6"/>
	<rect x="232.1" y="393.4" class="st4" width="12.9" height="14.6"/>
	<rect x="245.2" y="393.4" class="st9" width="12.9" height="14.6"/>
	<rect x="258.3" y="393.4" class="st9" width="12.9" height="14.6"/>
	<rect x="271.3" y="393.4" class="st10" width="12.9" height="14.6"/>
	<rect x="284.4" y="393.4" class="st9" width="12.9" height="14.6"/>
	<rect x="297.5" y="393.4" class="st9" width="12.9" height="14.6"/>
	<rect x="142.2" y="378.4" class="st4" width="12.9" height="14.6"/>
	<rect x="155.3" y="378.4" class="st5" width="12.9" height="14.6"/>
	<rect x="168.4" y="378.4" class="st6" width="12.9" height="14.6"/>
	<rect x="181.5" y="378.4" class="st7" width="12.9" height="14.6"/>
	<rect x="194.6" y="378.4" class="st8" width="12.9" height="14.6"/>
	<rect x="207.7" y="378.4" class="st5" width="12.9" height="14.6"/>
	<rect x="220.8" y="378.4" class="st4" width="12.9" height="14.6"/>
	<rect x="233.9" y="378.4" class="st9" width="12.9" height="14.6"/>
	<rect x="246.9" y="378.4" class="st9" width="12.9" height="14.6"/>
	<rect x="260" y="378.4" class="st10" width="12.9" height="14.6"/>
	<rect x="273.1" y="378.4" class="st9" width="12.9" height="14.6"/>
	<rect x="286.2" y="378.4" class="st9" width="12.9" height="14.6"/>
	<rect x="143.6" y="363.4" class="st4" width="12.9" height="14.6"/>
	<rect x="156.7" y="363.4" class="st5" width="12.9" height="14.6"/>
	<rect x="169.8" y="363.4" class="st6" width="12.9" height="14.6"/>
	<rect x="182.9" y="363.4" class="st7" width="12.9" height="14.6"/>
	<rect x="195.9" y="363.4" class="st8" width="12.9" height="14.6"/>
	<rect x="209" y="363.4" class="st5" width="12.9" height="14.6"/>
	<rect x="222.1" y="363.4" class="st4" width="12.9" height="14.6"/>
	<rect x="235.2" y="363.4" class="st9" width="12.9" height="14.6"/>
	<rect x="248.3" y="363.4" class="st9" width="12.9" height="14.6"/>
	<rect x="261.4" y="363.4" class="st10" width="12.9" height="14.6"/>
	<rect x="274.5" y="363.4" class="st9" width="12.9" height="14.6"/>
	<rect x="287.5" y="363.4" class="st9" width="12.9" height="14.6"/>
	<rect x="158.9" y="348.4" class="st4" width="12.9" height="14.6"/>
	<rect x="172" y="348.4" class="st5" width="12.9" height="14.6"/>
	<rect x="185.1" y="348.4" class="st6" width="12.9" height="14.6"/>
	<rect x="198.1" y="348.4" class="st7" width="12.9" height="14.6"/>
	<rect x="211.2" y="348.4" class="st8" width="12.9" height="14.6"/>
	<rect x="224.3" y="348.4" class="st5" width="12.9" height="14.6"/>
	<rect x="237.4" y="348.4" class="st4" width="12.9" height="14.6"/>
	<rect x="250.5" y="348.4" class="st9" width="12.9" height="14.6"/>
	<rect x="263.6" y="348.4" class="st9" width="12.9" height="14.6"/>
	<rect x="276.7" y="348.4" class="st10" width="12.9" height="14.6"/>
	<rect x="289.8" y="348.4" class="st9" width="12.9" height="14.6"/>
	<rect x="302.8" y="348.4" class="st9" width="12.9" height="14.6"/>
	<rect x="140.9" y="333.4" class="st4" width="12.9" height="14.6"/>
	<rect x="154" y="333.4" class="st5" width="12.9" height="14.6"/>
	<rect x="167.1" y="333.4" class="st6" width="12.9" height="14.6"/>
	<rect x="180.2" y="333.4" class="st7" width="12.9" height="14.6"/>
	<rect x="193.3" y="333.4" class="st8" width="12.9" height="14.6"/>
	<rect x="206.4" y="333.4" class="st5" width="12.9" height="14.6"/>
	<rect x="219.4" y="333.4" class="st4" width="12.9" height="14.6"/>
	<rect x="232.5" y="333.4" class="st9" width="12.9" height="14.6"/>
	<rect x="245.6" y="333.4" class="st9" width="12.9" height="14.6"/>
	<rect x="258.7" y="333.4" class="st9" width="12.9" height="14.6"/>
	<rect x="271.8" y="333.4" class="st10" width="12.9" height="14.6"/>
	<rect x="284.9" y="333.4" class="st9" width="12.9" height="14.6"/>
	<rect x="157.5" y="318.4" class="st4" width="12.9" height="14.6"/>
	<rect x="170.6" y="318.4" class="st5" width="12.9" height="14.6"/>
	<rect x="183.7" y="318.4" class="st6" width="12.9" height="14.6"/>
	<rect x="196.8" y="318.4" class="st7" width="12.9" height="14.6"/>
	<rect x="209.9" y="318.4" class="st8" width="12.9" height="14.6"/>
	<rect x="223" y="318.4" class="st5" width="12.9" height="14.6"/>
	<rect x="236.1" y="318.4" class="st4" width="12.9" height="14.6"/>
	<rect x="249.2" y="318.4" class="st9" width="12.9" height="14.6"/>
	<rect x="262.2" y="318.4" class="st9" width="12.9" height="14.6"/>
	<rect x="275.3" y="318.4" class="st10" width="12.9" height="14.6"/>
	<rect x="288.4" y="318.4" class="st9" width="12.9" height="14.6"/>
	<rect x="301.5" y="318.4" class="st9" width="12.9" height="14.6"/>
	<rect x="158.9" y="303.4" class="st4" width="12.9" height="14.6"/>
	<rect x="172" y="303.4" class="st5" width="12.9" height="14.6"/>
	<rect x="185.1" y="303.4" class="st6" width="12.9" height="14.6"/>
	<rect x="198.1" y="303.4" class="st7" width="12.9" height="14.6"/>
	<rect x="211.2" y="303.4" class="st8" width="12.9" height="14.6"/>
	<rect x="224.3" y="303.4" class="st5" width="12.9" height="14.6"/>
	<rect x="237.4" y="303.4" class="st4" width="12.9" height="14.6"/>
	<rect x="250.5" y="303.4" class="st9" width="12.9" height="14.6"/>
	<rect x="263.6" y="303.4" class="st9" width="12.9" height="14.6"/>
	<rect x="276.7" y="303.4" class="st10" width="12.9" height="14.6"/>
	<rect x="289.8" y="303.4" class="st9" width="12.9" height="14.6"/>
	<rect x="302.8" y="303.4" class="st9" width="12.9" height="14.6"/>
	<rect x="145.6" y="288.4" class="st4" width="12.9" height="14.6"/>
	<rect x="158.7" y="288.4" class="st5" width="12.9" height="14.6"/>
	<rect x="171.8" y="288.4" class="st6" width="12.9" height="14.6"/>
	<rect x="184.8" y="288.4" class="st7" width="12.9" height="14.6"/>
	<rect x="197.9" y="288.4" class="st8" width="12.9" height="14.6"/>
	<rect x="211" y="288.4" class="st5" width="12.9" height="14.6"/>
	<rect x="224.1" y="288.4" class="st4" width="12.9" height="14.6"/>
	<rect x="237.2" y="288.4" class="st9" width="12.9" height="14.6"/>
	<rect x="250.3" y="288.4" class="st9" width="12.9" height="14.6"/>
	<rect x="263.4" y="288.4" class="st10" width="12.9" height="14.6"/>
	<rect x="276.5" y="288.4" class="st9" width="12.9" height="14.6"/>
	<rect x="289.5" y="288.4" class="st9" width="12.9" height="14.6"/>
	<rect x="160.2" y="273.4" class="st4" width="12.9" height="14.6"/>
	<rect x="173.3" y="273.4" class="st5" width="12.9" height="14.6"/>
	<rect x="186.4" y="273.4" class="st6" width="12.9" height="14.6"/>
	<rect x="199.5" y="273.4" class="st7" width="12.9" height="14.6"/>
	<rect x="212.6" y="273.4" class="st8" width="12.9" height="14.6"/>
	<rect x="225.6" y="273.4" class="st5" width="12.9" height="14.6"/>
	<rect x="238.7" y="273.4" class="st4" width="12.9" height="14.6"/>
	<rect x="251.8" y="273.4" class="st9" width="12.9" height="14.6"/>
	<rect x="264.9" y="273.4" class="st9" width="12.9" height="14.6"/>
	<rect x="278" y="273.4" class="st10" width="12.9" height="14.6"/>
	<rect x="291.1" y="273.4" class="st9" width="12.9" height="14.6"/>
	<rect x="304.2" y="273.4" class="st9" width="12.9" height="14.6"/>
	<rect x="157.1" y="258.4" class="st4" width="12.9" height="14.6"/>
	<rect x="170.2" y="258.4" class="st5" width="12.9" height="14.6"/>
	<rect x="183.3" y="258.4" class="st6" width="12.9" height="14.6"/>
	<rect x="196.4" y="258.4" class="st7" width="12.9" height="14.6"/>
	<rect x="209.4" y="258.4" class="st8" width="12.9" height="14.6"/>
	<rect x="222.5" y="258.4" class="st5" width="12.9" height="14.6"/>
	<rect x="235.6" y="258.4" class="st4" width="12.9" height="14.6"/>
	<rect x="248.7" y="258.4" class="st9" width="12.9" height="14.6"/>
	<rect x="261.8" y="258.4" class="st9" width="12.9" height="14.6"/>
	<rect x="274.9" y="258.4" class="st10" width="12.9" height="14.6"/>
	<rect x="288" y="258.4" class="st9" width="12.9" height="14.6"/>
	<rect x="301.1" y="258.4" class="st9" width="12.9" height="14.6"/>
	<rect x="156.2" y="243.3" class="st4" width="12.9" height="14.6"/>
	<rect x="169.3" y="243.3" class="st5" width="12.9" height="14.6"/>
	<rect x="182.4" y="243.3" class="st6" width="12.9" height="14.6"/>
	<rect x="195.5" y="243.3" class="st7" width="12.9" height="14.6"/>
	<rect x="208.6" y="243.3" class="st8" width="12.9" height="14.6"/>
	<rect x="221.6" y="243.3" class="st5" width="12.9" height="14.6"/>
	<rect x="234.7" y="243.3" class="st4" width="12.9" height="14.6"/>
	<rect x="247.8" y="243.3" class="st9" width="12.9" height="14.6"/>
	<rect x="260.9" y="243.3" class="st9" width="12.9" height="14.6"/>
	<rect x="274" y="243.3" class="st10" width="12.9" height="14.6"/>
	<rect x="287.1" y="243.3" class="st9" width="12.9" height="14.6"/>
	<rect x="300.2" y="243.3" class="st9" width="12.9" height="14.6"/>
	<rect x="158.1" y="228.3" class="st4" width="12.9" height="14.6"/>
	<rect x="171.1" y="228.3" class="st5" width="12.9" height="14.6"/>
	<rect x="184.2" y="228.3" class="st6" width="12.9" height="14.6"/>
	<rect x="197.3" y="228.3" class="st7" width="12.9" height="14.6"/>
	<rect x="210.4" y="228.3" class="st8" width="12.9" height="14.6"/>
	<rect x="223.5" y="228.3" class="st5" width="12.9" height="14.6"/>
	<rect x="236.6" y="228.3" class="st4" width="12.9" height="14.6"/>
	<rect x="249.7" y="228.3" class="st9" width="12.9" height="14.6"/>
	<rect x="262.8" y="228.3" class="st9" width="12.9" height="14.6"/>
	<rect x="275.8" y="228.3" class="st10" width="12.9" height="14.6"/>
	<rect x="288.9" y="228.3" class="st9" width="12.9" height="14.6"/>
	<rect x="302" y="228.3" class="st9" width="12.9" height="14.6"/>
	<rect x="156.2" y="213.3" class="st4" width="12.9" height="14.6"/>
	<rect x="169.3" y="213.3" class="st5" width="12.9" height="14.6"/>
	<rect x="182.4" y="213.3" class="st6" width="12.9" height="14.6"/>
	<rect x="195.5" y="213.3" class="st7" width="12.9" height="14.6"/>
	<rect x="208.6" y="213.3" class="st8" width="12.9" height="14.6"/>
	<rect x="221.6" y="213.3" class="st5" width="12.9" height="14.6"/>
	<rect x="234.7" y="213.3" class="st4" width="12.9" height="14.6"/>
	<rect x="247.8" y="213.3" class="st9" width="12.9" height="14.6"/>
	<rect x="260.9" y="213.3" class="st9" width="12.9" height="14.6"/>
	<rect x="274" y="213.3" class="st10" width="12.9" height="14.6"/>
	<rect x="287.1" y="213.3" class="st9" width="12.9" height="14.6"/>
	<rect x="300.2" y="213.3" class="st9" width="12.9" height="14.6"/>
	<rect x="158.4" y="198.3" class="st4" width="12.9" height="14.6"/>
	<rect x="171.5" y="198.3" class="st5" width="12.9" height="14.6"/>
	<rect x="184.6" y="198.3" class="st6" width="12.9" height="14.6"/>
	<rect x="197.7" y="198.3" class="st7" width="12.9" height="14.6"/>
	<rect x="210.8" y="198.3" class="st8" width="12.9" height="14.6"/>
	<rect x="223.8" y="198.3" class="st5" width="12.9" height="14.6"/>
	<rect x="236.9" y="198.3" class="st4" width="12.9" height="14.6"/>
	<rect x="250" y="198.3" class="st9" width="12.9" height="14.6"/>
	<rect x="263.1" y="198.3" class="st9" width="12.9" height="14.6"/>
	<rect x="276.2" y="198.3" class="st10" width="12.9" height="14.6"/>
	<rect x="289.3" y="198.3" class="st9" width="12.9" height="14.6"/>
	<rect x="302.4" y="198.3" class="st9" width="12.9" height="14.6"/>
	<rect x="150.9" y="183.3" class="st4" width="12.9" height="14.6"/>
	<rect x="164" y="183.3" class="st5" width="12.9" height="14.6"/>
	<rect x="177.1" y="183.3" class="st6" width="12.9" height="14.6"/>
	<rect x="190.2" y="183.3" class="st7" width="12.9" height="14.6"/>
	<rect x="203.2" y="183.3" class="st8" width="12.9" height="14.6"/>
	<rect x="216.3" y="183.3" class="st5" width="12.9" height="14.6"/>
	<rect x="229.4" y="183.3" class="st4" width="12.9" height="14.6"/>
	<rect x="242.5" y="183.3" class="st9" width="12.9" height="14.6"/>
	<rect x="255.6" y="183.3" class="st9" width="12.9" height="14.6"/>
	<rect x="268.7" y="183.3" class="st10" width="12.9" height="14.6"/>
	<rect x="281.8" y="183.3" class="st9" width="12.9" height="14.6"/>
	<rect x="294.9" y="183.3" class="st9" width="12.9" height="14.6"/>
	<rect x="157.1" y="168" class="st4" width="12.9" height="14.6"/>
	<rect x="170.2" y="168" class="st5" width="12.9" height="14.6"/>
	<rect x="183.3" y="168" class="st6" width="12.9" height="14.6"/>
	<rect x="196.4" y="168" class="st7" width="12.9" height="14.6"/>
	<rect x="209.4" y="168" class="st8" width="12.9" height="14.6"/>
	<rect x="222.5" y="168" class="st5" width="12.9" height="14.6"/>
	<rect x="235.6" y="168" class="st4" width="12.9" height="14.6"/>
	<rect x="248.7" y="168" class="st9" width="12.9" height="14.6"/>
	<rect x="261.8" y="168" class="st9" width="12.9" height="14.6"/>
	<rect x="274.9" y="168" class="st10" width="12.9" height="14.6"/>
	<rect x="288" y="168" class="st9" width="12.9" height="14.6"/>
	<rect x="301.1" y="168" class="st9" width="12.9" height="14.6"/>
	<rect x="156.2" y="153" class="st4" width="12.9" height="14.6"/>
	<rect x="169.3" y="153" class="st5" width="12.9" height="14.6"/>
	<rect x="182.4" y="153" class="st6" width="12.9" height="14.6"/>
	<rect x="195.5" y="153" class="st7" width="12.9" height="14.6"/>
	<rect x="208.6" y="153" class="st8" width="12.9" height="14.6"/>
	<rect x="221.6" y="153" class="st5" width="12.9" height="14.6"/>
	<rect x="234.7" y="153" class="st4" width="12.9" height="14.6"/>
	<rect x="247.8" y="153" class="st9" width="12.9" height="14.6"/>
	<rect x="260.9" y="153" class="st9" width="12.9" height="14.6"/>
	<rect x="274" y="153" class="st10" width="12.9" height="14.6"/>
	<rect x="287.1" y="153" class="st9" width="12.9" height="14.6"/>
	<rect x="300.2" y="153" class="st9" width="12.9" height="14.6"/>
	<rect x="158.1" y="138" class="st4" width="12.9" height="14.6"/>
	<rect x="171.1" y="138" class="st5" width="12.9" height="14.6"/>
	<rect x="184.2" y="138" class="st6" width="12.9" height="14.6"/>
	<rect x="197.3" y="138" class="st7" width="12.9" height="14.6"/>
	<rect x="210.4" y="138" class="st8" width="12.9" height="14.6"/>
	<rect x="223.5" y="138" class="st5" width="12.9" height="14.6"/>
	<rect x="236.6" y="138" class="st4" width="12.9" height="14.6"/>
	<rect x="249.7" y="138" class="st9" width="12.9" height="14.6"/>
	<rect x="262.8" y="138" class="st9" width="12.9" height="14.6"/>
	<rect x="275.8" y="138" class="st10" width="12.9" height="14.6"/>
	<rect x="288.9" y="138" class="st9" width="12.9" height="14.6"/>
	<rect x="302" y="138" class="st9" width="12.9" height="14.6"/>
	<rect x="156.2" y="123" class="st4" width="12.9" height="14.6"/>
	<rect x="169.3" y="123" class="st5" width="12.9" height="14.6"/>
	<rect x="182.4" y="123" class="st6" width="12.9" height="14.6"/>
	<rect x="195.5" y="123" class="st7" width="12.9" height="14.6"/>
	<rect x="208.6" y="123" class="st8" width="12.9" height="14.6"/>
	<rect x="221.6" y="123" class="st5" width="12.9" height="14.6"/>
	<rect x="234.7" y="123" class="st4" width="12.9" height="14.6"/>
	<rect x="247.8" y="123" class="st9" width="12.9" height="14.6"/>
	<rect x="260.9" y="123" class="st9" width="12.9" height="14.6"/>
	<rect x="274" y="123" class="st10" width="12.9" height="14.6"/>
	<rect x="287.1" y="123" class="st9" width="12.9" height="14.6"/>
	<rect x="300.2" y="123" class="st9" width="12.9" height="14.6"/>
	<rect x="158.4" y="108" class="st4" width="12.9" height="14.6"/>
	<rect x="171.5" y="108" class="st5" width="12.9" height="14.6"/>
	<rect x="184.6" y="108" class="st6" width="12.9" height="14.6"/>
	<rect x="197.7" y="108" class="st7" width="12.9" height="14.6"/>
	<rect x="210.8" y="108" class="st8" width="12.9" height="14.6"/>
	<rect x="223.8" y="108" class="st5" width="12.9" height="14.6"/>
	<rect x="236.9" y="108" class="st4" width="12.9" height="14.6"/>
	<rect x="250" y="108" class="st9" width="12.9" height="14.6"/>
	<rect x="263.1" y="108" class="st9" width="12.9" height="14.6"/>
	<rect x="276.2" y="108" class="st10" width="12.9" height="14.6"/>
	<rect x="289.3" y="108" class="st9" width="12.9" height="14.6"/>
	<rect x="302.4" y="108" class="st9" width="12.9" height="14.6"/>
	<rect x="150.9" y="93" class="st4" width="12.9" height="14.6"/>
	<rect x="164" y="93" class="st5" width="12.9" height="14.6"/>
	<rect x="177.1" y="93" class="st6" width="12.9" height="14.6"/>
	<rect x="190.2" y="93" class="st7" width="12.9" height="14.6"/>
	<rect x="203.2" y="93" class="st8" width="12.9" height="14.6"/>
	<rect x="216.3" y="93" class="st5" width="12.9" height="14.6"/>
	<rect x="229.4" y="93" class="st4" width="12.9" height="14.6"/>
	<rect x="242.5" y="93" class="st9" width="12.9" height="14.6"/>
	<rect x="255.6" y="93" class="st9" width="12.9" height="14.6"/>
	<rect x="268.7" y="93" class="st10" width="12.9" height="14.6"/>
	<rect x="281.8" y="93" class="st9" width="12.9" height="14.6"/>
	<rect x="294.9" y="93" class="st9" width="12.9" height="14.6"/>
	<rect x="256.5" y="438.4" class="st4" width="12.9" height="14.6"/>
	<rect x="269.6" y="438.4" class="st5" width="12.9" height="14.6"/>
	<rect x="282.7" y="438.4" class="st6" width="12.9" height="14.6"/>
	<rect x="295.8" y="438.4" class="st7" width="12.9" height="14.6"/>
	<rect x="308.8" y="438.4" class="st8" width="12.9" height="14.6"/>
	<rect x="321.9" y="438.4" class="st5" width="12.9" height="14.6"/>
	<rect x="335" y="438.4" class="st4" width="12.9" height="14.6"/>
	<rect x="348.1" y="438.4" class="st9" width="12.9" height="14.6"/>
	<rect x="361.2" y="438.4" class="st9" width="12.9" height="14.6"/>
	<rect x="374.3" y="438.4" class="st10" width="12.9" height="14.6"/>
	<rect x="387.4" y="438.4" class="st9" width="12.9" height="14.6"/>
	<rect x="400.5" y="438.4" class="st9" width="12.9" height="14.6"/>
	<rect x="265.8" y="423.4" class="st4" width="12.9" height="14.6"/>
	<rect x="278.9" y="423.4" class="st5" width="12.9" height="14.6"/>
	<rect x="292" y="423.4" class="st6" width="12.9" height="14.6"/>
	<rect x="305.1" y="423.4" class="st7" width="12.9" height="14.6"/>
	<rect x="318.1" y="423.4" class="st8" width="12.9" height="14.6"/>
	<rect x="331.2" y="423.4" class="st5" width="12.9" height="14.6"/>
	<rect x="344.3" y="423.4" class="st4" width="12.9" height="14.6"/>
	<rect x="357.4" y="423.4" class="st9" width="12.9" height="14.6"/>
	<rect x="370.5" y="423.4" class="st9" width="12.9" height="14.6"/>
	<rect x="383.6" y="423.4" class="st10" width="12.9" height="14.6"/>
	<rect x="396.7" y="423.4" class="st9" width="12.9" height="14.6"/>
	<rect x="409.8" y="423.4" class="st9" width="12.9" height="14.6"/>
	<rect x="265.1" y="408.4" class="st4" width="12.9" height="14.6"/>
	<rect x="278.2" y="408.4" class="st5" width="12.9" height="14.6"/>
	<rect x="291.3" y="408.4" class="st6" width="12.9" height="14.6"/>
	<rect x="304.4" y="408.4" class="st7" width="12.9" height="14.6"/>
	<rect x="317.5" y="408.4" class="st8" width="12.9" height="14.6"/>
	<rect x="330.6" y="408.4" class="st5" width="12.9" height="14.6"/>
	<rect x="343.7" y="408.4" class="st4" width="12.9" height="14.6"/>
	<rect x="356.7" y="408.4" class="st9" width="12.9" height="14.6"/>
	<rect x="369.8" y="408.4" class="st9" width="12.9" height="14.6"/>
	<rect x="382.9" y="408.4" class="st10" width="12.9" height="14.6"/>
	<rect x="396" y="408.4" class="st9" width="12.9" height="14.6"/>
	<rect x="409.1" y="408.4" class="st9" width="12.9" height="14.6"/>
	<rect x="264.5" y="393.4" class="st4" width="12.9" height="14.6"/>
	<rect x="277.5" y="393.4" class="st5" width="12.9" height="14.6"/>
	<rect x="290.6" y="393.4" class="st6" width="12.9" height="14.6"/>
	<rect x="303.7" y="393.4" class="st7" width="12.9" height="14.6"/>
	<rect x="316.8" y="393.4" class="st8" width="12.9" height="14.6"/>
	<rect x="329.9" y="393.4" class="st5" width="12.9" height="14.6"/>
	<rect x="343" y="393.4" class="st4" width="12.9" height="14.6"/>
	<rect x="356.1" y="393.4" class="st9" width="12.9" height="14.6"/>
	<rect x="369.2" y="393.4" class="st9" width="12.9" height="14.6"/>
	<rect x="382.2" y="393.4" class="st10" width="12.9" height="14.6"/>
	<rect x="395.3" y="393.4" class="st9" width="12.9" height="14.6"/>
	<rect x="408.4" y="393.4" class="st9" width="12.9" height="14.6"/>
	<rect x="253.2" y="378.4" class="st4" width="12.9" height="14.6"/>
	<rect x="266.2" y="378.4" class="st5" width="12.9" height="14.6"/>
	<rect x="279.3" y="378.4" class="st6" width="12.9" height="14.6"/>
	<rect x="292.4" y="378.4" class="st7" width="12.9" height="14.6"/>
	<rect x="305.5" y="378.4" class="st8" width="12.9" height="14.6"/>
	<rect x="318.6" y="378.4" class="st5" width="12.9" height="14.6"/>
	<rect x="331.7" y="378.4" class="st4" width="12.9" height="14.6"/>
	<rect x="344.8" y="378.4" class="st9" width="12.9" height="14.6"/>
	<rect x="357.9" y="378.4" class="st9" width="12.9" height="14.6"/>
	<rect x="371" y="378.4" class="st10" width="12.9" height="14.6"/>
	<rect x="384" y="378.4" class="st9" width="12.9" height="14.6"/>
	<rect x="397.1" y="378.4" class="st9" width="12.9" height="14.6"/>
	<rect x="254.5" y="363.4" class="st4" width="12.9" height="14.6"/>
	<rect x="267.6" y="363.4" class="st5" width="12.9" height="14.6"/>
	<rect x="280.7" y="363.4" class="st6" width="12.9" height="14.6"/>
	<rect x="293.8" y="363.4" class="st7" width="12.9" height="14.6"/>
	<rect x="306.8" y="363.4" class="st8" width="12.9" height="14.6"/>
	<rect x="319.9" y="363.4" class="st5" width="12.9" height="14.6"/>
	<rect x="333" y="363.4" class="st4" width="12.9" height="14.6"/>
	<rect x="346.1" y="363.4" class="st9" width="12.9" height="14.6"/>
	<rect x="359.2" y="363.4" class="st9" width="12.9" height="14.6"/>
	<rect x="372.3" y="363.4" class="st10" width="12.9" height="14.6"/>
	<rect x="385.4" y="363.4" class="st9" width="12.9" height="14.6"/>
	<rect x="398.5" y="363.4" class="st9" width="12.9" height="14.6"/>
	<rect x="269.8" y="348.4" class="st4" width="12.9" height="14.6"/>
	<rect x="282.9" y="348.4" class="st5" width="12.9" height="14.6"/>
	<rect x="296" y="348.4" class="st6" width="12.9" height="14.6"/>
	<rect x="309" y="348.4" class="st7" width="12.9" height="14.6"/>
	<rect x="322.1" y="348.4" class="st8" width="12.9" height="14.6"/>
	<rect x="335.2" y="348.4" class="st5" width="12.9" height="14.6"/>
	<rect x="348.3" y="348.4" class="st4" width="12.9" height="14.6"/>
	<rect x="361.4" y="348.4" class="st9" width="12.9" height="14.6"/>
	<rect x="374.5" y="348.4" class="st9" width="12.9" height="14.6"/>
	<rect x="387.6" y="348.4" class="st10" width="12.9" height="14.6"/>
	<rect x="400.7" y="348.4" class="st9" width="12.9" height="14.6"/>
	<rect x="413.8" y="348.4" class="st9" width="12.9" height="14.6"/>
	<rect x="251.8" y="333.4" class="st4" width="12.9" height="14.6"/>
	<rect x="264.9" y="333.4" class="st5" width="12.9" height="14.6"/>
	<rect x="278" y="333.4" class="st6" width="12.9" height="14.6"/>
	<rect x="291.1" y="333.4" class="st7" width="12.9" height="14.6"/>
	<rect x="304.2" y="333.4" class="st8" width="12.9" height="14.6"/>
	<rect x="317.3" y="333.4" class="st5" width="12.9" height="14.6"/>
	<rect x="330.4" y="333.4" class="st4" width="12.9" height="14.6"/>
	<rect x="343.5" y="333.4" class="st9" width="12.9" height="14.6"/>
	<rect x="356.5" y="333.4" class="st9" width="12.9" height="14.6"/>
	<rect x="369.6" y="333.4" class="st9" width="12.9" height="14.6"/>
	<rect x="382.7" y="333.4" class="st10" width="12.9" height="14.6"/>
	<rect x="395.8" y="333.4" class="st9" width="12.9" height="14.6"/>
	<rect x="268.5" y="318.4" class="st4" width="12.9" height="14.6"/>
	<rect x="281.5" y="318.4" class="st5" width="12.9" height="14.6"/>
	<rect x="294.6" y="318.4" class="st6" width="12.9" height="14.6"/>
	<rect x="307.7" y="318.4" class="st7" width="12.9" height="14.6"/>
	<rect x="320.8" y="318.4" class="st8" width="12.9" height="14.6"/>
	<rect x="333.9" y="318.4" class="st5" width="12.9" height="14.6"/>
	<rect x="347" y="318.4" class="st4" width="12.9" height="14.6"/>
	<rect x="360.1" y="318.4" class="st9" width="12.9" height="14.6"/>
	<rect x="373.2" y="318.4" class="st9" width="12.9" height="14.6"/>
	<rect x="386.2" y="318.4" class="st10" width="12.9" height="14.6"/>
	<rect x="399.3" y="318.4" class="st9" width="12.9" height="14.6"/>
	<rect x="412.4" y="318.4" class="st9" width="12.9" height="14.6"/>
	<rect x="269.8" y="303.4" class="st4" width="12.9" height="14.6"/>
	<rect x="282.9" y="303.4" class="st5" width="12.9" height="14.6"/>
	<rect x="296" y="303.4" class="st6" width="12.9" height="14.6"/>
	<rect x="309" y="303.4" class="st7" width="12.9" height="14.6"/>
	<rect x="322.1" y="303.4" class="st8" width="12.9" height="14.6"/>
	<rect x="335.2" y="303.4" class="st5" width="12.9" height="14.6"/>
	<rect x="348.3" y="303.4" class="st4" width="12.9" height="14.6"/>
	<rect x="361.4" y="303.4" class="st9" width="12.9" height="14.6"/>
	<rect x="374.5" y="303.4" class="st9" width="12.9" height="14.6"/>
	<rect x="387.6" y="303.4" class="st10" width="12.9" height="14.6"/>
	<rect x="400.7" y="303.4" class="st9" width="12.9" height="14.6"/>
	<rect x="413.8" y="303.4" class="st9" width="12.9" height="14.6"/>
	<rect x="256.5" y="288.4" class="st4" width="12.9" height="14.6"/>
	<rect x="269.6" y="288.4" class="st5" width="12.9" height="14.6"/>
	<rect x="282.7" y="288.4" class="st6" width="12.9" height="14.6"/>
	<rect x="295.8" y="288.4" class="st7" width="12.9" height="14.6"/>
	<rect x="308.8" y="288.4" class="st8" width="12.9" height="14.6"/>
	<rect x="321.9" y="288.4" class="st5" width="12.9" height="14.6"/>
	<rect x="335" y="288.4" class="st4" width="12.9" height="14.6"/>
	<rect x="348.1" y="288.4" class="st9" width="12.9" height="14.6"/>
	<rect x="361.2" y="288.4" class="st9" width="12.9" height="14.6"/>
	<rect x="374.3" y="288.4" class="st10" width="12.9" height="14.6"/>
	<rect x="387.4" y="288.4" class="st9" width="12.9" height="14.6"/>
	<rect x="400.5" y="288.4" class="st9" width="12.9" height="14.6"/>
	<rect x="271.1" y="273.4" class="st4" width="12.9" height="14.6"/>
	<rect x="284.2" y="273.4" class="st5" width="12.9" height="14.6"/>
	<rect x="297.3" y="273.4" class="st6" width="12.9" height="14.6"/>
	<rect x="310.4" y="273.4" class="st7" width="12.9" height="14.6"/>
	<rect x="323.5" y="273.4" class="st8" width="12.9" height="14.6"/>
	<rect x="336.5" y="273.4" class="st5" width="12.9" height="14.6"/>
	<rect x="349.6" y="273.4" class="st4" width="12.9" height="14.6"/>
	<rect x="362.7" y="273.4" class="st9" width="12.9" height="14.6"/>
	<rect x="375.8" y="273.4" class="st9" width="12.9" height="14.6"/>
	<rect x="388.9" y="273.4" class="st10" width="12.9" height="14.6"/>
	<rect x="402" y="273.4" class="st9" width="12.9" height="14.6"/>
	<rect x="415.1" y="273.4" class="st9" width="12.9" height="14.6"/>
	<rect x="268" y="258.4" class="st4" width="12.9" height="14.6"/>
	<rect x="281.1" y="258.4" class="st5" width="12.9" height="14.6"/>
	<rect x="294.2" y="258.4" class="st6" width="12.9" height="14.6"/>
	<rect x="307.3" y="258.4" class="st7" width="12.9" height="14.6"/>
	<rect x="320.4" y="258.4" class="st8" width="12.9" height="14.6"/>
	<rect x="333.5" y="258.4" class="st5" width="12.9" height="14.6"/>
	<rect x="346.5" y="258.4" class="st4" width="12.9" height="14.6"/>
	<rect x="359.6" y="258.4" class="st9" width="12.9" height="14.6"/>
	<rect x="372.7" y="258.4" class="st9" width="12.9" height="14.6"/>
	<rect x="385.8" y="258.4" class="st10" width="12.9" height="14.6"/>
	<rect x="398.9" y="258.4" class="st9" width="12.9" height="14.6"/>
	<rect x="412" y="258.4" class="st9" width="12.9" height="14.6"/>
	<rect x="267.1" y="243.3" class="st4" width="12.9" height="14.6"/>
	<rect x="280.2" y="243.3" class="st5" width="12.9" height="14.6"/>
	<rect x="293.3" y="243.3" class="st6" width="12.9" height="14.6"/>
	<rect x="306.4" y="243.3" class="st7" width="12.9" height="14.6"/>
	<rect x="319.5" y="243.3" class="st8" width="12.9" height="14.6"/>
	<rect x="332.6" y="243.3" class="st5" width="12.9" height="14.6"/>
	<rect x="345.6" y="243.3" class="st4" width="12.9" height="14.6"/>
	<rect x="358.7" y="243.3" class="st9" width="12.9" height="14.6"/>
	<rect x="371.8" y="243.3" class="st9" width="12.9" height="14.6"/>
	<rect x="384.9" y="243.3" class="st10" width="12.9" height="14.6"/>
	<rect x="398" y="243.3" class="st9" width="12.9" height="14.6"/>
	<rect x="411.1" y="243.3" class="st9" width="12.9" height="14.6"/>
	<rect x="269" y="228.3" class="st4" width="12.9" height="14.6"/>
	<rect x="282.1" y="228.3" class="st5" width="12.9" height="14.6"/>
	<rect x="295.1" y="228.3" class="st6" width="12.9" height="14.6"/>
	<rect x="308.2" y="228.3" class="st7" width="12.9" height="14.6"/>
	<rect x="321.3" y="228.3" class="st8" width="12.9" height="14.6"/>
	<rect x="334.4" y="228.3" class="st5" width="12.9" height="14.6"/>
	<rect x="347.5" y="228.3" class="st4" width="12.9" height="14.6"/>
	<rect x="360.6" y="228.3" class="st9" width="12.9" height="14.6"/>
	<rect x="373.7" y="228.3" class="st9" width="12.9" height="14.6"/>
	<rect x="386.8" y="228.3" class="st10" width="12.9" height="14.6"/>
	<rect x="399.8" y="228.3" class="st9" width="12.9" height="14.6"/>
	<rect x="412.9" y="228.3" class="st9" width="12.9" height="14.6"/>
	<rect x="267.1" y="213.3" class="st4" width="12.9" height="14.6"/>
	<rect x="280.2" y="213.3" class="st5" width="12.9" height="14.6"/>
	<rect x="293.3" y="213.3" class="st6" width="12.9" height="14.6"/>
	<rect x="306.4" y="213.3" class="st7" width="12.9" height="14.6"/>
	<rect x="319.5" y="213.3" class="st8" width="12.9" height="14.6"/>
	<rect x="332.6" y="213.3" class="st5" width="12.9" height="14.6"/>
	<rect x="345.6" y="213.3" class="st4" width="12.9" height="14.6"/>
	<rect x="358.7" y="213.3" class="st9" width="12.9" height="14.6"/>
	<rect x="371.8" y="213.3" class="st9" width="12.9" height="14.6"/>
	<rect x="384.9" y="213.3" class="st10" width="12.9" height="14.6"/>
	<rect x="398" y="213.3" class="st9" width="12.9" height="14.6"/>
	<rect x="411.1" y="213.3" class="st9" width="12.9" height="14.6"/>
	<rect x="269.3" y="198.3" class="st4" width="12.9" height="14.6"/>
	<rect x="282.4" y="198.3" class="st5" width="12.9" height="14.6"/>
	<rect x="295.5" y="198.3" class="st6" width="12.9" height="14.6"/>
	<rect x="308.6" y="198.3" class="st7" width="12.9" height="14.6"/>
	<rect x="321.7" y="198.3" class="st8" width="12.9" height="14.6"/>
	<rect x="334.8" y="198.3" class="st5" width="12.9" height="14.6"/>
	<rect x="347.8" y="198.3" class="st4" width="12.9" height="14.6"/>
	<rect x="360.9" y="198.3" class="st9" width="12.9" height="14.6"/>
	<rect x="374" y="198.3" class="st9" width="12.9" height="14.6"/>
	<rect x="387.1" y="198.3" class="st10" width="12.9" height="14.6"/>
	<rect x="400.2" y="198.3" class="st9" width="12.9" height="14.6"/>
	<rect x="413.3" y="198.3" class="st9" width="12.9" height="14.6"/>
	<rect x="261.8" y="183.3" class="st4" width="12.9" height="14.6"/>
	<rect x="274.9" y="183.3" class="st5" width="12.9" height="14.6"/>
	<rect x="288" y="183.3" class="st6" width="12.9" height="14.6"/>
	<rect x="301.1" y="183.3" class="st7" width="12.9" height="14.6"/>
	<rect x="314.2" y="183.3" class="st8" width="12.9" height="14.6"/>
	<rect x="327.2" y="183.3" class="st5" width="12.9" height="14.6"/>
	<rect x="340.3" y="183.3" class="st4" width="12.9" height="14.6"/>
	<rect x="353.4" y="183.3" class="st9" width="12.9" height="14.6"/>
	<rect x="366.5" y="183.3" class="st9" width="12.9" height="14.6"/>
	<rect x="379.6" y="183.3" class="st10" width="12.9" height="14.6"/>
	<rect x="392.7" y="183.3" class="st9" width="12.9" height="14.6"/>
	<rect x="405.8" y="183.3" class="st9" width="12.9" height="14.6"/>
</g>
<g id="freepik--coin-2--inject-2">
	<polygon class="st11" points="336.4,341 336.4,438.6 331.2,438.6 331.2,453 258.8,453 	"/>
	<path class="st12" d="M323.7,393c-0.2,0.5-0.5,1-0.7,1.5c-0.1,0.1-0.1,0.3-0.2,0.4c-1.6,3.3-3.3,6.6-5.1,9.6
		c-0.1,0.1-0.1,0.2-0.2,0.4c-1.9,3.2-3.9,6.3-6,9.3l-0.3,0.4c-2.2,3.1-4.5,6.1-6.9,8.9c-0.1,0.1-0.2,0.3-0.3,0.4
		c-2.5,2.9-5.1,5.7-7.9,8.4l-0.4,0.4c-2.9,2.8-6,5.4-9.2,7.7l-0.4,0.3c-3.5,2.6-7.2,4.9-11.1,6.9l-0.5,0.3c-4.8,2.4-9.9,4.1-15.1,5
		c-0.3,0-0.5,0.1-0.8,0.1c-14.6,2.6-29.2-4.3-36.5-17.1c-0.2-0.2-0.3-0.5-0.4-0.7c-2.7-4.6-4.6-9.6-5.9-14.8
		c-0.1-0.2-0.1-0.4-0.1-0.6c-1-4.3-1.6-8.6-1.9-13c0-0.2,0-0.3,0-0.5c-0.2-4-0.2-8,0-12v-0.5c0.3-3.8,0.7-7.6,1.4-11.4
		c0-0.2,0-0.3,0.1-0.5c0.6-3.6,1.4-7.3,2.4-10.9l0.1-0.5c0.9-3.5,2-7,3.3-10.5c0.1-0.1,0.1-0.3,0.1-0.4c1.2-3.4,2.6-6.8,4.1-10.1
		c0.1-0.1,0.1-0.3,0.2-0.4l0.7-1.5c1.3-2.8,2.7-5.6,4.2-8.3l0.2-0.4c1.8-3.3,3.7-6.4,5.7-9.4c0.1-0.1,0.2-0.3,0.3-0.4
		c2.1-3.2,4.3-6.1,6.5-9l0.3-0.4c2.4-3,4.9-5.9,7.5-8.5c0.1-0.1,0.2-0.2,0.3-0.4c2.8-2.8,5.7-5.5,8.7-8c0.1-0.1,0.3-0.2,0.4-0.3
		c3.3-2.6,6.8-5,10.4-7.2l0.5-0.3c4.2-2.5,8.7-4.4,13.4-5.8l0.7-0.2c9.5-2.7,18.8-2.4,27,1.5s14.4,10.8,18.5,19.8
		c0.1,0.2,0.2,0.4,0.3,0.6c1.9,4.5,3.3,9.2,4.1,14c0,0.2,0.1,0.4,0.1,0.5c0.7,4.2,1.1,8.4,1.2,12.6c0,0.2,0,0.4,0,0.5
		c0.1,3.9-0.1,7.9-0.5,11.8c0,0.2,0,0.3-0.1,0.5c-0.4,3.8-0.9,7.5-1.7,11.3c0,0.2-0.1,0.3-0.1,0.5c-0.7,3.6-1.6,7.2-2.7,10.8
		c0,0.2-0.1,0.3-0.1,0.5c-1,3.5-2.2,6.9-3.6,10.4c-0.1,0.1-0.1,0.3-0.2,0.4C326.3,387.4,325.1,390.2,323.7,393z"/>
	<path class="st9" d="M323.7,393c-0.2,0.5-0.5,1-0.7,1.5c-0.1,0.1-0.1,0.3-0.2,0.4c-1.6,3.3-3.3,6.6-5.1,9.6
		c-0.1,0.1-0.1,0.2-0.2,0.4c-1.9,3.2-3.9,6.3-6,9.3l-0.3,0.4c-2.2,3.1-4.5,6.1-6.9,8.9c-0.1,0.1-0.2,0.3-0.3,0.4
		c-2.5,2.9-5.1,5.7-7.9,8.4l-0.4,0.4c-2.9,2.8-6,5.4-9.2,7.7l-0.4,0.3c-3.5,2.6-7.2,4.9-11.1,6.9l-0.5,0.3c-4.8,2.4-9.9,4.1-15.1,5
		l-0.8,0.1c-14.6,2.6-29.2-4.3-36.5-17.1c-0.2-0.2-0.3-0.5-0.4-0.7c-2.7-4.6-4.6-9.6-5.9-14.8c-0.1-0.2-0.1-0.4-0.1-0.6
		c-1-4.3-1.6-8.6-1.9-13c0-0.2,0-0.3,0-0.5c-0.2-4-0.2-8,0-12v-0.5c0.3-3.8,0.7-7.6,1.4-11.4c0-0.2,0-0.3,0.1-0.5
		c0.6-3.6,1.4-7.3,2.4-10.9l0.1-0.5c0.9-3.5,2-7,3.3-10.5c0.1-0.1,0.1-0.3,0.1-0.4c1.2-3.4,2.6-6.8,4.1-10.1
		c0.1-0.1,0.1-0.3,0.2-0.4l0.7-1.5c1.3-2.8,2.7-5.6,4.2-8.3l0.2-0.4c1.8-3.3,3.7-6.4,5.7-9.4c0.1-0.1,0.2-0.3,0.3-0.4
		c2.1-3.2,4.3-6.1,6.5-9l0.3-0.4c2.4-3,4.9-5.9,7.5-8.5c0.1-0.1,0.2-0.2,0.3-0.4c2.8-2.8,5.7-5.5,8.7-8c0.1-0.1,0.3-0.2,0.4-0.3
		c3.3-2.6,6.8-5,10.4-7.2l0.5-0.3c4.2-2.5,8.7-4.4,13.4-5.8l0.7-0.2c9.5-2.7,18.8-2.4,27,1.5s14.4,10.8,18.5,19.8l0.3,0.6
		c1.9,4.5,3.3,9.2,4.1,14c0,0.2,0.1,0.4,0.1,0.5c0.7,4.2,1.1,8.4,1.2,12.6c0,0.2,0,0.4,0,0.5c0.1,3.9-0.1,7.9-0.5,11.8
		c0,0.2,0,0.3-0.1,0.5c-0.4,3.8-0.9,7.5-1.7,11.3c0,0.2-0.1,0.3-0.1,0.5c-0.7,3.6-1.6,7.2-2.7,10.8c0,0.2-0.1,0.3-0.1,0.5
		c-1,3.5-2.2,6.9-3.6,10.4c-0.1,0.1-0.1,0.3-0.2,0.4C326.3,387.4,325.1,390.2,323.7,393z"/>
	<path class="st5" d="M284.6,289l0.7-0.2c9.5-2.7,18.8-2.4,27,1.5s14.4,10.8,18.5,19.8L284.6,289z"/>
	<path class="st6" d="M335.2,325.3l-64.5-30.2l0.5-0.3c4.2-2.5,8.7-4.4,13.4-5.9l0.7-0.2l45.8,22c1.9,4.5,3.3,9.2,4.1,14
		C335.2,325,335.2,325.1,335.2,325.3z"/>
	<path class="st7" d="M336.4,338.5l-76.5-35.8c0.1-0.1,0.3-0.2,0.4-0.3c3.3-2.6,6.8-5,10.4-7.2l0.5-0.3l63.9,29.9
		c0,0.2,0.1,0.4,0.1,0.5c0.7,4.2,1.1,8.4,1.2,12.6C336.4,338.1,336.4,338.3,336.4,338.5z"/>
	<path class="st8" d="M335.8,350.8l-85-39.8c0.1-0.1,0.2-0.2,0.3-0.4c2.8-2.8,5.7-5.5,8.7-8c0.1-0.1,0.3-0.2,0.4-0.3l76.1,35.6
		c0,0.2,0,0.4,0,0.5c0.1,3.9-0.1,7.9-0.5,11.8C335.9,350.4,335.9,350.6,335.8,350.8z"/>
	<path class="st5" d="M334,362.5l-91-42.6l0.3-0.4c2.4-3,4.9-5.9,7.5-8.5c0.1-0.1,0.2-0.2,0.3-0.4l84.7,39.7c0,0.2,0,0.3-0.1,0.5
		c-0.4,3.8-1,7.5-1.8,11.2C334.1,362.2,334,362.3,334,362.5z"/>
	<path class="st5" d="M331.2,373.7l-95-44.5c0.1-0.1,0.2-0.3,0.3-0.4c2.1-3.2,4.3-6.1,6.5-9l0.3-0.4l90.8,42.5
		c0,0.2-0.1,0.3-0.1,0.5c-0.7,3.6-1.6,7.2-2.7,10.8C331.2,373.4,331.2,373.5,331.2,373.7z"/>
	<path class="st4" d="M327.4,384.5L230.3,339l0.2-0.4c1.8-3.3,3.7-6.4,5.7-9.4c0.1-0.1,0.2-0.3,0.3-0.4l94.8,44.4
		c0,0.2-0.1,0.3-0.1,0.5c-1,3.5-2.2,6.9-3.6,10.4C327.5,384.2,327.5,384.4,327.4,384.5z"/>
	<path class="st13" d="M323.7,393c-0.2,0.5-0.5,1-0.7,1.5c-0.1,0.1-0.1,0.3-0.2,0.4l-97.6-45.7c0.1-0.1,0.1-0.3,0.2-0.4l0.7-1.5
		c1.3-2.8,2.7-5.6,4.2-8.3l0.2-0.4l97.1,45.5c-0.1,0.1-0.1,0.3-0.2,0.4C326.3,387.3,325.1,390.2,323.7,393z"/>
	<path class="st9" d="M323,394.5c-0.1,0.1-0.1,0.3-0.2,0.4c-1.6,3.3-3.3,6.5-5.1,9.6c-0.1,0.1-0.1,0.2-0.2,0.4l-96.6-45.2
		c0.1-0.1,0.1-0.3,0.1-0.4c1.2-3.4,2.6-6.8,4.1-10.1c0.1-0.1,0.1-0.3,0.2-0.4L323,394.5z"/>
	<path class="st9" d="M317.7,404.6c-0.1,0.1-0.1,0.2-0.2,0.4c-1.9,3.2-3.9,6.3-6,9.3l-0.3,0.4l-93.7-43.9l0.1-0.5
		c0.9-3.5,2-7,3.3-10.5c0.1-0.1,0.1-0.3,0.1-0.4L317.7,404.6z"/>
	<path class="st9" d="M311.5,414.2l-0.3,0.4c-2.2,3.1-4.5,6.1-6.9,8.9c-0.1,0.1-0.2,0.3-0.3,0.4L215,382.1c0-0.2,0-0.3,0.1-0.5
		c0.6-3.6,1.4-7.3,2.4-10.9l0.1-0.5L311.5,414.2z"/>
	<path class="st5" d="M304.4,423.5c-0.1,0.1-0.2,0.3-0.3,0.4c-2.5,2.9-5.1,5.7-7.9,8.4l-0.4,0.4l-82.2-38.5v-0.5
		c0.3-3.8,0.7-7.6,1.4-11.4c0-0.2,0-0.3,0.1-0.5L304.4,423.5z"/>
	<path class="st8" d="M296.2,432.2l-0.4,0.4c-2.9,2.8-6,5.4-9.2,7.7l-0.4,0.3l-72.6-34c0-0.2,0-0.3,0-0.5c-0.2-4-0.2-8,0-12v-0.5
		L296.2,432.2z"/>
	<path class="st7" d="M286.6,440.3l-0.4,0.3c-3.5,2.6-7.3,4.9-11.2,6.8l-0.5,0.3l-58.8-27.5c-0.1-0.2-0.1-0.4-0.1-0.6
		c-1-4.3-1.6-8.6-1.9-13c0-0.2,0-0.3,0-0.5L286.6,440.3z"/>
	<path class="st6" d="M275,447.4l-0.5,0.3c-4.8,2.4-9.9,4.1-15.1,5l-37.4-17c-0.2-0.2-0.3-0.5-0.4-0.7c-2.7-4.6-4.6-9.6-5.9-14.8
		c-0.1-0.2-0.1-0.4-0.1-0.6L275,447.4z"/>
	<path class="st5" d="M258.5,452.8c-14.6,2.6-29.2-4.3-36.5-17.1c-0.2-0.2-0.3-0.5-0.4-0.7L258.5,452.8z"/>
	
		<ellipse transform="matrix(0.424 -0.9056 0.9056 0.424 -178.2069 452.298)" class="st12" cx="266.5" cy="366.3" rx="88.2" ry="53.9"/>
	<path class="st11" d="M283.6,420.4c-28.7,0.2-53.4,1.1-69.9,11.6c3.6,6.1,9,11,15.4,14.1c20.1,9.4,46.7-2.4,67.5-27.3
		C292.3,419.8,288,420.3,283.6,420.4z"/>
	<ellipse transform="matrix(0.424 -0.9056 0.9056 0.424 -178.474 450.2988)" class="st9" cx="264.8" cy="365.5" rx="76.7" ry="45"/>
	<path class="st11" d="M304.8,314.2c2.3-1.5,4.5-2.8,6.5-4c-3.3-6.4-8-11.4-14-14.2c-22.5-10.5-55.3,12-73.3,50.4
		c-3.6,7.8-6.5,15.9-8.5,24.2c5.6-0.1,11.3-0.7,16.8-1.9C259.9,362.9,270.4,336.1,304.8,314.2z"/>
	<path class="st11" d="M227.9,348.2c17.4-37.2,48.9-59.5,71.3-51.2c-0.6-0.4-1.3-0.7-1.9-1c-22.5-10.5-55.3,12-73.3,50.4
		s-14.2,78,8.3,88.5c0.6,0.3,1.3,0.6,2,0.8C213.5,423.9,210.5,385.4,227.9,348.2z"/>
	<polygon class="st11" points="230.8,398.7 246.5,378.8 262.3,359.1 278,339.2 280.6,336.2 279.5,339.9 275.6,355.5 270.1,362.3 
		254.4,382.1 238.6,401.8 246.3,405 262.2,385.3 270.2,375 267.2,387.4 260.8,411 267.8,413.9 274.2,390.2 280.3,366.5 282,360.4 
		293.7,345.7 286.7,342.8 287,341.1 292.3,321.6 292.9,319.1 286.1,316.3 285.8,316.6 270.3,336.1 254.6,355.9 238.7,375.6 
		223.1,395.5 	"/>
	<polygon class="st9" points="229.2,398 244.8,378.2 260.7,358.4 276.3,338.6 278.9,335.6 277.9,339.2 273.9,354.8 268.4,361.6 
		252.8,381.4 236.9,401.2 244.7,404.4 260.5,384.6 268.6,374.4 265.5,386.7 259.2,410.4 266.1,413.2 272.5,389.6 278.7,365.8 
		280.3,359.7 292,345 285.1,342.2 285.3,340.5 290.7,320.9 291.2,318.4 284.5,315.6 284.1,315.9 268.6,335.4 252.9,355.2 237.1,375 
		221.4,394.8 	"/>
</g>
<g id="freepik--coin-1--inject-2">
	<path class="st9" d="M232,367.6c0,0.4,0,0.7,0,1.1v0.4c-0.1,3.3-0.3,6.6-0.7,9.8c0,0.1,0,0.3-0.1,0.4c-0.4,3.3-1.1,6.6-1.9,9.8
		c0,0.1,0,0.3-0.1,0.4c-0.9,3.3-2,6.6-3.3,9.8l-0.2,0.4c-1.4,3.4-3,6.7-4.8,9.8c-0.1,0.1-0.1,0.3-0.2,0.4c-2,3.4-4.2,6.7-6.6,9.8
		c-0.1,0.1-0.2,0.3-0.3,0.4c-2.8,3.5-5.8,6.8-9.1,9.8l-0.4,0.4c-4,3.7-8.4,7-13.1,9.8l-0.7,0.4c-8.1,4.8-16.9,8.3-26.1,10.2
		c-11.7,2.5-23.8,2.5-35.4,0c-9.2-1.9-18-5.4-26.1-10.2l-0.7-0.4c-4.7-2.9-9-6.1-13.1-9.8l-0.4-0.4c-3.3-3-6.3-6.3-9.1-9.8
		c-0.1-0.1-0.2-0.3-0.3-0.4c-2.4-3.1-4.6-6.4-6.6-9.8c-0.1-0.1-0.2-0.3-0.2-0.4c-1.8-3.2-3.4-6.5-4.8-9.8l-0.2-0.4
		c-1.3-3.2-2.4-6.5-3.3-9.8c0-0.1-0.1-0.3-0.1-0.4c-0.9-3.2-1.5-6.5-2-9.8L62,379c-0.4-3.3-0.7-6.5-0.7-9.8c0-0.1,0-0.3,0-0.4
		c0-0.4,0-0.7,0-1.1c0-2.9,0.1-5.8,0.4-8.7c0-0.1,0-0.3,0-0.4c0.3-3.3,0.9-6.6,1.6-9.8c0-0.1,0-0.3,0.1-0.4c0.8-3.3,1.8-6.6,2.9-9.8
		c0.1-0.1,0.1-0.3,0.2-0.4c1.3-3.4,2.8-6.7,4.4-9.9c0.1-0.1,0.1-0.3,0.2-0.4c1.8-3.4,3.8-6.7,6.1-9.8c0.1-0.1,0.2-0.3,0.3-0.4
		c2.5-3.5,5.3-6.8,8.3-9.8l0.4-0.4c3.6-3.6,7.6-6.9,11.8-9.8l0.6-0.4c6-4.1,12.5-7.4,19.4-9.8l1.2-0.4c17.8-6,37-6,54.8,0l1.2,0.4
		c6.8,2.4,13.3,5.8,19.3,9.9c0.2,0.1,0.4,0.3,0.6,0.4c4.2,2.9,8.2,6.2,11.8,9.8c0.1,0.1,0.3,0.3,0.4,0.4c3,3.1,5.8,6.4,8.4,9.8
		l0.3,0.4c2.3,3.1,4.3,6.4,6.1,9.8c0.1,0.1,0.2,0.3,0.2,0.4c1.7,3.2,3.1,6.5,4.4,9.8l0.1,0.4c1.2,3.2,2.1,6.5,2.9,9.8
		c0,0.1,0.1,0.3,0.1,0.4c0.7,3.2,1.3,6.5,1.6,9.8c0,0.1,0,0.3,0,0.4C231.8,361.8,232,364.7,232,367.6z"/>
	<path class="st9" d="M175.2,287.1h-57.1l1.2-0.4c17.8-6,37-6,54.8,0L175.2,287.1z"/>
	<path class="st5" d="M195.2,297.4H98.1l0.6-0.4c6-4.1,12.5-7.4,19.4-9.8l1.2-0.4H174l1.2,0.4c6.9,2.4,13.4,5.7,19.4,9.8
		C194.8,297.1,195,297.2,195.2,297.4z"/>
	<path class="st6" d="M207.4,307.6H85.9l0.4-0.4c3.6-3.6,7.6-6.9,11.8-9.8l0.6-0.4h95.9c0.2,0.1,0.4,0.3,0.6,0.4
		c4.2,2.9,8.2,6.2,11.8,9.8C207.1,307.4,207.2,307.5,207.4,307.6z"/>
	<path class="st7" d="M216,317.9H77.3c0.1-0.1,0.2-0.3,0.3-0.4c2.5-3.5,5.3-6.8,8.3-9.8l0.4-0.4H207c0.1,0.1,0.3,0.3,0.4,0.4
		c3,3.1,5.8,6.4,8.4,9.8L216,317.9z"/>
	<path class="st8" d="M222.3,328.1H71c0.1-0.1,0.1-0.3,0.2-0.4c1.8-3.4,3.8-6.7,6.1-9.8c0.1-0.1,0.2-0.3,0.3-0.4h138.1l0.3,0.4
		c2.3,3.1,4.3,6.4,6.1,9.8C222.2,327.9,222.3,328,222.3,328.1z"/>
	<path class="st5" d="M226.9,338.4H66.4c0.1-0.1,0.1-0.3,0.2-0.4c1.3-3.4,2.7-6.7,4.4-9.8c0.1-0.1,0.1-0.3,0.2-0.4h151
		c0.1,0.1,0.2,0.3,0.2,0.4c1.7,3.2,3.1,6.5,4.4,9.8L226.9,338.4z"/>
	<path class="st5" d="M229.9,348.6H63.4c0-0.1,0-0.3,0.1-0.4c0.8-3.3,1.8-6.6,2.9-9.8c0.1-0.1,0.1-0.3,0.2-0.4h160.1l0.1,0.4
		c1.2,3.2,2.1,6.5,2.9,9.8C229.8,348.4,229.9,348.5,229.9,348.6z"/>
	<path class="st4" d="M231.6,358.9H61.7c0-0.1,0-0.3,0-0.4c0.3-3.3,0.9-6.6,1.6-9.8c0-0.1,0-0.3,0.1-0.4h166.3
		c0,0.1,0.1,0.3,0.1,0.4c0.7,3.2,1.3,6.5,1.6,9.8C231.5,358.6,231.6,358.8,231.6,358.9z"/>
	<path class="st13" d="M232,367.6c0,0.4,0,0.7,0,1.1v0.4H61.3c0-0.1,0-0.3,0-0.4c0-0.4,0-0.7,0-1.1c0-2.9,0.1-5.8,0.4-8.7
		c0-0.1,0-0.3,0-0.4h169.7c0,0.1,0,0.3,0,0.4C231.8,361.8,232,364.7,232,367.6z"/>
	<path class="st9" d="M232,368.7v0.4c-0.1,3.3-0.3,6.6-0.7,9.8c0,0.1,0,0.3-0.1,0.4H62.1L62,379c-0.4-3.3-0.7-6.5-0.7-9.8
		c0-0.1,0-0.3,0-0.4L232,368.7z"/>
	<path class="st9" d="M231.2,379c0,0.1,0,0.3-0.1,0.4c-0.4,3.3-1.1,6.6-1.9,9.8c0,0.1,0,0.3-0.1,0.4h-165c0-0.1-0.1-0.3-0.1-0.4
		c-0.9-3.2-1.5-6.5-2-9.8L62,379H231.2z"/>
	<path class="st9" d="M229.2,389.2c0,0.1,0,0.3-0.1,0.4c-0.9,3.3-2,6.6-3.3,9.8l-0.2,0.4H67.6l-0.2-0.4c-1.3-3.2-2.4-6.5-3.3-9.8
		c0-0.1-0.1-0.3-0.1-0.4H229.2z"/>
	<path class="st5" d="M225.9,399.5l-0.2,0.4c-1.4,3.4-3,6.7-4.8,9.8c-0.1,0.1-0.1,0.3-0.2,0.4h-148c-0.1-0.1-0.2-0.3-0.2-0.4
		c-1.8-3.2-3.4-6.5-4.8-9.8l-0.2-0.4H225.9z"/>
	<path class="st8" d="M220.9,409.7c-0.1,0.1-0.1,0.3-0.2,0.4c-2,3.4-4.2,6.7-6.6,9.8c-0.1,0.1-0.2,0.3-0.3,0.4H79.6
		c-0.1-0.1-0.2-0.3-0.3-0.4c-2.4-3.1-4.6-6.4-6.6-9.8c-0.1-0.1-0.2-0.3-0.2-0.4H220.9z"/>
	<path class="st7" d="M214.1,420c-0.1,0.1-0.2,0.3-0.3,0.4c-2.8,3.5-5.8,6.8-9.1,9.8l-0.4,0.4H89.1l-0.4-0.4c-3.3-3-6.3-6.3-9.1-9.8
		c-0.1-0.1-0.2-0.3-0.3-0.4H214.1z"/>
	<path class="st6" d="M204.7,430.2l-0.4,0.4c-4,3.7-8.4,7-13.1,9.8l-0.7,0.4h-87.6l-0.7-0.4c-4.7-2.9-9-6.1-13.1-9.8l-0.4-0.4H204.7
		z"/>
	<path class="st5" d="M191.1,440.5l-0.7,0.4c-8.1,4.8-16.9,8.3-26.1,10.2h-35.4c-9.2-1.9-18-5.4-26.1-10.2l-0.7-0.4H191.1z"/>
	<circle class="st9" cx="139.9" cy="367.6" r="85.4"/>
	<circle class="st9" cx="139.9" cy="367.6" r="68.6"/>
	<path class="st10" d="M131.3,371.3c-12.7,25.4-35,32.8-48.2,34.8c21.2,31.4,63.8,39.7,95.3,18.5s39.7-63.8,18.5-95.3
		c-0.8-1.2-1.7-2.5-2.6-3.6C167.9,328.2,144.8,344.4,131.3,371.3z"/>
	<path class="st11" d="M71.3,367.6c0,37.2,29.6,67.6,66.7,68.6h1.1c-37.9-1.6-67.3-33.6-65.7-71.4c1.5-35.6,30-64.2,65.7-65.7
		L138,299C100.8,300,71.2,330.4,71.3,367.6z"/>
	<polygon class="st14" points="109,405.2 121.3,383.6 133.9,362 146.2,340.4 148.5,337 149.2,340.4 153.3,354.6 148.8,362 
		136.5,383.6 123.9,405.2 138.8,405.2 151.4,383.6 157.8,372.4 161.1,383.6 166.7,405.2 180.1,405.2 174.5,383.6 168.6,362 
		167.1,356.4 176.4,340.4 163,340.4 162.2,338.9 157.8,321 157,318.8 144,318.8 143.6,319.2 131.3,340.4 119,362 106.4,383.6 
		94.1,405.2 	"/>
	<polygon class="st9" points="105.8,406.1 118.1,384.5 130.8,362.9 143,341.3 145.3,338 146,341.3 150.1,355.5 145.6,362.9 
		133.4,384.5 120.7,406.1 135.6,406.1 148.3,384.5 154.6,373.3 157.9,384.5 163.5,406.1 176.9,406.1 171.3,384.5 165.4,362.9 
		163.9,357.3 173.2,341.3 159.8,341.3 159.1,339.8 154.6,322 153.8,319.7 140.8,319.7 140.4,320.1 128.1,341.3 115.9,362.9 
		103.2,384.5 90.9,406.1 	"/>
</g>
<g id="freepik--Character--inject-2">
	<path class="st3" d="M445.8,133.8l-4.3,3c-1.6-2.1-4.4-2.8-6.8-1.7c-4.3,1.9-14,11.9-16.9,21s6.6,19.5,4.8,23.4s-6.9,5-6.5,11.5
		s23.5,15.2,34.6,10.1s0.4-17,2.9-20.9s9.7-2.8,9.7-14.2s-2.2-17.3-6.4-24.4C453.4,135.6,449.8,132.4,445.8,133.8z"/>
	<path class="st15" d="M460.1,434.8c-1.4,3.4-3,6.8-4.8,10c-2,3.1-7.5,3.4-5.4,5.9s7.2,3.3,11,0.8s4.2-7.1,7.1-8.8s3.2-4.2,2.2-7.2
		s-2.7-3.8-2.7-3.8S465.8,435.2,460.1,434.8z"/>
	<path class="st3" d="M410.8,251.8c0,0-4,18.8-2.6,33.4s3.7,27.7,5.1,32.8s12,53.6,12.8,54.2s20,26.8,23.8,36.8s10.8,26.8,10.8,26.8
		s3.9,1.9,6.5-0.4s1.6-2.9,1.6-2.9s-8.4-37.4-13-51.7s-11.7-30.2-11.7-30.2s13.7-53.1,10.5-73.9s-7.1-23.4-7.1-23.4
		S424.2,261.8,410.8,251.8z"/>
	<path class="st3" d="M449.5,256.1c8.6,11.7,14.1,25.5,15.9,40c2.6,23.4-11.1,38.8-14,53.6s1.2,20.1-3.1,35.5s-5.3,18.7-8.2,27.3
		s-6.9,20.3-6.9,20.3s-1.7,1.7-5.4,1.7s-4.2-0.1-4.2-0.1s6.3-44.7,6.6-59s2-29.7,2-29.7s-2-52.8,2.3-62.8s7.1-12.8,7.1-12.8"/>
	<path class="st16" d="M430.2,365.4c0-8.4,0.1-20.4,0.5-29.4c0.6-15.3,1.8-51.9,10-61.9"/>
	<path class="st16" d="M430.2,375.4c0,0,0-1.6,0-4.2"/>
	<path class="st16" d="M417.1,276.5c0,0,6.1,16,16.1,19.8"/>
	<path class="st17" d="M413.4,188.7c-4.2-0.5-8.3,1.8-10,5.7c-3.1,6.8-16.4,33.8-16.4,37.2s3.7,12.8,9.9,7.6c3.6-3,14-24.8,14-24.8"
		/>
	<path class="st17" d="M460.8,196.5c-2.6-8.2-18.7-8.6-19.9-8.9c0,0-0.5,0.8-0.5-1s1-8.6,1-8.6s-10.9,0-12.7-3.9c0,0-0.3,9.4-1.5,13
		c0,0-1.7,1.2-5.9,1.2s-11-1.7-13.1,4c-0.1,0.4-0.2,0.8-0.3,1.2c-1,3.8-4.1,15.5-4.5,20.6c-0.2,3.4,1.7,10,3.4,15.3
		c0.1,3.8,0.3,6.9,0.5,9c1,9.3,0.4,21.2,3.5,23.2s25.9,5.2,33.1,2.2s6.8-11.5,6.8-15.5S463.4,204.6,460.8,196.5z"/>
	<path class="st0" d="M421.2,215.8c0,0,1.8,7.7,11.2,11.8"/>
	<path class="st15" d="M450.4,189.1c-3.1-0.7-6.3-1.2-9.5-1.5c0,0-0.5,0.8-0.5-1s1-8.6,1-8.6s-10.9,0-12.7-3.9c0,0-0.3,9.4-1.5,13
		c0,0-4,0.8-7.8,1.2c0.7,3.9,3.1,12.2,12.4,13.2C439.7,202.5,446.6,194.6,450.4,189.1z"/>
	<path class="st15" d="M449.8,168.2c0,0,2.2-1.6,2,1.1s-1.6,5.1-3.1,5.6c-0.9,0.3-1.8,0.4-2.7,0.4L449.8,168.2z"/>
	<path class="st15" d="M427,163c0,0-2.2-2.5-2.5,1.6s2,5.1,2,5.1L427,163z"/>
	<path class="st15" d="M439,149c0,0-3.3,3.2-11.4,4c0,0-3.3,12.3-0.4,20.6s8,9.6,12,8.4c6.8-1.9,12.2-15.8,13.7-21
		C452.9,161.1,441.3,156.8,439,149z"/>
	<path class="st10" d="M434.2,161.5c-0.2,1-1,1.8-1.6,1.6s-1-1.1-0.8-2.1s1-1.7,1.6-1.6S434.5,160.5,434.2,161.5z"/>
	<path class="st10" d="M443.1,164c-0.2,1-1,1.8-1.6,1.6s-1-1.1-0.8-2.1s1-1.8,1.6-1.6S443.3,162.9,443.1,164z"/>
	<path class="st0" d="M435.1,167.9c0.6,0.7,1.6,1.1,2.5,0.9"/>
	<path class="st0" d="M431.7,169.5c0,0,2.3,4.9,9.2,2.8"/>
	<path class="st0" d="M431.7,157c0,0,1.9-1.2,4.4,0.7"/>
	<path class="st0" d="M442.1,158.6c2.1,0.2,4,1.3,5.3,3"/>
	<path class="st15" d="M423.7,432.8c0,0-3.4,8.2-10,12.4c-3.1,2-8.3,2.8-6.6,5.4s11.7,2.5,16.4,0.6s6.7-2.3,8.2-5.2
		s1.6-13.3,1.6-13.3C430.1,433.8,426.8,433.8,423.7,432.8z"/>
	<path class="st15" d="M415.6,230.9c0,0-7.2-8.2-7.6-9s-12-4.4-12-4.4c-0.3,0.7-0.3,1.5-0.1,2.2c0.5,0.8,7.8,2.7,7.8,2.7l0.7,1
		l-10.1-1.4c0,0-1.8,0.3-1.3,1.5s11.2,2.7,11.2,2.7l-11,0.5c0.3,1.1,1.2,1.9,2.4,2.1c1.8,0.1,6.2-0.2,6.2-0.2s-5.2,0.7-4.1,2.1
		s6.6-0.2,6.6-0.2l4.4,2.7l4.4,3.1L415.6,230.9z"/>
	<path class="st17" d="M452.1,205.7l-7.4,30.6c0,0-19.5-2.3-23.7-3.5c-1.6-0.4-3.2-0.9-4.8-1.6l-3,5.1c0,0,13.6,8.2,24.5,11.9
		s14.8,6.7,17.6,1.9s7.7-33.6,9.1-43.3s-0.2-12.8-3.3-14.1c-2.3-0.8-4.8-1.5-7.2-1.9"/>
	<path class="st17" d="M392,227.6l41.4,5.7l-1.4,5.3c0,0-16.9,4-30.9,4.6c-17.9,0.8-15.5-11.3-12.4-16.7"/>
	<path class="st15" d="M433.4,233.3c0,0,10.7-2.5,11.5-2.8s12.2,3.9,12.2,3.9s-0.5,1.4-1.3,1.8s-7.8-2.7-7.8-2.7l-1.1,0.4l8.8,5.2
		c0,0,1.2,1.4,0.1,2s-10.5-4.8-10.5-4.8l8.4,7.2c-0.9,0.7-2.1,0.8-3.1,0.2c-1.5-1.1-4.8-4-4.8-4s3.6,3.8,1.9,4.2s-5.1-4.3-5.1-4.3
		l-5.1-0.6l-5.5-0.3L433.4,233.3z"/>
</g>
<g id="freepik--Floor--inject-2">
	<line class="st18" x1="30" y1="453" x2="484" y2="453"/>
</g>
</svg>
