<svg width="500" height="500" viewBox="0 0 500 500" fill="none" xmlns="http://www.w3.org/2000/svg">
<path d="M40.6 138.4L65.4 376.1" stroke="#263238" stroke-linecap="round" stroke-linejoin="round"/>
<path d="M60.6 329.6L50.2 318.8" stroke="#263238" stroke-linecap="round" stroke-linejoin="round"/>
<path d="M53.6 322.3C53.6 318.6 51.9 315.1 49.1 312.8C46.2 310.2 31 303.8 29.6 309.2C28 315 43.6 326.4 53.6 322.3Z" fill="#4F4FDE" stroke="#263238" stroke-miterlimit="10"/>
<path d="M53.6 322.3L39.1 313.3" stroke="#263238" stroke-linecap="round" stroke-linejoin="round"/>
<path d="M63.1 354.2L53 345.8" stroke="#263238" stroke-linecap="round" stroke-linejoin="round"/>
<path d="M56.4 349.4C56.4 345.7 54.7 342.3 52 339.9C49.1 337.3 33.9 330.9 32.5 336.3C30.9 342 46.4 353.5 56.4 349.4Z" fill="#4F4FDE" stroke="#263238" stroke-miterlimit="10"/>
<path d="M56.4 349.4L42 340.3" stroke="#263238" stroke-linecap="round" stroke-linejoin="round"/>
<path d="M53.5 262L43.3 252.8" stroke="#263238" stroke-linecap="round" stroke-linejoin="round"/>
<path d="M46.7 256.3C46.7 252.6 45 249.1 42.2 246.8C39.3 244.2 24.1 237.8 22.7 243.2C21.1 249 36.7 260.4 46.7 256.3Z" fill="#4F4FDE" stroke="#263238" stroke-miterlimit="10"/>
<path d="M46.7 256.3L32.3 247.3" stroke="#263238" stroke-linecap="round" stroke-linejoin="round"/>
<path d="M56.4 290.7L46.1 279.8" stroke="#263238" stroke-linecap="round" stroke-linejoin="round"/>
<path d="M49.5 283.4C49.5 279.7 47.8 276.2 45 273.9C42.1 271.3 26.9 264.9 25.5 270.3C24 276 39.5 287.5 49.5 283.4Z" fill="#4F4FDE" stroke="#263238" stroke-miterlimit="10"/>
<path d="M49.5 283.4L35.1 274.4" stroke="#263238" stroke-linecap="round" stroke-linejoin="round"/>
<path d="M49 219.3L38.7 208.8" stroke="#263238" stroke-linecap="round" stroke-linejoin="round"/>
<path d="M42.1 212.4C42.1 208.7 40.4 205.2 37.6 202.9C34.7 200.3 19.5 193.9 18.1 199.3C16.6 205.1 32.1 216.5 42.1 212.4Z" fill="#4F4FDE" stroke="#263238" stroke-miterlimit="10"/>
<path d="M42.1 212.4L27.7 203.4" stroke="#263238" stroke-linecap="round" stroke-linejoin="round"/>
<path d="M44 172.3L34.1 164.7" stroke="#263238" stroke-linecap="round" stroke-linejoin="round"/>
<path d="M37.5 168.3C37.5 164.6 35.8 161.1 33 158.8C30.1 156.2 14.9 149.8 13.5 155.2C12 160.9 27.5 172.4 37.5 168.3Z" fill="#4F4FDE" stroke="#263238" stroke-miterlimit="10"/>
<path d="M37.5 168.3L23.1 159.2" stroke="#263238" stroke-linecap="round" stroke-linejoin="round"/>
<path d="M59.5 314.6L68.1 300.7" stroke="#263238" stroke-linecap="round" stroke-linejoin="round"/>
<path d="M65.5 304.9C64.8 301.3 65.7 297.5 67.9 294.6C70.2 291.5 83.7 282.1 86.3 287C89 292.4 76.2 306.8 65.5 304.9Z" fill="#4F4FDE" stroke="#263238" stroke-miterlimit="10"/>
<path d="M65.5 304.9L75.7 295.3" stroke="#263238" stroke-linecap="round" stroke-linejoin="round"/>
<path d="M52.1 243.5L60.7 229.5" stroke="#263238" stroke-linecap="round" stroke-linejoin="round"/>
<path d="M58.1 233.7C57.4 230.1 58.3 226.4 60.5 223.4C62.8 220.3 73.4 212.5 75.9 217.4C78.6 222.8 68.7 235.6 58.1 233.7Z" fill="#4F4FDE" stroke="#263238" stroke-miterlimit="10"/>
<path d="M58.1 233.7L71.1 221.3" stroke="#263238" stroke-linecap="round" stroke-linejoin="round"/>
<path d="M48.9 212.2L57.4 198.2" stroke="#263238" stroke-linecap="round" stroke-linejoin="round"/>
<path d="M54.8 202.4C54.1 198.8 55 195 57.2 192.1C59.5 189 73 179.6 75.6 184.5C78.3 190 65.5 204.4 54.8 202.4Z" fill="#4F4FDE" stroke="#263238" stroke-miterlimit="10"/>
<path d="M54.8 202.4L67.8 190" stroke="#263238" stroke-linecap="round" stroke-linejoin="round"/>
<path d="M44.1 166.4L52.6 152.4" stroke="#263238" stroke-linecap="round" stroke-linejoin="round"/>
<path d="M50 156.6C49.3 153 50.2 149.2 52.4 146.3C54.7 143.2 68.3 133.8 70.8 138.7C73.5 144.1 60.7 158.5 50 156.6Z" fill="#4F4FDE" stroke="#263238" stroke-miterlimit="10"/>
<path d="M50 156.6L63 144.1" stroke="#263238" stroke-linecap="round" stroke-linejoin="round"/>
<path d="M40.4 137C39.7 133.4 40.6 129.7 42.8 126.7C45.1 123.6 58.6 114.2 61.2 119.1C63.9 124.6 51.1 139 40.4 137Z" fill="#4F4FDE" stroke="#263238" stroke-miterlimit="10"/>
<path d="M40.4 137L53.5 124.6" stroke="#263238" stroke-linecap="round" stroke-linejoin="round"/>
<path d="M41.2 137.6C37.5 137.9 33.9 136.7 31.2 134.1C28.4 131.5 20.5 117 25.7 115C31.2 112.9 44.2 127.2 41.2 137.6Z" fill="#4F4FDE" stroke="#263238" stroke-miterlimit="10"/>
<path d="M41.2 137.6L30.2 123.3" stroke="#263238" stroke-linecap="round" stroke-linejoin="round"/>
<path d="M77.8 74.3V375" stroke="#263238" stroke-linecap="round" stroke-linejoin="round"/>
<path d="M106.1 171.1L81.4 408.9" stroke="#263238" stroke-linecap="round" stroke-linejoin="round"/>
<path d="M86.6 360.3L80.9 353.8" stroke="#263238" stroke-linecap="round" stroke-linejoin="round"/>
<path d="M80.9 353.8C81.6 350.2 80.7 346.4 78.5 343.5C76.2 340.4 62.6 331 60.1 336C57.4 341.3 70.3 355.7 80.9 353.8Z" fill="#4F4FDE" stroke="#263238" stroke-miterlimit="10"/>
<path d="M80.9 353.8L68.6 342" stroke="#263238" stroke-linecap="round" stroke-linejoin="round"/>
<path d="M93.6 292.4L85.1 285.4" stroke="#263238" stroke-linecap="round" stroke-linejoin="round"/>
<path d="M87.8 287.8C88.5 284.2 87.6 280.4 85.4 277.5C83.1 274.4 69.5 265 67 270C64.2 275.4 77.1 289.7 87.8 287.8Z" fill="#4F4FDE" stroke="#263238" stroke-miterlimit="10"/>
<path d="M87.8 287.8L75.5 276" stroke="#263238" stroke-linecap="round" stroke-linejoin="round"/>
<path d="M90.9 324.6L82.3 310.7" stroke="#263238" stroke-linecap="round" stroke-linejoin="round"/>
<path d="M85 314.8C85.7 311.2 84.8 307.5 82.6 304.5C80.3 301.4 66.8 292 64.2 296.9C61.4 302.4 74.3 316.8 85 314.8Z" fill="#4F4FDE" stroke="#263238" stroke-miterlimit="10"/>
<path d="M84.9 314.8L72.7 303" stroke="#263238" stroke-linecap="round" stroke-linejoin="round"/>
<path d="M97.9 249.1L89.7 239.7" stroke="#263238" stroke-linecap="round" stroke-linejoin="round"/>
<path d="M92.3 243.9C93 240.3 92.1 236.5 89.9 233.6C87.6 230.5 74.1 221.1 71.5 226C68.8 231.4 81.7 245.8 92.3 243.9Z" fill="#4F4FDE" stroke="#263238" stroke-miterlimit="10"/>
<path d="M92.3 243.9L80 232.1" stroke="#263238" stroke-linecap="round" stroke-linejoin="round"/>
<path d="M102.2 207.8L94.3 195.6" stroke="#263238" stroke-linecap="round" stroke-linejoin="round"/>
<path d="M96.9 199.7C97.6 196.1 96.7 192.4 94.5 189.4C92.2 186.3 78.7 176.9 76.1 181.8C73.4 187.3 86.2 201.7 96.9 199.7Z" fill="#4F4FDE" stroke="#263238" stroke-miterlimit="10"/>
<path d="M96.9 199.7L84.6 187.9" stroke="#263238" stroke-linecap="round" stroke-linejoin="round"/>
<path d="M88.3 347.5L99.6 335.6" stroke="#263238" stroke-linecap="round" stroke-linejoin="round"/>
<path d="M96.1 339.2C96.1 335.5 97.8 332 100.6 329.7C103.5 327.1 118.7 320.7 120.1 326.1C121.7 331.8 106.2 343.3 96.1 339.2Z" fill="#4F4FDE" stroke="#263238" stroke-miterlimit="10"/>
<path d="M96.1 339.2L111.4 329.7" stroke="#263238" stroke-linecap="round" stroke-linejoin="round"/>
<path d="M95.7 276.3L106.9 264.4" stroke="#263238" stroke-linecap="round" stroke-linejoin="round"/>
<path d="M103.5 268C103.5 264.3 105.2 260.8 108 258.5C110.9 255.9 126.1 249.5 127.5 254.9C129.1 260.6 113.5 272.1 103.5 268Z" fill="#4F4FDE" stroke="#263238" stroke-miterlimit="10"/>
<path d="M103.5 268L118.8 258.5" stroke="#263238" stroke-linecap="round" stroke-linejoin="round"/>
<path d="M98.9 245.1L110.2 233.2" stroke="#263238" stroke-linecap="round" stroke-linejoin="round"/>
<path d="M106.8 236.7C106.8 233 108.5 229.5 111.3 227.1C114.2 224.5 129.4 218.1 130.8 223.5C132.3 229.4 116.8 240.8 106.8 236.7Z" fill="#4F4FDE" stroke="#263238" stroke-miterlimit="10"/>
<path d="M106.8 236.7L122.1 227.2" stroke="#263238" stroke-linecap="round" stroke-linejoin="round"/>
<path d="M103.6 196.9L114.9 187.3" stroke="#263238" stroke-linecap="round" stroke-linejoin="round"/>
<path d="M111.5 190.9C111.5 187.2 113.2 183.7 116 181.3C118.9 178.7 134.1 172.3 135.5 177.7C137.1 183.5 121.5 195 111.5 190.9Z" fill="#4F4FDE" stroke="#263238" stroke-miterlimit="10"/>
<path d="M111.5 190.9L126.8 181.4" stroke="#263238" stroke-miterlimit="10"/>
<path d="M106.2 169.8C106.2 166.1 107.9 162.6 110.7 160.2C113.6 157.6 128.8 151.2 130.2 156.6C131.7 162.4 116.2 173.9 106.2 169.8Z" fill="#4F4FDE" stroke="#263238" stroke-miterlimit="10"/>
<path d="M106.2 169.8L121.5 160.3" stroke="#263238" stroke-linecap="round" stroke-linejoin="round"/>
<path d="M106.8 170.4C103.2 170 99.9 168 97.8 165C95.5 161.9 90.8 146.1 96.2 145.2C102.1 144.2 111.9 160.9 106.8 170.4Z" fill="#4F4FDE" stroke="#263238" stroke-miterlimit="10"/>
<path d="M106.8 170.4L98.9 154.2" stroke="#263238" stroke-linecap="round" stroke-linejoin="round"/>
<path d="M77.4 329.2L68.1 316.8" stroke="#263238" stroke-linecap="round" stroke-linejoin="round"/>
<path d="M71.1 320.7C71.4 317 70.2 313.4 67.6 310.7C65 307.8 50.6 299.9 48.6 305.1C46.4 310.7 60.7 323.7 71.1 320.7Z" fill="#4F4FDE" stroke="#263238" stroke-miterlimit="10"/>
<path d="M71.1 320.7L57.7 310.2" stroke="#263238" stroke-linecap="round" stroke-linejoin="round"/>
<path d="M77.7 269.2L68.1 260.3" stroke="#263238" stroke-linecap="round" stroke-linejoin="round"/>
<path d="M71.1 264.2C71.4 260.5 70.2 256.9 67.6 254.2C65 251.3 50.6 243.4 48.6 248.6C46.4 254.2 60.7 267.2 71.1 264.2Z" fill="#4F4FDE" stroke="#263238" stroke-miterlimit="10"/>
<path d="M71.1 264.2L57.7 253.7" stroke="#263238" stroke-linecap="round" stroke-linejoin="round"/>
<path d="M78 206.9L68.1 193.9" stroke="#263238" stroke-linecap="round" stroke-linejoin="round"/>
<path d="M71.1 197.8C71.4 194.1 70.2 190.5 67.6 187.8C65 184.9 50.6 177 48.6 182.2C46.4 187.9 60.7 200.9 71.1 197.8Z" fill="#4F4FDE" stroke="#263238" stroke-miterlimit="10"/>
<path d="M71.1 197.8L57.7 187.4" stroke="#263238" stroke-linecap="round" stroke-linejoin="round"/>
<path d="M77.4 158.1L68.1 149.8" stroke="#263238" stroke-linecap="round" stroke-linejoin="round"/>
<path d="M71.1 153.6C71.4 149.9 70.2 146.3 67.6 143.6C65 140.7 50.6 132.8 48.6 138C46.4 143.7 60.7 156.7 71.1 153.6Z" fill="#4F4FDE" stroke="#263238" stroke-miterlimit="10"/>
<path d="M71.1 153.6L57.7 143.2" stroke="#263238" stroke-linecap="round" stroke-linejoin="round"/>
<path d="M77.9 113.9L68.3 106.9" stroke="#263238" stroke-linecap="round" stroke-linejoin="round"/>
<path d="M71.1 109.3C71.4 105.6 70.2 102 67.6 99.3C65 96.4 50.6 88.5 48.6 93.7C46.4 99.3 60.7 112.3 71.1 109.3Z" fill="#4F4FDE" stroke="#263238" stroke-miterlimit="10"/>
<path d="M71.1 109.3L57.7 98.8" stroke="#263238" stroke-linecap="round" stroke-linejoin="round"/>
<path d="M79.8 344.2L87.8 334" stroke="#263238" stroke-linecap="round" stroke-linejoin="round"/>
<path d="M84.8 337.9C84.4 334.2 85.7 330.6 88.3 327.9C90.9 325 105.4 317.1 107.3 322.3C109.4 328 95.1 341 84.8 337.9Z" fill="#4F4FDE" stroke="#263238" stroke-miterlimit="10"/>
<path d="M84.8 337.9L99 326.9" stroke="#263238" stroke-linecap="round" stroke-linejoin="round"/>
<path d="M77.8 257.1L87.8 244.2" stroke="#263238" stroke-linecap="round" stroke-linejoin="round"/>
<path d="M84.8 248.1C84.4 244.4 85.7 240.8 88.3 238.1C90.9 235.2 105.4 227.3 107.3 232.5C109.4 238.1 95.1 251.1 84.8 248.1Z" fill="#4F4FDE" stroke="#263238" stroke-miterlimit="10"/>
<path d="M84.8 248.1L99 237" stroke="#263238" stroke-linecap="round" stroke-linejoin="round"/>
<path d="M77.8 212.8L87.8 199.8" stroke="#263238" stroke-linecap="round" stroke-linejoin="round"/>
<path d="M84.8 203.7C84.5 200 85.7 196.4 88.3 193.8C90.9 190.9 105.4 183 107.3 188.2C109.4 193.7 95.1 206.7 84.8 203.7Z" fill="#4F4FDE" stroke="#263238" stroke-miterlimit="10"/>
<path d="M84.8 203.7L99 192.7" stroke="#263238" stroke-linecap="round" stroke-linejoin="round"/>
<path d="M77.8 154.1L87.8 141.2" stroke="#263238" stroke-linecap="round" stroke-linejoin="round"/>
<path d="M84.8 145.1C84.4 141.4 85.7 137.8 88.3 135.1C90.9 132.2 105.4 124.3 107.3 129.5C109.4 135.1 95.1 148.1 84.8 145.1Z" fill="#4F4FDE" stroke="#263238" stroke-miterlimit="10"/>
<path d="M84.8 145.1L99 134" stroke="#263238" stroke-linecap="round" stroke-linejoin="round"/>
<path d="M78.2 103.6L88 95.9" stroke="#263238" stroke-linecap="round" stroke-linejoin="round"/>
<path d="M84.8 99C84.4 95.3 85.7 91.7 88.3 89C90.9 86.1 105.4 78.2 107.3 83.4C109.4 89 95.1 102 84.8 99Z" fill="#4F4FDE" stroke="#263238" stroke-miterlimit="10"/>
<path d="M84.8 99L99 87.9" stroke="#263238" stroke-linecap="round" stroke-linejoin="round"/>
<path d="M77.2 78.5C76.8 74.8 78.1 71.2 80.7 68.5C83.3 65.6 97.8 57.7 99.7 62.9C101.9 68.6 87.6 81.6 77.2 78.5Z" fill="#4F4FDE" stroke="#263238" stroke-miterlimit="10"/>
<path d="M77.2 78.5L91.5 67.5" stroke="#263238" stroke-linecap="round" stroke-linejoin="round"/>
<path d="M77.9 79.1C74.2 79 70.7 77.4 68.4 74.6C65.8 71.7 59.4 56.5 64.8 55.1C70.6 53.5 82 69.1 77.9 79.1Z" fill="#4F4FDE" stroke="#263238" stroke-miterlimit="10"/>
<path d="M77.9 79.1L68.4 63.8" stroke="#263238" stroke-linecap="round" stroke-linejoin="round"/>
<path d="M90.2 453H58.3L54.3 372.5H94.2L90.2 453Z" fill="#263238" stroke="#263238" stroke-linecap="round" stroke-linejoin="round"/>
<path d="M158.5 438.4H145.6V453H158.5V438.4Z" fill="#E8E8E8" stroke="#263238" stroke-linejoin="round"/>
<path d="M171.6 438.4H158.7V453H171.6V438.4Z" fill="#CFCFCF" stroke="#263238" stroke-linejoin="round"/>
<path d="M184.7 438.4H171.8V453H184.7V438.4Z" fill="#333333" stroke="#263238" stroke-linejoin="round"/>
<path d="M197.7 438.4H184.8V453H197.7V438.4Z" fill="#7D7D7D" stroke="#263238" stroke-linejoin="round"/>
<path d="M210.8 438.4H197.9V453H210.8V438.4Z" fill="#152036" stroke="#263238" stroke-linejoin="round"/>
<path d="M223.9 438.4H211V453H223.9V438.4Z" fill="#152036" stroke="#263238" stroke-linejoin="round"/>
<path d="M237 438.4H224.1V453H237V438.4Z" fill="#152036" stroke="#263238" stroke-linejoin="round"/>
<path d="M250.1 438.4H237.2V453H250.1V438.4Z" fill="white" stroke="#263238" stroke-linejoin="round"/>
<path d="M263.2 438.4H250.3V453H263.2V438.4Z" fill="white" stroke="#263238" stroke-linejoin="round"/>
<path d="M276.3 438.4H263.4V453H276.3V438.4Z" fill="#263238"/>
<path d="M289.4 438.4H276.5V453H289.4V438.4Z" fill="white" stroke="#263238" stroke-linejoin="round"/>
<path d="M302.4 438.4H289.5V453H302.4V438.4Z" fill="white" stroke="#263238" stroke-linejoin="round"/>
<path d="M167.8 423.4H154.9V438H167.8V423.4Z" fill="#E8E8E8" stroke="#263238" stroke-linejoin="round"/>
<path d="M180.9 423.4H168V438H180.9V423.4Z" fill="#CFCFCF" stroke="#263238" stroke-linejoin="round"/>
<path d="M194 423.4H181.1V438H194V423.4Z" fill="#333333" stroke="#263238" stroke-linejoin="round"/>
<path d="M207 423.4H194.1V438H207V423.4Z" fill="#7D7D7D" stroke="#263238" stroke-linejoin="round"/>
<path d="M220.1 423.4H207.2V438H220.1V423.4Z" fill="#152036" stroke="#263238" stroke-linejoin="round"/>
<path d="M233.2 423.4H220.3V438H233.2V423.4Z" fill="#CFCFCF" stroke="#263238" stroke-linejoin="round"/>
<path d="M246.3 423.4H233.4V438H246.3V423.4Z" fill="#E8E8E8" stroke="#263238" stroke-linejoin="round"/>
<path d="M259.4 423.4H246.5V438H259.4V423.4Z" fill="white" stroke="#263238" stroke-linejoin="round"/>
<path d="M272.5 423.4H259.6V438H272.5V423.4Z" fill="white" stroke="#263238" stroke-linejoin="round"/>
<path d="M285.6 423.4H272.7V438H285.6V423.4Z" fill="#263238"/>
<path d="M298.7 423.4H285.8V438H298.7V423.4Z" fill="white" stroke="#263238" stroke-linejoin="round"/>
<path d="M311.8 423.4H298.9V438H311.8V423.4Z" fill="white" stroke="#263238" stroke-linejoin="round"/>
<path d="M167.1 408.4H154.2V423H167.1V408.4Z" fill="#E8E8E8" stroke="#263238" stroke-linejoin="round"/>
<path d="M180.2 408.4H167.3V423H180.2V408.4Z" fill="#CFCFCF" stroke="#263238" stroke-linejoin="round"/>
<path d="M193.3 408.4H180.4V423H193.3V408.4Z" fill="#333333" stroke="#263238" stroke-linejoin="round"/>
<path d="M206.4 408.4H193.5V423H206.4V408.4Z" fill="#7D7D7D" stroke="#263238" stroke-linejoin="round"/>
<path d="M219.5 408.4H206.6V423H219.5V408.4Z" fill="#D4D4D4" stroke="#263238" stroke-linejoin="round"/>
<path d="M232.6 408.4H219.7V423H232.6V408.4Z" fill="#CFCFCF" stroke="#263238" stroke-linejoin="round"/>
<path d="M245.6 408.4H232.7V423H245.6V408.4Z" fill="#E8E8E8" stroke="#263238" stroke-linejoin="round"/>
<path d="M258.7 408.4H245.8V423H258.7V408.4Z" fill="white" stroke="#263238" stroke-linejoin="round"/>
<path d="M271.8 408.4H258.9V423H271.8V408.4Z" fill="white" stroke="#263238" stroke-linejoin="round"/>
<path d="M284.9 408.4H272V423H284.9V408.4Z" fill="#263238"/>
<path d="M298 408.4H285.1V423H298V408.4Z" fill="white" stroke="#263238" stroke-linejoin="round"/>
<path d="M311.1 408.4H298.2V423H311.1V408.4Z" fill="white" stroke="#263238" stroke-linejoin="round"/>
<path d="M166.5 393.4H153.6V408H166.5V393.4Z" fill="#E8E8E8" stroke="#263238" stroke-linejoin="round"/>
<path d="M179.5 393.4H166.6V408H179.5V393.4Z" fill="#CFCFCF" stroke="#263238" stroke-linejoin="round"/>
<path d="M192.6 393.4H179.7V408H192.6V393.4Z" fill="#333333" stroke="#263238" stroke-linejoin="round"/>
<path d="M205.7 393.4H192.8V408H205.7V393.4Z" fill="#7D7D7D" stroke="#263238" stroke-linejoin="round"/>
<path d="M218.8 393.4H205.9V408H218.8V393.4Z" fill="#D4D4D4" stroke="#263238" stroke-linejoin="round"/>
<path d="M231.9 393.4H219V408H231.9V393.4Z" fill="#CFCFCF" stroke="#263238" stroke-linejoin="round"/>
<path d="M245 393.4H232.1V408H245V393.4Z" fill="#E8E8E8" stroke="#263238" stroke-linejoin="round"/>
<path d="M258.1 393.4H245.2V408H258.1V393.4Z" fill="white" stroke="#263238" stroke-linejoin="round"/>
<path d="M271.2 393.4H258.3V408H271.2V393.4Z" fill="white" stroke="#263238" stroke-linejoin="round"/>
<path d="M284.2 393.4H271.3V408H284.2V393.4Z" fill="#263238"/>
<path d="M297.3 393.4H284.4V408H297.3V393.4Z" fill="white" stroke="#263238" stroke-linejoin="round"/>
<path d="M310.4 393.4H297.5V408H310.4V393.4Z" fill="white" stroke="#263238" stroke-linejoin="round"/>
<path d="M155.1 378.4H142.2V393H155.1V378.4Z" fill="#E8E8E8" stroke="#263238" stroke-linejoin="round"/>
<path d="M168.2 378.4H155.3V393H168.2V378.4Z" fill="#CFCFCF" stroke="#263238" stroke-linejoin="round"/>
<path d="M181.3 378.4H168.4V393H181.3V378.4Z" fill="#333333" stroke="#263238" stroke-linejoin="round"/>
<path d="M194.4 378.4H181.5V393H194.4V378.4Z" fill="#7D7D7D" stroke="#263238" stroke-linejoin="round"/>
<path d="M207.5 378.4H194.6V393H207.5V378.4Z" fill="#D4D4D4" stroke="#263238" stroke-linejoin="round"/>
<path d="M220.6 378.4H207.7V393H220.6V378.4Z" fill="#CFCFCF" stroke="#263238" stroke-linejoin="round"/>
<path d="M233.7 378.4H220.8V393H233.7V378.4Z" fill="#E8E8E8" stroke="#263238" stroke-linejoin="round"/>
<path d="M246.8 378.4H233.9V393H246.8V378.4Z" fill="white" stroke="#263238" stroke-linejoin="round"/>
<path d="M259.8 378.4H246.9V393H259.8V378.4Z" fill="white" stroke="#263238" stroke-linejoin="round"/>
<path d="M272.9 378.4H260V393H272.9V378.4Z" fill="#263238"/>
<path d="M286 378.4H273.1V393H286V378.4Z" fill="white" stroke="#263238" stroke-linejoin="round"/>
<path d="M299.1 378.4H286.2V393H299.1V378.4Z" fill="white" stroke="#263238" stroke-linejoin="round"/>
<path d="M156.5 363.4H143.6V378H156.5V363.4Z" fill="#E8E8E8" stroke="#263238" stroke-linejoin="round"/>
<path d="M169.6 363.4H156.7V378H169.6V363.4Z" fill="#CFCFCF" stroke="#263238" stroke-linejoin="round"/>
<path d="M182.7 363.4H169.8V378H182.7V363.4Z" fill="#333333" stroke="#263238" stroke-linejoin="round"/>
<path d="M195.8 363.4H182.9V378H195.8V363.4Z" fill="#7D7D7D" stroke="#263238" stroke-linejoin="round"/>
<path d="M208.8 363.4H195.9V378H208.8V363.4Z" fill="#D4D4D4" stroke="#263238" stroke-linejoin="round"/>
<path d="M221.9 363.4H209V378H221.9V363.4Z" fill="#CFCFCF" stroke="#263238" stroke-linejoin="round"/>
<path d="M235 363.4H222.1V378H235V363.4Z" fill="#E8E8E8" stroke="#263238" stroke-linejoin="round"/>
<path d="M248.1 363.4H235.2V378H248.1V363.4Z" fill="white" stroke="#263238" stroke-linejoin="round"/>
<path d="M261.2 363.4H248.3V378H261.2V363.4Z" fill="white" stroke="#263238" stroke-linejoin="round"/>
<path d="M274.3 363.4H261.4V378H274.3V363.4Z" fill="#263238"/>
<path d="M287.4 363.4H274.5V378H287.4V363.4Z" fill="white" stroke="#263238" stroke-linejoin="round"/>
<path d="M300.4 363.4H287.5V378H300.4V363.4Z" fill="white" stroke="#263238" stroke-linejoin="round"/>
<path d="M171.8 348.4H158.9V363H171.8V348.4Z" fill="#E8E8E8" stroke="#263238" stroke-linejoin="round"/>
<path d="M184.9 348.4H172V363H184.9V348.4Z" fill="#CFCFCF" stroke="#263238" stroke-linejoin="round"/>
<path d="M198 348.4H185.1V363H198V348.4Z" fill="#333333" stroke="#263238" stroke-linejoin="round"/>
<path d="M211 348.4H198.1V363H211V348.4Z" fill="#7D7D7D" stroke="#263238" stroke-linejoin="round"/>
<path d="M224.1 348.4H211.2V363H224.1V348.4Z" fill="#D4D4D4" stroke="#263238" stroke-linejoin="round"/>
<path d="M237.2 348.4H224.3V363H237.2V348.4Z" fill="#CFCFCF" stroke="#263238" stroke-linejoin="round"/>
<path d="M250.3 348.4H237.4V363H250.3V348.4Z" fill="#E8E8E8" stroke="#263238" stroke-linejoin="round"/>
<path d="M263.4 348.4H250.5V363H263.4V348.4Z" fill="white" stroke="#263238" stroke-linejoin="round"/>
<path d="M276.5 348.4H263.6V363H276.5V348.4Z" fill="white" stroke="#263238" stroke-linejoin="round"/>
<path d="M289.6 348.4H276.7V363H289.6V348.4Z" fill="#263238"/>
<path d="M302.7 348.4H289.8V363H302.7V348.4Z" fill="white" stroke="#263238" stroke-linejoin="round"/>
<path d="M315.7 348.4H302.8V363H315.7V348.4Z" fill="white" stroke="#263238" stroke-linejoin="round"/>
<path d="M153.8 333.4H140.9V348H153.8V333.4Z" fill="#E8E8E8" stroke="#263238" stroke-linejoin="round"/>
<path d="M166.9 333.4H154V348H166.9V333.4Z" fill="#CFCFCF" stroke="#263238" stroke-linejoin="round"/>
<path d="M180 333.4H167.1V348H180V333.4Z" fill="#333333" stroke="#263238" stroke-linejoin="round"/>
<path d="M193.1 333.4H180.2V348H193.1V333.4Z" fill="#7D7D7D" stroke="#263238" stroke-linejoin="round"/>
<path d="M206.2 333.4H193.3V348H206.2V333.4Z" fill="#D4D4D4" stroke="#263238" stroke-linejoin="round"/>
<path d="M219.3 333.4H206.4V348H219.3V333.4Z" fill="#CFCFCF" stroke="#263238" stroke-linejoin="round"/>
<path d="M232.3 333.4H219.4V348H232.3V333.4Z" fill="#E8E8E8" stroke="#263238" stroke-linejoin="round"/>
<path d="M245.4 333.4H232.5V348H245.4V333.4Z" fill="white" stroke="#263238" stroke-linejoin="round"/>
<path d="M258.5 333.4H245.6V348H258.5V333.4Z" fill="white" stroke="#263238" stroke-linejoin="round"/>
<path d="M271.6 333.4H258.7V348H271.6V333.4Z" fill="white" stroke="#263238" stroke-linejoin="round"/>
<path d="M284.7 333.4H271.8V348H284.7V333.4Z" fill="#263238"/>
<path d="M297.8 333.4H284.9V348H297.8V333.4Z" fill="white" stroke="#263238" stroke-linejoin="round"/>
<path d="M170.4 318.4H157.5V333H170.4V318.4Z" fill="#E8E8E8" stroke="#263238" stroke-linejoin="round"/>
<path d="M183.5 318.4H170.6V333H183.5V318.4Z" fill="#CFCFCF" stroke="#263238" stroke-linejoin="round"/>
<path d="M196.6 318.4H183.7V333H196.6V318.4Z" fill="#333333" stroke="#263238" stroke-linejoin="round"/>
<path d="M209.7 318.4H196.8V333H209.7V318.4Z" fill="#7D7D7D" stroke="#263238" stroke-linejoin="round"/>
<path d="M222.8 318.4H209.9V333H222.8V318.4Z" fill="#D4D4D4" stroke="#263238" stroke-linejoin="round"/>
<path d="M235.9 318.4H223V333H235.9V318.4Z" fill="#CFCFCF" stroke="#263238" stroke-linejoin="round"/>
<path d="M249 318.4H236.1V333H249V318.4Z" fill="#E8E8E8" stroke="#263238" stroke-linejoin="round"/>
<path d="M262.1 318.4H249.2V333H262.1V318.4Z" fill="white" stroke="#263238" stroke-linejoin="round"/>
<path d="M275.1 318.4H262.2V333H275.1V318.4Z" fill="white" stroke="#263238" stroke-linejoin="round"/>
<path d="M288.2 318.4H275.3V333H288.2V318.4Z" fill="#263238"/>
<path d="M301.3 318.4H288.4V333H301.3V318.4Z" fill="white" stroke="#263238" stroke-linejoin="round"/>
<path d="M314.4 318.4H301.5V333H314.4V318.4Z" fill="white" stroke="#263238" stroke-linejoin="round"/>
<path d="M171.8 303.4H158.9V318H171.8V303.4Z" fill="#E8E8E8" stroke="#263238" stroke-linejoin="round"/>
<path d="M184.9 303.4H172V318H184.9V303.4Z" fill="#CFCFCF" stroke="#263238" stroke-linejoin="round"/>
<path d="M198 303.4H185.1V318H198V303.4Z" fill="#333333" stroke="#263238" stroke-linejoin="round"/>
<path d="M211 303.4H198.1V318H211V303.4Z" fill="#7D7D7D" stroke="#263238" stroke-linejoin="round"/>
<path d="M224.1 303.4H211.2V318H224.1V303.4Z" fill="#152036" stroke="#263238" stroke-linejoin="round"/>
<path d="M237.2 303.4H224.3V318H237.2V303.4Z" fill="#152036" stroke="#263238" stroke-linejoin="round"/>
<path d="M250.3 303.4H237.4V318H250.3V303.4Z" fill="#152036" stroke="#263238" stroke-linejoin="round"/>
<path d="M263.4 303.4H250.5V318H263.4V303.4Z" fill="white" stroke="#263238" stroke-linejoin="round"/>
<path d="M276.5 303.4H263.6V318H276.5V303.4Z" fill="white" stroke="#263238" stroke-linejoin="round"/>
<path d="M289.6 303.4H276.7V318H289.6V303.4Z" fill="#263238"/>
<path d="M302.7 303.4H289.8V318H302.7V303.4Z" fill="white" stroke="#263238" stroke-linejoin="round"/>
<path d="M315.7 303.4H302.8V318H315.7V303.4Z" fill="white" stroke="#263238" stroke-linejoin="round"/>
<path d="M158.5 288.4H145.6V303H158.5V288.4Z" fill="#E8E8E8" stroke="#263238" stroke-linejoin="round"/>
<path d="M171.6 288.4H158.7V303H171.6V288.4Z" fill="#CFCFCF" stroke="#263238" stroke-linejoin="round"/>
<path d="M184.7 288.4H171.8V303H184.7V288.4Z" fill="#333333" stroke="#263238" stroke-linejoin="round"/>
<path d="M197.7 288.4H184.8V303H197.7V288.4Z" fill="#7D7D7D" stroke="#263238" stroke-linejoin="round"/>
<path d="M210.8 288.4H197.9V303H210.8V288.4Z" fill="#152036" stroke="#263238" stroke-linejoin="round"/>
<path d="M223.9 288.4H211V303H223.9V288.4Z" fill="#152036" stroke="#263238" stroke-linejoin="round"/>
<path d="M237 288.4H224.1V303H237V288.4Z" fill="#152036" stroke="#263238" stroke-linejoin="round"/>
<path d="M250.1 288.4H237.2V303H250.1V288.4Z" fill="#152036" stroke="#263238" stroke-linejoin="round"/>
<path d="M263.2 288.4H250.3V303H263.2V288.4Z" fill="#152036" stroke="#263238" stroke-linejoin="round"/>
<path d="M276.3 288.4H263.4V303H276.3V288.4Z" fill="#263238"/>
<path d="M289.4 288.4H276.5V303H289.4V288.4Z" fill="white" stroke="#263238" stroke-linejoin="round"/>
<path d="M302.4 288.4H289.5V303H302.4V288.4Z" fill="white" stroke="#263238" stroke-linejoin="round"/>
<path d="M173.1 273.4H160.2V288H173.1V273.4Z" fill="#152036" stroke="#263238" stroke-linejoin="round"/>
<path d="M186.2 273.4H173.3V288H186.2V273.4Z" fill="#152036" stroke="#263238" stroke-linejoin="round"/>
<path d="M199.3 273.4H186.4V288H199.3V273.4Z" fill="#333333" stroke="#263238" stroke-linejoin="round"/>
<path d="M212.4 273.4H199.5V288H212.4V273.4Z" fill="#7D7D7D" stroke="#263238" stroke-linejoin="round"/>
<path d="M225.5 273.4H212.6V288H225.5V273.4Z" fill="#152036" stroke="#263238" stroke-linejoin="round"/>
<path d="M238.5 273.4H225.6V288H238.5V273.4Z" fill="#152036" stroke="#263238" stroke-linejoin="round"/>
<path d="M251.6 273.4H238.7V288H251.6V273.4Z" fill="#152036" stroke="#263238" stroke-linejoin="round"/>
<path d="M264.7 273.4H251.8V288H264.7V273.4Z" fill="#152036" stroke="#263238" stroke-linejoin="round"/>
<path d="M277.8 273.4H264.9V288H277.8V273.4Z" fill="#152036" stroke="#263238" stroke-linejoin="round"/>
<path d="M290.9 273.4H278V288H290.9V273.4Z" fill="#263238"/>
<path d="M304 273.4H291.1V288H304V273.4Z" fill="white" stroke="#263238" stroke-linejoin="round"/>
<path d="M317.1 273.4H304.2V288H317.1V273.4Z" fill="white" stroke="#263238" stroke-linejoin="round"/>
<path d="M170 258.4H157.1V273H170V258.4Z" fill="#152036" stroke="#263238" stroke-linejoin="round"/>
<path d="M183.1 258.4H170.2V273H183.1V258.4Z" fill="#152036" stroke="#263238" stroke-linejoin="round"/>
<path d="M196.2 258.4H183.3V273H196.2V258.4Z" fill="#333333" stroke="#263238" stroke-linejoin="round"/>
<path d="M209.3 258.4H196.4V273H209.3V258.4Z" fill="#7D7D7D" stroke="#263238" stroke-linejoin="round"/>
<path d="M222.3 258.4H209.4V273H222.3V258.4Z" fill="#152036" stroke="#263238" stroke-linejoin="round"/>
<path d="M235.4 258.4H222.5V273H235.4V258.4Z" fill="#152036" stroke="#263238" stroke-linejoin="round"/>
<path d="M248.5 258.4H235.6V273H248.5V258.4Z" fill="#152036" stroke="#263238" stroke-linejoin="round"/>
<path d="M261.6 258.4H248.7V273H261.6V258.4Z" fill="#152036" stroke="#263238" stroke-linejoin="round"/>
<path d="M274.7 258.4H261.8V273H274.7V258.4Z" fill="#152036" stroke="#263238" stroke-linejoin="round"/>
<path d="M287.8 258.4H274.9V273H287.8V258.4Z" fill="#263238"/>
<path d="M300.9 258.4H288V273H300.9V258.4Z" fill="white" stroke="#263238" stroke-linejoin="round"/>
<path d="M314 258.4H301.1V273H314V258.4Z" fill="white" stroke="#263238" stroke-linejoin="round"/>
<path d="M169.1 243.3H156.2V257.9H169.1V243.3Z" fill="#152036" stroke="#263238" stroke-linejoin="round"/>
<path d="M182.2 243.3H169.3V257.9H182.2V243.3Z" fill="#152036" stroke="#263238" stroke-linejoin="round"/>
<path d="M195.3 243.3H182.4V257.9H195.3V243.3Z" fill="#333333" stroke="#263238" stroke-linejoin="round"/>
<path d="M208.4 243.3H195.5V257.9H208.4V243.3Z" fill="#7D7D7D" stroke="#263238" stroke-linejoin="round"/>
<path d="M221.5 243.3H208.6V257.9H221.5V243.3Z" fill="#152036" stroke="#263238" stroke-linejoin="round"/>
<path d="M234.5 243.3H221.6V257.9H234.5V243.3Z" fill="#152036" stroke="#263238" stroke-linejoin="round"/>
<path d="M247.6 243.3H234.7V257.9H247.6V243.3Z" fill="#152036" stroke="#263238" stroke-linejoin="round"/>
<path d="M260.7 243.3H247.8V257.9H260.7V243.3Z" fill="#152036" stroke="#263238" stroke-linejoin="round"/>
<path d="M273.8 243.3H260.9V257.9H273.8V243.3Z" fill="#152036" stroke="#263238" stroke-linejoin="round"/>
<path d="M286.9 243.3H274V257.9H286.9V243.3Z" fill="#263238"/>
<path d="M300 243.3H287.1V257.9H300V243.3Z" fill="white" stroke="#263238" stroke-linejoin="round"/>
<path d="M313.1 243.3H300.2V257.9H313.1V243.3Z" fill="white" stroke="#263238" stroke-linejoin="round"/>
<path d="M171 228.3H158.1V242.9H171V228.3Z" fill="#152036" stroke="#263238" stroke-linejoin="round"/>
<path d="M184 228.3H171.1V242.9H184V228.3Z" fill="#152036" stroke="#263238" stroke-linejoin="round"/>
<path d="M197.1 228.3H184.2V242.9H197.1V228.3Z" fill="#333333" stroke="#263238" stroke-linejoin="round"/>
<path d="M210.2 228.3H197.3V242.9H210.2V228.3Z" fill="#7D7D7D" stroke="#263238" stroke-linejoin="round"/>
<path d="M223.3 228.3H210.4V242.9H223.3V228.3Z" fill="#152036" stroke="#263238" stroke-linejoin="round"/>
<path d="M236.4 228.3H223.5V242.9H236.4V228.3Z" fill="#152036" stroke="#263238" stroke-linejoin="round"/>
<path d="M249.5 228.3H236.6V242.9H249.5V228.3Z" fill="#152036" stroke="#263238" stroke-linejoin="round"/>
<path d="M262.6 228.3H249.7V242.9H262.6V228.3Z" fill="#152036" stroke="#263238" stroke-linejoin="round"/>
<path d="M275.7 228.3H262.8V242.9H275.7V228.3Z" fill="#152036" stroke="#263238" stroke-linejoin="round"/>
<path d="M288.7 228.3H275.8V242.9H288.7V228.3Z" fill="#263238"/>
<path d="M301.8 228.3H288.9V242.9H301.8V228.3Z" fill="white" stroke="#263238" stroke-linejoin="round"/>
<path d="M314.9 228.3H302V242.9H314.9V228.3Z" fill="white" stroke="#263238" stroke-linejoin="round"/>
<path d="M169.1 213.3H156.2V227.9H169.1V213.3Z" fill="#152036" stroke="#263238" stroke-linejoin="round"/>
<path d="M182.2 213.3H169.3V227.9H182.2V213.3Z" fill="#152036" stroke="#263238" stroke-linejoin="round"/>
<path d="M195.3 213.3H182.4V227.9H195.3V213.3Z" fill="#333333" stroke="#263238" stroke-linejoin="round"/>
<path d="M208.4 213.3H195.5V227.9H208.4V213.3Z" fill="#7D7D7D" stroke="#263238" stroke-linejoin="round"/>
<path d="M221.5 213.3H208.6V227.9H221.5V213.3Z" fill="#152036" stroke="#263238" stroke-linejoin="round"/>
<path d="M234.5 213.3H221.6V227.9H234.5V213.3Z" fill="#152036" stroke="#263238" stroke-linejoin="round"/>
<path d="M247.6 213.3H234.7V227.9H247.6V213.3Z" fill="#152036" stroke="#263238" stroke-linejoin="round"/>
<path d="M260.7 213.3H247.8V227.9H260.7V213.3Z" fill="#152036" stroke="#263238" stroke-linejoin="round"/>
<path d="M273.8 213.3H260.9V227.9H273.8V213.3Z" fill="#152036" stroke="#263238" stroke-linejoin="round"/>
<path d="M286.9 213.3H274V227.9H286.9V213.3Z" fill="#263238"/>
<path d="M300 213.3H287.1V227.9H300V213.3Z" fill="white" stroke="#263238" stroke-linejoin="round"/>
<path d="M313.1 213.3H300.2V227.9H313.1V213.3Z" fill="white" stroke="#263238" stroke-linejoin="round"/>
<path d="M171.3 198.3H158.4V212.9H171.3V198.3Z" fill="#152036" stroke="#263238" stroke-linejoin="round"/>
<path d="M184.4 198.3H171.5V212.9H184.4V198.3Z" fill="#152036" stroke="#263238" stroke-linejoin="round"/>
<path d="M197.5 198.3H184.6V212.9H197.5V198.3Z" fill="#333333" stroke="#263238" stroke-linejoin="round"/>
<path d="M210.6 198.3H197.7V212.9H210.6V198.3Z" fill="#7D7D7D" stroke="#263238" stroke-linejoin="round"/>
<path d="M223.7 198.3H210.8V212.9H223.7V198.3Z" fill="#152036" stroke="#263238" stroke-linejoin="round"/>
<path d="M236.7 198.3H223.8V212.9H236.7V198.3Z" fill="#152036" stroke="#263238" stroke-linejoin="round"/>
<path d="M249.8 198.3H236.9V212.9H249.8V198.3Z" fill="#152036" stroke="#263238" stroke-linejoin="round"/>
<path d="M262.9 198.3H250V212.9H262.9V198.3Z" fill="#152036" stroke="#263238" stroke-linejoin="round"/>
<path d="M276 198.3H263.1V212.9H276V198.3Z" fill="#152036" stroke="#263238" stroke-linejoin="round"/>
<path d="M289.1 198.3H276.2V212.9H289.1V198.3Z" fill="#263238"/>
<path d="M302.2 198.3H289.3V212.9H302.2V198.3Z" fill="white" stroke="#263238" stroke-linejoin="round"/>
<path d="M315.3 198.3H302.4V212.9H315.3V198.3Z" fill="white" stroke="#263238" stroke-linejoin="round"/>
<path d="M163.8 183.3H150.9V197.9H163.8V183.3Z" fill="#152036" stroke="#263238" stroke-linejoin="round"/>
<path d="M176.9 183.3H164V197.9H176.9V183.3Z" fill="#152036" stroke="#263238" stroke-linejoin="round"/>
<path d="M190 183.3H177.1V197.9H190V183.3Z" fill="#333333" stroke="#263238" stroke-linejoin="round"/>
<path d="M203.1 183.3H190.2V197.9H203.1V183.3Z" fill="#7D7D7D" stroke="#263238" stroke-linejoin="round"/>
<path d="M216.1 183.3H203.2V197.9H216.1V183.3Z" fill="#152036" stroke="#263238" stroke-linejoin="round"/>
<path d="M229.2 183.3H216.3V197.9H229.2V183.3Z" fill="#152036" stroke="#263238" stroke-linejoin="round"/>
<path d="M242.3 183.3H229.4V197.9H242.3V183.3Z" fill="#152036" stroke="#263238" stroke-linejoin="round"/>
<path d="M255.4 183.3H242.5V197.9H255.4V183.3Z" fill="#152036" stroke="#263238" stroke-linejoin="round"/>
<path d="M268.5 183.3H255.6V197.9H268.5V183.3Z" fill="#152036" stroke="#263238" stroke-linejoin="round"/>
<path d="M281.6 183.3H268.7V197.9H281.6V183.3Z" fill="#263238"/>
<path d="M294.7 183.3H281.8V197.9H294.7V183.3Z" fill="white" stroke="#263238" stroke-linejoin="round"/>
<path d="M307.8 183.3H294.9V197.9H307.8V183.3Z" fill="white" stroke="#263238" stroke-linejoin="round"/>
<path d="M170 168H157.1V182.6H170V168Z" fill="#152036" stroke="#263238" stroke-linejoin="round"/>
<path d="M183.1 168H170.2V182.6H183.1V168Z" fill="#152036" stroke="#263238" stroke-linejoin="round"/>
<path d="M196.2 168H183.3V182.6H196.2V168Z" fill="#333333" stroke="#263238" stroke-linejoin="round"/>
<path d="M209.3 168H196.4V182.6H209.3V168Z" fill="#7D7D7D" stroke="#263238" stroke-linejoin="round"/>
<path d="M222.3 168H209.4V182.6H222.3V168Z" fill="#152036" stroke="#263238" stroke-linejoin="round"/>
<path d="M235.4 168H222.5V182.6H235.4V168Z" fill="#152036" stroke="#263238" stroke-linejoin="round"/>
<path d="M248.5 168H235.6V182.6H248.5V168Z" fill="#152036" stroke="#263238" stroke-linejoin="round"/>
<path d="M261.6 168H248.7V182.6H261.6V168Z" fill="#152036" stroke="#263238" stroke-linejoin="round"/>
<path d="M274.7 168H261.8V182.6H274.7V168Z" fill="#152036" stroke="#263238" stroke-linejoin="round"/>
<path d="M287.8 168H274.9V182.6H287.8V168Z" fill="#263238"/>
<path d="M300.9 168H288V182.6H300.9V168Z" fill="#152036" stroke="#263238" stroke-linejoin="round"/>
<path d="M314 168H301.1V182.6H314V168Z" fill="#152036" stroke="#263238" stroke-linejoin="round"/>
<path d="M169.1 153H156.2V167.6H169.1V153Z" fill="#152036" stroke="#263238" stroke-linejoin="round"/>
<path d="M182.2 153H169.3V167.6H182.2V153Z" fill="#152036" stroke="#263238" stroke-linejoin="round"/>
<path d="M195.3 153H182.4V167.6H195.3V153Z" fill="#333333" stroke="#263238" stroke-linejoin="round"/>
<path d="M208.4 153H195.5V167.6H208.4V153Z" fill="#7D7D7D" stroke="#263238" stroke-linejoin="round"/>
<path d="M221.5 153H208.6V167.6H221.5V153Z" fill="#152036" stroke="#263238" stroke-linejoin="round"/>
<path d="M234.5 153H221.6V167.6H234.5V153Z" fill="#152036" stroke="#263238" stroke-linejoin="round"/>
<path d="M247.6 153H234.7V167.6H247.6V153Z" fill="#152036" stroke="#263238" stroke-linejoin="round"/>
<path d="M260.7 153H247.8V167.6H260.7V153Z" fill="#152036" stroke="#263238" stroke-linejoin="round"/>
<path d="M273.8 153H260.9V167.6H273.8V153Z" fill="#152036" stroke="#263238" stroke-linejoin="round"/>
<path d="M286.9 153H274V167.6H286.9V153Z" fill="#263238"/>
<path d="M300 153H287.1V167.6H300V153Z" fill="#152036" stroke="#263238" stroke-linejoin="round"/>
<path d="M313.1 153H300.2V167.6H313.1V153Z" fill="#152036" stroke="#263238" stroke-linejoin="round"/>
<path d="M171 138H158.1V152.6H171V138Z" fill="#152036" stroke="#263238" stroke-linejoin="round"/>
<path d="M184 138H171.1V152.6H184V138Z" fill="#152036" stroke="#263238" stroke-linejoin="round"/>
<path d="M197.1 138H184.2V152.6H197.1V138Z" fill="#333333" stroke="#263238" stroke-linejoin="round"/>
<path d="M210.2 138H197.3V152.6H210.2V138Z" fill="#7D7D7D" stroke="#263238" stroke-linejoin="round"/>
<path d="M223.3 138H210.4V152.6H223.3V138Z" fill="#152036" stroke="#263238" stroke-linejoin="round"/>
<path d="M236.4 138H223.5V152.6H236.4V138Z" fill="#152036" stroke="#263238" stroke-linejoin="round"/>
<path d="M249.5 138H236.6V152.6H249.5V138Z" fill="#152036" stroke="#263238" stroke-linejoin="round"/>
<path d="M262.6 138H249.7V152.6H262.6V138Z" fill="#152036" stroke="#263238" stroke-linejoin="round"/>
<path d="M275.7 138H262.8V152.6H275.7V138Z" fill="#152036" stroke="#263238" stroke-linejoin="round"/>
<path d="M288.7 138H275.8V152.6H288.7V138Z" fill="#263238"/>
<path d="M301.8 138H288.9V152.6H301.8V138Z" fill="#152036" stroke="#263238" stroke-linejoin="round"/>
<path d="M314.9 138H302V152.6H314.9V138Z" fill="#152036" stroke="#263238" stroke-linejoin="round"/>
<path d="M169.1 123H156.2V137.6H169.1V123Z" fill="#152036" stroke="#263238" stroke-linejoin="round"/>
<path d="M182.2 123H169.3V137.6H182.2V123Z" fill="#152036" stroke="#263238" stroke-linejoin="round"/>
<path d="M195.3 123H182.4V137.6H195.3V123Z" fill="#333333" stroke="#263238" stroke-linejoin="round"/>
<path d="M208.4 123H195.5V137.6H208.4V123Z" fill="#7D7D7D" stroke="#263238" stroke-linejoin="round"/>
<path d="M221.5 123H208.6V137.6H221.5V123Z" fill="#152036" stroke="#263238" stroke-linejoin="round"/>
<path d="M234.5 123H221.6V137.6H234.5V123Z" fill="#152036" stroke="#263238" stroke-linejoin="round"/>
<path d="M247.6 123H234.7V137.6H247.6V123Z" fill="#152036" stroke="#263238" stroke-linejoin="round"/>
<path d="M260.7 123H247.8V137.6H260.7V123Z" fill="#152036" stroke="#263238" stroke-linejoin="round"/>
<path d="M273.8 123H260.9V137.6H273.8V123Z" fill="#152036" stroke="#263238" stroke-linejoin="round"/>
<path d="M286.9 123H274V137.6H286.9V123Z" fill="#263238"/>
<path d="M300 123H287.1V137.6H300V123Z" fill="#152036" stroke="#263238" stroke-linejoin="round"/>
<path d="M313.1 123H300.2V137.6H313.1V123Z" fill="#152036" stroke="#263238" stroke-linejoin="round"/>
<path d="M171.3 108H158.4V122.6H171.3V108Z" fill="#152036" stroke="#263238" stroke-linejoin="round"/>
<path d="M184.4 108H171.5V122.6H184.4V108Z" fill="#152036" stroke="#263238" stroke-linejoin="round"/>
<path d="M197.5 108H184.6V122.6H197.5V108Z" fill="#333333" stroke="#263238" stroke-linejoin="round"/>
<path d="M210.6 108H197.7V122.6H210.6V108Z" fill="#7D7D7D" stroke="#263238" stroke-linejoin="round"/>
<path d="M223.7 108H210.8V122.6H223.7V108Z" fill="#152036" stroke="#263238" stroke-linejoin="round"/>
<path d="M236.7 108H223.8V122.6H236.7V108Z" fill="#152036" stroke="#263238" stroke-linejoin="round"/>
<path d="M249.8 108H236.9V122.6H249.8V108Z" fill="#152036" stroke="#263238" stroke-linejoin="round"/>
<path d="M262.9 108H250V122.6H262.9V108Z" fill="#152036" stroke="#263238" stroke-linejoin="round"/>
<path d="M276 108H263.1V122.6H276V108Z" fill="#152036" stroke="#263238" stroke-linejoin="round"/>
<path d="M289.1 108H276.2V122.6H289.1V108Z" fill="#263238"/>
<path d="M302.2 108H289.3V122.6H302.2V108Z" fill="#152036" stroke="#263238" stroke-linejoin="round"/>
<path d="M315.3 108H302.4V122.6H315.3V108Z" fill="#152036" stroke="#263238" stroke-linejoin="round"/>
<path d="M163.8 93H150.9V107.6H163.8V93Z" fill="#152036" stroke="#263238" stroke-linejoin="round"/>
<path d="M176.9 93H164V107.6H176.9V93Z" fill="#152036" stroke="#263238" stroke-linejoin="round"/>
<path d="M190 93H177.1V107.6H190V93Z" fill="#333333" stroke="#263238" stroke-linejoin="round"/>
<path d="M203.1 93H190.2V107.6H203.1V93Z" fill="#7D7D7D" stroke="#263238" stroke-linejoin="round"/>
<path d="M216.1 93H203.2V107.6H216.1V93Z" fill="#152036" stroke="#263238" stroke-linejoin="round"/>
<path d="M229.2 93H216.3V107.6H229.2V93Z" fill="#152036" stroke="#263238" stroke-linejoin="round"/>
<path d="M242.3 93H229.4V107.6H242.3V93Z" fill="#152036" stroke="#263238" stroke-linejoin="round"/>
<path d="M255.4 93H242.5V107.6H255.4V93Z" fill="#152036" stroke="#263238" stroke-linejoin="round"/>
<path d="M268.5 93H255.6V107.6H268.5V93Z" fill="#152036" stroke="#263238" stroke-linejoin="round"/>
<path d="M281.6 93H268.7V107.6H281.6V93Z" fill="#263238"/>
<path d="M294.7 93H281.8V107.6H294.7V93Z" fill="#152036" stroke="#263238" stroke-linejoin="round"/>
<path d="M307.8 93H294.9V107.6H307.8V93Z" fill="#152036" stroke="#263238" stroke-linejoin="round"/>
<path d="M269.4 438.4H256.5V453H269.4V438.4Z" fill="#E8E8E8" stroke="#263238" stroke-linejoin="round"/>
<path d="M282.5 438.4H269.6V453H282.5V438.4Z" fill="#CFCFCF" stroke="#263238" stroke-linejoin="round"/>
<path d="M295.6 438.4H282.7V453H295.6V438.4Z" fill="#333333" stroke="#263238" stroke-linejoin="round"/>
<path d="M308.7 438.4H295.8V453H308.7V438.4Z" fill="#7D7D7D" stroke="#263238" stroke-linejoin="round"/>
<path d="M321.7 438.4H308.8V453H321.7V438.4Z" fill="#D4D4D4" stroke="#263238" stroke-linejoin="round"/>
<path d="M334.8 438.4H321.9V453H334.8V438.4Z" fill="#152036" stroke="#263238" stroke-linejoin="round"/>
<path d="M347.9 438.4H335V453H347.9V438.4Z" fill="#152036" stroke="#263238" stroke-linejoin="round"/>
<path d="M361 438.4H348.1V453H361V438.4Z" fill="#152036" stroke="#263238" stroke-linejoin="round"/>
<path d="M374.1 438.4H361.2V453H374.1V438.4Z" fill="#152036" stroke="#263238" stroke-linejoin="round"/>
<path d="M387.2 438.4H374.3V453H387.2V438.4Z" fill="#263238"/>
<path d="M400.3 438.4H387.4V453H400.3V438.4Z" fill="#152036" stroke="#263238" stroke-linejoin="round"/>
<path d="M413.4 438.4H400.5V453H413.4V438.4Z" fill="#152036" stroke="#263238" stroke-linejoin="round"/>
<path d="M278.7 423.4H265.8V438H278.7V423.4Z" fill="#E8E8E8" stroke="#263238" stroke-linejoin="round"/>
<path d="M291.8 423.4H278.9V438H291.8V423.4Z" fill="#CFCFCF" stroke="#263238" stroke-linejoin="round"/>
<path d="M304.9 423.4H292V438H304.9V423.4Z" fill="#333333" stroke="#263238" stroke-linejoin="round"/>
<path d="M318 423.4H305.1V438H318V423.4Z" fill="#7D7D7D" stroke="#263238" stroke-linejoin="round"/>
<path d="M331 423.4H318.1V438H331V423.4Z" fill="#D4D4D4" stroke="#263238" stroke-linejoin="round"/>
<path d="M344.1 423.4H331.2V438H344.1V423.4Z" fill="#152036" stroke="#263238" stroke-linejoin="round"/>
<path d="M357.2 423.4H344.3V438H357.2V423.4Z" fill="#152036" stroke="#263238" stroke-linejoin="round"/>
<path d="M370.3 423.4H357.4V438H370.3V423.4Z" fill="#152036" stroke="#263238" stroke-linejoin="round"/>
<path d="M383.4 423.4H370.5V438H383.4V423.4Z" fill="#152036" stroke="#263238" stroke-linejoin="round"/>
<path d="M396.5 423.4H383.6V438H396.5V423.4Z" fill="#263238"/>
<path d="M409.6 423.4H396.7V438H409.6V423.4Z" fill="#152036" stroke="#263238" stroke-linejoin="round"/>
<path d="M422.7 423.4H409.8V438H422.7V423.4Z" fill="#152036" stroke="#263238" stroke-linejoin="round"/>
<path d="M278 408.4H265.1V423H278V408.4Z" fill="#E8E8E8" stroke="#263238" stroke-linejoin="round"/>
<path d="M291.1 408.4H278.2V423H291.1V408.4Z" fill="#CFCFCF" stroke="#263238" stroke-linejoin="round"/>
<path d="M304.2 408.4H291.3V423H304.2V408.4Z" fill="#333333" stroke="#263238" stroke-linejoin="round"/>
<path d="M317.3 408.4H304.4V423H317.3V408.4Z" fill="#7D7D7D" stroke="#263238" stroke-linejoin="round"/>
<path d="M330.4 408.4H317.5V423H330.4V408.4Z" fill="#D4D4D4" stroke="#263238" stroke-linejoin="round"/>
<path d="M343.5 408.4H330.6V423H343.5V408.4Z" fill="#152036" stroke="#263238" stroke-linejoin="round"/>
<path d="M356.6 408.4H343.7V423H356.6V408.4Z" fill="#152036" stroke="#263238" stroke-linejoin="round"/>
<path d="M369.6 408.4H356.7V423H369.6V408.4Z" fill="#152036" stroke="#263238" stroke-linejoin="round"/>
<path d="M382.7 408.4H369.8V423H382.7V408.4Z" fill="#152036" stroke="#263238" stroke-linejoin="round"/>
<path d="M395.8 408.4H382.9V423H395.8V408.4Z" fill="#263238"/>
<path d="M408.9 408.4H396V423H408.9V408.4Z" fill="#152036" stroke="#263238" stroke-linejoin="round"/>
<path d="M422 408.4H409.1V423H422V408.4Z" fill="#152036" stroke="#263238" stroke-linejoin="round"/>
<path d="M277.4 393.4H264.5V408H277.4V393.4Z" fill="#E8E8E8" stroke="#263238" stroke-linejoin="round"/>
<path d="M290.4 393.4H277.5V408H290.4V393.4Z" fill="#CFCFCF" stroke="#263238" stroke-linejoin="round"/>
<path d="M303.5 393.4H290.6V408H303.5V393.4Z" fill="#333333" stroke="#263238" stroke-linejoin="round"/>
<path d="M316.6 393.4H303.7V408H316.6V393.4Z" fill="#7D7D7D" stroke="#263238" stroke-linejoin="round"/>
<path d="M329.7 393.4H316.8V408H329.7V393.4Z" fill="#D4D4D4" stroke="#263238" stroke-linejoin="round"/>
<path d="M342.8 393.4H329.9V408H342.8V393.4Z" fill="#152036" stroke="#263238" stroke-linejoin="round"/>
<path d="M355.9 393.4H343V408H355.9V393.4Z" fill="#152036" stroke="#263238" stroke-linejoin="round"/>
<path d="M369 393.4H356.1V408H369V393.4Z" fill="#152036" stroke="#263238" stroke-linejoin="round"/>
<path d="M382.1 393.4H369.2V408H382.1V393.4Z" fill="#152036" stroke="#263238" stroke-linejoin="round"/>
<path d="M395.1 393.4H382.2V408H395.1V393.4Z" fill="#263238"/>
<path d="M408.2 393.4H395.3V408H408.2V393.4Z" fill="#152036" stroke="#263238" stroke-linejoin="round"/>
<path d="M421.3 393.4H408.4V408H421.3V393.4Z" fill="#152036" stroke="#263238" stroke-linejoin="round"/>
<path d="M266.1 378.4H253.2V393H266.1V378.4Z" fill="#E8E8E8" stroke="#263238" stroke-linejoin="round"/>
<path d="M279.1 378.4H266.2V393H279.1V378.4Z" fill="#CFCFCF" stroke="#263238" stroke-linejoin="round"/>
<path d="M292.2 378.4H279.3V393H292.2V378.4Z" fill="#333333" stroke="#263238" stroke-linejoin="round"/>
<path d="M305.3 378.4H292.4V393H305.3V378.4Z" fill="#7D7D7D" stroke="#263238" stroke-linejoin="round"/>
<path d="M318.4 378.4H305.5V393H318.4V378.4Z" fill="#D4D4D4" stroke="#263238" stroke-linejoin="round"/>
<path d="M331.5 378.4H318.6V393H331.5V378.4Z" fill="#CFCFCF" stroke="#263238" stroke-linejoin="round"/>
<path d="M344.6 378.4H331.7V393H344.6V378.4Z" fill="#152036" stroke="#263238" stroke-linejoin="round"/>
<path d="M357.7 378.4H344.8V393H357.7V378.4Z" fill="#152036" stroke="#263238" stroke-linejoin="round"/>
<path d="M370.8 378.4H357.9V393H370.8V378.4Z" fill="#152036" stroke="#263238" stroke-linejoin="round"/>
<path d="M383.9 378.4H371V393H383.9V378.4Z" fill="#263238"/>
<path d="M396.9 378.4H384V393H396.9V378.4Z" fill="#152036" stroke="#263238" stroke-linejoin="round"/>
<path d="M410 378.4H397.1V393H410V378.4Z" fill="#152036" stroke="#263238" stroke-linejoin="round"/>
<path d="M267.4 363.4H254.5V378H267.4V363.4Z" fill="#E8E8E8" stroke="#263238" stroke-linejoin="round"/>
<path d="M280.5 363.4H267.6V378H280.5V363.4Z" fill="#CFCFCF" stroke="#263238" stroke-linejoin="round"/>
<path d="M293.6 363.4H280.7V378H293.6V363.4Z" fill="#333333" stroke="#263238" stroke-linejoin="round"/>
<path d="M306.7 363.4H293.8V378H306.7V363.4Z" fill="#7D7D7D" stroke="#263238" stroke-linejoin="round"/>
<path d="M319.7 363.4H306.8V378H319.7V363.4Z" fill="#D4D4D4" stroke="#263238" stroke-linejoin="round"/>
<path d="M332.8 363.4H319.9V378H332.8V363.4Z" fill="#CFCFCF" stroke="#263238" stroke-linejoin="round"/>
<path d="M345.9 363.4H333V378H345.9V363.4Z" fill="#152036" stroke="#263238" stroke-linejoin="round"/>
<path d="M359 363.4H346.1V378H359V363.4Z" fill="#152036" stroke="#263238" stroke-linejoin="round"/>
<path d="M372.1 363.4H359.2V378H372.1V363.4Z" fill="#152036" stroke="#263238" stroke-linejoin="round"/>
<path d="M385.2 363.4H372.3V378H385.2V363.4Z" fill="#263238"/>
<path d="M398.3 363.4H385.4V378H398.3V363.4Z" fill="#152036" stroke="#263238" stroke-linejoin="round"/>
<path d="M411.4 363.4H398.5V378H411.4V363.4Z" fill="#152036" stroke="#263238" stroke-linejoin="round"/>
<path d="M282.7 348.4H269.8V363H282.7V348.4Z" fill="#E8E8E8" stroke="#263238" stroke-linejoin="round"/>
<path d="M295.8 348.4H282.9V363H295.8V348.4Z" fill="#CFCFCF" stroke="#263238" stroke-linejoin="round"/>
<path d="M308.9 348.4H296V363H308.9V348.4Z" fill="#333333" stroke="#263238" stroke-linejoin="round"/>
<path d="M321.9 348.4H309V363H321.9V348.4Z" fill="#7D7D7D" stroke="#263238" stroke-linejoin="round"/>
<path d="M335 348.4H322.1V363H335V348.4Z" fill="#D4D4D4" stroke="#263238" stroke-linejoin="round"/>
<path d="M348.1 348.4H335.2V363H348.1V348.4Z" fill="#152036" stroke="#263238" stroke-linejoin="round"/>
<path d="M361.2 348.4H348.3V363H361.2V348.4Z" fill="#152036" stroke="#263238" stroke-linejoin="round"/>
<path d="M374.3 348.4H361.4V363H374.3V348.4Z" fill="#152036" stroke="#263238" stroke-linejoin="round"/>
<path d="M387.4 348.4H374.5V363H387.4V348.4Z" fill="#152036" stroke="#263238" stroke-linejoin="round"/>
<path d="M400.5 348.4H387.6V363H400.5V348.4Z" fill="#263238"/>
<path d="M413.6 348.4H400.7V363H413.6V348.4Z" fill="#152036" stroke="#263238" stroke-linejoin="round"/>
<path d="M426.7 348.4H413.8V363H426.7V348.4Z" fill="#152036" stroke="#263238" stroke-linejoin="round"/>
<path d="M264.7 333.4H251.8V348H264.7V333.4Z" fill="#E8E8E8" stroke="#263238" stroke-linejoin="round"/>
<path d="M277.8 333.4H264.9V348H277.8V333.4Z" fill="#CFCFCF" stroke="#263238" stroke-linejoin="round"/>
<path d="M290.9 333.4H278V348H290.9V333.4Z" fill="#333333" stroke="#263238" stroke-linejoin="round"/>
<path d="M304 333.4H291.1V348H304V333.4Z" fill="#7D7D7D" stroke="#263238" stroke-linejoin="round"/>
<path d="M317.1 333.4H304.2V348H317.1V333.4Z" fill="#D4D4D4" stroke="#263238" stroke-linejoin="round"/>
<path d="M330.2 333.4H317.3V348H330.2V333.4Z" fill="#CFCFCF" stroke="#263238" stroke-linejoin="round"/>
<path d="M343.3 333.4H330.4V348H343.3V333.4Z" fill="#152036" stroke="#263238" stroke-linejoin="round"/>
<path d="M356.4 333.4H343.5V348H356.4V333.4Z" fill="#152036" stroke="#263238" stroke-linejoin="round"/>
<path d="M369.4 333.4H356.5V348H369.4V333.4Z" fill="#152036" stroke="#263238" stroke-linejoin="round"/>
<path d="M382.5 333.4H369.6V348H382.5V333.4Z" fill="#152036" stroke="#263238" stroke-linejoin="round"/>
<path d="M395.6 333.4H382.7V348H395.6V333.4Z" fill="#263238"/>
<path d="M408.7 333.4H395.8V348H408.7V333.4Z" fill="#152036" stroke="#263238" stroke-linejoin="round"/>
<path d="M281.4 318.4H268.5V333H281.4V318.4Z" fill="#E8E8E8" stroke="#263238" stroke-linejoin="round"/>
<path d="M294.4 318.4H281.5V333H294.4V318.4Z" fill="#CFCFCF" stroke="#263238" stroke-linejoin="round"/>
<path d="M307.5 318.4H294.6V333H307.5V318.4Z" fill="#333333" stroke="#263238" stroke-linejoin="round"/>
<path d="M320.6 318.4H307.7V333H320.6V318.4Z" fill="#7D7D7D" stroke="#263238" stroke-linejoin="round"/>
<path d="M333.7 318.4H320.8V333H333.7V318.4Z" fill="#D4D4D4" stroke="#263238" stroke-linejoin="round"/>
<path d="M346.8 318.4H333.9V333H346.8V318.4Z" fill="#152036" stroke="#263238" stroke-linejoin="round"/>
<path d="M359.9 318.4H347V333H359.9V318.4Z" fill="#152036" stroke="#263238" stroke-linejoin="round"/>
<path d="M373 318.4H360.1V333H373V318.4Z" fill="#152036" stroke="#263238" stroke-linejoin="round"/>
<path d="M386.1 318.4H373.2V333H386.1V318.4Z" fill="#152036" stroke="#263238" stroke-linejoin="round"/>
<path d="M399.1 318.4H386.2V333H399.1V318.4Z" fill="#263238"/>
<path d="M412.2 318.4H399.3V333H412.2V318.4Z" fill="#152036" stroke="#263238" stroke-linejoin="round"/>
<path d="M425.3 318.4H412.4V333H425.3V318.4Z" fill="white" stroke="#263238" stroke-linejoin="round"/>
<path d="M282.7 303.4H269.8V318H282.7V303.4Z" fill="#E8E8E8" stroke="#263238" stroke-linejoin="round"/>
<path d="M295.8 303.4H282.9V318H295.8V303.4Z" fill="#CFCFCF" stroke="#263238" stroke-linejoin="round"/>
<path d="M308.9 303.4H296V318H308.9V303.4Z" fill="#333333" stroke="#263238" stroke-linejoin="round"/>
<path d="M321.9 303.4H309V318H321.9V303.4Z" fill="#7D7D7D" stroke="#263238" stroke-linejoin="round"/>
<path d="M335 303.4H322.1V318H335V303.4Z" fill="#152036" stroke="#263238" stroke-linejoin="round"/>
<path d="M348.1 303.4H335.2V318H348.1V303.4Z" fill="#152036" stroke="#263238" stroke-linejoin="round"/>
<path d="M361.2 303.4H348.3V318H361.2V303.4Z" fill="#152036" stroke="#263238" stroke-linejoin="round"/>
<path d="M374.3 303.4H361.4V318H374.3V303.4Z" fill="#152036" stroke="#263238" stroke-linejoin="round"/>
<path d="M387.4 303.4H374.5V318H387.4V303.4Z" fill="#152036" stroke="#263238" stroke-linejoin="round"/>
<path d="M400.5 303.4H387.6V318H400.5V303.4Z" fill="#263238"/>
<path d="M413.6 303.4H400.7V318H413.6V303.4Z" fill="#152036" stroke="#263238" stroke-linejoin="round"/>
<path d="M426.7 303.4H413.8V318H426.7V303.4Z" fill="white" stroke="#263238" stroke-linejoin="round"/>
<path d="M269.4 288.4H256.5V303H269.4V288.4Z" fill="#152036" stroke="#263238" stroke-linejoin="round"/>
<path d="M282.5 288.4H269.6V303H282.5V288.4Z" fill="#CFCFCF" stroke="#263238" stroke-linejoin="round"/>
<path d="M295.6 288.4H282.7V303H295.6V288.4Z" fill="#333333" stroke="#263238" stroke-linejoin="round"/>
<path d="M308.7 288.4H295.8V303H308.7V288.4Z" fill="#7D7D7D" stroke="#263238" stroke-linejoin="round"/>
<path d="M321.7 288.4H308.8V303H321.7V288.4Z" fill="#152036" stroke="#263238" stroke-linejoin="round"/>
<path d="M334.8 288.4H321.9V303H334.8V288.4Z" fill="#152036" stroke="#263238" stroke-linejoin="round"/>
<path d="M347.9 258H335V272.6H347.9V258Z" fill="#152036" stroke="#263238" stroke-linejoin="round"/>
<path d="M361 288.4H348.1V303H361V288.4Z" fill="#152036" stroke="#263238" stroke-linejoin="round"/>
<path d="M374.1 288.4H361.2V303H374.1V288.4Z" fill="#152036" stroke="#263238" stroke-linejoin="round"/>
<path d="M387.2 288.4H374.3V303H387.2V288.4Z" fill="#263238"/>
<path d="M400.3 288.4H387.4V303H400.3V288.4Z" fill="#152036" stroke="#263238" stroke-linejoin="round"/>
<path d="M413.4 288.4H400.5V303H413.4V288.4Z" fill="#152036" stroke="#263238" stroke-linejoin="round"/>
<path d="M284 273.4H271.1V288H284V273.4Z" fill="#152036" stroke="#263238" stroke-linejoin="round"/>
<path d="M297.1 273.4H284.2V288H297.1V273.4Z" fill="#152036" stroke="#263238" stroke-linejoin="round"/>
<path d="M310.2 273.4H297.3V288H310.2V273.4Z" fill="#333333" stroke="#263238" stroke-linejoin="round"/>
<path d="M323.3 273.4H310.4V288H323.3V273.4Z" fill="#7D7D7D" stroke="#263238" stroke-linejoin="round"/>
<path d="M336.4 273.4H323.5V288H336.4V273.4Z" fill="#152036" stroke="#263238" stroke-linejoin="round"/>
<path d="M347.9 228H335V242.6H347.9V228Z" fill="#152036" stroke="#263238" stroke-linejoin="round"/>
<path d="M362.5 273.4H349.6V288H362.5V273.4Z" fill="#152036" stroke="#263238" stroke-linejoin="round"/>
<path d="M375.6 273.4H362.7V288H375.6V273.4Z" fill="#152036" stroke="#263238" stroke-linejoin="round"/>
<path d="M388.7 273.4H375.8V288H388.7V273.4Z" fill="#152036" stroke="#263238" stroke-linejoin="round"/>
<path d="M401.8 273.4H388.9V288H401.8V273.4Z" fill="#263238"/>
<path d="M414.9 273.4H402V288H414.9V273.4Z" fill="#152036" stroke="#263238" stroke-linejoin="round"/>
<path d="M428 273.4H415.1V288H428V273.4Z" fill="white" stroke="#263238" stroke-linejoin="round"/>
<path d="M280.9 258.4H268V273H280.9V258.4Z" fill="#152036" stroke="#263238" stroke-linejoin="round"/>
<path d="M294 258.4H281.1V273H294V258.4Z" fill="#152036" stroke="#263238" stroke-linejoin="round"/>
<path d="M307.1 258.4H294.2V273H307.1V258.4Z" fill="#333333" stroke="#263238" stroke-linejoin="round"/>
<path d="M320.2 258.4H307.3V273H320.2V258.4Z" fill="#7D7D7D" stroke="#263238" stroke-linejoin="round"/>
<path d="M333.3 258.4H320.4V273H333.3V258.4Z" fill="#152036" stroke="#263238" stroke-linejoin="round"/>
<path d="M339.9 258H327V272.6H339.9V258Z" fill="#152036" stroke="#263238" stroke-linejoin="round"/>
<path d="M359.4 258.4H346.5V273H359.4V258.4Z" fill="#152036" stroke="#263238" stroke-linejoin="round"/>
<path d="M372.5 258.4H359.6V273H372.5V258.4Z" fill="#152036" stroke="#263238" stroke-linejoin="round"/>
<path d="M385.6 258.4H372.7V273H385.6V258.4Z" fill="#152036" stroke="#263238" stroke-linejoin="round"/>
<path d="M398.7 258.4H385.8V273H398.7V258.4Z" fill="#263238"/>
<path d="M411.8 258.4H398.9V273H411.8V258.4Z" fill="#152036" stroke="#263238" stroke-linejoin="round"/>
<path d="M424.9 258.4H412V273H424.9V258.4Z" fill="white" stroke="#263238" stroke-linejoin="round"/>
<path d="M280 243.3H267.1V257.9H280V243.3Z" fill="#152036" stroke="#263238" stroke-linejoin="round"/>
<path d="M293.1 243.3H280.2V257.9H293.1V243.3Z" fill="#152036" stroke="#263238" stroke-linejoin="round"/>
<path d="M306.2 243.3H293.3V257.9H306.2V243.3Z" fill="#333333" stroke="#263238" stroke-linejoin="round"/>
<path d="M319.3 243.3H306.4V257.9H319.3V243.3Z" fill="#7D7D7D" stroke="#263238" stroke-linejoin="round"/>
<path d="M332.4 243.3H319.5V257.9H332.4V243.3Z" fill="#152036" stroke="#263238" stroke-linejoin="round"/>
<path d="M345.5 243.3H332.6V257.9H345.5V243.3Z" fill="#152036" stroke="#263238" stroke-linejoin="round"/>
<path d="M358.5 243.3H345.6V257.9H358.5V243.3Z" fill="#152036" stroke="#263238" stroke-linejoin="round"/>
<path d="M371.6 243.3H358.7V257.9H371.6V243.3Z" fill="#152036" stroke="#263238" stroke-linejoin="round"/>
<path d="M384.7 243.3H371.8V257.9H384.7V243.3Z" fill="#152036" stroke="#263238" stroke-linejoin="round"/>
<path d="M397.8 243.3H384.9V257.9H397.8V243.3Z" fill="#263238"/>
<path d="M410.9 243.3H398V257.9H410.9V243.3Z" fill="#152036" stroke="#263238" stroke-linejoin="round"/>
<path d="M424 243.3H411.1V257.9H424V243.3Z" fill="white" stroke="#263238" stroke-linejoin="round"/>
<path d="M281.9 228.3H269V242.9H281.9V228.3Z" fill="#152036" stroke="#263238" stroke-linejoin="round"/>
<path d="M295 228.3H282.1V242.9H295V228.3Z" fill="#152036" stroke="#263238" stroke-linejoin="round"/>
<path d="M308 228.3H295.1V242.9H308V228.3Z" fill="#333333" stroke="#263238" stroke-linejoin="round"/>
<path d="M321.1 228.3H308.2V242.9H321.1V228.3Z" fill="#7D7D7D" stroke="#263238" stroke-linejoin="round"/>
<path d="M339.9 228H327V242.6H339.9V228Z" fill="#152036" stroke="#263238" stroke-linejoin="round"/>
<path d="M347.9 199H335V213.6H347.9V199Z" fill="#152036" stroke="#263238" stroke-linejoin="round"/>
<path d="M360.4 228.3H347.5V242.9H360.4V228.3Z" fill="#152036" stroke="#263238" stroke-linejoin="round"/>
<path d="M373.5 228.3H360.6V242.9H373.5V228.3Z" fill="#152036" stroke="#263238" stroke-linejoin="round"/>
<path d="M386.6 228.3H373.7V242.9H386.6V228.3Z" fill="#152036" stroke="#263238" stroke-linejoin="round"/>
<path d="M399.7 228.3H386.8V242.9H399.7V228.3Z" fill="#263238"/>
<path d="M412.7 228.3H399.8V242.9H412.7V228.3Z" fill="white" stroke="#263238" stroke-linejoin="round"/>
<path d="M425.8 228.3H412.9V242.9H425.8V228.3Z" fill="white" stroke="#263238" stroke-linejoin="round"/>
<path d="M280 213.3H267.1V227.9H280V213.3Z" fill="#152036" stroke="#263238" stroke-linejoin="round"/>
<path d="M293.1 213.3H280.2V227.9H293.1V213.3Z" fill="#152036" stroke="#263238" stroke-linejoin="round"/>
<path d="M306.2 213.3H293.3V227.9H306.2V213.3Z" fill="#333333" stroke="#263238" stroke-linejoin="round"/>
<path d="M319.3 213.3H306.4V227.9H319.3V213.3Z" fill="#7D7D7D" stroke="#263238" stroke-linejoin="round"/>
<path d="M332.4 213.3H319.5V227.9H332.4V213.3Z" fill="#152036" stroke="#263238" stroke-linejoin="round"/>
<path d="M345.5 213.3H332.6V227.9H345.5V213.3Z" fill="#152036" stroke="#263238" stroke-linejoin="round"/>
<path d="M358.5 213.3H345.6V227.9H358.5V213.3Z" fill="#152036" stroke="#263238" stroke-linejoin="round"/>
<path d="M371.6 213.3H358.7V227.9H371.6V213.3Z" fill="#152036" stroke="#263238" stroke-linejoin="round"/>
<path d="M384.7 213.3H371.8V227.9H384.7V213.3Z" fill="#152036" stroke="#263238" stroke-linejoin="round"/>
<path d="M397.8 213.3H384.9V227.9H397.8V213.3Z" fill="#263238"/>
<path d="M410.9 213.3H398V227.9H410.9V213.3Z" fill="white" stroke="#263238" stroke-linejoin="round"/>
<path d="M424 213.3H411.1V227.9H424V213.3Z" fill="white" stroke="#263238" stroke-linejoin="round"/>
<path d="M282.2 198.3H269.3V212.9H282.2V198.3Z" fill="#152036" stroke="#263238" stroke-linejoin="round"/>
<path d="M295.3 198.3H282.4V212.9H295.3V198.3Z" fill="#152036" stroke="#263238" stroke-linejoin="round"/>
<path d="M308.4 198.3H295.5V212.9H308.4V198.3Z" fill="#152036" stroke="#263238" stroke-linejoin="round"/>
<path d="M321.5 198.3H308.6V212.9H321.5V198.3Z" fill="#7D7D7D" stroke="#263238" stroke-linejoin="round"/>
<path d="M339.9 198.3H327V212.9H339.9V198.3Z" fill="#152036" stroke="#263238" stroke-linejoin="round"/>
<path d="M347.7 198.3H334.8V212.9H347.7V198.3Z" fill="#152036" stroke="#263238" stroke-linejoin="round"/>
<path d="M360.7 198.3H347.8V212.9H360.7V198.3Z" fill="#152036" stroke="#263238" stroke-linejoin="round"/>
<path d="M373.8 198.3H360.9V212.9H373.8V198.3Z" fill="#152036" stroke="#263238" stroke-linejoin="round"/>
<path d="M386.9 198.3H374V212.9H386.9V198.3Z" fill="#152036" stroke="#263238" stroke-linejoin="round"/>
<path d="M400 198.3H387.1V212.9H400V198.3Z" fill="#263238"/>
<path d="M413.1 198.3H400.2V212.9H413.1V198.3Z" fill="white" stroke="#263238" stroke-linejoin="round"/>
<path d="M426.2 198.3H413.3V212.9H426.2V198.3Z" fill="white" stroke="#263238" stroke-linejoin="round"/>
<path d="M274.7 183.3H261.8V197.9H274.7V183.3Z" fill="#152036" stroke="#263238" stroke-linejoin="round"/>
<path d="M287.8 183.3H274.9V197.9H287.8V183.3Z" fill="#152036" stroke="#263238" stroke-linejoin="round"/>
<path d="M300.9 183.3H288V197.9H300.9V183.3Z" fill="#333333" stroke="#263238" stroke-linejoin="round"/>
<path d="M314 183.3H301.1V197.9H314V183.3Z" fill="#7D7D7D" stroke="#263238" stroke-linejoin="round"/>
<path d="M327.1 183.3H314.2V197.9H327.1V183.3Z" fill="#152036" stroke="#263238" stroke-linejoin="round"/>
<path d="M340.1 183.3H327.2V197.9H340.1V183.3Z" fill="#152036" stroke="#263238" stroke-linejoin="round"/>
<path d="M353.2 183.3H340.3V197.9H353.2V183.3Z" fill="#152036" stroke="#263238" stroke-linejoin="round"/>
<path d="M366.3 183.3H353.4V197.9H366.3V183.3Z" fill="#152036" stroke="#263238" stroke-linejoin="round"/>
<path d="M379.4 183.3H366.5V197.9H379.4V183.3Z" fill="#152036" stroke="#263238" stroke-linejoin="round"/>
<path d="M392.5 183.3H379.6V197.9H392.5V183.3Z" fill="#263238"/>
<path d="M405.6 183.3H392.7V197.9H405.6V183.3Z" fill="#152036" stroke="#263238" stroke-linejoin="round"/>
<path d="M418.7 183.3H405.8V197.9H418.7V183.3Z" fill="white" stroke="#263238" stroke-linejoin="round"/>
<path d="M336.4 341V438.6H331.2V453H258.8L336.4 341Z" fill="#152036" stroke="#263238" stroke-miterlimit="10"/>
<path d="M323.7 393C323.5 393.5 323.2 394 323 394.5C322.9 394.6 322.9 394.8 322.8 394.9C321.2 398.2 319.5 401.5 317.7 404.5C317.6 404.6 317.6 404.7 317.5 404.9C315.6 408.1 313.6 411.2 311.5 414.2L311.2 414.6C309 417.7 306.7 420.7 304.3 423.5C304.2 423.6 304.1 423.8 304 423.9C301.5 426.8 298.9 429.6 296.1 432.3L295.7 432.7C292.8 435.5 289.7 438.1 286.5 440.4L286.1 440.7C282.6 443.3 278.9 445.6 275 447.6L274.5 447.9C269.7 450.3 264.6 452 259.4 452.9C259.1 452.9 258.9 453 258.6 453C244 455.6 229.4 448.7 222.1 435.9C221.9 435.7 221.8 435.4 221.7 435.2C219 430.6 217.1 425.6 215.8 420.4C215.7 420.2 215.7 420 215.7 419.8C214.7 415.5 214.1 411.2 213.8 406.8C213.8 406.6 213.8 406.5 213.8 406.3C213.6 402.3 213.6 398.3 213.8 394.3V393.8C214.1 390 214.5 386.2 215.2 382.4C215.2 382.2 215.2 382.1 215.3 381.9C215.9 378.3 216.7 374.6 217.7 371L217.8 370.5C218.7 367 219.8 363.5 221.1 360C221.2 359.9 221.2 359.7 221.2 359.6C222.4 356.2 223.8 352.8 225.3 349.5C225.4 349.4 225.4 349.2 225.5 349.1L226.2 347.6C227.5 344.8 228.9 342 230.4 339.3L230.6 338.9C232.4 335.6 234.3 332.5 236.3 329.5C236.4 329.4 236.5 329.2 236.6 329.1C238.7 325.9 240.9 323 243.1 320.1L243.4 319.7C245.8 316.7 248.3 313.8 250.9 311.2C251 311.1 251.1 311 251.2 310.8C254 308 256.9 305.3 259.9 302.8C260 302.7 260.2 302.6 260.3 302.5C263.6 299.9 267.1 297.5 270.7 295.3L271.2 295C275.4 292.5 279.9 290.6 284.6 289.2L285.3 289C294.8 286.3 304.1 286.6 312.3 290.5C320.5 294.4 326.7 301.3 330.8 310.3C330.9 310.5 331 310.7 331.1 310.9C333 315.4 334.4 320.1 335.2 324.9C335.2 325.1 335.3 325.3 335.3 325.4C336 329.6 336.4 333.8 336.5 338C336.5 338.2 336.5 338.4 336.5 338.5C336.6 342.4 336.4 346.4 336 350.3C336 350.5 336 350.6 335.9 350.8C335.5 354.6 335 358.3 334.2 362.1C334.2 362.3 334.1 362.4 334.1 362.6C333.4 366.2 332.5 369.8 331.4 373.4C331.4 373.6 331.3 373.7 331.3 373.9C330.3 377.4 329.1 380.8 327.7 384.3C327.6 384.4 327.6 384.6 327.5 384.7C326.3 387.4 325.1 390.2 323.7 393Z" fill="#152036" stroke="#263238" stroke-miterlimit="10"/>
<path d="M323.7 393C323.5 393.5 323.2 394 323 394.5C322.9 394.6 322.9 394.8 322.8 394.9C321.2 398.2 319.5 401.5 317.7 404.5C317.6 404.6 317.6 404.7 317.5 404.9C315.6 408.1 313.6 411.2 311.5 414.2L311.2 414.6C309 417.7 306.7 420.7 304.3 423.5C304.2 423.6 304.1 423.8 304 423.9C301.5 426.8 298.9 429.6 296.1 432.3L295.7 432.7C292.8 435.5 289.7 438.1 286.5 440.4L286.1 440.7C282.6 443.3 278.9 445.6 275 447.6L274.5 447.9C269.7 450.3 264.6 452 259.4 452.9L258.6 453C244 455.6 229.4 448.7 222.1 435.9C221.9 435.7 221.8 435.4 221.7 435.2C219 430.6 217.1 425.6 215.8 420.4C215.7 420.2 215.7 420 215.7 419.8C214.7 415.5 214.1 411.2 213.8 406.8C213.8 406.6 213.8 406.5 213.8 406.3C213.6 402.3 213.6 398.3 213.8 394.3V393.8C214.1 390 214.5 386.2 215.2 382.4C215.2 382.2 215.2 382.1 215.3 381.9C215.9 378.3 216.7 374.6 217.7 371L217.8 370.5C218.7 367 219.8 363.5 221.1 360C221.2 359.9 221.2 359.7 221.2 359.6C222.4 356.2 223.8 352.8 225.3 349.5C225.4 349.4 225.4 349.2 225.5 349.1L226.2 347.6C227.5 344.8 228.9 342 230.4 339.3L230.6 338.9C232.4 335.6 234.3 332.5 236.3 329.5C236.4 329.4 236.5 329.2 236.6 329.1C238.7 325.9 240.9 323 243.1 320.1L243.4 319.7C245.8 316.7 248.3 313.8 250.9 311.2C251 311.1 251.1 311 251.2 310.8C254 308 256.9 305.3 259.9 302.8C260 302.7 260.2 302.6 260.3 302.5C263.6 299.9 267.1 297.5 270.7 295.3L271.2 295C275.4 292.5 279.9 290.6 284.6 289.2L285.3 289C294.8 286.3 304.1 286.6 312.3 290.5C320.5 294.4 326.7 301.3 330.8 310.3L331.1 310.9C333 315.4 334.4 320.1 335.2 324.9C335.2 325.1 335.3 325.3 335.3 325.4C336 329.6 336.4 333.8 336.5 338C336.5 338.2 336.5 338.4 336.5 338.5C336.6 342.4 336.4 346.4 336 350.3C336 350.5 336 350.6 335.9 350.8C335.5 354.6 335 358.3 334.2 362.1C334.2 362.3 334.1 362.4 334.1 362.6C333.4 366.2 332.5 369.8 331.4 373.4C331.4 373.6 331.3 373.7 331.3 373.9C330.3 377.4 329.1 380.8 327.7 384.3C327.6 384.4 327.6 384.6 327.5 384.7C326.3 387.4 325.1 390.2 323.7 393Z" fill="#152036" stroke="#263238" stroke-linejoin="round"/>
<path d="M284.6 289L285.3 288.8C294.8 286.1 304.1 286.4 312.3 290.3C320.5 294.2 326.7 301.1 330.8 310.1L284.6 289Z" fill="#152036" stroke="#263238" stroke-linejoin="round"/>
<path d="M335.2 325.3L270.7 295.1L271.2 294.8C275.4 292.3 279.9 290.4 284.6 288.9L285.3 288.7L331.1 310.7C333 315.2 334.4 319.9 335.2 324.7C335.2 325 335.2 325.1 335.2 325.3Z" fill="#152036" stroke="#263238" stroke-linejoin="round"/>
<path d="M336.4 338.5L259.9 302.7C260 302.6 260.2 302.5 260.3 302.4C263.6 299.8 267.1 297.4 270.7 295.2L271.2 294.9L335.1 324.8C335.1 325 335.2 325.2 335.2 325.3C335.9 329.5 336.3 333.7 336.4 337.9C336.4 338.1 336.4 338.3 336.4 338.5Z" fill="#152036" stroke="#263238" stroke-linejoin="round"/>
<path d="M335.8 350.8L250.8 311C250.9 310.9 251 310.8 251.1 310.6C253.9 307.8 256.8 305.1 259.8 302.6C259.9 302.5 260.1 302.4 260.2 302.3L336.3 337.9C336.3 338.1 336.3 338.3 336.3 338.4C336.4 342.3 336.2 346.3 335.8 350.2C335.9 350.4 335.9 350.6 335.8 350.8Z" fill="#152036" stroke="#263238" stroke-linejoin="round"/>
<path d="M334 362.5L243 319.9L243.3 319.5C245.7 316.5 248.2 313.6 250.8 311C250.9 310.9 251 310.8 251.1 310.6L335.8 350.3C335.8 350.5 335.8 350.6 335.7 350.8C335.3 354.6 334.7 358.3 333.9 362C334.1 362.2 334 362.3 334 362.5Z" fill="#152036" stroke="#263238" stroke-linejoin="round"/>
<path d="M331.2 373.7L236.2 329.2C236.3 329.1 236.4 328.9 236.5 328.8C238.6 325.6 240.8 322.7 243 319.8L243.3 319.4L334.1 361.9C334.1 362.1 334 362.2 334 362.4C333.3 366 332.4 369.6 331.3 373.2C331.2 373.4 331.2 373.5 331.2 373.7Z" fill="#152036" stroke="#263238" stroke-linejoin="round"/>
<path d="M327.4 384.5L230.3 339L230.5 338.6C232.3 335.3 234.2 332.2 236.2 329.2C236.3 329.1 236.4 328.9 236.5 328.8L331.3 373.2C331.3 373.4 331.2 373.5 331.2 373.7C330.2 377.2 329 380.6 327.6 384.1C327.5 384.2 327.5 384.4 327.4 384.5Z" fill="#152036" stroke="#263238" stroke-linejoin="round"/>
<path d="M323.7 393C323.5 393.5 323.2 394 323 394.5C322.9 394.6 322.9 394.8 322.8 394.9L225.2 349.2C225.3 349.1 225.3 348.9 225.4 348.8L226.1 347.3C227.4 344.5 228.8 341.7 230.3 339L230.5 338.6L327.6 384.1C327.5 384.2 327.5 384.4 327.4 384.5C326.3 387.3 325.1 390.2 323.7 393Z" fill="#152036" stroke="#263238" stroke-linejoin="round"/>
<path d="M323 394.5C322.9 394.6 322.9 394.8 322.8 394.9C321.2 398.2 319.5 401.4 317.7 404.5C317.6 404.6 317.6 404.7 317.5 404.9L220.9 359.7C221 359.6 221 359.4 221 359.3C222.2 355.9 223.6 352.5 225.1 349.2C225.2 349.1 225.2 348.9 225.3 348.8L323 394.5Z" fill="#152036" stroke="#263238" stroke-linejoin="round"/>
<path d="M317.7 404.6C317.6 404.7 317.6 404.8 317.5 405C315.6 408.2 313.6 411.3 311.5 414.3L311.2 414.7L217.5 370.8L217.6 370.3C218.5 366.8 219.6 363.3 220.9 359.8C221 359.7 221 359.5 221 359.4L317.7 404.6Z" fill="#152036" stroke="#263238" stroke-linejoin="round"/>
<path d="M311.5 414.2L311.2 414.6C309 417.7 306.7 420.7 304.3 423.5C304.2 423.6 304.1 423.8 304 423.9L215 382.1C215 381.9 215 381.8 215.1 381.6C215.7 378 216.5 374.3 217.5 370.7L217.6 370.2L311.5 414.2Z" fill="#152036" stroke="#263238" stroke-linejoin="round"/>
<path d="M304.4 423.5C304.3 423.6 304.2 423.8 304.1 423.9C301.6 426.8 299 429.6 296.2 432.3L295.8 432.7L213.6 394.2V393.7C213.9 389.9 214.3 386.1 215 382.3C215 382.1 215 382 215.1 381.8L304.4 423.5Z" fill="#152036" stroke="#263238" stroke-linejoin="round"/>
<path d="M296.2 432.2L295.8 432.6C292.9 435.4 289.8 438 286.6 440.3L286.2 440.6L213.6 406.6C213.6 406.4 213.6 406.3 213.6 406.1C213.4 402.1 213.4 398.1 213.6 394.1V393.6L296.2 432.2Z" fill="#152036" stroke="#263238" stroke-linejoin="round"/>
<path d="M286.6 440.3L286.2 440.6C282.7 443.2 278.9 445.5 275 447.4L274.5 447.7L215.7 420.2C215.6 420 215.6 419.8 215.6 419.6C214.6 415.3 214 411 213.7 406.6C213.7 406.4 213.7 406.3 213.7 406.1L286.6 440.3Z" fill="#152036" stroke="#263238" stroke-linejoin="round"/>
<path d="M275 447.4L274.5 447.7C269.7 450.1 264.6 451.8 259.4 452.7L222 435.7C221.8 435.5 221.7 435.2 221.6 435C218.9 430.4 217 425.4 215.7 420.2C215.6 420 215.6 419.8 215.6 419.6L275 447.4Z" fill="#152036" stroke="#263238" stroke-linejoin="round"/>
<path d="M258.5 452.8C243.9 455.4 229.3 448.5 222 435.7C221.8 435.5 221.7 435.2 221.6 435L258.5 452.8Z" fill="#152036" stroke="#263238" stroke-linejoin="round"/>
<path d="M315.322 389.12C335.976 345.007 330.865 299.015 303.907 286.393C276.949 273.771 238.352 299.3 217.699 343.413C197.045 387.526 202.156 433.519 229.114 446.141C256.072 458.762 294.669 433.234 315.322 389.12Z" fill="#152036" stroke="#263238" stroke-miterlimit="10"/>
<path d="M283.6 420.4C254.9 420.6 230.2 421.5 213.7 432C217.3 438.1 222.7 443 229.1 446.1C249.2 455.5 275.8 443.7 296.6 418.8C292.3 419.8 288 420.3 283.6 420.4Z" fill="#152036" stroke="#263238" stroke-miterlimit="10"/>
<path d="M305.55 384.548C323.511 346.186 319.826 306.546 297.319 296.008C274.812 285.471 242.007 308.026 224.046 346.388C206.085 384.749 209.77 424.39 232.277 434.927C254.784 445.465 287.589 422.909 305.55 384.548Z" fill="#152036" stroke="#263238" stroke-linejoin="round"/>
<path d="M304.8 314.2C307.1 312.7 309.3 311.4 311.3 310.2C308 303.8 303.3 298.8 297.3 296C274.8 285.5 242 308 224 346.4C220.4 354.2 217.5 362.3 215.5 370.6C221.1 370.5 226.8 369.9 232.3 368.7C259.9 362.9 270.4 336.1 304.8 314.2Z" fill="#152036" stroke="#263238" stroke-miterlimit="10"/>
<path d="M227.9 348.2C245.3 311 276.8 288.7 299.2 297C298.6 296.6 297.9 296.3 297.3 296C274.8 285.5 242 308 224 346.4C206 384.8 209.8 424.4 232.3 434.9C232.9 435.2 233.6 435.5 234.3 435.7C213.5 423.9 210.5 385.4 227.9 348.2Z" fill="#152036" stroke="#263238" stroke-miterlimit="10"/>
<path d="M230.8 398.7L246.5 378.8L262.3 359.1L278 339.2L280.6 336.2L279.5 339.9L275.6 355.5L270.1 362.3L254.4 382.1L238.6 401.8L246.3 405L262.2 385.3L270.2 375L267.2 387.4L260.8 411L267.8 413.9L274.2 390.2L280.3 366.5L282 360.4L293.7 345.7L286.7 342.8L287 341.1L292.3 321.6L292.9 319.1L286.1 316.3L285.8 316.6L270.3 336.1L254.6 355.9L238.7 375.6L223.1 395.5L230.8 398.7Z" fill="#152036" stroke="#263238" stroke-miterlimit="10"/>
<path d="M229.2 398L244.8 378.2L260.7 358.4L276.3 338.6L278.9 335.6L277.9 339.2L273.9 354.8L268.4 361.6L252.8 381.4L236.9 401.2L244.7 404.4L260.5 384.6L268.6 374.4L265.5 386.7L259.2 410.4L266.1 413.2L272.5 389.6L278.7 365.8L280.3 359.7L292 345L285.1 342.2L285.3 340.5L290.7 320.9L291.2 318.4L284.5 315.6L284.1 315.9L268.6 335.4L252.9 355.2L237.1 375L221.4 394.8L229.2 398Z" fill="#4F4FDE" stroke="#263238" stroke-linejoin="round"/>
<path d="M232 367.6C232 368 232 368.3 232 368.7V369.1C231.9 372.4 231.7 375.7 231.3 378.9C231.3 379 231.3 379.2 231.2 379.3C230.8 382.6 230.1 385.9 229.3 389.1C229.3 389.2 229.3 389.4 229.2 389.5C228.3 392.8 227.2 396.1 225.9 399.3L225.7 399.7C224.3 403.1 222.7 406.4 220.9 409.5C220.8 409.6 220.8 409.8 220.7 409.9C218.7 413.3 216.5 416.6 214.1 419.7C214 419.8 213.9 420 213.8 420.1C211 423.6 208 426.9 204.7 429.9L204.3 430.3C200.3 434 195.9 437.3 191.2 440.1L190.5 440.5C182.4 445.3 173.6 448.8 164.4 450.7C152.7 453.2 140.6 453.2 129 450.7C119.8 448.8 111 445.3 102.9 440.5L102.2 440.1C97.5 437.2 93.2 434 89.1 430.3L88.7 429.9C85.4 426.9 82.4 423.6 79.6 420.1C79.5 420 79.4 419.8 79.3 419.7C76.9 416.6 74.7 413.3 72.7 409.9C72.6 409.8 72.5 409.6 72.5 409.5C70.7 406.3 69.1 403 67.7 399.7L67.5 399.3C66.2 396.1 65.1 392.8 64.2 389.5C64.2 389.4 64.1 389.2 64.1 389.1C63.2 385.9 62.6 382.6 62.1 379.3L62 379C61.6 375.7 61.3 372.5 61.3 369.2C61.3 369.1 61.3 368.9 61.3 368.8C61.3 368.4 61.3 368.1 61.3 367.7C61.3 364.8 61.4 361.9 61.7 359C61.7 358.9 61.7 358.7 61.7 358.6C62 355.3 62.6 352 63.3 348.8C63.3 348.7 63.3 348.5 63.4 348.4C64.2 345.1 65.2 341.8 66.3 338.6C66.4 338.5 66.4 338.3 66.5 338.2C67.8 334.8 69.3 331.5 70.9 328.3C71 328.2 71 328 71.1 327.9C72.9 324.5 74.9 321.2 77.2 318.1C77.3 318 77.4 317.8 77.5 317.7C80 314.2 82.8 310.9 85.8 307.9L86.2 307.5C89.8 303.9 93.8 300.6 98 297.7L98.6 297.3C104.6 293.2 111.1 289.9 118 287.5L119.2 287.1C137 281.1 156.2 281.1 174 287.1L175.2 287.5C182 289.9 188.5 293.3 194.5 297.4C194.7 297.5 194.9 297.7 195.1 297.8C199.3 300.7 203.3 304 206.9 307.6C207 307.7 207.2 307.9 207.3 308C210.3 311.1 213.1 314.4 215.7 317.8L216 318.2C218.3 321.3 220.3 324.6 222.1 328C222.2 328.1 222.3 328.3 222.3 328.4C224 331.6 225.4 334.9 226.7 338.2L226.8 338.6C228 341.8 228.9 345.1 229.7 348.4C229.7 348.5 229.8 348.7 229.8 348.8C230.5 352 231.1 355.3 231.4 358.6C231.4 358.7 231.4 358.9 231.4 359C231.8 361.8 232 364.7 232 367.6Z" fill="white" stroke="#263238" stroke-linejoin="round"/>
<path d="M175.2 287.1H118.1L119.3 286.7C137.1 280.7 156.3 280.7 174.1 286.7L175.2 287.1Z" fill="#152036" stroke="#263238" stroke-linejoin="round"/>
<path d="M195.2 297.4H98.1L98.7 297C104.7 292.9 111.2 289.6 118.1 287.2L119.3 286.8H174L175.2 287.2C182.1 289.6 188.6 292.9 194.6 297C194.8 297.1 195 297.2 195.2 297.4Z" fill="#152036" stroke="#263238" stroke-linejoin="round"/>
<path d="M207.4 307.6H85.9L86.3 307.2C89.9 303.6 93.9 300.3 98.1 297.4L98.7 297H194.6C194.8 297.1 195 297.3 195.2 297.4C199.4 300.3 203.4 303.6 207 307.2C207.1 307.4 207.2 307.5 207.4 307.6Z" fill="#333333" stroke="#263238" stroke-linejoin="round"/>
<path d="M216 317.9H77.3C77.4 317.8 77.5 317.6 77.6 317.5C80.1 314 82.9 310.7 85.9 307.7L86.3 307.3H207C207.1 307.4 207.3 307.6 207.4 307.7C210.4 310.8 213.2 314.1 215.8 317.5L216 317.9Z" fill="#7D7D7D" stroke="#263238" stroke-linejoin="round"/>
<path d="M222.3 328.1H71C71.1 328 71.1 327.8 71.2 327.7C73 324.3 75 321 77.3 317.9C77.4 317.8 77.5 317.6 77.6 317.5H215.7L216 317.9C218.3 321 220.3 324.3 222.1 327.7C222.2 327.9 222.3 328 222.3 328.1Z" fill="#152036" stroke="#263238" stroke-linejoin="round"/>
<path d="M226.9 338.4H66.4C66.5 338.3 66.5 338.1 66.6 338C67.9 334.6 69.3 331.3 71 328.2C71.1 328.1 71.1 327.9 71.2 327.8H222.2C222.3 327.9 222.4 328.1 222.4 328.2C224.1 331.4 225.5 334.7 226.8 338L226.9 338.4Z" fill="#152036" stroke="#263238" stroke-linejoin="round"/>
<path d="M229.9 348.6H63.4C63.4 348.5 63.4 348.3 63.5 348.2C64.3 344.9 65.3 341.6 66.4 338.4C66.5 338.3 66.5 338.1 66.6 338H226.7L226.8 338.4C228 341.6 228.9 344.9 229.7 348.2C229.8 348.4 229.9 348.5 229.9 348.6Z" fill="#152036" stroke="#263238" stroke-linejoin="round"/>
<path d="M231.6 358.9H61.7C61.7 358.8 61.7 358.6 61.7 358.5C62 355.2 62.6 351.9 63.3 348.7C63.3 348.6 63.3 348.4 63.4 348.3H229.7C229.7 348.4 229.8 348.6 229.8 348.7C230.5 351.9 231.1 355.2 231.4 358.5C231.5 358.6 231.6 358.8 231.6 358.9Z" fill="#152036" stroke="#263238" stroke-linejoin="round"/>
<path d="M232 367.6C232 368 232 368.3 232 368.7V369.1H61.3C61.3 369 61.3 368.8 61.3 368.7C61.3 368.3 61.3 368 61.3 367.6C61.3 364.7 61.4 361.8 61.7 358.9C61.7 358.8 61.7 358.6 61.7 358.5H231.4C231.4 358.6 231.4 358.8 231.4 358.9C231.8 361.8 232 364.7 232 367.6Z" fill="#152036" stroke="#263238" stroke-linejoin="round"/>
<path d="M232 368.7V369.1C231.9 372.4 231.7 375.7 231.3 378.9C231.3 379 231.3 379.2 231.2 379.3H62.1L62 379C61.6 375.7 61.3 372.5 61.3 369.2C61.3 369.1 61.3 368.9 61.3 368.8L232 368.7Z" fill="#152036" stroke="#263238" stroke-linejoin="round"/>
<path d="M231.2 379C231.2 379.1 231.2 379.3 231.1 379.4C230.7 382.7 230 386 229.2 389.2C229.2 389.3 229.2 389.5 229.1 389.6H64.1C64.1 389.5 64 389.3 64 389.2C63.1 386 62.5 382.7 62 379.4V379H231.2Z" fill="#152036" stroke="#263238" stroke-linejoin="round"/>
<path d="M229.2 389.2C229.2 389.3 229.2 389.5 229.1 389.6C228.2 392.9 227.1 396.2 225.8 399.4L225.6 399.8H67.6L67.4 399.4C66.1 396.2 65 392.9 64.1 389.6C64.1 389.5 64 389.3 64 389.2H229.2Z" fill="#152036" stroke="#263238" stroke-linejoin="round"/>
<path d="M225.9 399.5L225.7 399.9C224.3 403.3 222.7 406.6 220.9 409.7C220.8 409.8 220.8 410 220.7 410.1H72.7C72.6 410 72.5 409.8 72.5 409.7C70.7 406.5 69.1 403.2 67.7 399.9L67.5 399.5H225.9Z" fill="#152036" stroke="#263238" stroke-linejoin="round"/>
<path d="M220.9 409.7C220.8 409.8 220.8 410 220.7 410.1C218.7 413.5 216.5 416.8 214.1 419.9C214 420 213.9 420.2 213.8 420.3H79.6C79.5 420.2 79.4 420 79.3 419.9C76.9 416.8 74.7 413.5 72.7 410.1C72.6 410 72.5 409.8 72.5 409.7H220.9Z" fill="#152036" stroke="#263238" stroke-linejoin="round"/>
<path d="M214.1 420C214 420.1 213.9 420.3 213.8 420.4C211 423.9 208 427.2 204.7 430.2L204.3 430.6H89.1L88.7 430.2C85.4 427.2 82.4 423.9 79.6 420.4C79.5 420.3 79.4 420.1 79.3 420H214.1Z" fill="#7D7D7D" stroke="#263238" stroke-linejoin="round"/>
<path d="M204.7 430.2L204.3 430.6C200.3 434.3 195.9 437.6 191.2 440.4L190.5 440.8H102.9L102.2 440.4C97.5 437.5 93.2 434.3 89.1 430.6L88.7 430.2H204.7Z" fill="#333333" stroke="#263238" stroke-linejoin="round"/>
<path d="M191.1 440.5L190.4 440.9C182.3 445.7 173.5 449.2 164.3 451.1H128.9C119.7 449.2 110.9 445.7 102.8 440.9L102.1 440.5H191.1Z" fill="#CFCFCF" stroke="#263238" stroke-linejoin="round"/>
<path d="M139.9 453C187.065 453 225.3 414.765 225.3 367.6C225.3 320.435 187.065 282.2 139.9 282.2C92.7349 282.2 54.5 320.435 54.5 367.6C54.5 414.765 92.7349 453 139.9 453Z" fill="#152036" stroke="#263238" stroke-linejoin="round"/>
<path d="M139.9 436.2C177.787 436.2 208.5 405.487 208.5 367.6C208.5 329.713 177.787 299 139.9 299C102.013 299 71.3 329.713 71.3 367.6C71.3 405.487 102.013 436.2 139.9 436.2Z" fill="#152036" stroke="#263238" stroke-linejoin="round"/>
<path d="M131.3 371.3C118.6 396.7 96.3 404.1 83.1 406.1C104.3 437.5 146.9 445.8 178.4 424.6C209.9 403.4 218.1 360.8 196.9 329.3C196.1 328.1 195.2 326.8 194.3 325.7C167.9 328.2 144.8 344.4 131.3 371.3Z" fill="#263238"/>
<path d="M71.3 367.6C71.3 404.8 100.9 435.2 138 436.2H139.1C101.2 434.6 71.8 402.6 73.4 364.8C74.9 329.2 103.4 300.6 139.1 299.1L138 299C100.8 300 71.2 330.4 71.3 367.6Z" fill="#263238" stroke="#263238" stroke-miterlimit="10"/>
<path d="M109 405.2L121.3 383.6L133.9 362L146.2 340.4L148.5 337L149.2 340.4L153.3 354.6L148.8 362L136.5 383.6L123.9 405.2H138.8L151.4 383.6L157.8 372.4L161.1 383.6L166.7 405.2H180.1L174.5 383.6L168.6 362L167.1 356.4L176.4 340.4H163L162.2 338.9L157.8 321L157 318.8H144L143.6 319.2L131.3 340.4L119 362L106.4 383.6L94.1 405.2H109Z" fill="#263238" stroke="white" stroke-miterlimit="10"/>
<path d="M105.8 406.1L118.1 384.5L130.8 362.9L143 341.3L145.3 338L146 341.3L150.1 355.5L145.6 362.9L133.4 384.5L120.7 406.1H135.6L148.3 384.5L154.6 373.3L157.9 384.5L163.5 406.1H176.9L171.3 384.5L165.4 362.9L163.9 357.3L173.2 341.3H159.8L159.1 339.8L154.6 322L153.8 319.7H140.8L140.4 320.1L128.1 341.3L115.9 362.9L103.2 384.5L90.9 406.1H105.8Z" fill="white" stroke="#263238" stroke-linejoin="round"/>
<path d="M445.8 133.8L441.5 136.8C439.9 134.7 437.1 134 434.7 135.1C430.4 137 420.7 147 417.8 156.1C414.9 165.2 424.4 175.6 422.6 179.5C420.8 183.4 415.7 184.5 416.1 191C416.5 197.5 439.6 206.2 450.7 201.1C461.8 196 451.1 184.1 453.6 180.2C456.1 176.3 463.3 177.4 463.3 166C463.3 154.6 461.1 148.7 456.9 141.6C453.4 135.6 449.8 132.4 445.8 133.8Z" fill="#263238" stroke="#263238" stroke-linecap="round" stroke-linejoin="round"/>
<path d="M460.1 434.8C458.7 438.2 457.1 441.6 455.3 444.8C453.3 447.9 447.8 448.2 449.9 450.7C452 453.2 457.1 454 460.9 451.5C464.7 449 465.1 444.4 468 442.7C470.9 441 471.2 438.5 470.2 435.5C469.2 432.5 467.5 431.7 467.5 431.7C467.5 431.7 465.8 435.2 460.1 434.8Z" fill="white" stroke="#263238" stroke-linecap="round" stroke-linejoin="round"/>
<path d="M410.8 251.8C410.8 251.8 406.8 270.6 408.2 285.2C409.6 299.8 411.9 312.9 413.3 318C414.7 323.1 425.3 371.6 426.1 372.2C426.9 372.8 446.1 399 449.9 409C453.7 419 460.7 435.8 460.7 435.8C460.7 435.8 464.6 437.7 467.2 435.4C469.8 433.1 468.8 432.5 468.8 432.5C468.8 432.5 460.4 395.1 455.8 380.8C451.2 366.5 444.1 350.6 444.1 350.6C444.1 350.6 457.8 297.5 454.6 276.7C451.4 255.9 447.5 253.3 447.5 253.3C447.5 253.3 424.2 261.8 410.8 251.8Z" fill="#263238" stroke="#263238" stroke-linecap="round" stroke-linejoin="round"/>
<path d="M449.5 256.1C458.1 267.8 463.6 281.6 465.4 296.1C468 319.5 454.3 334.9 451.4 349.7C448.5 364.5 452.6 369.8 448.3 385.2C444 400.6 443 403.9 440.1 412.5C437.2 421.1 433.2 432.8 433.2 432.8C433.2 432.8 431.5 434.5 427.8 434.5C424.1 434.5 423.6 434.4 423.6 434.4C423.6 434.4 429.9 389.7 430.2 375.4C430.5 361.1 432.2 345.7 432.2 345.7C432.2 345.7 430.2 292.9 434.5 282.9C438.8 272.9 441.6 270.1 441.6 270.1" fill="#263238"/>
<path d="M449.5 256.1C458.1 267.8 463.6 281.6 465.4 296.1C468 319.5 454.3 334.9 451.4 349.7C448.5 364.5 452.6 369.8 448.3 385.2C444 400.6 443 403.9 440.1 412.5C437.2 421.1 433.2 432.8 433.2 432.8C433.2 432.8 431.5 434.5 427.8 434.5C424.1 434.5 423.6 434.4 423.6 434.4C423.6 434.4 429.9 389.7 430.2 375.4C430.5 361.1 432.2 345.7 432.2 345.7C432.2 345.7 430.2 292.9 434.5 282.9C438.8 272.9 441.6 270.1 441.6 270.1" stroke="#263238" stroke-linecap="round" stroke-linejoin="round"/>
<path d="M430.2 365.4C430.2 357 430.3 345 430.7 336C431.3 320.7 432.5 284.1 440.7 274.1" stroke="white" stroke-linecap="round" stroke-linejoin="round"/>
<path d="M430.2 375.4C430.2 375.4 430.2 373.8 430.2 371.2" stroke="white" stroke-linecap="round" stroke-linejoin="round"/>
<path d="M417.1 276.5C417.1 276.5 423.2 292.5 433.2 296.3" stroke="white" stroke-linecap="round" stroke-linejoin="round"/>
<path d="M413.4 188.7C409.2 188.2 405.1 190.5 403.4 194.4C400.3 201.2 387 228.2 387 231.6C387 235 390.7 244.4 396.9 239.2C400.5 236.2 410.9 214.4 410.9 214.4" fill="#4F4FDE"/>
<path d="M413.4 188.7C409.2 188.2 405.1 190.5 403.4 194.4C400.3 201.2 387 228.2 387 231.6C387 235 390.7 244.4 396.9 239.2C400.5 236.2 410.9 214.4 410.9 214.4" stroke="#263238" stroke-linecap="round" stroke-linejoin="round"/>
<path d="M460.8 196.5C458.2 188.3 442.1 187.9 440.9 187.6C440.9 187.6 440.4 188.4 440.4 186.6C440.4 184.8 441.4 178 441.4 178C441.4 178 430.5 178 428.7 174.1C428.7 174.1 428.4 183.5 427.2 187.1C427.2 187.1 425.5 188.3 421.3 188.3C417.1 188.3 410.3 186.6 408.2 192.3C408.1 192.7 408 193.1 407.9 193.5C406.9 197.3 403.8 209 403.4 214.1C403.2 217.5 405.1 224.1 406.8 229.4C406.9 233.2 407.1 236.3 407.3 238.4C408.3 247.7 407.7 259.6 410.8 261.6C413.9 263.6 436.7 266.8 443.9 263.8C451.1 260.8 450.7 252.3 450.7 248.3C450.7 244.3 463.4 204.6 460.8 196.5Z" fill="#4F4FDE" stroke="#263238" stroke-linecap="round" stroke-linejoin="round"/>
<path d="M421.2 215.8C421.2 215.8 423 223.5 432.4 227.6" stroke="#263238" stroke-linecap="round" stroke-linejoin="round"/>
<path d="M450.4 189.1C447.3 188.4 444.1 187.9 440.9 187.6C440.9 187.6 440.4 188.4 440.4 186.6C440.4 184.8 441.4 178 441.4 178C441.4 178 430.5 178 428.7 174.1C428.7 174.1 428.4 183.5 427.2 187.1C427.2 187.1 423.2 187.9 419.4 188.3C420.1 192.2 422.5 200.5 431.8 201.5C439.7 202.5 446.6 194.6 450.4 189.1Z" fill="white" stroke="#263238" stroke-linecap="round" stroke-linejoin="round"/>
<path d="M449.8 168.2C449.8 168.2 452 166.6 451.8 169.3C451.6 172 450.2 174.4 448.7 174.9C447.8 175.2 446.9 175.3 446 175.3L449.8 168.2Z" fill="white" stroke="#263238" stroke-linecap="round" stroke-linejoin="round"/>
<path d="M427 163C427 163 424.8 160.5 424.5 164.6C424.2 168.7 426.5 169.7 426.5 169.7L427 163Z" fill="white" stroke="#263238" stroke-linecap="round" stroke-linejoin="round"/>
<path d="M439 149C439 149 435.7 152.2 427.6 153C427.6 153 424.3 165.3 427.2 173.6C430.1 181.9 435.2 183.2 439.2 182C446 180.1 451.4 166.2 452.9 161C452.9 161.1 441.3 156.8 439 149Z" fill="white" stroke="#263238" stroke-linecap="round" stroke-linejoin="round"/>
<path d="M434.2 161.5C434 162.5 433.2 163.3 432.6 163.1C432 162.9 431.6 162 431.8 161C432 160 432.8 159.3 433.4 159.4C434 159.5 434.5 160.5 434.2 161.5Z" fill="#263238"/>
<path d="M443.1 164C442.9 165 442.1 165.8 441.5 165.6C440.9 165.4 440.5 164.5 440.7 163.5C440.9 162.5 441.7 161.7 442.3 161.9C442.9 162.1 443.3 162.9 443.1 164Z" fill="#263238"/>
<path d="M435.1 167.9C435.7 168.6 436.7 169 437.6 168.8" stroke="#263238" stroke-linecap="round" stroke-linejoin="round"/>
<path d="M431.7 169.5C431.7 169.5 434 174.4 440.9 172.3" stroke="#263238" stroke-linecap="round" stroke-linejoin="round"/>
<path d="M431.7 157C431.7 157 433.6 155.8 436.1 157.7" stroke="#263238" stroke-linecap="round" stroke-linejoin="round"/>
<path d="M442.1 158.6C444.2 158.8 446.1 159.9 447.4 161.6" stroke="#263238" stroke-linecap="round" stroke-linejoin="round"/>
<path d="M423.7 432.8C423.7 432.8 420.3 441 413.7 445.2C410.6 447.2 405.4 448 407.1 450.6C408.8 453.2 418.8 453.1 423.5 451.2C428.2 449.3 430.2 448.9 431.7 446C433.2 443.1 433.3 432.7 433.3 432.7C430.1 433.8 426.8 433.8 423.7 432.8Z" fill="white" stroke="#263238" stroke-linecap="round" stroke-linejoin="round"/>
<path d="M415.6 230.9C415.6 230.9 408.4 222.7 408 221.9C407.6 221.1 396 217.5 396 217.5C395.7 218.2 395.7 219 395.9 219.7C396.4 220.5 403.7 222.4 403.7 222.4L404.4 223.4L394.3 222C394.3 222 392.5 222.3 393 223.5C393.5 224.7 404.2 226.2 404.2 226.2L393.2 226.7C393.5 227.8 394.4 228.6 395.6 228.8C397.4 228.9 401.8 228.6 401.8 228.6C401.8 228.6 396.6 229.3 397.7 230.7C398.8 232.1 404.3 230.5 404.3 230.5L408.7 233.2L413.1 236.3L415.6 230.9Z" fill="white" stroke="#263238" stroke-linecap="round" stroke-linejoin="round"/>
<path d="M452.1 205.7L444.7 236.3C444.7 236.3 425.2 234 421 232.8C419.4 232.4 417.8 231.9 416.2 231.2L413.2 236.3C413.2 236.3 426.8 244.5 437.7 248.2C448.6 251.9 452.5 254.9 455.3 250.1C458.1 245.3 463 216.5 464.4 206.8C465.8 197.1 464.2 194 461.1 192.7C458.8 191.9 456.3 191.2 453.9 190.8" fill="#4F4FDE"/>
<path d="M452.1 205.7L444.7 236.3C444.7 236.3 425.2 234 421 232.8C419.4 232.4 417.8 231.9 416.2 231.2L413.2 236.3C413.2 236.3 426.8 244.5 437.7 248.2C448.6 251.9 452.5 254.9 455.3 250.1C458.1 245.3 463 216.5 464.4 206.8C465.8 197.1 464.2 194 461.1 192.7C458.8 191.9 456.3 191.2 453.9 190.8" stroke="#263238" stroke-linecap="round" stroke-linejoin="round"/>
<path d="M392 227.6L433.4 233.3L432 238.6C432 238.6 415.1 242.6 401.1 243.2C383.2 244 385.6 231.9 388.7 226.5" fill="#4F4FDE"/>
<path d="M392 227.6L433.4 233.3L432 238.6C432 238.6 415.1 242.6 401.1 243.2C383.2 244 385.6 231.9 388.7 226.5" stroke="#263238" stroke-linecap="round" stroke-linejoin="round"/>
<path d="M433.4 233.3C433.4 233.3 444.1 230.8 444.9 230.5C445.7 230.2 457.1 234.4 457.1 234.4C457.1 234.4 456.6 235.8 455.8 236.2C455 236.6 448 233.5 448 233.5L446.9 233.9L455.7 239.1C455.7 239.1 456.9 240.5 455.8 241.1C454.7 241.7 445.3 236.3 445.3 236.3L453.7 243.5C452.8 244.2 451.6 244.3 450.6 243.7C449.1 242.6 445.8 239.7 445.8 239.7C445.8 239.7 449.4 243.5 447.7 243.9C446 244.3 442.6 239.6 442.6 239.6L437.5 239L432 238.7L433.4 233.3Z" fill="white" stroke="#263238" stroke-linecap="round" stroke-linejoin="round"/>
<path d="M30 453H484" stroke="#263238" stroke-linejoin="round"/>
</svg>
