<?xml version="1.0" encoding="utf-8"?>
<!-- Generator: Adobe Illustrator 27.1.1, SVG Export Plug-In . SVG Version: 6.00 Build 0)  -->
<svg version="1.1" id="Layer_1" xmlns="http://www.w3.org/2000/svg" xmlns:xlink="http://www.w3.org/1999/xlink" x="0px" y="0px"
	 viewBox="0 0 750 500" style="enable-background:new 0 0 750 500;" xml:space="preserve">
<style type="text/css">
	.st0{opacity:0.3;fill:none;stroke:#000000;stroke-miterlimit:10;enable-background:new    ;}
	.st1{opacity:0.3;}
	.st2{fill:none;stroke:#000000;stroke-miterlimit:10;}
	.st3{opacity:0.15;}
	.st4{fill:#FFFFFF;stroke:#263238;stroke-linecap:round;stroke-linejoin:round;}
	.st5{fill:#263238;stroke:#263238;stroke-linecap:round;stroke-linejoin:round;}
	.st6{fill:#BABABA;stroke:#263238;stroke-linecap:round;stroke-linejoin:round;}
	.st7{fill:none;stroke:#263238;stroke-linecap:round;stroke-linejoin:round;}
	.st8{fill:#FFC703;stroke:#263238;stroke-linecap:round;stroke-linejoin:round;}
	.st9{fill:#FFC703;stroke:#263238;stroke-width:1.0042;stroke-linecap:round;stroke-linejoin:round;stroke-miterlimit:4.017;}
	.st10{fill:#263238;}
	.st11{fill:#4F4FDE;stroke:#263238;stroke-linecap:round;stroke-linejoin:round;}
	.st12{fill:#4F4FDE;stroke:#263238;stroke-width:2;stroke-linecap:round;stroke-linejoin:round;}
	.st13{fill:none;stroke:#263238;stroke-width:5;stroke-linecap:round;stroke-linejoin:round;}
	.st14{opacity:0.35;fill:#FFFFFF;enable-background:new    ;}
</style>
<g id="freepik--Clouds--inject-1">
	<path class="st0" d="M661.8,139.4c0,0-6.7-32.7-29-30.4c-10.1,1-16.9,6.1-22.8,14c-7.5,10.1-10.2,4.2-21,7.6
		c-9.6,3-8.2,11.1-14.1,12.6s-10.4-5.2-18.5-3.7s-12.6,9.6-12.6,9.6h148.4c-0.8-5.7-4.9-10.3-10.4-11.9
		C672.2,134.2,667.7,141.7,661.8,139.4z"/>
	<path class="st0" d="M207.3,70.5c0,0-4.6-22.3-19.8-20.8c-6.9,0.7-11.5,4.2-15.6,9.5c-5.1,6.9-7,2.9-14.4,5.2
		c-6.6,2-5.6,7.6-9.6,8.6s-7.1-3.6-12.7-2.5s-8.6,6.6-8.6,6.6h101.4c-0.6-3.9-3.3-7-7.1-8.1C214.4,66.9,211.3,72,207.3,70.5z"/>
</g>
<g id="freepik--Money--inject-1">
	<g class="st1">
		
			<rect x="517.9" y="39.7" transform="matrix(0.4299 -0.9029 0.9029 0.4299 235.6357 535.5365)" class="st2" width="47.9" height="83"/>
		<path class="st2" d="M523.5,51c-1.4,2.9-4.8,4.1-7.7,2.7c-0.2-0.1-0.4-0.2-0.6-0.3l-11.8,24.9c0.2,0.1,0.5,0.2,0.7,0.3
			c2.9,1.4,4.1,4.8,2.7,7.7c-0.1,0.1-0.1,0.2-0.2,0.3L560,112c0-0.1,0.1-0.2,0.1-0.3c1.4-2.9,4.8-4.1,7.7-2.7
			c0.2,0.1,0.4,0.2,0.6,0.4l11.8-24.8c-0.2-0.1-0.5-0.2-0.7-0.3c-2.9-1.4-4-4.8-2.7-7.7c0.1-0.2,0.2-0.4,0.3-0.6l-53.6-25.5
			C523.6,50.6,523.6,50.8,523.5,51z M550.5,85.2c-2.2,4.7-7.9,6.8-12.6,4.5c-4.7-2.2-6.8-7.9-4.5-12.6s7.9-6.8,12.6-4.5
			c0,0,0,0,0.1,0C550.7,74.9,552.7,80.5,550.5,85.2C550.5,85.3,550.5,85.3,550.5,85.2L550.5,85.2z"/>
	</g>
	<g class="st1">
		<rect x="72" y="64.2" transform="matrix(0.4299 -0.9029 0.9029 0.4299 -40.735 146.8799)" class="st2" width="47.9" height="83"/>
		<path class="st2" d="M77.5,75.5c-1.4,2.9-4.8,4.1-7.7,2.7c0,0,0,0,0,0c-0.2-0.1-0.4-0.2-0.6-0.3l-11.8,24.8
			c0.2,0.1,0.4,0.2,0.7,0.2c2.9,1.4,4.1,4.8,2.7,7.7c0,0,0,0,0,0c0,0.1-0.1,0.2-0.2,0.3l53.5,25.5l0.1-0.3c1.4-2.9,4.8-4.1,7.7-2.7
			c0,0,0,0,0,0c0.2,0.1,0.4,0.2,0.6,0.4l11.8-24.8c-0.2-0.1-0.4-0.2-0.7-0.3c-2.9-1.4-4.1-4.8-2.7-7.7c0,0,0,0,0,0
			c0.1-0.2,0.2-0.4,0.4-0.6L77.8,74.9C77.7,75.1,77.6,75.3,77.5,75.5z M104.5,109.8c-2.2,4.7-7.9,6.7-12.6,4.5
			c-4.7-2.2-6.7-7.9-4.5-12.6c2.2-4.7,7.9-6.7,12.6-4.5C104.7,99.4,106.7,105,104.5,109.8C104.5,109.8,104.5,109.8,104.5,109.8z"/>
	</g>
	<g class="st1">
		
			<rect x="607" y="197.8" transform="matrix(0.4299 -0.9029 0.9029 0.4299 143.7148 706.0677)" class="st2" width="47.9" height="83"/>
		<path class="st2" d="M612.5,209.1c-1.4,2.9-4.8,4.1-7.7,2.7c0,0,0,0,0,0c-0.2-0.1-0.4-0.2-0.6-0.4l-11.8,24.8
			c0.2,0.1,0.5,0.2,0.7,0.3c2.9,1.4,4.1,4.8,2.7,7.7l-0.2,0.3l53.5,25.5c0-0.1,0.1-0.2,0.1-0.3c1.3-2.9,4.8-4.1,7.7-2.8
			c0,0,0,0,0.1,0c0.2,0.1,0.4,0.2,0.6,0.4l11.8-24.8c-0.2-0.1-0.4-0.2-0.7-0.3c-2.9-1.4-4.1-4.8-2.7-7.7c0.1-0.2,0.2-0.4,0.4-0.6
			l-53.6-25.5C612.7,208.7,612.6,208.9,612.5,209.1z M639.5,243.4c-2.2,4.7-7.9,6.7-12.6,4.5s-6.7-7.9-4.5-12.6s7.9-6.7,12.6-4.5
			c0,0,0,0,0,0C639.8,233,641.8,238.6,639.5,243.4L639.5,243.4z"/>
	</g>
	<g class="st1">
		
			<rect x="374.3" y="99.6" transform="matrix(0.8096 -0.5869 0.5869 0.8096 6.6024 267.5724)" class="st2" width="83" height="47.9"/>
		<path class="st2" d="M380.5,125.4c1.9,2.6,1.3,6.2-1.3,8.1c-0.2,0.1-0.4,0.3-0.6,0.4l16.1,22.3c0.2-0.2,0.4-0.3,0.5-0.5
			c2.6-1.9,6.2-1.3,8.1,1.3c0.1,0.1,0.1,0.2,0.2,0.3l48-34.8l-0.2-0.3c-1.9-2.6-1.3-6.2,1.3-8.1c0.2-0.1,0.4-0.3,0.6-0.4L437,91.4
			c-0.2,0.2-0.4,0.3-0.5,0.5c-2.6,1.9-6.2,1.3-8.1-1.3c-0.1-0.2-0.3-0.4-0.4-0.6l-48,34.8C380.2,125,380.3,125.2,380.5,125.4z
			 M423.5,118.1c3.1,4.2,2.1,10.2-2.1,13.2s-10.2,2.1-13.2-2.1c-3.1-4.2-2.1-10.2,2.1-13.2C414.5,112.9,420.4,113.8,423.5,118.1
			L423.5,118.1z"/>
	</g>
</g>
<g id="freepik--Plants--inject-1">
	<g class="st3">
		<path d="M48.5,203.2c6.3,0.2,19.4-5.4,19.5-5.4s-6.3-7.5-6.8-7.9c-5.3-4.9-18.5-11.3-25.5-7.3c-5.1,2.9-5.9,9.4-2.7,14
			S43.1,203.1,48.5,203.2z"/>
		<path d="M68.3,239.7c5.9-1.4,16.4-9.5,17.2-10.2c4.6,6,9.6,11.6,15,16.9c3.1,3.1,6.4,6.1,9.6,9.1c-1.7-1.1-3.2-2.2-3.5-2.3
			c-6.4-3.3-20.8-6-26.6-0.3c-4.2,4.1-3.2,10.7,1.1,14.2s11.5,3.5,16.7,2.2s14.4-8,16.7-9.8l3.8,3.4c6.1,5.4,12.3,10.8,18.1,16.3
			c2.1,1.9,4,3.9,6,5.9c-1.5-1-2.8-1.9-3-2c-6.4-3.3-20.8-6-26.6-0.3c-4.2,4.1-3.2,10.7,1.1,14.2s11.5,3.5,16.7,2.2
			c5.1-1.2,13.5-7.4,16.3-9.5c2,2.1,3.9,4.2,5.7,6.3c1.2,1.5,2.5,2.8,3.6,4.3l3.4,4.5c2,2.9,4.2,5.9,6.1,8.8c1.4,2,2.6,3.9,3.9,5.9
			c-2-2-6.1-5.7-6.5-6c-5.8-4.3-19.6-9.1-26.2-4.3c-4.7,3.4-4.8,10-1.1,14.2s10.8,5.2,16.2,4.8c5.9-0.5,17.1-6.6,18.4-7.4
			c2.1,3.2,4.1,6.4,5.9,9.4c1.7,2.7,3.2,5.2,4.6,7.7l4.7-1.9c-1.6-2.7-3.4-5.5-5.3-8.4c-2.1-3.3-4.4-6.7-6.9-10.3
			c3-2.8,5.8-5.8,8.4-8.9c5.5,2.6,17.3,3.6,18.9,3.7c0,3.8-0.1,7.6-0.2,11.1c-0.1,2.4-0.2,4.8-0.3,7l5-2c0-1.6,0.1-3.2,0.1-4.9
			c0.1-3.9,0-8.1,0-12.4c1.5-0.3,14.1-2.5,19-5.9c4.5-3.1,9.3-8.2,9.6-13.9s-4-10.7-9.8-10.4c-8.1,0.4-15.8,12.9-17.6,19.9
			c-0.1,0.4-0.8,5-1.2,7.9c0-1.8-0.1-3.4-0.1-5.2c-0.1-3.6-0.3-7.1-0.5-10.9c-0.2-1.8-0.3-3.7-0.5-5.6s-0.5-3.8-0.7-5.8
			c-0.7-4.5-1.5-9-2.5-13.5c3.1-0.1,14.2-0.6,19.1-2.9s10.4-6.7,11.6-12.3s-2.3-11.2-8.1-11.7c-8.1-0.8-17.5,10.4-20.4,17
			c-0.2,0.4-1.7,5.4-2.5,8.2c-0.6-2.7-1.2-5.4-1.9-8.1c-2-7.8-4.4-15.7-6.6-23.6c-0.7-2.4-1.4-4.8-2-7.2c1.1,0,14.3-0.3,19.7-3
			c4.9-2.3,10.4-6.7,11.6-12.3s-2.3-11.2-8.1-11.7c-8.1-0.8-17.5,10.4-20.4,17c-0.2,0.5-2.4,7.7-2.9,9.6c-1.5-5.3-2.9-10.6-4.1-15.9
			c-1.7-7.1-2.8-14.3-3.6-21.6c0.5,0,14.2-0.2,19.9-3c4.9-2.3,10.4-6.7,11.5-12.3s-2.3-11.2-8.1-11.7c-8.1-0.8-17.5,10.4-20.4,17
			c-0.2,0.5-2.6,8.3-2.9,9.7c0-0.4-0.1-0.9-0.2-1.3c-0.5-7.3-0.4-14.7,0.4-22c0.4-4,1-7.9,1.6-11.6c2.6,0.2,14.3,1.1,19.6-0.8
			c5.1-1.8,11.1-5.5,12.8-10.9s-1.1-11.4-6.8-12.6c-7.9-1.7-18.6,8.4-22.1,14.6c-0.2,0.3-1.8,4-2.9,6.7c0.3-1.7,0.6-3.4,1-5
			c1.3-6,2.8-11.4,4.2-16.2c0.8-2.7,1.6-5.2,2.4-7.4c2.6-1.1,13.1-5.7,16.9-9.7s7.3-10,6.3-15.6s-6.2-9.6-11.8-8
			c-7.8,2.2-12.6,16-12.9,23.2c0,0.6,0.7,10.4,0.8,10.4l0.2-0.1c-0.8,2.2-1.6,4.5-2.4,7.1c-1.5,4.8-3.1,10.2-4.5,16.1
			c-1.6,6.4-2.8,13-3.6,19.6c-0.9,7.4-1.2,14.8-0.9,22.2v0.3c-0.8-2.2-3.4-8.4-3.6-8.8c-3.5-6.3-14-16.5-22-14.9
			c-5.7,1.1-8.6,7.1-6.9,12.5s7.6,9.2,12.7,11.1c5.7,2.1,18.9,1.1,19.9,1c0.6,7.5,1.6,15,3.2,22.4c0.9,4.3,1.9,8.6,3,12.9
			c-0.8-1.9-1.5-3.6-1.6-3.8c-3.5-6.3-14-16.5-22-14.9c-5.7,1.1-8.6,7.1-6.9,12.5s7.6,9.2,12.7,11.1s16.4,1.2,19.4,1
			c0.4,1.6,0.9,3.3,1.3,5c2.1,7.9,4.2,15.8,6.1,23.6c0.6,2.8,1.2,5.5,1.8,8.2c-0.7-1.7-1.3-3.1-1.4-3.3c-3.5-6.3-14-16.5-22-14.9
			c-5.7,1.1-8.6,7.1-6.9,12.5s7.6,9.2,12.7,11.1c4.9,1.8,15.3,1.3,18.8,1.1c0.5,2.8,1,5.6,1.3,8.4c0.2,1.9,0.5,3.7,0.6,5.6
			s0.2,3.7,0.4,5.6c0.1,3.6,0.2,7.2,0.3,10.7c0,2.4,0,4.7,0,7c-0.6-2.7-2-8.1-2.1-8.5c-2.4-5.9-6.3-11.1-11.3-15
			c-0.2-0.7-0.5-1.3-0.9-1.9c-2.9-4.8-9.2-6.7-13.9-3.2c-6.5,4.8-6,19.4-3.7,26.3c0.1,0.4,2.1,4.6,3.4,7.3c-1-1.4-1.9-2.8-3-4.3
			c-2-2.9-4.2-5.8-6.4-8.8l-3.5-4.4c-1.1-1.5-2.5-2.9-3.8-4.4c-3-3.4-6.2-6.6-9.5-9.8c2.6-1.8,11.5-8.3,14.3-13s5-11.3,2.9-16.6
			s-8.1-8-13.3-5.3c-7.2,3.8-8.9,18.3-7.6,25.4c0.1,0.5,1.6,5.5,2.4,8.2c-2-1.9-4-3.8-6.1-5.7c-6-5.4-12.3-10.7-18.5-16
			c-1.9-1.6-3.8-3.3-5.7-4.9c0.9-0.6,11.7-8.1,14.8-13.4c2.8-4.6,5-11.3,2.9-16.6s-8.1-8-13.3-5.3c-7.2,3.8-8.9,18.3-7.6,25.4
			c0.1,0.5,2.2,7.7,2.9,9.6c-4.2-3.6-8.3-7.2-12.2-11c-5.3-5-10.3-10.4-14.9-16.1c0.4-0.3,11.7-8.1,14.9-13.4
			c2.8-4.6,5-11.3,2.8-16.6s-8.1-8-13.2-5.3c-7.2,3.8-8.9,18.3-7.7,25.4c0.1,0.6,2.4,8.3,2.9,9.7c-0.3-0.3-0.6-0.6-0.8-1
			c-4.5-5.7-8.4-11.8-11.8-18.3c-1.9-3.6-3.5-7.1-5-10.6c2.2-1.2,12.5-7,15.9-11.5c3.3-4.3,6.2-10.7,4.7-16.2s-7.2-8.9-12.6-6.7
			c-7.5,3-10.9,17.2-10.4,24.4c0,0.4,0.7,4.4,1.3,7.2c-0.7-1.6-1.4-3.2-2-4.7c-2.3-5.7-4-11-5.5-15.8c-0.8-2.7-1.5-5.2-2.1-7.5
			c1.6-2.4,7.8-12,8.8-17.4s0.6-12.4-3.3-16.5s-10.4-4.6-14.3-0.2c-5.3,6.1-1.7,20.3,2,26.5c0.3,0.5,6.3,8.3,6.4,8.2l0.1-0.1
			c0.5,2.2,1.2,4.6,1.9,7.2c1.4,4.8,3,10.2,5.1,16c2.2,6.2,4.8,12.4,7.8,18.3c3.3,6.7,7.1,13,11.5,19l0.2,0.2
			c-1.9-1.4-7.4-5.1-7.9-5.3c-6.4-3.3-20.8-6-26.5-0.3c-4.2,4.1-3.2,10.7,1.1,14.2S63,241,68.3,239.7z"/>
		<path d="M183.3,152.9c0.1,0-1.1-9.7-1.2-10.3c-1.7-7-9.2-19.6-17.3-20.2c-5.8-0.4-10.1,4.6-10,10.2c0.1,5.6,4.9,10.9,9.3,14.1
			C169.3,150.3,183.3,152.9,183.3,152.9z"/>
	</g>
	<g class="st3">
		<path d="M391.5,307.3c7.3,0.2,22.5-6.2,22.5-6.2s-7.3-8.7-7.8-9.2c-6.2-5.7-21.4-13.1-29.6-8.5c-5.9,3.3-6.9,10.9-3.1,16.2
			S385.2,307.1,391.5,307.3z"/>
		<path d="M539.9,454.5l0.6,1h6.6c-0.8-1.3-1.7-2.6-2.5-3.9c-2.5-3.8-5.1-7.8-7.9-11.9c3.4-3.3,6.7-6.7,9.7-10.4
			c6.4,3,20.1,4.1,21.8,4.3c0,4.5-0.1,8.8-0.2,12.9c-0.1,2.8-0.2,5.5-0.3,8.1l5.8-2.3c0-1.9,0.1-3.7,0.1-5.7c0-4.5,0-9.3-0.1-14.3
			c1.8-0.3,16.3-2.9,22-6.8c5.2-3.5,10.8-9.5,11.1-16.1s-4.6-12.4-11.4-12c-9.4,0.5-18.2,14.9-20.4,23c-0.1,0.5-0.9,5.8-1.3,9.2
			c0-2-0.1-4-0.1-6.1c-0.1-4.1-0.3-8.2-0.6-12.6c-0.2-2.1-0.4-4.3-0.6-6.5c-0.1-2.2-0.6-4.4-0.8-6.7c-0.8-5.2-1.8-10.4-2.9-15.6
			c3.6-0.1,16.4-0.7,22.1-3.4s12.1-7.7,13.4-14.2s-2.7-12.9-9.4-13.6c-9.3-0.9-20.3,12-23.6,19.7c-0.2,0.5-2,6.3-2.9,9.5
			c-0.7-3.1-1.4-6.2-2.2-9.4c-2.4-9.1-5-18.2-7.7-27.3c-0.8-2.8-1.6-5.6-2.4-8.4c1.3,0,16.5-0.4,22.8-3.4
			c5.6-2.7,12.1-7.7,13.4-14.2s-2.7-12.9-9.4-13.6c-9.3-0.9-20.3,12-23.6,19.7c-0.2,0.6-2.8,8.9-3.3,11.1
			c-1.7-6.1-3.4-12.3-4.8-18.4c-1.9-8.2-3.3-16.6-4.1-25c0.6,0,16.5-0.3,23-3.4c5.6-2.7,12.1-7.8,13.4-14.2s-2.7-12.9-9.4-13.6
			c-9.3-0.9-20.3,12-23.6,19.7c-0.3,0.6-3,9.6-3.4,11.2c0-0.5-0.1-1-0.2-1.5c-0.6-8.5-0.5-17,0.4-25.4c0.4-4.7,1.1-9.1,1.9-13.4
			c3,0.2,16.5,1.2,22.7-0.9c5.9-2.1,12.8-6.4,14.8-12.7s-1.2-13.1-7.9-14.5c-9.2-1.9-21.5,9.7-25.6,17c-0.2,0.4-2.1,4.7-3.4,7.8
			c0.4-1.9,0.7-3.9,1.1-5.8c1.5-7,3.2-13.2,4.8-18.8c0.9-3.1,1.8-6,2.7-8.6c3-1.3,15.2-6.6,19.6-11.2s8.5-11.6,7.3-18.1
			s-7.2-11.1-13.7-9.3c-9,2.5-14.6,18.5-14.9,26.9c0,0.7,0.8,12.1,1,12l0.2-0.1c-0.9,2.5-1.8,5.2-2.8,8.2
			c-1.7,5.5-3.6,11.8-5.2,18.7c-1.8,7.5-3.2,15-4.2,22.6c-1.1,8.5-1.4,17.1-1,25.7c0,0.1,0,0.2,0,0.3c-1-2.6-3.9-9.7-4.2-10.2
			c-4.1-7.3-16.2-19.1-25.5-17.2c-6.6,1.3-9.9,8.2-8,14.4s8.8,10.7,14.7,12.8c6.6,2.4,21.9,1.2,23.1,1.1c0.7,8.7,1.9,17.4,3.7,26
			c1,5,2.2,10,3.5,15c-0.9-2.2-1.8-4.2-1.9-4.4c-4.1-7.3-16.2-19.1-25.5-17.2c-6.6,1.3-9.9,8.2-8,14.4s8.8,10.7,14.7,12.8
			s19,1.4,22.4,1.2c0.5,1.9,1,3.8,1.5,5.7c2.4,9.2,4.9,18.3,7.1,27.3c0.8,3.2,1.4,6.3,2,9.5c-0.8-1.9-1.5-3.6-1.7-3.8
			c-4.1-7.3-16.2-19.1-25.5-17.2c-6.6,1.3-9.9,8.2-8,14.4s8.8,10.7,14.7,12.8c5.7,2.1,17.7,1.5,21.8,1.2c0.6,3.3,1.1,6.5,1.5,9.7
			c0.2,2.2,0.6,4.3,0.7,6.5s0.3,4.3,0.4,6.5c0.1,4.1,0.3,8.4,0.3,12.4c0,2.8,0,5.5,0,8.1c-0.7-3.2-2.3-9.4-2.4-9.9
			c-2.8-6.8-7.3-12.8-13.1-17.4c-0.3-0.8-0.6-1.5-1-2.2c-3.3-5.6-10.7-7.8-16.1-3.7c-7.5,5.6-7,22.5-4.3,30.4c0.2,0.5,2.5,5.4,4,8.4
			c-1.2-1.7-2.3-3.3-3.5-5c-2.4-3.4-4.8-6.7-7.5-10.2l-4-5.1c-1.3-1.7-2.9-3.4-4.4-5.1c-3.5-3.9-7.2-7.7-11-11.4
			c3-2.1,13.3-9.6,16.5-15s5.8-13.1,3.3-19.2s-9.4-9.3-15.4-6.1c-8.3,4.4-10.3,21.2-8.9,29.4c0.1,0.5,1.8,6.3,2.8,9.5
			c-2.3-2.2-4.6-4.4-7-6.6c-7-6.3-14.2-12.4-21.5-18.5c-2.2-1.9-4.4-3.8-6.6-5.7c1.1-0.7,13.6-9.4,17.2-15.5
			c3.2-5.4,5.8-13.1,3.3-19.2s-9.4-9.3-15.3-6.1c-8.3,4.4-10.3,21.2-8.9,29.4c0.1,0.6,2.6,9,3.3,11.1c-4.8-4.2-9.6-8.4-14.1-12.7
			c-6.1-5.8-11.9-12-17.3-18.6c0.5-0.3,13.6-9.4,17.3-15.5c3.2-5.4,5.8-13.1,3.3-19.2s-9.4-9.3-15.4-6.1
			c-8.3,4.4-10.3,21.2-8.9,29.4c0.1,0.6,2.8,9.6,3.4,11.2c-0.3-0.4-0.7-0.7-1-1.1c-5.3-6.7-9.9-13.9-13.9-21.5
			c-2.2-4.1-4.1-8.2-5.8-12.2c2.6-1.4,14.5-8.1,18.4-13.3c3.8-5,7.2-12.4,5.4-18.8s-8.3-10.3-14.6-7.8c-8.7,3.5-12.6,19.9-12,28.3
			c0,0.5,0.9,5,1.5,8.4c-0.8-1.8-1.6-3.7-2.3-5.5c-2.6-6.6-4.6-12.8-6.3-18.3c-1-3.1-1.8-6-2.5-8.7c1.8-2.7,9.1-13.9,10.1-20.2
			c1-6.2,0.7-14.3-3.9-19.1s-12.1-5.3-16.5-0.2c-6.1,7.1-2,23.5,2.4,30.7c0.4,0.6,7.4,9.6,7.5,9.5l0.1-0.2c0.6,2.6,1.4,5.4,2.2,8.4
			c1.6,5.5,3.5,11.8,5.9,18.5c2.6,7.2,5.6,14.3,9,21.2c3.8,7.7,8.3,15.1,13.4,22l0.2,0.2c-2.2-1.6-8.6-5.9-9.1-6.2
			c-7.4-3.9-24.1-6.9-30.7-0.3c-4.8,4.8-3.7,12.4,1.3,16.5s13.3,4,19.4,2.6c6.9-1.6,18.9-11,19.9-11.8c5.4,6.9,11.2,13.5,17.4,19.6
			c3.6,3.6,7.4,7.1,11.2,10.6c-2-1.3-3.7-2.5-4-2.6c-7.4-3.9-24.1-6.9-30.7-0.3c-4.8,4.8-3.7,12.4,1.3,16.5s13.3,4.1,19.4,2.6
			s16.6-9.3,19.4-11.4c1.5,1.3,2.9,2.6,4.4,4c7.1,6.3,14.2,12.5,21,18.9c2.4,2.2,4.7,4.5,6.9,6.8c-1.8-1.2-3.2-2.2-3.5-2.3
			c-7.4-3.9-24.1-6.9-30.7-0.3c-4.8,4.8-3.7,12.4,1.3,16.5s13.3,4,19.4,2.6c5.9-1.4,15.6-8.5,18.9-11c2.3,2.4,4.5,4.8,6.6,7.3
			c1.4,1.7,2.8,3.2,4.1,5l3.9,5.1c2.4,3.4,4.8,6.8,7.1,10.2c1.6,2.3,3,4.5,4.5,6.8c-2.3-2.2-7-6.6-7.5-6.9
			c-6.8-4.9-22.8-10.5-30.3-5c-5.5,4-5.6,11.6-1.2,16.5s12.5,6,18.7,5.5c6.9-0.6,19.7-7.7,21.3-8.6
			C535.4,447.4,537.7,451,539.9,454.5z"/>
		<path d="M547.6,249c0.2,0-1.3-11.3-1.4-12c-2-8.1-10.6-22.7-20-23.4c-6.8-0.5-11.8,5.3-11.6,11.8s5.7,12.6,10.8,16.3
			C531.3,246,547.5,249,547.6,249z"/>
	</g>
</g>
<g id="freepik--Stairs--inject-1">
	<rect x="55.3" y="338.5" class="st4" width="115.9" height="22.7"/>
	<rect x="87.4" y="314.7" class="st4" width="115.9" height="23.8"/>
	<rect x="119.5" y="290.8" class="st4" width="115.9" height="23.8"/>
	<rect x="151.6" y="267" class="st4" width="115.9" height="23.8"/>
	<polygon class="st5" points="300.7,455.5 300.7,267 267.5,267 267.5,290.8 235.4,290.8 235.4,314.7 203.3,314.7 203.3,338.5 
		171.2,338.5 171.2,455.5 	"/>
	<rect x="184.9" y="432.8" class="st4" width="115.9" height="22.7"/>
	<rect x="152.8" y="409" class="st4" width="115.9" height="23.8"/>
	<rect x="120.7" y="385.1" class="st4" width="115.9" height="23.8"/>
	<rect x="88.6" y="361.3" class="st4" width="115.9" height="23.8"/>
	<polygon class="st5" points="55.3,455.5 55.3,361.3 88.6,361.3 88.6,385.1 120.7,385.1 120.7,409 152.8,409 152.8,432.8 
		184.9,432.8 184.9,455.5 	"/>
</g>
<g id="freepik--character-2--inject-1">
	<path class="st4" d="M648.5,312.3L641,337l-16.7-12.9c-0.3-1.6-0.6-3.2-1-4.8c-0.3-0.8-2.3-3.1-2.8-4s-1.1-0.1-1.1,0.6
		s1.5,2.9,1.5,2.9l-0.8,0.8l-6.2-3c-0.3-0.1-0.7,0-0.8,0.3c0,0,0,0,0,0l0,0c-0.1,0.3,0,0.6,0.2,0.7l3.4,2.6l-0.4,0.9l-5.7-2.3
		c-0.3-0.1-0.6,0-0.7,0.3c0,0,0,0,0,0l0,0c-0.1,0.3,0,0.5,0.2,0.7l5.2,3l-3.4,0.7c-0.3,0.1-0.5,0.4-0.4,0.7c0,0,0,0,0,0.1l0,0
		c0.1,0.2,0.3,0.4,0.5,0.4h3.5l-3,1.1c0,0,0.4,0.9,1,0.8l3.5-0.2l5.2,0.3c0,0,16.9,17.8,17.5,18.3s3.9,1.8,4.5,1.1s8.1-9.6,8.1-9.6
		l-1.1-23.2C651.3,313.2,650.2,311,648.5,312.3z"/>
	<path class="st5" d="M652.5,283.8c0,0-3.2,0.2-4.8-5s2.4-6.7,4.5-7.1s2.6-5.2,6.3-5.8s7.5,2.4,8.4,5s6.5-1.3,9.7,2.2s3,10.1,3,12.5
		s7.3,2.8,7.3,8.4s-0.9,8.4-0.4,9.3s3.7,18.5,3.7,18.5H650c0,0-1.3-12.9,0.2-16.2s2.8-3.5,3.5-6.5s0-7.8-0.4-9.9
		C652.9,287.4,652.7,285.6,652.5,283.8z"/>
	<polygon class="st5" points="660.3,306.5 648.2,306.7 650.6,336.3 673.5,338 684.3,307.4 671.3,306.3 	"/>
	<path class="st4" d="M656.4,276.9c0,0-3.2,4.5-3.9,6.9c-0.9,2.7-1,5.6-0.5,8.5c0.7,3.2,2.5,8.6,3.8,9s4.8,0,4.8,0l-0.2,5.2h-1.7
		l0.2,7.8l8.2,0.4l4.3-8.4l-2.2-0.4l-1.5-12.7c0,0,2.2-2.4,2.4-4.1c0.1-0.9,0.2-1.7,0.2-2.6c0,0-2.6,2-4.8,0s-2.8-4.1-3.5-6.3
		s-1.9-3.9-3-3.9C658.1,276.3,657.3,276.6,656.4,276.9z"/>
	<polygon class="st5" points="660.5,301.3 664.2,300 660.8,303.9 	"/>
	<path class="st6" d="M650.6,336.3l-2.4,7.6c0,0-8.6,9.3-10.4,26.5s1.1,34.3,2,41.2s9.2,37.5,9.2,37.5h5.6c0,0-2.1-28.4-2.1-31.2
		v-15.8l15.9,43.6l5.2,0.2c0,0-2.1-20.6-3.4-29c-0.9-5.5-2.1-11-3.7-16.3c0,0,11.4-22.7,11.4-38.2s-3.9-19-3.9-19l-0.6-5.4
		L650.6,336.3z"/>
	<path class="st7" d="M657.5,360c0.8-3.4,1.3-5.6,1.3-5.6"/>
	<path class="st7" d="M652.5,402.1c0,0-0.9-4.3-0.2-13.6c0.4-5.5,2.6-16.4,4.3-24.4"/>
	<path class="st4" d="M649,449.1c0,0-10.1,4.8-10.1,5.8s16.2,0,16.2,0c0.4-1,0.5-2.1,0.4-3.2c-0.1-0.9-0.4-1.8-0.9-2.6H649z"/>
	<path class="st4" d="M668.4,445.8c0,0-4.7,6-6.3,7.6s-1.1,2.6,0.2,2.6s8.6-0.4,9.9-1.3c0.7-0.5,1.4-1.1,1.9-1.7l-0.6-6.9
		L668.4,445.8z"/>
	<path class="st4" d="M683,311.2c0,0,2,28.7,0.2,31.7s-6.7,1.3-7.1,0s0.4-12.5,0.4-12.5L683,311.2z"/>
	
		<rect x="550" y="248.4" transform="matrix(0.9896 -0.1442 0.1442 0.9896 -41.1304 89.3952)" class="st8" width="92.5" height="160.1"/>
	<path class="st4" d="M624.8,266.6c-6.1,0.9-11.8-3.3-12.6-9.4c0,0,0,0,0,0c-0.1-0.5-0.1-0.9-0.1-1.4l-52.5,7.6
		c0.1,0.4,0.2,0.9,0.3,1.4c0.9,6.1-3.3,11.8-9.4,12.6c-0.2,0-0.5,0-0.7,0.1l16.5,113.2c0.2,0,0.5-0.1,0.7-0.1
		c6.1-0.9,11.8,3.3,12.6,9.4c0,0,0,0,0,0c0.1,0.5,0.1,0.9,0.1,1.4l52.5-7.6c-0.1-0.4-0.2-0.9-0.3-1.4c-0.9-6.1,3.3-11.7,9.4-12.6
		c0,0,0,0,0,0c0.5-0.1,0.9-0.1,1.4-0.1l-16.5-113.4C625.7,266.4,625.3,266.5,624.8,266.6z M598.8,346.6c-10,1.5-19.3-5.5-20.7-15.5
		c-1.5-10,5.5-19.3,15.5-20.7c10-1.5,19.3,5.5,20.7,15.5C615.8,335.8,608.9,345.1,598.8,346.6C598.9,346.6,598.8,346.6,598.8,346.6
		L598.8,346.6z"/>
	
		<rect x="544.7" y="255.3" transform="matrix(0.9659 -0.2589 0.2589 0.9659 -66.7421 164.5017)" class="st9" width="92.9" height="160.8"/>
	<path class="st4" d="M609.5,270.4c-6,1.6-12.1-1.9-13.7-7.9c-0.1-0.4-0.2-0.9-0.3-1.4l-51.3,13.7c0.2,0.4,0.3,0.9,0.5,1.3
		c1.6,5.9-1.9,12.1-7.9,13.7c0,0,0,0,0,0c-0.2,0.1-0.5,0.1-0.7,0.1l29.6,110.5l0.7-0.2c5.9-1.6,12.1,1.9,13.7,7.9c0,0,0,0,0,0
		c0.1,0.4,0.2,0.9,0.3,1.4l51.3-13.7c-0.2-0.4-0.3-0.9-0.5-1.3c-1.6-6,1.9-12.1,7.9-13.7c0.4-0.1,0.9-0.2,1.4-0.3l-29.6-110.6
		C610.4,270.1,610,270.2,609.5,270.4z M593,352.9c-9.8,2.6-19.8-3.2-22.4-13c-2.6-9.8,3.2-19.8,13-22.4c9.8-2.6,19.8,3.2,22.3,13
		C608.6,340.3,602.8,350.3,593,352.9C593,352.9,593,352.9,593,352.9z"/>
	<path class="st4" d="M678,338.2l-32.2-0.6c0,0-6.5-2.2-7.6-2.2c-1.5,0.2-3,0.6-4.5,1.1c-0.3,0.1-0.5,0.4-0.4,0.7l0,0
		c0.1,0.3,0.4,0.5,0.7,0.5l3.1-0.5l0.9,0.6l-6.2,4c-0.3,0.2-0.3,0.5-0.2,0.8l0,0c0.2,0.3,0.5,0.4,0.8,0.3l4.7-2.2l0.2,1.2l-5,2.6
		c-0.3,0.2-0.5,0.6-0.3,0.9l0,0c0.1,0.3,0.5,0.5,0.8,0.4l1.8-0.4l0,0c0.4,0.5,1.1,0.8,1.8,0.6l3.4-1l-2.2,1.4
		c-0.3,0.2-0.4,0.6-0.2,0.8c0,0.1,0.1,0.1,0.1,0.2l0,0c0.2,0.2,0.5,0.2,0.8,0l4.3-3l3.7-2.4l32.6,5.7c0,0,2.8,0.2,3.2-0.3
		s1.4-5.8,1.5-7.1"/>
	<line class="st7" x1="634.6" y1="345.4" x2="639" y2="343.7"/>
	<path class="st10" d="M655.4,286.7c0,0.7-0.4,1.4-0.9,1.4s-0.9-0.6-0.9-1.4s0.4-1.3,0.9-1.3S655.4,285.9,655.4,286.7z"/>
	<path class="st10" d="M660.3,287.7c0,0.7-0.4,1.3-0.9,1.3s-0.9-0.6-0.9-1.3s0.4-1.3,0.9-1.3S660.3,286.9,660.3,287.7z"/>
	<path class="st7" d="M653.5,283.6c0,0,0.9-1.1,2.6,0.1"/>
	<path class="st7" d="M658.4,284.2c1.2-0.5,2.6,0.1,3.1,1.3"/>
	<path class="st7" d="M656.3,286.7c0.1,0.6,0.1,1.3-0.1,1.9c-0.3,0.8-1.8,2.1-1.7,2.5s0.8,0.5,0.8,0.5"/>
	<path class="st7" d="M654.4,294.2c0,0,3,1.4,5.4-0.5"/>
</g>
<g id="freepik--character-1--inject-1">
	<circle class="st4" cx="320.6" cy="178" r="34.5"/>
	<circle class="st4" cx="324.1" cy="178" r="34.5"/>
	
		<ellipse transform="matrix(0.7071 -0.7071 0.7071 0.7071 -30.9429 281.3147)" class="st4" cx="324.1" cy="178" rx="29.2" ry="29.2"/>
	<path class="st5" d="M237.5,173.8l1.1,50.5l-0.4,35.9l5.9-0.9c0,0,6.3-33.8,6.3-35.7s3.5-27,3.5-27l6.5,32.4l3.4,31.1l5.9-0.9
		c0,0,0.8-33.8,0.8-39.8s-0.3-45.3-0.3-45.3l-18.4-4.8L237.5,173.8z"/>
	<path class="st4" d="M244.1,259.3c0,0,8.7,5.7,7.4,7s-8.5,0-10.5-0.2c-0.9,0-1.8-0.3-2.6-0.6l-0.2-5.2L244.1,259.3z"/>
	<path class="st4" d="M269.7,259.3c0,0,8.7,5.7,7.4,7s-8.5,0-10.5-0.2c-0.9,0-1.8-0.3-2.6-0.6l-0.2-5.2L269.7,259.3z"/>
	<path class="st4" d="M314.6,142.5l7.9-1.8c0,0,7.5,4,8.2,4.6s-0.6,0.6-2,0.6c-2.1-0.3-4.3-0.7-6.4-1.3c0,0,3.3,1,2.8,1.5
		c-0.6,0.5-1.4,0.7-2.1,0.5c-0.5-0.1-2.5-0.4-2.5-0.4s-3.5-0.1-4.6-0.3l-1.1-0.2L314.6,142.5z"/>
	<path class="st11" d="M263.8,111.4c0,0-17.9,10-20.2,12.9s-3.1,17.3-4.6,27.5c-1,7.6-1.6,15.2-1.7,22.9c0,0,12.9,1.7,20,1.5
		c4.4-0.1,8.7-0.8,12.9-1.9c0,0,2.5-12.9,3.1-14.8s5.2-25,5.2-25l14.2,11.3h21.9v-3.2c0,0-17.4-4-17.5-4.6s-14.8-21.5-19.2-24
		S266.9,109.1,263.8,111.4z"/>
	<path class="st4" d="M265.5,105.8l-3.3,7.9c0,0-1.5,0.4-1.1,3.5s4.2,11.7,5.6,11.5s5.6-11.7,5.6-11.7L265.5,105.8z"/>
	<polygon class="st5" points="267.4,114.5 268.7,125 271.3,119.8 	"/>
	<path class="st5" d="M283.8,101.2c1.3,1.1,3.1,1.2,4.6,0.4c2.9-1.3,4.2-4.2,1.7-6.5s-3.8,0.2-4.6-2.9s-3.8-5.2-6.5-4.4
		s-1.7,1.7-3.6,2.3s-4.4-1.2-6.9,1.3s-2.9,8.4-3.5,11.1s1.9,3.4,4,3.3s3.8-4.6,5.6-6S283.8,101.2,283.8,101.2z"/>
	<path class="st4" d="M265.1,106.6c0,0,0.2,4.2,1,5.6s4,7.7,5.2,7.7c1.2,0.1,2.5,0,3.6-0.4c0.8-0.4,3.8-4.4,5.8-7.9
		s3.1-10.4,3.1-10.4s-9.2-5.8-9.8-4.6s-0.4,2.9-1.3,3.1s-3.1,0.4-3.1,0.4s0.6,2.7-0.2,3.3s-2.7-0.6-2.7-0.6S264.4,103.1,265.1,106.6
		z"/>
	<path class="st10" d="M275.8,107.3c-0.2,0.7-0.6,1.2-1,1.2s-0.6-0.8-0.4-1.5s0.6-1.3,1-1.2S276,106.5,275.8,107.3z"/>
	<path class="st10" d="M280.8,108.7c-0.2,0.7-0.6,1.2-1,1.2s-0.6-0.8-0.4-1.5s0.6-1.3,1-1.2S281,107.9,280.8,108.7z"/>
	<path class="st7" d="M273.7,104.5c0,0,0.8-0.6,3,0"/>
	<path class="st7" d="M280.1,105.9c0.8,0.1,1.5,0.5,2,1.2"/>
	<polyline class="st7" points="278.4,108.6 277.6,112.7 275.2,112.4 	"/>
	<path class="st7" d="M274.5,114.8c0,0-2.3,0-3-3.2"/>
	<path class="st4" d="M267.6,104.5c0,0-0.4-4.4-2.1-4.4s-3.3,4-2.3,5.8s3.5,2.3,3.5,2.3"/>
	<path class="st11" d="M252.3,127.7l3.3,27.6l28,9.6l0.4,3.2l-37.4-5.1l-6-31.1c-0.7-3.8,1.2-7.9,3.9-10.2s6.9-2.4,6.9-2.4"/>
	<path class="st4" d="M283.6,164.9c0,0,4.5-1.2,5-1.4s3.6,2.2,4.2,2.3s1.6,0.3,1.6,1.1s-0.3,1.4-1.8,0.9c-0.8-0.3-1.6-0.6-2.4-1
		c1.4,1.4,2.8,2.7,4.4,3.9c0.6,0.3,1.1,0.8,1.5,1.2c0.2,0.3,0.2,0.7,0,0.9c0,0-0.1,0.1-0.2,0.1c-1.2,0.6-2.5,0.9-3.8,1
		c-2.1,0-8-5.9-8-5.9L283.6,164.9z"/>
	<polygon class="st4" points="311.7,193.1 316.8,184.1 322.1,175.1 327.2,166 328.2,164.7 328.5,166 330.2,172 328.3,175.1 
		323.2,184.1 317.9,193.1 324.1,193.1 329.4,184.1 332.1,179.4 333.5,184.1 335.8,193.1 341.4,193.1 339,184.1 336.6,175.1 
		335.9,172.7 339.8,166 334.2,166 333.9,165.4 332.1,158 331.7,157 326.3,157 326.1,157.2 321,166 315.9,175.1 310.6,184.1 
		305.5,193.1 	"/>
</g>
<g id="freepik--piggy-bank--inject-1">
	<path class="st11" d="M458.2,246.8c0,0,28.6-16.1,32.8-14.6s-3.6,33.3-4.7,35.4S458.2,246.8,458.2,246.8z"/>
	<path class="st7" d="M489.4,236.4c0,0-1.2,1.9-2.8,4.7c-2.8,4.9-6.5,12.3-6.5,16.6c0,6.8,4.2,6.2,5.2,1l3.6-15.1"/>
	<ellipse class="st11" cx="248.9" cy="312.9" rx="14.2" ry="18.5"/>
	<ellipse class="st11" cx="377.7" cy="331.1" rx="135.4" ry="114.6"/>
	<path class="st12" d="M465.6,410.1c-23,18.3-53.9,29.5-87.9,29.5c-60.8,0-111.6-35.8-124.9-83.8"/>
	<path class="st12" d="M249.5,334.7c-0.1-1.2-0.1-2.4-0.1-3.6c0-13.1,2.7-26,8.1-38"/>
	<path class="st13" d="M337,229.1c26.6-7.5,54.9-7.5,81.5,0"/>
	<path class="st11" d="M505.6,295.7c0,0,17.2-5.7,19.8-2.6s2.6,39.5,0.5,46.3s-16.1,5.2-26-2.1c-5.7-4-9.1-10.7-8.8-17.7"/>
	<line class="st7" x1="495.1" y1="318.1" x2="484.7" y2="319.6"/>
	<path class="st5" d="M492.5,329.5c0,0-2.6,18.2,0.5,18.7s8.3-8.9,8.3-8.9S494.1,331.1,492.5,329.5z"/>
	<path class="st10" d="M483.1,286.8c1,3.8,0.4,7.1-1.3,7.6s-3.8-2.3-4.8-6s-0.4-7.1,1.3-7.6S482.1,283.1,483.1,286.8z"/>
	<path class="st11" d="M428.4,236.4c0,0,32.8-32.8,39.1-26.4s4,34.3,4,38.3v11.2"/>
	<path class="st7" d="M468.6,217.1c0,0,0.5-8.3-3.1-3.1s-14,41.1-10.9,45.3c3.1,4.2,12,2.1,14.1-5.7s0.5-30.2,0.5-30.2"/>
	<polyline class="st11" points="289.3,407 307.3,455.5 327,455.5 335.9,430.5 	"/>
	<polyline class="st11" points="454.5,413.3 437.4,455.5 417.6,455.5 408.8,430.5 	"/>
	<polygon class="st10" points="337.5,378.9 351.5,354.3 365.9,329.8 379.9,305.2 382.4,301.3 383.3,305.2 388,321.3 382.9,329.8 
		368.9,354.3 354.5,378.9 371.4,378.9 385.8,354.3 393.1,341.6 396.9,354.3 403.2,378.9 418.5,378.9 412.1,354.3 405.4,329.8 
		403.7,323.4 414.3,305.2 399,305.2 398.1,303.5 393.1,283.1 392.2,280.6 377.4,280.6 376.9,281 362.9,305.2 348.9,329.8 
		334.5,354.3 320.5,378.9 	"/>
	<ellipse class="st14" cx="409.5" cy="298.2" rx="32.6" ry="31.5"/>
</g>
<g id="freepik--Floor--inject-1">
	<line class="st7" x1="16" y1="455.5" x2="737.4" y2="455.5"/>
</g>
</svg>
