<?xml version="1.0" encoding="utf-8"?>
<!-- Generator: Adobe Illustrator 27.1.1, SVG Export Plug-In . SVG Version: 6.00 Build 0)  -->
<svg version="1.1" id="Layer_1" xmlns="http://www.w3.org/2000/svg" xmlns:xlink="http://www.w3.org/1999/xlink" x="0px" y="0px"
	 viewBox="0 0 750 500" style="enable-background:new 0 0 750 500;" xml:space="preserve">
<style type="text/css">
	.st0{display:none;}
	.st1{display:inline;fill:#4F4FDE;}
	.st2{display:inline;opacity:0.7;fill:#FFFFFF;enable-background:new    ;}
	.st3{fill:none;stroke:#263238;stroke-linecap:round;stroke-linejoin:round;}
	.st4{fill:#263238;stroke:#263238;stroke-linecap:round;stroke-linejoin:round;}
	.st5{fill:#4F4FDE;}
	.st6{fill:#FFFFFF;stroke:#263238;stroke-linecap:round;stroke-linejoin:round;}
	.st7{opacity:0.21;}
	.st8{fill:#ADADAD;stroke:#263238;stroke-linecap:round;stroke-linejoin:round;}
	.st9{fill:#4F4FDE;stroke:#263238;stroke-linecap:round;stroke-linejoin:round;}
	.st10{fill:#FFFFFF;}
	.st11{opacity:0.21;enable-background:new    ;}
	.st12{fill:#DBDBDB;stroke:#263238;stroke-linecap:round;stroke-linejoin:round;}
	.st13{fill:none;stroke:#FFFFFF;stroke-linecap:round;stroke-linejoin:round;}
	.st14{fill:#263238;}
	.st15{fill:#FFC703;}
</style>
<g id="freepik--background-simple--inject-203" class="st0">
	<path class="st1" d="M704,59.4c-12.9-2.4-28.3,0-39.7-0.4c-25-0.9-50.1-1.8-75.1-2.6C517.8,54,446.4,51.8,375,49.8
		c-72.7-1.9-145.3-3.7-218-4.2c-23.7-0.2-48.9,0-73.1,0.1c-16.8,0.1-42.9-6.7-55.6,7.7c-10.9,12.3-6,33.3-5.7,48
		c0.3,16.2,0.8,32.3,1.4,48.4c1.5,41.6,3.4,83.3,5.7,124.9c1.5,28,3.8,55.9,5,84c1.2,27.5-2.1,55.6,2.5,82.8
		c1.3,7.5,3.8,15.6,10.3,19.4c3.9,2.3,8.5,2.6,13,2.9c144,7.6,287.5-5.5,431.4-7.5c50.4-0.7,100.8-3,151.2-5
		c28.8-1.2,76,7.6,75.7-33.8c-0.1-19.6-2.4-38.5-1.5-58.2c2.3-50.5,4.6-101,6.7-151.4c1.1-25.6,2.1-51.2,3.1-76.8
		c0.7-17.8,6.8-45.9-4.7-61.2C718,63.7,711.5,60.7,704,59.4z"/>
	<path class="st2" d="M704,59.4c-12.9-2.4-28.3,0-39.7-0.4c-25-0.9-50.1-1.8-75.1-2.6C517.8,54,446.4,51.8,375,49.8
		c-72.7-1.9-145.3-3.7-218-4.2c-23.7-0.2-48.9,0-73.1,0.1c-16.8,0.1-42.9-6.7-55.6,7.7c-10.9,12.3-6,33.3-5.7,48
		c0.3,16.2,0.8,32.3,1.4,48.4c1.5,41.6,3.4,83.3,5.7,124.9c1.5,28,3.8,55.9,5,84c1.2,27.5-2.1,55.6,2.5,82.8
		c1.3,7.5,3.8,15.6,10.3,19.4c3.9,2.3,8.5,2.6,13,2.9c144,7.6,287.5-5.5,431.4-7.5c50.4-0.7,100.8-3,151.2-5
		c28.8-1.2,76,7.6,75.7-33.8c-0.1-19.6-2.4-38.5-1.5-58.2c2.3-50.5,4.6-101,6.7-151.4c1.1-25.6,2.1-51.2,3.1-76.8
		c0.7-17.8,6.8-45.9-4.7-61.2C718,63.7,711.5,60.7,704,59.4z"/>
</g>
<g id="freepik--Floor--inject-203">
	<line class="st3" x1="25.7" y1="468.5" x2="731.1" y2="468.5"/>
</g>
<g id="freepik--Store--inject-203">
	<rect x="103.5" y="84.8" class="st4" width="553.6" height="383.7"/>
	<path class="st5" d="M382.8,398.2h21.5c2,0,3.6,1.6,3.6,3.6v6.6c0,2-1.6,3.6-3.6,3.6h-21.5c-2,0-3.6-1.6-3.6-3.6v-6.6
		C379.3,399.8,380.9,398.2,382.8,398.2z"/>
	<path class="st5" d="M413.7,398.2h21.5c2,0,3.6,1.6,3.6,3.6v6.6c0,2-1.6,3.6-3.6,3.6h-21.5c-2,0-3.6-1.6-3.6-3.6v-6.6
		C410.1,399.8,411.7,398.2,413.7,398.2z"/>
	<path class="st5" d="M444.6,398.2H466c2,0,3.6,1.6,3.6,3.6v6.6c0,2-1.6,3.6-3.6,3.6h-21.5c-2,0-3.6-1.6-3.6-3.6v-6.6
		C441,399.8,442.6,398.2,444.6,398.2z"/>
	<path class="st5" d="M475.5,398.2h21.5c2,0,3.6,1.6,3.6,3.6v6.6c0,2-1.6,3.6-3.6,3.6h-21.5c-2,0-3.6-1.6-3.6-3.6v-6.6
		C471.9,399.8,473.5,398.2,475.5,398.2z"/>
	<path class="st5" d="M506.4,398.2h21.5c2,0,3.6,1.6,3.6,3.6v6.6c0,2-1.6,3.6-3.6,3.6h-21.5c-2,0-3.6-1.6-3.6-3.6v-6.6
		C502.8,399.8,504.4,398.2,506.4,398.2z"/>
	<path class="st5" d="M537.2,398.2h21.5c2,0,3.6,1.6,3.6,3.6v6.6c0,2-1.6,3.6-3.6,3.6h-21.5c-2,0-3.6-1.6-3.6-3.6v-6.6
		C533.6,399.8,535.2,398.2,537.2,398.2z"/>
	<path class="st5" d="M568,398.2h21.5c2,0,3.6,1.6,3.6,3.6v6.6c0,2-1.6,3.6-3.6,3.6H568c-2,0-3.6-1.6-3.6-3.6v-6.6
		C564.5,399.8,566.1,398.2,568,398.2z"/>
	<path class="st5" d="M598.9,398.2h21.5c2,0,3.6,1.6,3.6,3.6v6.6c0,2-1.6,3.6-3.6,3.6h-21.5c-2,0-3.6-1.6-3.6-3.6v-6.6
		C595.3,399.8,596.9,398.2,598.9,398.2z"/>
	<path class="st5" d="M629.8,398.2h21.5c2,0,3.6,1.6,3.6,3.6v6.6c0,2-1.6,3.6-3.6,3.6h-21.5c-2,0-3.6-1.6-3.6-3.6v-6.6
		C626.2,399.8,627.8,398.2,629.8,398.2z"/>
	<path class="st5" d="M398.2,413.8h21.5c2,0,3.6,1.6,3.6,3.6v6.6c0,2-1.6,3.6-3.6,3.6h-21.5c-2,0-3.6-1.6-3.6-3.6v-6.6
		C394.6,415.4,396.2,413.8,398.2,413.8z"/>
	<path class="st5" d="M429.1,413.8h21.5c2,0,3.6,1.6,3.6,3.6v6.6c0,2-1.6,3.6-3.6,3.6h-21.5c-2,0-3.6-1.6-3.6-3.6v-6.6
		C425.5,415.4,427.1,413.8,429.1,413.8z"/>
	<path class="st5" d="M460,413.8h21.5c2,0,3.6,1.6,3.6,3.6v6.6c0,2-1.6,3.6-3.6,3.6H460c-2,0-3.6-1.6-3.6-3.6v-6.6
		C456.4,415.4,458,413.8,460,413.8z"/>
	<path class="st5" d="M490.9,413.8h21.5c2,0,3.6,1.6,3.6,3.6v6.6c0,2-1.6,3.6-3.6,3.6h-21.5c-2,0-3.6-1.6-3.6-3.6v-6.6
		C487.3,415.4,488.9,413.8,490.9,413.8z"/>
	<path class="st5" d="M521.7,413.8h21.5c2,0,3.6,1.6,3.6,3.6v6.6c0,2-1.6,3.6-3.6,3.6h-21.5c-2,0-3.6-1.6-3.6-3.6v-6.6
		C518.2,415.4,519.8,413.8,521.7,413.8z"/>
	<path class="st5" d="M367.6,413.8h21.5c2,0,3.6,1.6,3.6,3.6v6.6c0,2-1.6,3.6-3.6,3.6h-21.5c-2,0-3.6-1.6-3.6-3.6v-6.6
		C364.1,415.4,365.7,413.8,367.6,413.8z"/>
	<path class="st5" d="M552.5,413.8H574c2,0,3.6,1.6,3.6,3.6v6.6c0,2-1.6,3.6-3.6,3.6h-21.5c-2,0-3.6-1.6-3.6-3.6v-6.6
		C549,415.4,550.6,413.8,552.5,413.8z"/>
	<path class="st5" d="M583.4,413.8h21.5c2,0,3.6,1.6,3.6,3.6v6.6c0,2-1.6,3.6-3.6,3.6h-21.5c-2,0-3.6-1.6-3.6-3.6v-6.6
		C579.8,415.4,581.4,413.8,583.4,413.8z"/>
	<path class="st5" d="M614.3,413.8h21.5c2,0,3.6,1.6,3.6,3.6v6.6c0,2-1.6,3.6-3.6,3.6h-21.5c-2,0-3.6-1.6-3.6-3.6v-6.6
		C610.7,415.4,612.3,413.8,614.3,413.8z"/>
	<path class="st5" d="M656.6,413.8H645c-1.9,0-3.4,1.5-3.4,3.4v6.9c0,1.9,1.5,3.4,3.4,3.4h11.5L656.6,413.8z"/>
	<path class="st5" d="M522,413.8h21.5c2,0,3.6,1.6,3.6,3.6v6.6c0,2-1.6,3.6-3.6,3.6H522c-2,0-3.6-1.6-3.6-3.6v-6.6
		C518.4,415.4,520,413.8,522,413.8z"/>
	<path class="st5" d="M382.8,429.7h21.5c2,0,3.6,1.6,3.6,3.6v6.6c0,2-1.6,3.6-3.6,3.6h-21.5c-2,0-3.6-1.6-3.6-3.6v-6.6
		C379.3,431.3,380.9,429.7,382.8,429.7z"/>
	<path class="st5" d="M413.7,429.7h21.5c2,0,3.6,1.6,3.6,3.6v6.6c0,2-1.6,3.6-3.6,3.6h-21.5c-2,0-3.6-1.6-3.6-3.6v-6.6
		C410.1,431.3,411.7,429.7,413.7,429.7z"/>
	<path class="st5" d="M444.6,429.7H466c2,0,3.6,1.6,3.6,3.6v6.6c0,2-1.6,3.6-3.6,3.6h-21.5c-2,0-3.6-1.6-3.6-3.6v-6.6
		C441,431.3,442.6,429.7,444.6,429.7z"/>
	<path class="st5" d="M475.5,429.7h21.5c2,0,3.6,1.6,3.6,3.6v6.6c0,2-1.6,3.6-3.6,3.6h-21.5c-2,0-3.6-1.6-3.6-3.6v-6.6
		C471.9,431.3,473.5,429.7,475.5,429.7z"/>
	<path class="st5" d="M506.4,429.7h21.5c2,0,3.6,1.6,3.6,3.6v6.6c0,2-1.6,3.6-3.6,3.6h-21.5c-2,0-3.6-1.6-3.6-3.6v-6.6
		C502.8,431.3,504.4,429.7,506.4,429.7z"/>
	<path class="st5" d="M537.2,429.7h21.5c2,0,3.6,1.6,3.6,3.6v6.6c0,2-1.6,3.6-3.6,3.6h-21.5c-2,0-3.6-1.6-3.6-3.6v-6.6
		C533.6,431.3,535.2,429.7,537.2,429.7z"/>
	<path class="st5" d="M568,429.7h21.5c2,0,3.6,1.6,3.6,3.6v6.6c0,2-1.6,3.6-3.6,3.6H568c-2,0-3.6-1.6-3.6-3.6v-6.6
		C564.5,431.3,566.1,429.7,568,429.7z"/>
	<path class="st5" d="M598.9,429.7h21.5c2,0,3.6,1.6,3.6,3.6v6.6c0,2-1.6,3.6-3.6,3.6h-21.5c-2,0-3.6-1.6-3.6-3.6v-6.6
		C595.3,431.3,596.9,429.7,598.9,429.7z"/>
	<path class="st5" d="M629.8,429.7h21.5c2,0,3.6,1.6,3.6,3.6v6.6c0,2-1.6,3.6-3.6,3.6h-21.5c-2,0-3.6-1.6-3.6-3.6v-6.6
		C626.2,431.3,627.8,429.7,629.8,429.7z"/>
	<path class="st5" d="M398.2,445.3h21.5c2,0,3.6,1.6,3.6,3.6v6.6c0,2-1.6,3.6-3.6,3.6h-21.5c-2,0-3.6-1.6-3.6-3.6v-6.6
		C394.6,446.9,396.2,445.3,398.2,445.3z"/>
	<path class="st5" d="M429.1,445.3h21.5c2,0,3.6,1.6,3.6,3.6v6.6c0,2-1.6,3.6-3.6,3.6h-21.5c-2,0-3.6-1.6-3.6-3.6v-6.6
		C425.5,446.9,427.1,445.3,429.1,445.3z"/>
	<path class="st5" d="M460,445.3h21.5c2,0,3.6,1.6,3.6,3.6v6.6c0,2-1.6,3.6-3.6,3.6H460c-2,0-3.6-1.6-3.6-3.6v-6.6
		C456.4,446.9,458,445.3,460,445.3z"/>
	<path class="st5" d="M490.9,445.3h21.5c2,0,3.6,1.6,3.6,3.6v6.6c0,2-1.6,3.6-3.6,3.6h-21.5c-2,0-3.6-1.6-3.6-3.6v-6.6
		C487.3,446.9,488.9,445.3,490.9,445.3z"/>
	<path class="st5" d="M521.7,445.3h21.5c2,0,3.6,1.6,3.6,3.6v6.6c0,2-1.6,3.6-3.6,3.6h-21.5c-2,0-3.6-1.6-3.6-3.6v-6.6
		C518.2,446.9,519.8,445.3,521.7,445.3z"/>
	<path class="st5" d="M367.6,445.3h21.5c2,0,3.6,1.6,3.6,3.6v6.6c0,2-1.6,3.6-3.6,3.6h-21.5c-2,0-3.6-1.6-3.6-3.6v-6.6
		C364.1,446.9,365.7,445.3,367.6,445.3z"/>
	<path class="st5" d="M552.5,445.3H574c2,0,3.6,1.6,3.6,3.6v6.6c0,2-1.6,3.6-3.6,3.6h-21.5c-2,0-3.6-1.6-3.6-3.6v-6.6
		C549,446.9,550.6,445.3,552.5,445.3z"/>
	<path class="st5" d="M583.4,445.3h21.5c2,0,3.6,1.6,3.6,3.6v6.6c0,2-1.6,3.6-3.6,3.6h-21.5c-2,0-3.6-1.6-3.6-3.6v-6.6
		C579.8,446.9,581.4,445.3,583.4,445.3z"/>
	<path class="st5" d="M614.3,445.3h21.5c2,0,3.6,1.6,3.6,3.6v6.6c0,2-1.6,3.6-3.6,3.6h-21.5c-2,0-3.6-1.6-3.6-3.6v-6.6
		C610.7,446.9,612.3,445.3,614.3,445.3z"/>
	<path class="st5" d="M656.6,445.3H645c-1.9,0-3.4,1.5-3.4,3.4v6.9c0,1.9,1.5,3.4,3.4,3.4h11.5L656.6,445.3z"/>
	<path class="st5" d="M522,445.3h21.5c2,0,3.6,1.6,3.6,3.6v6.6c0,2-1.6,3.6-3.6,3.6H522c-2,0-3.6-1.6-3.6-3.6v-6.6
		C518.4,446.9,520,445.3,522,445.3z"/>
	<path class="st5" d="M111.2,398.2h21.5c2,0,3.6,1.6,3.6,3.6v6.6c0,2-1.6,3.6-3.6,3.6h-21.5c-2,0-3.6-1.6-3.6-3.6v-6.6
		C107.7,399.8,109.3,398.2,111.2,398.2z"/>
	<path class="st5" d="M142.1,398.2h21.5c2,0,3.6,1.6,3.6,3.6v6.6c0,2-1.6,3.6-3.6,3.6h-21.5c-2,0-3.6-1.6-3.6-3.6v-6.6
		C138.6,399.8,140.1,398.2,142.1,398.2z"/>
	<path class="st5" d="M173,398.2h21.5c2,0,3.6,1.6,3.6,3.6v6.6c0,2-1.6,3.6-3.6,3.6H173c-2,0-3.6-1.6-3.6-3.6v-6.6
		C169.4,399.8,171,398.2,173,398.2z"/>
	<path class="st5" d="M203.9,398.2h21.5c2,0,3.6,1.6,3.6,3.6v6.6c0,2-1.6,3.6-3.6,3.6h-21.5c-2,0-3.6-1.6-3.6-3.6v-6.6
		C200.3,399.8,201.9,398.2,203.9,398.2z"/>
	<path class="st5" d="M234.8,398.2h21.5c2,0,3.6,1.6,3.6,3.6v6.6c0,2-1.6,3.6-3.6,3.6h-21.5c-2,0-3.6-1.6-3.6-3.6v-6.6
		C231.2,399.8,232.8,398.2,234.8,398.2z"/>
	<path class="st5" d="M126.6,413.8h21.5c2,0,3.6,1.6,3.6,3.6v6.6c0,2-1.6,3.6-3.6,3.6h-21.5c-2,0-3.6-1.6-3.6-3.6v-6.6
		C123,415.4,124.6,413.8,126.6,413.8z"/>
	<path class="st5" d="M157.5,413.8h21.5c2,0,3.6,1.6,3.6,3.6v6.6c0,2-1.6,3.6-3.6,3.6h-21.5c-2,0-3.6-1.6-3.6-3.6v-6.6
		C153.9,415.4,155.5,413.8,157.5,413.8z"/>
	<path class="st5" d="M188.4,413.8h21.5c2,0,3.6,1.6,3.6,3.6v6.6c0,2-1.6,3.6-3.6,3.6h-21.5c-2,0-3.6-1.6-3.6-3.6v-6.6
		C184.8,415.4,186.4,413.8,188.4,413.8z"/>
	<path class="st5" d="M219.2,413.8h21.5c2,0,3.6,1.6,3.6,3.6v6.6c0,2-1.6,3.6-3.6,3.6h-21.5c-2,0-3.6-1.6-3.6-3.6v-6.6
		C215.7,415.4,217.3,413.8,219.2,413.8z"/>
	<path class="st5" d="M250.1,413.8h21.5c2,0,3.6,1.6,3.6,3.6v6.6c0,2-1.6,3.6-3.6,3.6h-21.5c-2,0-3.6-1.6-3.6-3.6v-6.6
		C246.6,415.4,248.2,413.8,250.1,413.8z"/>
	<path class="st5" d="M117.7,413.8h-13.8v13.7h13.8c1.9,0,3.4-1.5,3.4-3.4v-6.9C121.1,415.3,119.6,413.8,117.7,413.8z"/>
	<path class="st5" d="M111.2,429.7h21.5c2,0,3.6,1.6,3.6,3.6v6.6c0,2-1.6,3.6-3.6,3.6h-21.5c-2,0-3.6-1.6-3.6-3.6v-6.6
		C107.7,431.3,109.3,429.7,111.2,429.7z"/>
	<path class="st5" d="M142.1,429.7h21.5c2,0,3.6,1.6,3.6,3.6v6.6c0,2-1.6,3.6-3.6,3.6h-21.5c-2,0-3.6-1.6-3.6-3.6v-6.6
		C138.6,431.3,140.1,429.7,142.1,429.7z"/>
	<path class="st5" d="M173,429.7h21.5c2,0,3.6,1.6,3.6,3.6v6.6c0,2-1.6,3.6-3.6,3.6H173c-2,0-3.6-1.6-3.6-3.6v-6.6
		C169.4,431.3,171,429.7,173,429.7z"/>
	<path class="st5" d="M203.9,429.7h21.5c2,0,3.6,1.6,3.6,3.6v6.6c0,2-1.6,3.6-3.6,3.6h-21.5c-2,0-3.6-1.6-3.6-3.6v-6.6
		C200.3,431.3,201.9,429.7,203.9,429.7z"/>
	<path class="st5" d="M234.8,429.7h21.5c2,0,3.6,1.6,3.6,3.6v6.6c0,2-1.6,3.6-3.6,3.6h-21.5c-2,0-3.6-1.6-3.6-3.6v-6.6
		C231.2,431.3,232.8,429.7,234.8,429.7z"/>
	<path class="st5" d="M126.6,445.3h21.5c2,0,3.6,1.6,3.6,3.6v6.6c0,2-1.6,3.6-3.6,3.6h-21.5c-2,0-3.6-1.6-3.6-3.6v-6.6
		C123,446.9,124.6,445.3,126.6,445.3z"/>
	<path class="st5" d="M157.5,445.3h21.5c2,0,3.6,1.6,3.6,3.6v6.6c0,2-1.6,3.6-3.6,3.6h-21.5c-2,0-3.6-1.6-3.6-3.6v-6.6
		C153.9,446.9,155.5,445.3,157.5,445.3z"/>
	<path class="st5" d="M188.4,445.3h21.5c2,0,3.6,1.6,3.6,3.6v6.6c0,2-1.6,3.6-3.6,3.6h-21.5c-2,0-3.6-1.6-3.6-3.6v-6.6
		C184.8,446.9,186.4,445.3,188.4,445.3z"/>
	<path class="st5" d="M219.2,445.3h21.5c2,0,3.6,1.6,3.6,3.6v6.6c0,2-1.6,3.6-3.6,3.6h-21.5c-2,0-3.6-1.6-3.6-3.6v-6.6
		C215.7,446.9,217.3,445.3,219.2,445.3z"/>
	<path class="st5" d="M250.1,445.3h21.5c2,0,3.6,1.6,3.6,3.6v6.6c0,2-1.6,3.6-3.6,3.6h-21.5c-2,0-3.6-1.6-3.6-3.6v-6.6
		C246.6,446.9,248.2,445.3,250.1,445.3z"/>
	<path class="st5" d="M117.7,445.3h-13.8V459h13.8c1.9,0,3.4-1.5,3.4-3.4v-6.9C121.1,446.8,119.5,445.3,117.7,445.3z"/>
	<rect x="103.5" y="170.4" class="st6" width="553.6" height="223.2"/>
	<g class="st7">
		<polygon points="256.5,368.7 256.5,345.2 149.4,383.7 155,385.6 218.7,385.6 		"/>
		<polygon points="256.5,257.7 108.2,319.3 108.2,179 256.5,179 		"/>
	</g>
	<rect x="108.2" y="179" class="st3" width="148.2" height="206.6"/>
	<g class="st7">
		<polygon points="652.5,323 652.5,308.6 437.4,383.7 443.2,385.6 508.7,385.6 		"/>
		<polygon points="652.5,222.4 382,309.5 382,179 652.5,179 		"/>
	</g>
	<rect x="382" y="179" class="st3" width="270.5" height="206.6"/>
	<rect x="264" y="170.4" class="st4" width="111.9" height="297.2"/>
	<path class="st4" d="M347.7,309.8v73.6c0,0,21.5-33.7,25.6-44.5s7.2-22.4,7.2-22.4l-33-12.1L347.7,309.8z"/>
	<path class="st6" d="M379.9,237.5c0,0-18.6-4.2-20.4-3.5s-11.9,6.9-11.9,6.9v69c0,0,25.3,10.2,28.7,10.2s4.6-0.2,5.8-1.8
		s12.5-33.4,12.5-33.4l3.7,5.9l19.2-3.9c0,0-2.7-15.7-3-17s0.3-6.3-1.3-10s-11.2-11.2-14-12.5S379.9,237.5,379.9,237.5z"/>
	<line class="st3" x1="395.2" y1="283.5" x2="404.3" y2="267"/>
	<path class="st3" d="M397.6,280.6c0,0,5.5-6.3,9-9.8"/>
	<path class="st6" d="M383.3,234.3c0,0-5.3,0-7.9,2.4s-9,20.4-7.7,21s14.1-2.4,14.1-2.4l4.7,3c0,0,4.8,8,5.8,11.1s2.9,2.1,2.9,0.6
		s3.5-6.9,3.9-15.4s-0.6-10.3-0.6-10.3L383.3,234.3z"/>
	<path class="st8" d="M382,232.2c0,0-2.6,9-3,14.6s0.6,20.5,1.6,20.5s14.4-12.7,15.7-14.6s3-5.3,3-5.3s-8-2.7-10.1-5.5
		S382,232.2,382,232.2z"/>
	<path class="st4" d="M391.6,247.4l0.8,9.3c1.5-1.1,2.8-2.5,3.9-3.9c1.1-1.7,2.1-3.5,3-5.3L391.6,247.4z"/>
	<path class="st8" d="M389.3,207.2l-4.3,9.8c0,0-1.5-3.2-3.7-1.9s-3.5,5.8-3,7.8c0.4,1.7,1.5,3.1,3,3.9c0.9,0.4,0,5,0,7
		s3,9.1,6.3,12.1s6.9,4.4,8.3,4.3s7.8-2.2,9.5-3.7c1.6-1.6,3-3.4,4.1-5.4c0.4-0.9,5-11.9,6.9-16.5s2.8-9.8,1.5-13.7
		s-7.4-8.7-12.6-9.6s-11.1-0.4-13,1.1S389.3,207.2,389.3,207.2z"/>
	<path class="st4" d="M405.2,201.3c-5.2-0.9-11.1-0.4-13,1.1s-3,4.8-3,4.8l-4.2,9.8c0,0-0.7,2.6,0.6,3s1.5-1.7,1.7-2.2
		s0.7-2.2,0.7-2.2s4.3,0.9,5.2-1.5s-1.9-6.3,0.7-10s9.6-1.5,11.3,0.9s3.7,4.8,6.5,4.8s5.6,1.3,6.3,4.6s-3,6.1-3.1,8.5
		c-0.1,1.3-0.1,3.7-0.1,5.4l1.5-3.8c1.9-4.6,2.8-9.8,1.5-13.7S410.4,202.2,405.2,201.3z"/>
	<path class="st4" d="M396.6,225.6c-0.3,1-1,1.7-1.5,1.6s-0.6-1.1-0.3-2.1s1-1.7,1.5-1.6S397,224.6,396.6,225.6z"/>
	<path class="st4" d="M406.7,229.8c-0.3,1-1,1.7-1.5,1.6s-0.6-1.1-0.3-2.1s1-1.7,1.5-1.6S407,228.7,406.7,229.8z"/>
	<path class="st3" d="M393.5,219.7c2.1-0.1,4.2,0.4,6,1.5"/>
	<path class="st3" d="M405.9,223.6c0,0,3.1-1.3,4.7,3.3"/>
	<path class="st3" d="M397.2,230c0,0-2.2,0.9-1.9,2.1c0.1,0.5,0.5,0.9,1,1"/>
	<path class="st3" d="M397.6,234.7c2.7,2.1,3.1-0.9,3.1-0.9s0.8-4.4,1-5.7"/>
	<path class="st3" d="M391.1,235c1,2.2,2.9,4,5.2,4.8c2,0.8,4.2,0.9,6.3,0.2"/>
	<path class="st6" d="M401.9,285.8c0,0,9.6-3.9,12.5-4.7s3.5,0.6,4.2,1.5s2.6,9,2.1,10.6s-2.9,1.6-2.9,1.6L401.9,285.8z"/>
	<rect x="265" y="170.4" class="st9" width="95.4" height="297.2"/>
	<rect x="262.4" y="170.4" class="st9" width="95.4" height="297.2"/>
	<path class="st10" d="M267.8,332.8h84.6v123.7h-84.6V332.8z M267.8,181.7v123.7h84.6V181.7H267.8z"/>
	<polygon class="st11" points="267.8,269.4 352.4,222.5 352.4,181.7 267.8,181.7 	"/>
	<polygon class="st11" points="318.4,305.3 352.4,288.8 352.4,275.2 291.3,305.3 	"/>
	<path class="st3" d="M267.8,332.8h84.6v123.7h-84.6V332.8z M267.8,181.7v123.7h84.6V181.7H267.8z"/>
	<polygon class="st11" points="352.4,442.4 352.4,427.1 293,456.5 323.3,456.5 	"/>
	<g class="st7">
		<polygon points="267.8,438.2 352.4,394.2 352.4,332.8 267.8,332.8 		"/>
	</g>
	<circle class="st6" cx="346.7" cy="320.7" r="7.4"/>
	<circle class="st6" cx="346.7" cy="320.7" r="1.9"/>
	<path class="st8" d="M367,272.2c0,0-3.3,1.8-3.5,2.5s-1,3.8-1.4,5.2s1.7,1.4,2.6,0.1c0.8-1.4,1.4-2.9,1.9-4.4l2-2.5
		C368.6,273.1,367.9,271.6,367,272.2z"/>
	<path class="st8" d="M390.7,279.8c0,0-9.6-8.8-13-11.5s-11.8-2.4-15.4-2.2s-4.3,1.9-3.2,2.6s5.3,0.1,6.1,0.1s5.3,0.6,5.3,0.6
		s-5.5,4.2-5,5.5s1.3,3.2,1.3,3.2c0.3,0.9,0.6,1.8,1.1,2.6c0.5,0.5-0.2,1.9,1,3.2s2.4,1.9,3.4,1.4c1-0.4,2.1-0.8,3.2-1.1
		c0,0,5,2.7,6.6,2.9s3.9,0.3,3.9,0.3s15.6,12.4,20.9,15.6s10,3.2,11.4,2.2s3.5-3.9,3-8.3s-4-7.5-6.9-8.8S395.6,282.7,390.7,279.8z"
		/>
	<path class="st3" d="M366.8,277.2c0,0,5.1-4.1,5.8-5.3s1.6-1.9,2.2-1.9"/>
	<path class="st3" d="M367.9,280.6c0,0,4.4-2.1,5.9-3.9s3-2.3,3.5-2.2"/>
	<polygon class="st9" points="106.7,140 80.5,140 105.6,72.9 129.6,72.9 	"/>
	<polygon class="st6" points="132.9,140 106.7,140 129.6,72.9 153.6,72.9 	"/>
	<polygon class="st9" points="159,140 132.8,140 153.6,72.9 177.6,72.9 	"/>
	<polygon class="st6" points="185.2,140 159,140 177.6,72.9 201.6,72.9 	"/>
	<polygon class="st9" points="211.4,140 185.2,140 201.6,72.9 225.6,72.9 	"/>
	<polygon class="st6" points="237.6,140 211.4,140 225.6,72.9 249.6,72.9 	"/>
	<polygon class="st9" points="263.8,140 237.6,140 249.6,72.9 273.6,72.9 	"/>
	<polygon class="st6" points="289.9,140 263.7,140 273.6,72.9 297.6,72.9 	"/>
	<polygon class="st9" points="316.1,140 289.9,140 297.6,72.9 321.6,72.9 	"/>
	<polygon class="st6" points="342.3,140 316.1,140 321.6,72.9 345.6,72.9 	"/>
	<polygon class="st9" points="368.5,140 342.3,140 345.5,72.9 369.6,72.9 	"/>
	<polygon class="st6" points="394.6,140 368.5,140 369.5,72.9 393.5,72.9 	"/>
	<polygon class="st9" points="420.8,140 394.6,140 393.5,72.9 417.5,72.9 	"/>
	<polygon class="st6" points="447,140 420.8,140 417.5,72.9 441.5,72.9 	"/>
	<polygon class="st9" points="473.2,140 447,140 441.5,72.9 465.5,72.9 	"/>
	<polygon class="st6" points="499.4,140 473.2,140 465.5,72.9 489.5,72.9 	"/>
	<polygon class="st9" points="525.5,140 499.4,140 489.5,72.9 513.5,72.9 	"/>
	<polygon class="st6" points="551.7,140 525.5,140 513.5,72.9 537.5,72.9 	"/>
	<polygon class="st9" points="577.9,140 551.7,140 537.5,72.9 561.5,72.9 	"/>
	<polygon class="st6" points="604.1,140 577.9,140 561.5,72.9 585.5,72.9 	"/>
	<polygon class="st9" points="630.3,140 604.1,140 585.5,72.9 609.5,72.9 	"/>
	<polygon class="st6" points="656.4,140 630.2,140 609.5,72.9 633.5,72.9 	"/>
	<polygon class="st9" points="682.6,140 656.4,140 633.5,72.9 657.5,72.9 	"/>
	<path class="st9" d="M80.5,140h26.2l0,0v9c0,6.9-5.6,12.5-12.5,12.5H93c-6.9,0-12.5-5.6-12.5-12.5V140L80.5,140z"/>
	<path class="st12" d="M106.7,140h26.2l0,0v9c0,6.9-5.6,12.5-12.5,12.5h0h-1.2c-6.9,0-12.5-5.6-12.5-12.5V140L106.7,140z"/>
	<path class="st9" d="M132.8,140H159l0,0v9c0,6.9-5.6,12.5-12.5,12.5l0,0h-1.1c-6.9,0-12.5-5.6-12.5-12.5V140L132.8,140z"/>
	<path class="st12" d="M159,140h26.2l0,0v9c0,6.9-5.6,12.5-12.5,12.5l0,0h-1.1c-6.9,0-12.5-5.6-12.5-12.5l0,0V140L159,140z"/>
	<path class="st9" d="M185.2,140h26.2l0,0v9c0,6.9-5.6,12.5-12.5,12.5l0,0h-1.1c-6.9,0-12.5-5.6-12.5-12.5l0,0V140L185.2,140z"/>
	<path class="st12" d="M211.4,140h26.2l0,0v9c0,6.9-5.6,12.5-12.5,12.5c0,0,0,0-0.1,0h-1.1c-6.9,0-12.5-5.6-12.5-12.5c0,0,0,0,0,0
		V140L211.4,140z"/>
	<path class="st9" d="M237.6,140h26.2l0,0v9c0,6.9-5.6,12.5-12.5,12.5l0,0h-1.1c-6.9,0-12.5-5.6-12.5-12.5l0,0V140L237.6,140z"/>
	<path class="st12" d="M263.7,140h26.2l0,0v9c0,6.9-5.6,12.5-12.5,12.5h-1.1c-6.9,0-12.5-5.6-12.5-12.5v0V140L263.7,140z"/>
	<path class="st9" d="M289.9,140h26.2l0,0v9c0,6.9-5.6,12.5-12.5,12.5h-1.1c-6.9,0-12.5-5.6-12.5-12.5v0V140L289.9,140z"/>
	<path class="st12" d="M316.1,140h26.2l0,0v9c0,6.9-5.6,12.5-12.5,12.5h-1.1c-6.9,0-12.5-5.6-12.5-12.5v0V140L316.1,140z"/>
	<path class="st9" d="M342.3,140h26.2l0,0v9c0,6.9-5.6,12.5-12.5,12.5h-1.2c-6.9,0-12.5-5.6-12.5-12.5V140L342.3,140z"/>
	<path class="st12" d="M368.5,140h26.2l0,0v9c0,6.9-5.6,12.5-12.5,12.5H381c-6.9,0-12.5-5.6-12.5-12.5c0,0,0,0,0,0V140L368.5,140z"
		/>
	<path class="st9" d="M394.6,140h26.2l0,0v9c0,6.9-5.6,12.5-12.5,12.5h-1.1c-6.9,0-12.5-5.6-12.5-12.5v0V140L394.6,140z"/>
	<path class="st12" d="M420.8,140H447l0,0v9c0,6.9-5.6,12.5-12.5,12.5h-1.1c-6.9,0-12.5-5.6-12.5-12.5V140L420.8,140z"/>
	<path class="st9" d="M447,140h26.2l0,0v9c0,6.9-5.6,12.5-12.5,12.5h-1.1c-6.9,0-12.5-5.6-12.5-12.5v0V140L447,140z"/>
	<path class="st12" d="M473.2,140h26.2l0,0v9c0,6.9-5.6,12.5-12.5,12.5h-1.1c-6.9,0-12.5-5.6-12.5-12.5v0V140L473.2,140z"/>
	<path class="st9" d="M499.4,140h26.2l0,0v9c0,6.9-5.6,12.5-12.5,12.5c0,0,0,0-0.1,0h-1.1c-6.9,0-12.5-5.6-12.5-12.5V140L499.4,140z
		"/>
	<path class="st12" d="M525.5,140h26.2l0,0v9c0,6.9-5.6,12.5-12.5,12.5l0,0h-1.2c-6.9,0-12.5-5.6-12.5-12.5V140L525.5,140z"/>
	<path class="st9" d="M551.7,140h26.2l0,0v9c0,6.9-5.6,12.5-12.5,12.5l0,0h-1.2c-6.9,0-12.5-5.6-12.5-12.5V140L551.7,140z"/>
	<path class="st12" d="M577.9,140h26.2l0,0v9c0,6.9-5.6,12.5-12.5,12.5l0,0h-1.2c-6.9,0-12.5-5.6-12.5-12.5V140L577.9,140z"/>
	<path class="st9" d="M604.1,140h26.2l0,0v9c0,6.9-5.6,12.5-12.5,12.5l0,0h-1.2c-6.9,0-12.5-5.6-12.5-12.5V140L604.1,140z"/>
	<path class="st12" d="M630.3,140h26.2l0,0v9c0,6.9-5.6,12.5-12.5,12.5l0,0h-1.2c-6.9,0-12.5-5.6-12.5-12.5V140L630.3,140z"/>
	<path class="st9" d="M656.4,140h26.2l0,0v9c0,6.9-5.6,12.5-12.5,12.5l0,0H669c-6.9,0-12.5-5.6-12.6-12.5c0,0,0,0,0-0.1V140
		L656.4,140z"/>
	<polyline class="st13" points="281.6,237.1 310.2,217.6 338.5,237.1 	"/>
	<path class="st6" d="M313,217.6c0-1.9-1.2-3.5-2.8-3.5s-2.8,1.6-2.8,3.5s1.2,3.5,2.8,3.5S313,219.6,313,217.6z"/>
	<rect x="275" y="231.6" class="st6" width="70.2" height="57.8"/>
	<path class="st14" d="M288.9,252.7l-1.9-13.6h2.1l1.1,8.8l1.4-8.8h1.7l1.4,8.8l1.1-8.8h2l-1.9,13.6h-2l-1.5-9.1l-1.5,9.1H288.9z"/>
	<path class="st14" d="M299.4,252.7v-13.6h5.7v1.7h-3.2v3.9h2.5v1.7h-2.5v4.5h3.2v1.7L299.4,252.7z"/>
	<path class="st14" d="M310,252.7l2.7-13.6h2.6l2.6,13.6h-2.3l-0.5-3.1h-2.4l-0.5,3.1H310z M313.1,248h1.8l-0.9-5.7L313.1,248z"/>
	<path class="st14" d="M319.3,252.7v-13.6h3.2c0.8,0,1.6,0.1,2.3,0.3c0.6,0.2,1.1,0.6,1.4,1.1c0.4,0.7,0.5,1.4,0.5,2.1
		c0,0.5,0,1-0.2,1.5c-0.1,0.4-0.3,0.8-0.5,1.1c-0.3,0.3-0.6,0.6-1,0.7l1.9,6.7h-2.5l-1.6-6.2h-1.1v6.2H319.3z M321.8,244.9h0.8
		c0.4,0,0.8-0.1,1.1-0.2c0.3-0.1,0.5-0.4,0.6-0.7c0.1-0.4,0.2-0.8,0.2-1.2c0-0.5-0.1-1.1-0.4-1.5c-0.4-0.4-0.9-0.6-1.4-0.5h-0.9
		L321.8,244.9z"/>
	<path class="st14" d="M328.7,252.7v-13.6h5.7v1.7h-3.2v3.9h2.5v1.7h-2.5v4.5h3.2v1.7L328.7,252.7z"/>
	<path class="st14" d="M292.6,256.3c-3.2-1.6-6.8-1.6-10,0c-1.3,0.8-2.3,2-2.9,3.5c-0.5,1.6-0.8,3.2-0.8,4.8v9.3
		c0,1.7,0.2,3.3,0.8,4.9c0.5,1.5,1.5,2.7,2.8,3.6c3.1,1.6,6.9,1.6,10,0c1.3-0.8,2.3-2.1,2.8-3.5c0.5-1.5,0.8-3.2,0.8-4.8v-9.4
		c0-1.6-0.2-3.3-0.8-4.8C294.9,258.4,293.9,257.1,292.6,256.3z M288.8,263.6v11.5c0,0.5-0.1,1.1-0.2,1.6c0,0.2-0.1,0.4-0.3,0.6
		c-0.2,0.1-0.5,0.1-0.7,0.1c-0.6,0-0.7-0.1-0.7-0.1c-0.2-0.1-0.2-0.3-0.3-0.5c-0.1-0.5-0.1-1.1-0.1-1.6v-11.5c0-0.5,0-1.1,0.1-1.6
		c0-0.2,0.1-0.4,0.3-0.5c0.2-0.1,0.5-0.2,0.7-0.1c0.2,0,0.5,0,0.7,0.1c0.2,0.1,0.2,0.3,0.3,0.5C288.7,262.5,288.8,263,288.8,263.6
		L288.8,263.6z"/>
	<path class="st14" d="M335.2,255.4v8.6l-3.7-8.6h-18.7v5c-0.1-0.3-0.2-0.6-0.3-0.9c-0.5-1.3-1.5-2.4-2.7-3.1
		c-1.3-0.7-2.9-1.1-4.4-1h-8.8v27.8h7.4v-11.1h1c1.4,0,2.8-0.2,4.1-0.8c1.3-0.6,2.3-1.5,3-2.8c0.2-0.4,0.4-0.9,0.5-1.3v16h19.9v-9
		l3.7,9h5.4v-27.8H335.2z M306.2,263.9c0,0.6,0,1.1-0.2,1.6c0,0.1-0.1,0.3-0.2,0.3c-0.4,0.2-0.8,0.2-1.3,0.2h-0.3v-4.6h0.3
		c0.5,0,0.9,0,1.3,0.2c0,0,0.1,0.1,0.2,0.4C306.1,262.7,306.2,263.3,306.2,263.9L306.2,263.9z M320.3,277.2v-5.4h4.6v-6h-4.6v-4.3
		h5.7v15.7L320.3,277.2z"/>
	<path class="st15" d="M287.6,282.1c-1.5,0.1-2.9-0.3-4.2-1c-1-0.7-1.8-1.7-2.2-2.8c-0.5-1.4-0.7-2.9-0.7-4.4v-9.3
		c0-1.5,0.2-2.9,0.7-4.3c0.4-1.1,1.2-2.1,2.2-2.8c2.7-1.3,5.8-1.3,8.5,0c1,0.6,1.8,1.6,2.2,2.8c0.5,1.4,0.7,2.9,0.7,4.3v9.4
		c0,1.5-0.2,2.9-0.7,4.3c-0.4,1.2-1.2,2.2-2.2,2.8C290.6,281.9,289.1,282.2,287.6,282.1z M287.6,278.8c0.6,0.1,1.2-0.1,1.7-0.5
		c0.4-0.4,0.6-0.8,0.7-1.4c0.1-0.6,0.2-1.2,0.2-1.9v-11.5c0-0.6-0.1-1.3-0.2-1.9c-0.1-0.5-0.4-1-0.7-1.3c-1-0.6-2.3-0.6-3.3,0
		c-0.4,0.3-0.6,0.8-0.7,1.3c-0.1,0.6-0.2,1.2-0.2,1.9v11.5c0,0.6,0.1,1.3,0.2,1.9C285.4,278.1,286.4,278.9,287.6,278.8
		C287.6,278.8,287.6,278.8,287.6,278.8L287.6,278.8z"/>
	<path class="st15" d="M298.2,281.8v-24.9h7.3c1.3-0.1,2.5,0.2,3.6,0.8c0.9,0.6,1.7,1.4,2.1,2.4c0.5,1.2,0.7,2.5,0.7,3.8
		c0.1,1.4-0.2,2.7-0.8,3.9c-0.5,1-1.3,1.7-2.3,2.2c-1.1,0.5-2.3,0.7-3.5,0.7h-2.5v11.1L298.2,281.8z M302.7,267.5h1.7
		c0.7,0,1.3-0.1,1.9-0.4c0.5-0.2,0.8-0.6,1-1.1c0.2-0.7,0.3-1.4,0.3-2.1c0-0.7-0.1-1.5-0.2-2.2c-0.1-0.5-0.4-1-0.9-1.2
		c-0.6-0.3-1.4-0.4-2.1-0.4h-1.7L302.7,267.5z"/>
	<path class="st15" d="M314.3,281.8v-24.9h10.5v3.2h-5.9v7.2h4.6v3.2h-4.6v8.2h6v3.1L314.3,281.8z"/>
	<path class="st15" d="M327.4,281.8v-24.9h3.2l6.1,14.2v-14.2h3.8v24.9h-3l-6.1-14.9v14.9L327.4,281.8z"/>
</g>
<g id="freepik--Trees--inject-203">
	<path class="st5" d="M702.4,327.6l-7.8,3.1l14.1-21.2c0.2-1.4,0.5-2.8,0.6-4.2l0.6-18.4c0,0-8.2,7.3-9.3,7.6s5.8-24.9,7.5-31.2
		c-0.5-4.7-1.1-9.6-1.8-14.7l-10.3,4.7l7.8-11.6l-2.9-24.7l-5.3,2l3.9-11.7c-1.7-8.6-3.6-17.1-5.6-25.2l-5.1-12.3l-2.5,10.2l-0.4-25
		c-5.9-16.6-12.7-27.9-19.8-28.4c-8.6-0.5-16.5,14.8-23.3,36.5l-0.2,14.2l-1.8-7.6c-3.5,12.2-6.6,26-9.2,39.9l1.7,5.4l-2.5-1.2
		c-1.6,8.6-3,17.2-4.1,25.5l6.3,10.1l-7.1-4.2c-1.1,8-1.9,15.6-2.5,22.3c2.5,9.9,5.7,22.7,5,22.4s-3.6-3.1-6-5.5c0,0.9,0,1.8,0,2.6
		c0,8.6,1.1,17.2,3.3,25.5l8.9,14.4l-4.8-2.5c7.9,18.4,21.3,31,36.5,31.9c15.4,1,28.9-10.3,36.7-28L702.4,327.6z"/>
	<polygon class="st14" points="656.6,280.5 663.5,290.3 662.3,319 654.2,313 662.1,324.9 660.2,451.5 668.8,451.5 667.7,303.4 
		690.9,292.1 677.6,296.2 680.2,288.4 673.9,297.3 667.6,299.2 667.1,273.1 690.1,244 677.8,255.5 679.9,247.1 674,259.1 667,265.6 
		666.2,224.8 663.8,284.2 641.9,259.7 653.9,276.7 642.6,274.8 	"/>
	<path class="st10" d="M690.3,226.4c0,0,0.4,4-1.8,6.9s-6.2,3.3-6.2,3.3s-0.4-4,1.8-6.8S690.3,226.4,690.3,226.4z"/>
	<path class="st10" d="M703.6,245.7c0,0,0.4,4-1.8,6.8s-6.2,3.3-6.2,3.3s-0.4-4,1.8-6.9S703.6,245.7,703.6,245.7z"/>
	<path class="st10" d="M703.6,281.7c-0.6,2.3-2,4.3-4,5.7c-3.1,1.8-7.1,1-7.1,1s1-3.9,4-5.7S703.6,281.7,703.6,281.7z"/>
	<path class="st10" d="M631,277.2c0.7,2.4,2.1,4.6,4,6.2c2.1,1.4,4.6,2,7.1,1.9c-0.7-2.4-2.1-4.6-4-6.2
		C636,277.7,633.5,277,631,277.2z"/>
	<path class="st10" d="M688.3,265.8c0,0,0.4,4-1.8,6.9s-6.2,3.3-6.2,3.3s-0.4-4,1.8-6.8S688.3,265.8,688.3,265.8z"/>
	<path class="st10" d="M684.8,205.9c0,0,0.4,4-1.8,6.9s-6.2,3.3-6.2,3.3s-0.4-4,1.8-6.9S684.8,205.9,684.8,205.9z"/>
	<path class="st10" d="M677,220.8c0,0,0.4,4-1.8,6.8S669,231,669,231s-0.4-4,1.8-6.9S677,220.8,677,220.8z"/>
	<path class="st10" d="M695.7,210.8c0,0,0.4,4-1.8,6.8s-6.2,3.3-6.2,3.3s-0.4-4,1.8-6.9S695.7,210.8,695.7,210.8z"/>
	<path class="st10" d="M634.9,207c-0.2,2.5,0.4,5,1.8,7.1c1.6,2,3.7,3.4,6.2,4.1c0.2-2.5-0.5-5-1.8-7.1
		C639.5,209.1,637.4,207.7,634.9,207z"/>
	<path class="st10" d="M686.5,187.3c0,0,0.4,4-1.8,6.9s-6.2,3.3-6.2,3.3s-0.4-4,1.8-6.9S686.5,187.3,686.5,187.3z"/>
	<path class="st10" d="M682.7,167.1c0,0,1.4,3.9,0,7.2c-1,2.1-2.8,3.9-5,4.8c0,0-1.4-3.9,0-7.2C678.7,169.8,680.5,168.1,682.7,167.1
		z"/>
	<path class="st10" d="M654.9,160.2c2.2,1.3,3.8,3.3,4.8,5.6c0.7,2.4,0.6,4.9-0.3,7.2c-2.2-1.3-3.9-3.3-4.8-5.6
		C653.9,165,654,162.5,654.9,160.2z"/>
	<path class="st10" d="M667.9,184.8c0,0,2.5,3.3,2.3,6.9c-0.3,2.4-1.4,4.6-3.1,6.3c0,0-2.6-3.3-2.3-6.9
		C665,188.7,666.1,186.5,667.9,184.8z"/>
	<path class="st10" d="M667.2,149.3c0,0,2.6,3.3,2.3,7c-0.3,2.4-1.4,4.6-3.1,6.3c0,0-2.6-3.3-2.3-6.9
		C664.3,153.2,665.4,151,667.2,149.3z"/>
	<path class="st10" d="M638.2,223.1c-0.2,2.5,0.5,5,1.8,7.1c1.6,2,3.7,3.4,6.2,4.1c0.2-2.5-0.5-5-1.8-7.1
		C642.8,225.3,640.6,223.8,638.2,223.1z"/>
	<path class="st10" d="M630.7,244.5c-0.2,2.5,0.5,5,1.8,7.1c1.6,2,3.7,3.4,6.2,4.1c0.2-2.5-0.4-5-1.8-7.1
		C635.3,246.6,633.1,245.2,630.7,244.5z"/>
	<path class="st10" d="M650.7,253.7c-0.2,2.5,0.5,5,1.8,7.1c1.6,2,3.7,3.4,6.2,4.1c0.2-2.5-0.4-5-1.8-7.1
		C655.3,255.8,653.1,254.3,650.7,253.7z"/>
	<path class="st10" d="M656.1,223.8c-0.9,2.3-1,4.8-0.3,7.2c1,2.3,2.7,4.3,4.9,5.6c0.9-2.3,1-4.8,0.3-7.2
		C660,227,658.3,225.1,656.1,223.8z"/>
	<path class="st10" d="M642,303.4c0,0,4,0.3,6.8-1.9s3.2-6.2,3.2-6.2s-4-0.3-6.8,1.9S642,303.4,642,303.4z"/>
	<path class="st10" d="M680.9,301.4c0.7,2.4,2.2,4.5,4.2,6.1c2.1,1.3,4.6,1.9,7.1,1.6c-0.7-2.4-2.2-4.5-4.2-6.1
		C685.9,301.7,683.4,301.1,680.9,301.4z"/>
	<path class="st10" d="M646.5,203.5c-0.2,2.5,0.5,5,1.8,7.1c1.6,2,3.7,3.4,6.2,4.1c0.2-2.5-0.5-5-1.8-7.1
		C651.1,205.6,648.9,204.2,646.5,203.5z"/>
	<path class="st10" d="M646.4,185.8c-0.2,2.5,0.5,5,1.8,7.1c1.6,2,3.7,3.4,6.2,4.1c0.2-2.5-0.5-5-1.8-7.1
		C651,187.9,648.8,186.5,646.4,185.8z"/>
	<rect x="631.1" y="448.8" class="st8" width="68.8" height="19.8"/>
	<path class="st5" d="M132.4,327.6l-7.9,3.1l14.1-21.2c0.2-1.4,0.4-2.8,0.6-4.2l0.6-18.4c0,0-8.2,7.3-9.3,7.6s5.8-24.9,7.5-31.2
		c-0.5-4.7-1.1-9.6-1.8-14.7l-10.3,4.7l7.8-11.6l-2.9-24.7l-5.4,2l3.9-11.7c-1.7-8.6-3.6-17.1-5.6-25.2l-5.1-12.3l-2.5,10.3l-0.3-25
		c-6-16.6-12.7-27.9-19.8-28.4c-8.6-0.5-16.6,14.8-23.3,36.5l-0.2,14.2l-1.8-7.6c-3.5,12.2-6.6,26-9.2,39.9l1.7,5.4l-2.5-1.2
		c-1.6,8.6-3,17.2-4.1,25.5l6.3,10.1l-7.1-4.1c-1.1,8-1.9,15.6-2.5,22.3c2.5,9.9,5.7,22.7,5,22.4s-3.6-3.1-6-5.5c0,0.9,0,1.8,0,2.6
		c0,8.6,1.1,17.2,3.3,25.5l8.8,14.4l-4.8-2.5c7.9,18.4,21.3,31,36.5,31.9c15.4,1,28.9-10.3,36.7-28L132.4,327.6z"/>
	<polygon class="st14" points="86.5,280.5 93.4,290.3 92.2,319 84.2,313 92,324.9 90.2,451.5 98.8,451.5 97.6,303.4 120.8,292.1 
		107.5,296.2 110.2,288.4 103.8,297.3 97.5,299.2 97,273.1 120.1,244 107.7,255.5 109.8,247.1 103.9,259.1 96.9,265.6 96.2,224.8 
		93.7,284.2 71.8,259.7 83.8,276.7 72.5,274.8 	"/>
	<path class="st10" d="M120.3,226.4c0,0,0.4,4-1.8,6.9s-6.2,3.3-6.2,3.3s-0.4-4,1.8-6.8S120.3,226.4,120.3,226.4z"/>
	<path class="st10" d="M133.5,245.7c0,0,0.4,4-1.8,6.8s-6.2,3.3-6.2,3.3s-0.4-4,1.8-6.9S133.5,245.7,133.5,245.7z"/>
	<path class="st10" d="M133.5,281.7c-0.6,2.3-2,4.3-4,5.7c-3.1,1.8-7.1,1-7.1,1s1-3.9,4-5.7C129.5,280.9,133.5,281.7,133.5,281.7z"
		/>
	<path class="st10" d="M61,277.2c0.7,2.4,2.1,4.6,4,6.2c2.1,1.4,4.6,2,7.1,1.9c-0.6-2.4-2-4.6-4-6.2C66,277.7,63.5,277,61,277.2z"/>
	<path class="st10" d="M118.3,265.8c0,0,0.4,4-1.8,6.9s-6.2,3.3-6.2,3.3s-0.4-4,1.8-6.8S118.3,265.8,118.3,265.8z"/>
	<path class="st10" d="M114.8,205.9c0,0,0.4,4-1.8,6.9s-6.2,3.3-6.2,3.3s-0.4-4,1.8-6.9S114.8,205.9,114.8,205.9z"/>
	<path class="st10" d="M106.9,220.8c0,0,0.4,4-1.8,6.8S99,231,99,231s-0.4-4,1.8-6.9S106.9,220.8,106.9,220.8z"/>
	<path class="st10" d="M125.6,210.8c0,0,0.4,4-1.8,6.8s-6.2,3.3-6.2,3.3s-0.4-4,1.8-6.9S125.6,210.8,125.6,210.8z"/>
	<path class="st10" d="M64.9,207c-0.2,2.5,0.5,5,1.8,7.1c1.6,2,3.8,3.4,6.2,4.1c0.2-2.5-0.5-5-1.9-7.1
		C69.4,209.1,67.3,207.7,64.9,207z"/>
	<path class="st10" d="M116.5,187.3c0,0,0.4,4-1.8,6.9s-6.2,3.3-6.2,3.3s-0.4-4,1.8-6.9S116.5,187.3,116.5,187.3z"/>
	<path class="st10" d="M112.6,167.1c0,0,1.4,3.9,0,7.2c-1.1,2.1-2.8,3.8-5,4.8c0,0-1.4-3.9,0-7.2
		C108.6,169.8,110.4,168.1,112.6,167.1z"/>
	<path class="st10" d="M84.9,160.2c2.2,1.3,3.9,3.3,4.8,5.6c0.7,2.4,0.6,4.9-0.3,7.2c-2.2-1.3-3.9-3.3-4.8-5.6
		C83.9,165,84,162.5,84.9,160.2z"/>
	<path class="st10" d="M97.8,184.8c0,0,2.6,3.3,2.3,6.9c-0.3,2.4-1.4,4.6-3.1,6.3c0,0-2.6-3.3-2.3-6.9
		C95,188.7,96.1,186.5,97.8,184.8z"/>
	<path class="st10" d="M97.1,149.3c0,0,2.6,3.3,2.3,7c-0.3,2.4-1.4,4.6-3.1,6.3c0,0-2.6-3.3-2.3-6.9C94.3,153.2,95.4,151,97.1,149.3
		z"/>
	<path class="st10" d="M68.1,223.1c-0.2,2.5,0.5,5,1.8,7.1c1.6,2,3.7,3.4,6.2,4.1c0.2-2.5-0.4-5-1.8-7.1
		C72.7,225.3,70.6,223.8,68.1,223.1z"/>
	<path class="st10" d="M60.6,244.5c-0.2,2.5,0.4,5,1.8,7.1c1.6,2,3.7,3.4,6.2,4.1c0.2-2.5-0.5-5-1.8-7.1
		C65.2,246.6,63.1,245.2,60.6,244.5z"/>
	<path class="st10" d="M80.6,253.7c-0.2,2.5,0.4,5,1.8,7.1c1.6,2,3.7,3.4,6.2,4.1c0.2-2.5-0.5-5-1.8-7.1
		C85.2,255.8,83.1,254.3,80.6,253.7z"/>
	<path class="st10" d="M86.1,223.8c-0.9,2.3-1,4.8-0.3,7.2c1,2.3,2.7,4.3,4.9,5.6c0.9-2.3,1-4.8,0.3-7.2
		C89.9,227,88.2,225.1,86.1,223.8z"/>
	<path class="st10" d="M72,303.4c0,0,4,0.3,6.8-1.9s3.2-6.2,3.2-6.2s-4-0.3-6.8,1.9S72,303.4,72,303.4z"/>
	<path class="st10" d="M110.8,301.4c0.7,2.4,2.2,4.5,4.2,6.1c2.1,1.3,4.6,1.9,7.1,1.6c-0.7-2.4-2.2-4.6-4.2-6.1
		C115.8,301.7,113.3,301.1,110.8,301.4z"/>
	<path class="st10" d="M76.4,203.5c-0.2,2.5,0.5,5,1.8,7.1c1.6,2,3.7,3.4,6.2,4.1c0.2-2.5-0.4-5-1.8-7.1
		C81,205.6,78.8,204.2,76.4,203.5z"/>
	<path class="st10" d="M76.3,185.8c-0.2,2.5,0.4,5,1.8,7.1c1.6,2,3.7,3.4,6.2,4.1c0.2-2.5-0.5-5-1.8-7.1
		C80.9,187.9,78.8,186.5,76.3,185.8z"/>
	<rect x="61" y="448.8" class="st8" width="68.8" height="19.8"/>
</g>
</svg>
