<?xml version="1.0" encoding="utf-8"?>
<!-- Generator: Adobe Illustrator 27.1.1, SVG Export Plug-In . SVG Version: 6.00 Build 0)  -->
<svg version="1.1" id="Layer_1" xmlns="http://www.w3.org/2000/svg" xmlns:xlink="http://www.w3.org/1999/xlink" x="0px" y="0px"
	 viewBox="0 0 750 500" style="enable-background:new 0 0 750 500;" xml:space="preserve">
<style type="text/css">
	.st0{display:none;}
	.st1{display:inline;fill:#4F4FDE;}
	.st2{display:inline;opacity:0.7;fill:#FFFFFF;enable-background:new    ;}
	.st3{fill:#263238;}
	.st4{fill:#FFFFFF;stroke:#263238;stroke-width:0.838;stroke-linecap:round;stroke-linejoin:round;}
	.st5{fill:none;stroke:#263238;stroke-width:0.8522;stroke-linecap:round;stroke-linejoin:round;}
	.st6{fill:none;stroke:#263238;stroke-width:0.7824;stroke-linecap:round;stroke-linejoin:round;}
	.st7{fill:#FFFFFF;}
	.st8{fill:#8A8A8A;}
	.st9{fill:#4F4FDE;}
	.st10{fill:#E5E5E5;}
	.st11{fill:#FFC703;}
	.st12{font-family:'PPNeueMachina-InktrapUltrabold';}
	.st13{font-size:23.8531px;}
</style>
<g id="freepik--background-simple--inject-13" class="st0">
	<path class="st1" d="M286.2,112.5c97.5-48,197.7-110.8,311-85.1c35.1,8,67.1,27.9,88.7,56.8c57.8,77.4,53.1,195.9,21.7,283
		c-4,11.4-9.3,22.3-15.8,32.5c-31.8,49.1-85.5,51.5-137.3,37.3c-43.8-12-82.6-24.4-127.9-12.2c-25.1,6.8-49.4,16.1-74.3,23.2
		c-34,9.6-69,16.2-104.4,16.9c-93.7,1.8-200.7-46-209-150.6c-0.5-6.8-0.6-13.6-0.3-20.4c1.9-41.8,15.7-83.6,53.9-105.3
		c38.5-21.8,84.1-30.4,125.2-45.9C241,134,263.7,123.5,286.2,112.5z"/>
	<path class="st2" d="M286.2,112.5c97.5-48,197.7-110.8,311-85.1c35.1,8,67.1,27.9,88.7,56.8c57.8,77.4,53.1,195.9,21.7,283
		c-4,11.4-9.3,22.3-15.8,32.5c-31.8,49.1-85.5,51.5-137.3,37.3c-43.8-12-82.6-24.4-127.9-12.2c-25.1,6.8-49.4,16.1-74.3,23.2
		c-34,9.6-69,16.2-104.4,16.9c-93.7,1.8-200.7-46-209-150.6c-0.5-6.8-0.6-13.6-0.3-20.4c1.9-41.8,15.7-83.6,53.9-105.3
		c38.5-21.8,84.1-30.4,125.2-45.9C241,134,263.7,123.5,286.2,112.5z"/>
</g>
<g id="freepik--Floor--inject-13">
	<rect x="19" y="439.9" class="st3" width="726.3" height="1"/>
</g>
<g id="freepik--Plant--inject-13">
	<path class="st3" d="M35.3,344c3.2,1.4,11.2,1.2,11.2,1.2s-1.7-5.2-1.8-5.5c-1.7-3.6-7.2-9.6-11.7-9c-2.9,0.5-4.9,3.2-4.4,6.1
		c0,0.2,0.1,0.4,0.1,0.6C29.4,340.5,32.6,342.8,35.3,344z"/>
	<path class="st3" d="M38.1,367c3.4,0.5,10.4-1.6,11-1.7c1.2,4,2.6,8,4.3,11.9c1,2.2,2,4.5,3.1,6.7c-0.7-1-1.2-1.8-1.3-1.9
		c-2.6-3-9.5-7.4-13.7-5.6c-2.7,1.2-3.9,4.4-2.6,7.1c0.1,0.2,0.2,0.3,0.3,0.5c1.5,2.8,5.2,4.2,8.2,4.6s9.1-1.2,10.7-1.6l1.3,2.6
		c2,4.1,4.1,8.1,6,12.2c0.7,1.4,1.3,2.9,1.9,4.3c-0.6-0.8-1.1-1.5-1.2-1.6c-2.6-3-9.5-7.4-13.7-5.6c-2.7,1.2-3.9,4.4-2.6,7.1
		c0.1,0.2,0.2,0.3,0.3,0.5c1.5,2.8,5.2,4.2,8.2,4.6s8.5-1,10.4-1.6c0.6,1.5,1.2,3,1.7,4.4c0.3,1,0.7,2,1,3l0.8,3
		c0.5,1.9,1,3.9,1.4,5.8c0.3,1.3,0.5,2.6,0.8,3.8c-0.7-1.4-2-4.2-2.1-4.4c-2.2-3.4-8.3-8.7-12.7-7.6c-2.8,0.8-4.5,3.7-3.7,6.6
		c0.1,0.2,0.1,0.4,0.2,0.6c1.1,3,4.5,4.9,7.4,5.8c3.2,1,10.2,0.1,11.1,0c0.4,2.1,0.8,4.1,1.1,6.1c0.3,1.4,0.5,2.8,0.7,4.1H79
		c-0.3-1.5-0.6-3-0.9-4.6c-0.4-2.1-0.9-4.4-1.4-6.7c2.1-0.8,4.2-1.8,6.2-2.9c2.3,2.5,8.2,5.4,9,5.8c-0.8,2-1.6,3.9-2.4,5.7l-1.2,2.7
		h3c0.2-0.6,0.5-1.1,0.7-1.7c0.8-2,1.7-4.2,2.5-6.4c0.8,0.2,7.8,1.6,11,0.9c2.9-0.7,6.5-2.3,7.8-5.2c1.3-2.6,0.2-5.8-2.4-7.1
		c-0.2-0.1-0.4-0.2-0.6-0.2c-4.3-1.4-10.8,3.4-13.2,6.7c-0.1,0.2-1.4,2.4-2.2,3.9c0.3-0.9,0.7-1.8,1-2.7c0.7-1.9,1.3-3.7,2-5.8
		c0.3-1,0.6-2,0.9-3s0.5-2.1,0.8-3.1c0.6-2.5,1-5,1.5-7.5c1.6,0.6,7.5,2.6,10.5,2.4s6.8-1.3,8.5-4c1.7-2.4,1.1-5.7-1.3-7.4
		c-0.2-0.1-0.3-0.2-0.5-0.3c-4-2.1-11.2,1.8-14.1,4.6c-0.2,0.2-2,2.5-3,3.7c0.2-1.5,0.5-3,0.7-4.6c0.6-4.5,1-9,1.4-13.6
		c0.1-1.4,0.3-2.8,0.4-4.2c0.6,0.2,7.4,2.8,10.8,2.5c3-0.2,6.8-1.3,8.5-4c1.7-2.4,1.1-5.8-1.3-7.5c-0.2-0.1-0.3-0.2-0.5-0.3
		c-4-2.1-11.2,1.8-14.1,4.6c-0.2,0.2-2.8,3.5-3.4,4.4c0.3-3,0.7-6.1,1.1-9.1c0.6-4,1.5-8,2.6-11.9c0.3,0.1,7.4,2.8,10.9,2.6
		c3-0.2,6.8-1.3,8.5-4c1.7-2.4,1.1-5.7-1.3-7.4c-0.2-0.1-0.3-0.2-0.5-0.3c-4-2.1-11.2,1.7-14.1,4.6c-0.2,0.2-3,3.8-3.5,4.4
		c0.1-0.2,0.1-0.5,0.2-0.7c1.2-3.9,2.8-7.7,4.7-11.3c1-2,2.1-3.9,3.2-5.7c1.3,0.6,7.2,3.5,10.3,3.6s6.9-0.6,8.9-3
		c2-2.2,1.7-5.6-0.5-7.6c-0.1-0.1-0.3-0.2-0.4-0.3c-3.8-2.5-11.3,0.5-14.5,3c-0.2,0.1-1.8,1.7-2.9,2.9c0.5-0.8,1-1.6,1.5-2.4
		c1.9-2.9,3.8-5.3,5.5-7.5c1-1.2,1.9-2.3,2.8-3.4c1.6,0,8-0.2,10.8-1.5s5.8-3.7,6.5-6.8c0.7-2.9-1-5.8-3.9-6.5
		c-0.2,0-0.4-0.1-0.6-0.1c-4.5-0.5-9.8,5.7-11.5,9.4c-0.1,0.3-1.8,5.5-1.7,5.5h0.1c-0.8,1-1.8,2-2.7,3.2c-1.8,2.2-3.7,4.6-5.7,7.4
		c-2.1,3-4.1,6.1-5.9,9.4c-2,3.6-3.7,7.4-5,11.3c0,0,0,0.1,0,0.1c0-1.3,0-5-0.1-5.3c-0.5-4-3.9-11.4-8.3-12.2
		c-2.9-0.5-5.6,1.5-6.1,4.4c0,0.2,0,0.4-0.1,0.6c-0.3,3.2,2,6.4,4.3,8.4c2.5,2.3,9.6,4.5,10.1,4.6c-1.3,4-2.3,8.1-3,12.3
		c-0.4,2.4-0.8,4.9-1.1,7.3c0-1.1,0-2.2-0.1-2.3c-0.5-4-3.9-11.4-8.3-12.2c-2.9-0.5-5.6,1.5-6.1,4.4c0,0.2,0,0.4-0.1,0.6
		c-0.3,3.2,2,6.4,4.3,8.4s8.2,4,9.8,4.5l-0.4,2.8c-0.5,4.5-1.1,9-1.7,13.5c-0.2,1.5-0.5,3.1-0.8,4.6c0-1,0-1.9,0-2
		c-0.5-4-3.9-11.4-8.3-12.2c-2.9-0.5-5.6,1.5-6.1,4.4c0,0.2,0,0.4-0.1,0.6c-0.3,3.2,2,6.4,4.3,8.4s7.7,3.8,9.5,4.4
		c-0.3,1.6-0.7,3.1-1.1,4.6c-0.3,1-0.5,2-0.8,3l-1,3c-0.7,1.9-1.4,3.8-2.1,5.6c-0.5,1.3-1,2.5-1.4,3.6c0.2-1.5,0.7-4.6,0.7-4.8
		c0-3.5-1-7-2.8-10.1c0-0.4,0-0.8,0-1.1c-0.4-2.9-3.1-5-6-4.6c-0.2,0-0.4,0.1-0.6,0.1c-4.4,1.2-7.1,8.8-7.3,12.9
		c0,0.2,0.1,2.8,0.3,4.5c-0.2-1-0.4-1.9-0.7-2.9c-0.5-1.9-1-3.8-1.5-5.9c-0.3-1-0.6-2-0.9-3s-0.7-2-1.1-3c-0.9-2.4-1.8-4.7-2.9-7.1
		c1.7-0.4,7.7-1.9,10.1-3.8s4.9-4.8,4.9-8c0.1-2.9-2.2-5.4-5.2-5.5c-0.2,0-0.4,0-0.6,0c-4.5,0.5-8.4,7.6-9.2,11.6
		c0,0.2-0.3,3.1-0.4,4.7c-0.6-1.4-1.3-2.8-2-4.2c-2-4-4.2-8.1-6.3-12.1c-0.7-1.2-1.3-2.5-1.9-3.7c0.6-0.1,7.7-1.8,10.4-3.9
		c2.4-1.8,4.9-4.8,4.9-8c0.1-2.9-2.2-5.4-5.2-5.5c-0.2,0-0.4,0-0.6,0c-4.5,0.5-8.4,7.6-9.2,11.6c-0.1,0.3-0.4,4.5-0.5,5.5
		c-1.4-2.7-2.8-5.5-4-8.2c-1.7-3.7-3.2-7.5-4.4-11.4c0.3-0.1,7.8-1.8,10.5-3.9c2.4-1.8,4.9-4.8,4.9-8c0.1-2.9-2.2-5.4-5.2-5.5
		c-0.2,0-0.4,0-0.6,0c-4.5,0.5-8.4,7.6-9.2,11.6c-0.1,0.3-0.5,4.8-0.5,5.6c-0.1-0.2-0.2-0.5-0.2-0.7c-1.1-3.9-1.9-7.9-2.3-12
		c-0.2-2.2-0.4-4.4-0.4-6.5c1.4-0.2,7.9-1,10.6-2.7s5.4-4.3,5.8-7.4c0.4-2.9-1.6-5.6-4.6-6c-0.2,0-0.4,0-0.6,0
		c-4.5,0-9.2,6.7-10.4,10.5c-0.1,0.2-0.5,2.4-0.8,4c0-1,0-1.9,0-2.8c0-3.4,0.2-6.5,0.4-9.3c0.1-1.6,0.3-3,0.4-4.3
		c1.3-0.9,6.5-4.6,8.1-7.2s2.8-6.3,1.7-9.2c-1-2.8-4.1-4.2-6.8-3.2c-0.2,0.1-0.3,0.1-0.5,0.2c-4,2.1-5.1,10.1-4.4,14.1
		c0,0.4,1.6,5.6,1.6,5.6l0.1,0c-0.2,1.3-0.3,2.6-0.5,4.1c-0.3,2.8-0.6,5.9-0.6,9.3c-0.1,3.7,0,7.4,0.3,11.1c0.3,4.1,1,8.2,2,12.2
		c0,0,0,0.1,0,0.1c-0.7-1.1-2.8-4.2-3-4.4c-2.6-3-9.5-7.4-13.7-5.6c-2.7,1.2-3.9,4.4-2.6,7.1c0.1,0.2,0.2,0.3,0.3,0.5
		C31.4,365.1,35.1,366.5,38.1,367z"/>
	<path class="st3" d="M115.5,345.7c0.1,0,1.4-5.3,1.5-5.6c0.6-4-0.7-12-4.8-14c-2.7-1.2-5.8,0-7.1,2.7c-0.1,0.2-0.2,0.4-0.2,0.6
		c-1.1,3,0.3,6.7,1.9,9.2C108.8,341.5,115.5,345.7,115.5,345.7z"/>
</g>
<g id="freepik--Graphics--inject-13">
	<path class="st3" d="M675,87.2l-11.2-11.2L675,64.7l11.2,11.2L675,87.2z M665.2,75.9l9.8,9.8l9.8-9.8l-9.8-9.8L665.2,75.9z"/>
	<path class="st3" d="M272.3,404.3l-7.6-7.6l7.6-7.6l7.6,7.6L272.3,404.3z M266.1,396.6l6.2,6.2l6.2-6.2l-6.2-6.2L266.1,396.6z"/>
	<path class="st3" d="M645.1,161.1l-7.6-7.6l7.6-7.6l7.6,7.6L645.1,161.1z M638.9,153.5l6.2,6.2l6.2-6.2l-6.2-6.2L638.9,153.5z"/>
	<path class="st3" d="M267.8,49.7l-7.6-7.6l7.6-7.6l7.6,7.6L267.8,49.7z M261.6,42.1l6.2,6.2l6.2-6.2l-6.2-6.2L261.6,42.1z"/>
	<path class="st3" d="M77.2,282.7l-11.2-11.2l11.2-11.2l11.2,11.2L77.2,282.7z M67.3,271.4l9.8,9.8l9.8-9.8l-9.8-9.8L67.3,271.4z"/>
</g>
<g id="freepik--Coins--inject-13">
	<path class="st3" d="M568.2,94.5c-19.5,0-35.3-15.8-35.3-35.3c0-19.5,15.8-35.3,35.3-35.3c19.5,0,35.3,15.8,35.3,35.3c0,0,0,0,0,0
		C603.5,78.6,587.7,94.4,568.2,94.5z M568.2,24.9c-18.9,0-34.3,15.3-34.3,34.3c0,18.9,15.3,34.3,34.3,34.3
		c18.9,0,34.3-15.3,34.3-34.3c0,0,0,0,0,0C602.5,40.2,587.2,24.9,568.2,24.9z"/>
	<path class="st3" d="M568.2,88.9c-16.4,0-29.7-13.3-29.7-29.8s13.3-29.7,29.8-29.7c16.4,0,29.7,13.3,29.7,29.7
		C598,75.6,584.7,88.9,568.2,88.9z M568.2,30.4c-15.9,0-28.7,12.9-28.7,28.8s12.9,28.7,28.8,28.7c15.9,0,28.7-12.9,28.7-28.7
		C597,43.3,584.1,30.4,568.2,30.4z"/>
	<path class="st3" d="M69.6,139.8c-19.5,0-35.3-15.8-35.3-35.3c0-19.5,15.8-35.3,35.3-35.3c19.5,0,35.3,15.8,35.3,35.3
		C104.9,124,89.1,139.8,69.6,139.8z M69.6,70.2c-18.9,0-34.3,15.4-34.3,34.3s15.4,34.3,34.3,34.3c18.9,0,34.3-15.4,34.3-34.3
		C103.9,85.6,88.5,70.3,69.6,70.2z"/>
	<path class="st3" d="M69.6,134.3c-16.4,0-29.8-13.3-29.8-29.8s13.3-29.8,29.8-29.8s29.8,13.3,29.8,29.8l0,0
		C99.3,121,86,134.3,69.6,134.3z M69.6,75.8c-15.9,0-28.8,12.9-28.8,28.8s12.9,28.8,28.8,28.8s28.8-12.9,28.8-28.8
		C98.3,88.7,85.5,75.8,69.6,75.8z"/>
	<path class="st3" d="M195.4,437.9c-19.5,0-35.3-15.8-35.3-35.3c0-19.5,15.8-35.3,35.3-35.3c19.5,0,35.3,15.8,35.3,35.3
		C230.7,422.1,214.9,437.9,195.4,437.9z M195.4,368.3c-18.9,0-34.3,15.4-34.3,34.3c0,18.9,15.4,34.3,34.3,34.3s34.3-15.4,34.3-34.3
		l0,0C229.7,383.7,214.3,368.3,195.4,368.3z"/>
	<path class="st3" d="M195.4,432.3c-16.4,0-29.8-13.3-29.8-29.8s13.3-29.8,29.8-29.8s29.8,13.3,29.8,29.8l0,0
		C225.2,419,211.8,432.3,195.4,432.3z M195.4,373.8c-15.9,0-28.8,12.9-28.8,28.8s12.9,28.8,28.8,28.8s28.8-12.9,28.8-28.8
		C224.1,386.7,211.3,373.9,195.4,373.8z"/>
	<polygon class="st4" points="58,120.3 63.1,111.4 68.3,102.5 73.3,93.6 74.2,92.2 74.6,93.6 76.3,99.4 74.4,102.5 69.4,111.4 
		64.1,120.3 70.3,120.3 75.5,111.4 78.1,106.8 79.4,111.4 81.8,120.3 87.3,120.3 85,111.4 82.5,102.5 82,100.2 85.7,93.6 80.3,93.6 
		79.9,92.9 78.1,85.7 77.8,84.7 72.4,84.7 72.2,84.8 67.2,93.6 62.2,102.5 57,111.4 51.9,120.3 	"/>
	<polygon class="st5" points="555.7,75.5 560.9,66.4 566.2,57.4 571.3,48.4 572.3,46.9 572.6,48.4 574.3,54.2 572.4,57.4 
		567.3,66.4 562,75.5 568.3,75.5 573.6,66.4 576.2,61.7 577.6,66.4 579.9,75.5 585.6,75.5 583.2,66.4 580.7,57.4 580.1,55 584,48.4 
		578.4,48.4 578.1,47.7 576.2,40.3 575.9,39.3 570.4,39.3 570.2,39.4 565.1,48.4 560,57.4 554.7,66.4 549.5,75.5 	"/>
	<polygon class="st6" points="183.6,417.6 188.3,409.3 193.2,401 197.9,392.7 198.7,391.4 199,392.7 200.6,398.1 198.9,401 
		194.2,409.3 189.3,417.6 195.1,417.6 199.9,409.3 202.3,405 203.6,409.3 205.8,417.6 210.9,417.6 208.7,409.3 206.5,401 
		205.9,398.8 209.4,392.7 204.4,392.7 204.1,392.1 202.3,385.3 202,384.4 197,384.4 196.9,384.5 192.2,392.7 187.5,401 182.6,409.3 
		177.8,417.6 	"/>
</g>
<g id="freepik--Device--inject-13">
	<polygon class="st7" points="431.3,434.1 318.7,434.1 335.6,371.9 414.4,371.9 	"/>
	<path class="st3" d="M431.3,434.6H318.7c-0.2,0-0.3-0.1-0.4-0.2c-0.1-0.1-0.1-0.3-0.1-0.4l16.9-62.2c0.1-0.2,0.3-0.4,0.5-0.4h78.8
		c0.2,0,0.4,0.2,0.5,0.4l16.9,62.2c0,0.2,0,0.3-0.1,0.4C431.6,434.5,431.5,434.6,431.3,434.6z M319.3,433.6h111.4L414,372.4h-78
		L319.3,433.6z"/>
	<polygon class="st3" points="423.7,405.9 414.4,371.9 335.6,371.9 326.3,405.9 	"/>
	<path class="st3" d="M423.7,406.4h-97.3c-0.3,0-0.5-0.2-0.5-0.5c0-0.1,0-0.1,0-0.2l9.2-34c0.1-0.2,0.3-0.4,0.5-0.4h78.8
		c0.2,0,0.4,0.2,0.5,0.4l9.2,34c0.1,0.3-0.1,0.5-0.3,0.6C423.8,406.4,423.7,406.4,423.7,406.4L423.7,406.4z M327,405.4h96l-9-33h-78
		L327,405.4z"/>
	<rect x="289.4" y="434.1" class="st7" width="171.2" height="6.3"/>
	<path class="st3" d="M460.6,440.9H289.4c-0.3,0-0.5-0.2-0.5-0.5v-6.3c0-0.3,0.2-0.5,0.5-0.5h171.2c0.3,0,0.5,0.2,0.5,0.5v6.3
		C461.1,440.6,460.9,440.9,460.6,440.9z M289.9,439.9h170.2v-5.3H289.9V439.9z"/>
	<rect x="131.5" y="69.3" class="st7" width="486.9" height="309.1"/>
	<path class="st3" d="M618.5,378.9H131.5c-0.3,0-0.5-0.2-0.5-0.5V69.3c0-0.3,0.2-0.5,0.5-0.5h486.9c0.3,0,0.5,0.2,0.5,0.5v309.1
		C619,378.7,618.7,378.9,618.5,378.9z M132,377.9h486V69.8H132L132,377.9z"/>
	<polyline class="st7" points="279.6,366.6 147.1,366.6 147.1,81.1 602.8,81.1 602.8,366.6 291,366.6 	"/>
	<path class="st3" d="M602.8,367.1H291c-0.3,0-0.5-0.2-0.5-0.5s0.2-0.5,0.5-0.5h311.3V81.6H147.6v284.5h132c0.3,0,0.5,0.2,0.5,0.5
		s-0.2,0.5-0.5,0.5H147.1c-0.3,0-0.5-0.2-0.5-0.5V81.1c0-0.3,0.2-0.5,0.5-0.5h455.7c0.3,0,0.5,0.2,0.5,0.5v285.5
		C603.3,366.9,603.1,367.1,602.8,367.1z"/>
</g>
<g id="freepik--Cart--inject-13">
	<path class="st3" d="M388.8,220.7L388.8,220.7c-0.3,0-0.5-0.3-0.5-0.5c0,0,0,0,0,0l3.3-34.8c0-0.3,0.3-0.5,0.5-0.5
		c0.3,0,0.5,0.3,0.5,0.5l-3.3,34.8C389.3,220.5,389,220.7,388.8,220.7z"/>
	<path class="st3" d="M382.2,220.7L382.2,220.7c-0.3,0-0.5-0.2-0.5-0.5l2-34.8c0-0.3,0.3-0.5,0.5-0.5c0.3,0,0.5,0.3,0.5,0.5
		c0,0,0,0,0,0l-2,34.8C382.7,220.5,382.4,220.7,382.2,220.7C382.2,220.7,382.2,220.7,382.2,220.7z"/>
	<path class="st3" d="M375.5,220.7L375.5,220.7c-0.3,0-0.5-0.2-0.5-0.5c0,0,0,0,0,0l0.7-34.8c0-0.3,0.2-0.5,0.5-0.5l0,0
		c0.3,0,0.5,0.2,0.5,0.5c0,0,0,0,0,0l-0.7,34.8C376,220.5,375.8,220.7,375.5,220.7z"/>
	<path class="st3" d="M368.9,220.7c-0.3,0-0.5-0.2-0.5-0.5l-0.6-34.8c0-0.3,0.2-0.5,0.5-0.5c0.3,0,0.5,0.2,0.5,0.5l0.6,34.8
		C369.4,220.5,369.2,220.7,368.9,220.7L368.9,220.7z"/>
	<path class="st3" d="M362.3,220.7c-0.3,0-0.5-0.2-0.5-0.5l-1.9-34.8c0-0.3,0.2-0.5,0.5-0.5c0.3,0,0.5,0.2,0.5,0.5c0,0,0,0,0,0
		l1.9,34.8C362.8,220.5,362.6,220.7,362.3,220.7C362.3,220.7,362.3,220.7,362.3,220.7L362.3,220.7z"/>
	<path class="st3" d="M355.7,220.7c-0.3,0-0.5-0.2-0.5-0.5l-3.2-34.8c0-0.3,0.2-0.5,0.5-0.6c0.3,0,0.5,0.2,0.5,0.5l3.2,34.8
		C356.2,220.4,356,220.7,355.7,220.7L355.7,220.7z"/>
	<path class="st3" d="M349,220.7c-0.3,0-0.5-0.2-0.5-0.4l-4.5-34.8c0-0.3,0.2-0.5,0.4-0.6s0.5,0.2,0.6,0.4l4.5,34.8
		C349.5,220.4,349.4,220.7,349,220.7C349.1,220.7,349.1,220.7,349,220.7L349,220.7z"/>
	<path class="st3" d="M398.8,193.3h-61.5c-0.3,0-0.5-0.2-0.5-0.5c0-0.3,0.2-0.5,0.5-0.5h61.5c0.3,0,0.5,0.2,0.5,0.5
		C399.3,193,399,193.3,398.8,193.3z"/>
	<path class="st3" d="M397.8,200.8h-59.3c-0.3,0-0.5-0.2-0.5-0.5c0-0.3,0.2-0.5,0.5-0.5h59.3c0.3,0,0.5,0.2,0.5,0.5
		S398.1,200.8,397.8,200.8z"/>
	<path class="st3" d="M397.1,208.3h-57.6c-0.3,0-0.5-0.2-0.5-0.5s0.2-0.5,0.5-0.5h57.6c0.3,0,0.5,0.2,0.5,0.5
		C397.6,208.1,397.4,208.3,397.1,208.3z"/>
	<path class="st3" d="M396.6,215.8h-55.4c-0.3,0-0.5-0.2-0.5-0.5s0.2-0.5,0.5-0.5h55.4c0.3,0,0.5,0.2,0.5,0.5
		S396.8,215.8,396.6,215.8z"/>
	<path class="st3" d="M395.5,222.7h-53.4c-0.7,0-1.3-0.5-1.5-1.2l-6.6-36.1c-0.1-0.8,0.4-1.6,1.2-1.7c0.1,0,0.2,0,0.3,0h63.1l2-15.9
		c0.1-0.4,0.3-0.8,0.6-1l7-4.9c0.7-0.5,1.6-0.4,2.1,0.3c0.5,0.7,0.4,1.6-0.3,2.1c0,0,0,0-0.1,0l-6.4,4.5l-6.6,52.6
		C396.9,222.1,396.2,222.7,395.5,222.7z M343.3,219.7h50.8l4.2-33h-61L343.3,219.7z"/>
	<path class="st3" d="M393.1,242.5c0-2.4,2-4.4,4.4-4.4c2.4,0,4.4,2,4.4,4.4s-2,4.4-4.4,4.4l0,0
		C395.1,246.8,393.1,244.9,393.1,242.5z"/>
	<path class="st3" d="M397.5,247.4c-2.7,0-4.9-2.2-4.9-4.9s2.2-4.9,4.9-4.9c2.7,0,4.9,2.2,4.9,4.9c0,0,0,0,0,0
		C402.4,245.2,400.2,247.3,397.5,247.4z M397.5,238.6c-2.1,0-3.9,1.7-3.9,3.9s1.7,3.9,3.9,3.9c2.1,0,3.9-1.7,3.9-3.9c0,0,0,0,0,0
		C401.4,240.3,399.6,238.6,397.5,238.6z"/>
	<path class="st8" d="M398.2,236.9v5.3h-2c0,0,0.8-2.3-0.5-2.9s-3.5-1.9-3.8-2.7L398.2,236.9z"/>
	<path class="st3" d="M346,242.5c0-2.4,2-4.4,4.4-4.4c2.4,0,4.4,2,4.4,4.4s-2,4.4-4.4,4.4l0,0C348,246.8,346,244.9,346,242.5z"/>
	<path class="st3" d="M350.4,247.4c-2.7,0-4.9-2.2-4.9-4.9s2.2-4.9,4.9-4.9c2.7,0,4.9,2.2,4.9,4.9c0,0,0,0,0,0
		C355.3,245.2,353.1,247.3,350.4,247.4z M350.4,238.6c-2.1,0-3.9,1.7-3.9,3.9s1.7,3.9,3.9,3.9c2.1,0,3.9-1.7,3.9-3.9c0,0,0,0,0,0
		C354.3,240.3,352.5,238.6,350.4,238.6z"/>
	<path class="st8" d="M351.1,236.9v5.3h-2c0,0,0.8-2.3-0.5-2.9s-3.5-1.9-3.8-2.7L351.1,236.9z"/>
	<path class="st3" d="M397.6,237.4h-54.4c-0.8,0-1.5-0.7-1.5-1.5s0.7-1.5,1.5-1.5h54.4c1.3,0,2.4-1.1,2.4-2.4c0-0.5-0.1-0.9-0.4-1.3
		l-5.5-8.7c-0.4-0.7-0.2-1.6,0.5-2.1c0.7-0.4,1.6-0.2,2,0.5l5.4,8.7c1.6,2.6,0.8,5.9-1.8,7.5C399.6,237.2,398.6,237.5,397.6,237.4
		L397.6,237.4z"/>
</g>
<g id="freepik--Pictures--inject-13">
	<rect x="156.2" y="155.8" class="st7" width="64.1" height="90"/>
	<path class="st3" d="M220.3,246.3h-64.1c-0.3,0-0.5-0.2-0.5-0.5v-90c0-0.3,0.2-0.5,0.5-0.5h64.1c0.3,0,0.5,0.2,0.5,0.5v90
		C220.8,246.1,220.6,246.3,220.3,246.3z M156.7,245.3h63.1v-89h-63.1V245.3z"/>
	<polygon class="st9" points="220.3,181.5 211.1,170.6 191.2,205.2 178.2,196.8 156.2,245.8 220.3,245.8 	"/>
	<path class="st3" d="M220.3,246.3h-64.1c-0.2,0-0.3-0.1-0.4-0.2c-0.1-0.1-0.1-0.3,0-0.5l21.9-49c0.1-0.1,0.2-0.2,0.3-0.3
		c0.1,0,0.3,0,0.4,0.1l12.7,8.1l19.6-34.1c0.1-0.1,0.2-0.2,0.4-0.2c0.2,0,0.3,0.1,0.4,0.2l9.2,10.8c0.1,0.1,0.1,0.2,0.1,0.3v64.4
		C220.9,246.1,220.6,246.3,220.3,246.3C220.3,246.3,220.3,246.3,220.3,246.3z M157,245.3h62.8v-63.6l-8.6-10.2l-19.5,33.9
		c-0.1,0.1-0.2,0.2-0.3,0.2c-0.1,0-0.3,0-0.4-0.1l-12.6-8L157,245.3z"/>
	<path class="st9" d="M178.6,172.6c0,3.7-3,6.8-6.7,6.8c-3.7,0-6.8-3-6.8-6.7c0-3.7,3-6.8,6.7-6.8c0,0,0,0,0,0
		C175.5,165.9,178.5,168.9,178.6,172.6z"/>
	<path class="st3" d="M171.8,179.9c-4,0-7.3-3.2-7.3-7.2c0-4,3.2-7.3,7.2-7.3s7.3,3.2,7.3,7.2c0,0,0,0,0,0
		C179,176.6,175.8,179.9,171.8,179.9z M171.8,166.4c-3.5,0-6.3,2.8-6.3,6.2c0,3.5,2.8,6.3,6.2,6.3c3.5,0,6.3-2.8,6.3-6.2
		c0,0,0,0,0,0C178,169.2,175.3,166.4,171.8,166.4z"/>
	<rect x="156.2" y="256.7" class="st7" width="64.1" height="90"/>
	<path class="st3" d="M220.3,347.2h-64.1c-0.3,0-0.5-0.2-0.5-0.5v-90c0-0.3,0.2-0.5,0.5-0.5h64.1c0.3,0,0.5,0.2,0.5,0.5v90
		C220.8,347,220.6,347.2,220.3,347.2z M156.7,346.2h63.1v-89h-63.1V346.2z"/>
	<polygon class="st9" points="220.3,282.4 211.1,271.5 191.2,306.1 178.2,297.7 156.2,346.7 220.3,346.7 	"/>
	<path class="st3" d="M220.3,347.2h-64.1c-0.2,0-0.3-0.1-0.4-0.2c-0.1-0.1-0.1-0.3,0-0.5l21.9-49c0.1-0.1,0.2-0.2,0.3-0.3
		c0.1,0,0.3,0,0.4,0l12.7,8.1l19.6-34.1c0.1-0.1,0.2-0.2,0.4-0.2c0.2,0,0.3,0.1,0.4,0.2l9.2,10.8c0.1,0.1,0.1,0.2,0.1,0.3v64.3
		C220.8,346.9,220.6,347.2,220.3,347.2C220.3,347.2,220.3,347.2,220.3,347.2z M157,346.2h62.8v-63.6l-8.6-10.1l-19.5,33.9
		c-0.1,0.1-0.2,0.2-0.3,0.2c-0.1,0-0.3,0-0.4-0.1l-12.6-8L157,346.2z"/>
	<path class="st9" d="M178.6,273.5c0,3.7-3,6.8-6.8,6.8c-3.7,0-6.8-3-6.8-6.8c0-3.7,3-6.8,6.8-6.8c0,0,0,0,0,0
		C175.5,266.8,178.6,269.8,178.6,273.5C178.6,273.5,178.6,273.5,178.6,273.5z"/>
	<path class="st3" d="M171.8,280.8c-4,0-7.3-3.2-7.3-7.2c0-4,3.2-7.3,7.2-7.3c4,0,7.3,3.2,7.3,7.2c0,0,0,0,0,0
		C179,277.5,175.8,280.8,171.8,280.8z M171.8,267.3c-3.5,0-6.3,2.8-6.3,6.2c0,3.5,2.8,6.3,6.2,6.3c3.5,0,6.3-2.8,6.3-6.2
		c0,0,0,0,0,0C178.1,270.1,175.3,267.3,171.8,267.3L171.8,267.3z"/>
	<rect x="531.2" y="155.8" class="st7" width="64.1" height="90"/>
	<path class="st3" d="M595.3,246.3h-64.1c-0.3,0-0.5-0.2-0.5-0.5v-90c0-0.3,0.2-0.5,0.5-0.5h64.1c0.3,0,0.5,0.2,0.5,0.5v90
		C595.8,246.1,595.6,246.3,595.3,246.3L595.3,246.3z M531.7,245.3h63.1v-89h-63.1L531.7,245.3z"/>
	<polygon class="st9" points="595.3,181.5 586.1,170.6 566.2,205.2 553.1,196.8 531.2,245.8 595.3,245.8 	"/>
	<path class="st3" d="M595.3,246.3h-64.1c-0.2,0-0.3-0.1-0.4-0.2c-0.1-0.1-0.1-0.3,0-0.5l21.9-49c0.1-0.1,0.2-0.2,0.3-0.3
		c0.1,0,0.3,0,0.4,0.1l12.7,8.1l19.6-34.1c0.1-0.1,0.2-0.2,0.4-0.2c0.2,0,0.3,0.1,0.4,0.2l9.2,10.8c0.1,0.1,0.1,0.2,0.1,0.3v64.4
		C595.8,246.1,595.6,246.3,595.3,246.3C595.3,246.3,595.3,246.3,595.3,246.3z M532,245.3h62.8v-63.6l-8.7-10.2l-19.5,33.9
		c-0.1,0.1-0.2,0.2-0.3,0.2c-0.1,0-0.3,0-0.4-0.1l-12.6-8L532,245.3z"/>
	<path class="st9" d="M553.5,172.6c0,3.7-3,6.8-6.7,6.8c-3.7,0-6.8-3-6.8-6.7c0-3.7,3-6.8,6.7-6.8c0,0,0,0,0,0
		C550.5,165.9,553.5,168.9,553.5,172.6z"/>
	<path class="st3" d="M546.8,179.9c-4,0-7.2-3.2-7.2-7.2s3.2-7.2,7.2-7.2s7.2,3.2,7.2,7.2S550.8,179.9,546.8,179.9L546.8,179.9z
		 M546.8,166.4c-3.5,0-6.2,2.8-6.2,6.3c0,3.5,2.8,6.2,6.2,6.2s6.2-2.8,6.2-6.3c0,0,0,0,0,0C553,169.2,550.2,166.4,546.8,166.4z"/>
	<rect x="531.2" y="256.7" class="st7" width="64.1" height="90"/>
	<path class="st3" d="M595.3,347.2h-64.1c-0.3,0-0.5-0.2-0.5-0.5v-90c0-0.3,0.2-0.5,0.5-0.5h64.1c0.3,0,0.5,0.2,0.5,0.5v90
		C595.8,347,595.6,347.2,595.3,347.2L595.3,347.2z M531.7,346.2h63.1v-89h-63.1L531.7,346.2z"/>
	<polygon class="st9" points="595.3,282.4 586.1,271.5 566.2,306.1 553.1,297.7 531.2,346.7 595.3,346.7 	"/>
	<path class="st3" d="M595.3,347.2h-64.1c-0.3,0-0.5-0.2-0.5-0.5c0-0.1,0-0.1,0-0.2l21.9-49c0.1-0.1,0.2-0.2,0.3-0.3
		c0.1,0,0.3,0,0.4,0l12.7,8.1l19.6-34.1c0.1-0.1,0.2-0.2,0.4-0.2c0.2,0,0.3,0.1,0.4,0.2l9.2,10.8c0.1,0.1,0.1,0.2,0.1,0.3v64.3
		C595.8,346.9,595.6,347.2,595.3,347.2C595.3,347.2,595.3,347.2,595.3,347.2z M532,346.2h62.8v-63.6l-8.7-10.1l-19.5,33.9
		c-0.1,0.1-0.2,0.2-0.3,0.2c-0.1,0-0.3,0-0.4-0.1l-12.6-8L532,346.2z"/>
	<path class="st9" d="M553.5,273.5c0,3.7-3,6.8-6.8,6.8s-6.8-3-6.8-6.8s3-6.8,6.8-6.8l0,0C550.5,266.8,553.5,269.8,553.5,273.5z"/>
	<path class="st3" d="M546.8,280.8c-4,0-7.2-3.2-7.2-7.2s3.2-7.2,7.2-7.2c4,0,7.2,3.2,7.2,7.2c0,0,0,0,0,0
		C554,277.5,550.8,280.8,546.8,280.8z M546.8,267.3c-3.5,0-6.2,2.8-6.2,6.2s2.8,6.2,6.2,6.2s6.2-2.8,6.2-6.2l0,0
		C553,270.1,550.2,267.3,546.8,267.3C546.8,267.3,546.8,267.3,546.8,267.3L546.8,267.3z"/>
</g>
<g id="freepik--Character--inject-13">
	<path class="st7" d="M712.4,352c0,0-0.9,7.4,0.2,10.4s8,23.8,9.1,42.3s2.2,35.3,1.5,36.2s-4.5,0.4-4.5,0.4h-13
		c-0.6-0.5-0.8-1.3-0.4-2c0.7-1.1,6.9-5.9,7.8-7.4c0.9-1.3,1.5-2.8,2-4.3c0-0.6-1.5-16.5-6.7-26.9s-11.9-36-12.6-45.3L712.4,352z"/>
	<path class="st3" d="M720.7,441.9c-0.8,0-1.6-0.1-2.1-0.1h-12.9c-0.1,0-0.2,0-0.3-0.1c-0.8-0.6-1.1-1.7-0.5-2.6
		c1-1.2,2.2-2.2,3.4-3.2c1.6-1.2,3.1-2.6,4.4-4.2c0.8-1.3,1.4-2.6,1.9-4.1c0-1.1-1.7-16.7-6.7-26.7c-5.2-10.4-12-36-12.6-45.5
		c0-0.2,0.1-0.5,0.4-0.5l16.7-3.5c0.2,0,0.3,0,0.4,0.1c0.1,0.1,0.2,0.3,0.2,0.4c0,0.1-0.8,7.3,0.2,10.2c0.1,0.2,8,22.5,9.1,42.4
		l0.3,5.6c1.3,21.8,1.7,30.1,1.1,30.9C723.2,441.8,721.9,441.9,720.7,441.9z M705.9,440.8h12.8c2,0.2,3.9,0.1,4.2-0.2
		c0.4-1.1-0.4-15.9-1.3-30.2l-0.3-5.6c-1.2-19.8-9-41.9-9.1-42.1c-0.9-2.6-0.5-8-0.3-10l-15.6,3.2c0.8,9.8,7.4,34.5,12.5,44.7
		c5.4,10.8,6.8,27,6.8,27.1c0,1-1.8,4.2-2,4.6c-0.5,0.9-2.6,2.7-4.6,4.4c-1.1,0.9-2.2,1.9-3.2,3C705.5,440,705.6,440.5,705.9,440.8z
		"/>
	<path class="st9" d="M705.2,439.4c1.4-1.5,2.9-2.9,4.5-4.2v2.2h13.6c0.1,1.2,0.1,2.3-0.2,3.5c-0.7,0.9-4.5,0.4-4.5,0.4h-13
		C705.1,440.9,704.9,440,705.2,439.4z"/>
	<path class="st3" d="M720.7,441.9c-0.8,0-1.6-0.1-2.1-0.1h-12.9c-0.1,0-0.2,0-0.3-0.1c-0.8-0.6-1.1-1.7-0.5-2.6l0,0
		c1-1.2,2.2-2.2,3.4-3.2l1.2-1.1c0.1-0.1,0.4-0.2,0.5-0.1c0.2,0.1,0.3,0.3,0.3,0.5v1.7h13.1c0.3,0,0.5,0.2,0.5,0.5c0,0,0,0,0,0
		c0.1,3.1-0.1,3.5-0.3,3.8C723.2,441.8,721.9,441.9,720.7,441.9z M705.9,440.8h12.8c2,0.2,3.9,0.1,4.2-0.2c0.1-0.9,0.1-1.8,0.1-2.7
		h-13.1c-0.3,0-0.5-0.2-0.5-0.5v-1.1l-0.4,0.4c-1.1,0.9-2.2,1.9-3.2,3l0,0C705.5,440.1,705.6,440.5,705.9,440.8z M705.2,439.4
		L705.2,439.4z"/>
	<path class="st7" d="M698.5,353.1c0,0-3,21.7-0.9,28.2s1.3,18.2-1.7,30.6s-5.4,20.1-5.4,20.8s0,6.5-0.7,7.6s-19.7,0.9-21,0.9
		s-2.6-1.3-1.5-2.6s7-2.7,10.8-4.6c3.7-1.7,3.9-2.2,3.9-2.2s2.2-25.4,1.3-36.6s-5.7-34.7-4.8-42.5L698.5,353.1z"/>
	<path class="st3" d="M673.5,441.6h-4.7c-0.9,0-1.8-0.5-2.2-1.4c-0.3-0.7-0.2-1.5,0.3-2.1c0.7-0.8,2.6-1.5,5.7-2.6
		c1.8-0.6,3.7-1.3,5.3-2.1c1.3-0.5,2.5-1.2,3.6-1.9c0.2-2.4,2.1-25.8,1.3-36.4c-0.3-4.4-1.2-10.5-2.2-17
		c-1.5-10.2-3.1-20.8-2.6-25.6c0-0.3,0.2-0.5,0.5-0.4c0,0,0,0,0,0l20,0.4c0.3,0,0.5,0.2,0.5,0.5c0,0,0,0,0,0.1c0,0.2-3,21.6-0.9,28
		s1.5,17.9-1.7,30.9c-1.8,7.2-3.3,12.8-4.3,16.5c-0.6,2.2-1.1,4-1.1,4.2c0,2.5-0.1,6.8-0.7,7.8C690,440.9,689.6,441.6,673.5,441.6z
		 M679,353.2c-0.4,4.9,1.1,15.1,2.6,24.9c1,6.5,1.9,12.6,2.2,17c0.9,11.2-1.3,36.5-1.3,36.7c0,0.1,0,0.1,0,0.2
		c-0.2,0.4-1.6,1.2-4.1,2.4c-1.6,0.8-3.5,1.4-5.4,2.1c-2.3,0.8-4.7,1.7-5.2,2.3c-0.3,0.3-0.4,0.7-0.2,1c0.3,0.5,0.8,0.8,1.3,0.8h0.6
		c16.8,0.1,19.5-0.5,20-0.7c0.3-0.7,0.5-3.6,0.5-7.3c0.3-1.5,0.7-3,1.1-4.5c1-3.7,2.5-9.2,4.3-16.4c3.1-12.8,3.8-24.1,1.7-30.3
		s0.3-24.3,0.8-27.9L679,353.2z"/>
	<path class="st9" d="M668.8,441.1c-1.3,0-2.6-1.3-1.5-2.6c0.9-1,4.8-2.2,8.4-3.5l0.7,1.6l14-1.1c-0.1,1.9-0.2,4.1-0.6,4.7
		C689.2,441.3,670.1,441.1,668.8,441.1z"/>
	<path class="st3" d="M673.5,441.6h-4.7c-0.9,0-1.8-0.5-2.2-1.4c-0.3-0.7-0.2-1.5,0.3-2.1c0.7-0.8,2.6-1.5,5.7-2.6
		c1-0.3,2-0.7,2.9-1.1c0.2-0.1,0.5,0,0.6,0.3l0.6,1.3l13.7-1c0.1,0,0.3,0,0.4,0.1c0.1,0.1,0.2,0.2,0.2,0.4c-0.1,3.7-0.5,4.6-0.7,5
		S689.6,441.6,673.5,441.6z M675.5,435.6l-2.5,0.9c-2.3,0.8-4.7,1.7-5.2,2.3c-0.3,0.3-0.4,0.7-0.2,1c0.3,0.5,0.8,0.8,1.3,0.8h0.6
		c16.8,0.1,19.5-0.5,20-0.7c0.3-1.3,0.5-2.6,0.5-3.9l-13.5,1c-0.2,0-0.4-0.1-0.5-0.3L675.5,435.6z"/>
	<path class="st3" d="M710.6,279.6c0,0,7.4,16.1,8,25.8s-3.5,20.4-3.5,20.4l2.6,28c0,0-8.7,5.4-23.2,5.2s-21.7-2.6-21.7-2.6
		s-1.7-34,2.8-50.5s2.9-25.5,2.9-25.5S698.9,281.3,710.6,279.6z"/>
	<path class="st3" d="M695.5,359.5h-0.9c-14.4-0.2-21.5-2.5-21.8-2.6c-0.2-0.1-0.3-0.2-0.3-0.5c0-0.3-1.7-34.3,2.8-50.6
		c4.5-16.1,2.9-25.1,2.9-25.2c0-0.1,0-0.3,0.1-0.4c0.1-0.1,0.2-0.2,0.4-0.2c0.2,0,20.3,0.9,31.8-0.8c0.2,0,0.4,0.1,0.5,0.3
		c0.3,0.7,7.5,16.3,8.1,26c0.6,9.2-3,19.3-3.5,20.5l2.6,27.8c0,0.2-0.1,0.4-0.2,0.5C717.7,354.4,709.5,359.5,695.5,359.5z
		 M673.4,356c1.5,0.5,8.6,2.3,21.2,2.5c12.8,0.2,21.1-4.1,22.7-5l-2.6-27.6c0-0.1,0-0.2,0-0.2c0-0.1,4.1-10.6,3.4-20.2
		c-0.6-8.8-6.8-23-7.8-25.3c-10.5,1.4-27.6,0.9-31,0.8c0.3,2.3,0.9,10.9-3,25.1C672,321.3,673.3,352.3,673.4,356z"/>
	<path class="st9" d="M683.1,217.3c0,0,2.1,7,2.9,10.9s-1.3,11.4-4.1,16.6s-5.9,10.8-4.4,15.5s2.1,6.5,2.1,6.5s-1.1,11.6-1,13.5
		s8.5,3.9,16.8,3.1s14.5-2.5,15.2-3.9s0-9.6,1.1-13.9s1.5-23.9-1.1-28.2s-8.6-10.9-8.6-10.9l-4.9-12.9L683.1,217.3z"/>
	<path class="st3" d="M691.5,284.2c-5.8,0-10.9-1.2-12.6-2.6c-0.4-0.3-0.6-0.7-0.7-1.2c-0.2-1.9,0.8-12.2,1-13.5
		c-0.2-0.5-0.8-2.4-2.1-6.4c-1.5-4.8,1.4-10.1,4.1-15.3l0.3-0.6c2.6-4.9,4.8-12.4,4-16.3s-2.9-10.8-2.9-10.9c-0.1-0.1-0.1-0.3,0-0.4
		c0.1-0.1,0.2-0.2,0.3-0.2l14-3.6c0.2-0.1,0.5,0.1,0.6,0.3l4.8,12.8c0.7,0.8,6.1,6.9,8.6,10.9c2.8,4.5,2.3,24.3,1.2,28.6
		c-0.6,2.9-0.8,5.9-0.8,8.9c0,2.7-0.1,4.3-0.4,5c-0.9,2.1-9,3.6-15.5,4.2C694.2,284.1,692.8,284.2,691.5,284.2z M683.7,217.7
		c0.5,1.7,2.1,7.2,2.8,10.4c0.9,4.1-1.4,11.9-4.1,17l-0.3,0.6c-2.7,5-5.4,10.2-4.1,14.5c1.4,4.6,2.1,6.5,2.1,6.5c0,0.1,0,0.1,0,0.2
		c0,0.1-1.1,11.5-1,13.4c0.1,0.2,0.2,0.4,0.3,0.5c1.9,1.6,9.1,2.8,15.9,2.2c9.5-0.9,14.3-2.7,14.7-3.6c0.3-1.5,0.4-3.1,0.3-4.6
		c-0.1-3.1,0.2-6.1,0.8-9.1c1.2-4.3,1.3-23.9-1.1-27.8c-2.5-4.1-8.5-10.8-8.6-10.8c0,0-0.1-0.1-0.1-0.1l-4.7-12.5L683.7,217.7z"/>
	<path class="st7" d="M704.5,229.4c-3-0.7-6.2-0.5-9.1,0.6c-3.2,1.2-7.3,4.4-10.2,6.8c0.9-3.3,1.4-6.5,0.9-8.6
		c-0.8-3.9-2.9-10.9-2.9-10.9l14-3.6l4.9,12.9C702,226.6,703,227.8,704.5,229.4z"/>
	<path class="st3" d="M685.1,237.4c-0.1,0-0.2,0-0.3-0.1c-0.2-0.1-0.3-0.3-0.2-0.6c1-3.5,1.3-6.5,0.9-8.4
		c-0.8-3.8-2.9-10.8-2.9-10.9c-0.1-0.1-0.1-0.3,0-0.4c0.1-0.1,0.2-0.2,0.3-0.2l14-3.6c0.2-0.1,0.5,0.1,0.6,0.3l4.8,12.8
		c0.2,0.3,1.2,1.3,2.4,2.8c0.1,0.2,0.1,0.4,0,0.6c-0.1,0.2-0.3,0.3-0.5,0.2c-2.9-0.6-6-0.4-8.8,0.6c-3.1,1.2-7.2,4.3-10,6.8
		C685.3,237.3,685.2,237.4,685.1,237.4z M683.7,217.7c0.5,1.7,2.1,7.2,2.8,10.4c0.3,2.5,0.1,5-0.5,7.4c2.8-2.3,6.3-4.9,9.2-5.9
		c2.6-0.9,5.3-1.2,8-0.9c-0.9-1.1-1.5-1.8-1.5-1.8c0,0-0.1-0.1-0.1-0.1l-4.7-12.5L683.7,217.7z"/>
	<path class="st7" d="M676.6,190.7c0,0-2,5.2-2.7,7.4s-1.7,4.4-3,4.6s-2.6,1.2-1.7,3c0.8,1.4,1.9,2.6,3.1,3.7c0,0,1.2,8.4,2.1,9.5
		s5,1,7.5,0.4s7.3-1.4,7.3-1.4s1.6-17,0.6-20.6s-5.3-8.7-6.5-9.3S676.6,190.7,676.6,190.7z"/>
	<path class="st3" d="M677.8,220.2c-1.7,0-3.2-0.2-3.8-1c-0.9-1.1-1.9-7.8-2.2-9.6c-1.2-1.1-2.3-2.3-3.1-3.8
		c-0.4-0.7-0.4-1.5-0.1-2.3c0.5-0.8,1.3-1.3,2.2-1.4c0.9-0.1,1.8-1.7,2.6-4.3c0.7-2.2,2.6-7.4,2.7-7.5c0-0.1,0.1-0.2,0.2-0.3
		c1.3-0.8,5.7-3.4,7.1-2.7s5.8,6,6.8,9.6s-0.5,20-0.6,20.7c0,0.2-0.2,0.4-0.4,0.4c0,0-4.8,0.9-7.3,1.4
		C680.6,220.1,679.2,220.2,677.8,220.2z M677,191c-0.3,0.9-2,5.3-2.6,7.3c-1,3.1-2.1,4.8-3.4,5c-0.6,0.1-1.1,0.4-1.5,0.9
		c-0.2,0.4-0.2,0.9,0.1,1.4c0.8,1.3,1.8,2.5,3,3.6c0.1,0.1,0.1,0.2,0.2,0.3c0.5,3.4,1.4,8.6,2,9.3s4.2,0.8,7,0.2
		c2.1-0.5,5.8-1.2,7-1.4c0.2-2.5,1.4-16.9,0.6-20c-0.9-3.4-5.1-8.4-6.2-9C682.4,188.2,679.5,189.6,677,191z"/>
	<path class="st3" d="M675.7,201.2c-0.1,0.9,0.2,1.7,0.6,1.7s0.8-0.6,0.9-1.6s-0.2-1.6-0.6-1.7S675.8,200.3,675.7,201.2z"/>
	<path class="st3" d="M679.8,199.5c-0.2,0-0.3-0.1-0.4-0.2c-0.6-0.7-2.3-2.4-3.5-1.7c-0.2,0.1-0.5,0.1-0.7-0.2c0,0,0,0,0,0
		c-0.1-0.2-0.1-0.5,0.2-0.7c2.1-1.2,4.6,1.8,4.7,2c0.2,0.2,0.2,0.5,0,0.7c0,0,0,0,0,0C680,199.5,679.9,199.5,679.8,199.5z"/>
	<path class="st3" d="M674.4,211.4h-0.1c-0.3,0-0.5-0.2-0.5-0.5c0,0,0,0,0,0c0-0.3,0.2-0.5,0.5-0.5h0.1c1.4-0.1,2.7-0.5,3.8-1.3
		c0.2-0.2,0.5-0.1,0.7,0.1c0.2,0.2,0.1,0.5-0.1,0.7C677.5,210.8,676,211.4,674.4,211.4z"/>
	<path class="st3" d="M715.6,214.1c-1.8-12.6-3.1-21.3-6.8-26c-1.7-2.9-4.5-5-7.7-5.9c-6.6-1.6-14.5-0.2-14.5-0.2s-4.6-5.2-10.3-1.3
		s-3.7,9.5-1,11.2c2,1.2,4.1,2.2,6.3,3l0.9-4.8c0,0,4.4,8.8,4.8,9.8l-6.3,40.2c0,0,12.8-8.8,15.4-6.7s5.1,3.9,5.1,6s-0.4,18-0.4,18
		H716C716,257.3,717.8,228.9,715.6,214.1z"/>
	<path class="st3" d="M716,257.9h-14.8c-0.1,0-0.3-0.1-0.4-0.1c-0.1-0.1-0.2-0.2-0.1-0.4c0-0.2,0.4-15.9,0.4-18
		c0-1.8-2.1-3.4-4.4-5.2l-0.5-0.4c-1.7-1.3-10,3.4-14.8,6.8c-0.2,0.1-0.4,0.1-0.5,0c-0.2-0.1-0.3-0.3-0.2-0.5l6.2-40.1
		c-0.4-1-2.6-5.3-4.1-8.3L682,195c0,0.1-0.1,0.3-0.2,0.3c-0.1,0.1-0.3,0.1-0.4,0c-2.2-0.8-4.3-1.8-6.4-3.1c-1.8-1.3-2.9-3.3-2.9-5.6
		c0-1.8,0.7-4.3,3.9-6.5c5.4-3.6,9.8,0.2,10.8,1.2c1.5-0.2,8.5-1.2,14.5,0.2c3,0.7,5.8,2.9,8,6.1c3.8,4.8,5.1,13.8,6.9,26.2
		c2.2,14.7,0.4,43.1,0.4,43.4C716.6,257.7,716.3,257.9,716,257.9C716,257.9,716,257.9,716,257.9z M701.7,256.9h13.8
		c0.2-3.8,1.6-29.2-0.4-42.7c-1.8-12.3-3.1-21.2-6.7-25.8c-2.1-3.1-4.6-5.1-7.4-5.8c-6.4-1.5-14.3-0.2-14.3-0.2
		c-0.2,0-0.3,0-0.5-0.2c-0.2-0.2-4.4-4.8-9.7-1.2c-2.9,1.9-3.5,4.1-3.5,5.6c0,1.9,0.9,3.6,2.4,4.7c1.8,1.1,3.7,2,5.6,2.8l0.8-4.2
		c0.1-0.3,0.3-0.4,0.6-0.4c0.1,0,0.3,0.1,0.3,0.3c0.2,0.4,4.5,8.8,4.8,9.8c0,0.1,0,0.2,0,0.3l-6,39.1c3.5-2.3,12.6-8,15.1-6.1
		l0.5,0.4c2.5,1.9,4.8,3.7,4.8,6C702.1,241.3,701.8,254.1,701.7,256.9z"/>
	<path class="st3" d="M621,218.8c0.2-0.5,0.7-0.8,1.2-0.7c0,0,0.1,0,0.1,0l6.4,2.8l-6.8-6.4c-0.5-0.4-0.5-1-0.2-1.5s1-0.5,1.5-0.2
		l7.4,4.6l-4.3-5.3c-0.3-0.4-0.2-1.1,0.2-1.4c0.4-0.3,0.8-0.3,1.2,0l8.6,7.3l-0.8-3.2c-0.2-0.7,0.3-1.3,0.9-1.5
		c0.6-0.1,1.2,0.2,1.4,0.7c0.5,1.4,1.6,4,2,4.8c0.7,1.5,1.1,3.2,1.3,4.8c-0.1,1-0.1,3.3-0.1,3.3l16.1,12.6l1.2-1.5l4.3,4.1l-0.1,1.6
		l3.9,3c0,0,26.5-13.4,29.9-13.7s8.2,5.8,6.2,11.9s-37.1,15.6-38.2,15.7s-26.4-29.4-26.4-29.4c-2.1-0.8-4.2-1.7-6.2-2.7
		c-1.6-0.9-8-3.5-10-4.3c-0.4-0.1-0.6-0.5-0.4-0.9c0.1-0.4,0.5-0.5,0.9-0.4l5.3,1.3l-6.1-4.5C621.1,219.6,620.9,219.2,621,218.8z"/>
	<path class="st3" d="M664.4,261.4c-1,0-10-9.9-26.7-29.5c-2.1-0.8-4.1-1.7-6.1-2.7c-1.5-0.9-8-3.5-9.9-4.2c-0.6-0.3-0.9-1-0.7-1.6
		c0.2-0.6,0.8-0.9,1.4-0.7l2.9,0.7l-4.1-3c-0.5-0.4-0.7-1-0.6-1.6l0,0c0.2-0.8,1-1.3,1.8-1.1c0.1,0,0.1,0,0.2,0.1l3.7,1.6l-4.7-4.4
		c-0.5-0.5-0.6-1.4-0.2-2c0.5-0.7,1.4-0.9,2.1-0.4l4.9,3l-2.4-2.9c-0.5-0.6-0.4-1.6,0.2-2.1c0.5-0.4,1.3-0.4,1.9,0l7.4,6.2l-0.4-1.6
		c-0.1-0.5,0-1,0.2-1.4c0.3-0.4,0.7-0.7,1.2-0.8c0.8-0.1,1.5,0.3,1.8,1.1c0.5,1.1,1.6,3.9,2,4.8c0.7,1.6,1.2,3.3,1.3,5.1
		c0,0.8-0.1,2.4-0.1,3l15.5,12.1l1-1.1c0.1-0.1,0.2-0.2,0.3-0.2c0.1,0,0.3,0,0.4,0.1l4.3,4c0.1,0.1,0.2,0.3,0.2,0.4l-0.1,1.3
		l3.5,2.7c3-1.5,26.5-13.4,29.8-13.6c1.6-0.1,3.5,1,5,2.9c2.2,2.7,2.8,6.4,1.7,9.7C700.8,251.9,664.7,261.3,664.4,261.4L664.4,261.4
		z M622,223.6c-0.1,0-0.2,0.1-0.3,0.2c0,0.1,0.1,0.2,0.2,0.2c2.5,1,8.5,3.4,10.1,4.3c2,1,4,1.9,6.1,2.7c0.1,0,0.1,0.1,0.2,0.1
		c9.6,11.2,24.3,28.1,26.1,29.2c2.6-0.5,35.8-9.8,37.7-15.3c1-3,0.4-6.3-1.5-8.7c-1.2-1.6-2.8-2.6-4.1-2.5
		c-2.7,0.2-22.4,9.9-29.7,13.6c-0.2,0.1-0.4,0.1-0.5-0.1l-3.9-3c-0.1-0.1-0.2-0.3-0.2-0.4l0.1-1.4l-3.8-3.6l-0.9,1.1
		c-0.2,0.2-0.5,0.2-0.7,0.1l-16.1-12.6c-0.1-0.1-0.2-0.2-0.2-0.4c0-0.1,0-2.3,0.1-3.3c-0.2-1.6-0.6-3.1-1.2-4.6
		c-0.4-0.9-1.4-3.4-2-4.9c-0.1-0.3-0.4-0.5-0.8-0.4c-0.2,0-0.4,0.1-0.5,0.3c-0.1,0.2-0.2,0.4-0.1,0.6l0.8,3.2c0.1,0.2,0,0.4-0.2,0.5
		c-0.2,0.1-0.4,0.1-0.6,0l-8.6-7.2c-0.2-0.2-0.5-0.2-0.7,0c-0.1,0.1-0.1,0.1-0.1,0.2c0,0.1,0,0.3,0.1,0.4l4.3,5.3
		c0.2,0.2,0.2,0.5,0,0.6c-0.2,0.2-0.4,0.2-0.6,0.1l-7.4-4.6c-0.2-0.2-0.6-0.1-0.7,0.1c-0.2,0.2-0.1,0.5,0.1,0.7l6.8,6.5
		c0.2,0.2,0.2,0.4,0.1,0.6c-0.1,0.2-0.4,0.3-0.6,0.2l-6.4-2.9c-0.1-0.1-0.3-0.1-0.4,0c-0.1,0.1-0.2,0.2-0.2,0.3l0,0
		c-0.1,0.2,0,0.4,0.2,0.5l6.1,4.5c0.2,0.2,0.3,0.5,0.1,0.7c-0.1,0.2-0.3,0.2-0.5,0.2L622,223.6L622,223.6z M621,218.8L621,218.8z"/>
	<path class="st9" d="M652.7,441.4H501.8c-5.4,0-9.8-4.4-9.8-9.8V195.3c0-5.4,4.4-9.8,9.8-9.8h150.9c5.4,0,9.8,4.4,9.8,9.8v236.3
		C662.5,437,658.1,441.4,652.7,441.4z"/>
	<path class="st3" d="M652.7,441.9H501.8c-5.7,0-10.3-4.6-10.3-10.3V195.3c0-5.7,4.6-10.3,10.3-10.3h150.9c5.7,0,10.3,4.6,10.3,10.3
		v236.3C663,437.3,658.4,441.9,652.7,441.9z M501.8,186c-5.2,0-9.3,4.2-9.3,9.3v236.3c0,5.2,4.2,9.3,9.3,9.3h150.9
		c5.1,0,9.3-4.2,9.3-9.3V195.3c0-5.2-4.2-9.3-9.3-9.3L501.8,186z"/>
	<rect x="573" y="400.9" class="st7" width="11" height="21.7"/>
	<path class="st3" d="M584,423h-11c-0.3,0-0.5-0.2-0.5-0.5v-21.6c0-0.3,0.2-0.5,0.5-0.5h11c0.3,0,0.5,0.2,0.5,0.5v21.7
		C584.5,422.8,584.3,423,584,423z M573.5,422h10v-20.6h-10V422z"/>
	<rect x="573" y="372.8" class="st7" width="11" height="21.7"/>
	<path class="st3" d="M584,395h-11c-0.3,0-0.5-0.2-0.5-0.5v-21.7c0-0.3,0.2-0.5,0.5-0.5h11c0.3,0,0.5,0.2,0.5,0.5v21.7
		C584.5,394.7,584.3,395,584,395z M573.5,394h10v-20.7h-10V394z"/>
	<rect x="573" y="344.7" class="st7" width="11" height="21.7"/>
	<path class="st3" d="M584,366.9h-11c-0.3,0-0.5-0.2-0.5-0.5v-21.7c0-0.3,0.2-0.5,0.5-0.5h11c0.3,0,0.5,0.2,0.5,0.5v21.7
		C584.5,366.7,584.3,366.9,584,366.9z M573.5,365.9h10v-20.7h-10V365.9z"/>
	<rect x="573" y="316.6" class="st7" width="11" height="21.7"/>
	<path class="st3" d="M584,338.8h-11c-0.3,0-0.5-0.2-0.5-0.5v-21.7c0-0.3,0.2-0.5,0.5-0.5h11c0.3,0,0.5,0.2,0.5,0.5v21.7
		C584.5,338.6,584.3,338.8,584,338.8z M573.5,337.8h10v-20.7h-10V337.8z"/>
	<rect x="573" y="288.6" class="st7" width="11" height="21.7"/>
	<path class="st3" d="M584,310.8h-11c-0.3,0-0.5-0.2-0.5-0.5v-21.7c0-0.3,0.2-0.5,0.5-0.5h11c0.3,0,0.5,0.2,0.5,0.5v21.7
		C584.5,310.5,584.3,310.7,584,310.8z M573.5,309.8h10v-20.7h-10V309.8z"/>
	<rect x="573" y="260.5" class="st7" width="11" height="21.7"/>
	<path class="st3" d="M584,282.7h-11c-0.3,0-0.5-0.2-0.5-0.5v-21.7c0-0.3,0.2-0.5,0.5-0.5h11c0.3,0,0.5,0.2,0.5,0.5v21.7
		C584.5,282.4,584.3,282.7,584,282.7z M573.5,281.7h10V261h-10V281.7z"/>
	<rect x="573" y="232.4" class="st7" width="11" height="21.7"/>
	<path class="st3" d="M584,254.6h-11c-0.3,0-0.5-0.2-0.5-0.5v-21.7c0-0.3,0.2-0.5,0.5-0.5h11c0.3,0,0.5,0.2,0.5,0.5v21.7
		C584.5,254.4,584.3,254.6,584,254.6z M573.5,253.6h10v-20.7h-10V253.6z"/>
	<rect x="573" y="204.3" class="st7" width="11" height="21.7"/>
	<path class="st3" d="M584,226.5h-11c-0.3,0-0.5-0.2-0.5-0.5v-21.7c0-0.3,0.2-0.5,0.5-0.5h11c0.3,0,0.5,0.2,0.5,0.5V226
		C584.5,226.3,584.3,226.5,584,226.5z M573.5,225.5h10v-20.7h-10V225.5z"/>
	<ellipse transform="matrix(0.9239 -0.3827 0.3827 0.9239 -34.8888 258.7534)" class="st7" cx="633" cy="217.1" rx="12" ry="12"/>
	<path class="st3" d="M633,229.5c-6.9,0-12.5-5.6-12.5-12.5c0-6.9,5.6-12.5,12.5-12.5s12.5,5.6,12.5,12.5c0,0,0,0,0,0
		C645.5,224,639.9,229.5,633,229.5z M633,205.6c-6.3,0-11.5,5.1-11.5,11.5s5.1,11.5,11.5,11.5s11.5-5.1,11.5-11.5c0,0,0,0,0,0
		C644.5,210.7,639.3,205.6,633,205.6L633,205.6z"/>
	<ellipse transform="matrix(0.9239 -0.3827 0.3827 0.9239 -44.6318 260.6942)" class="st7" cx="633" cy="242.5" rx="12" ry="12"/>
	<path class="st3" d="M633,255c-6.9,0-12.5-5.6-12.5-12.5s5.6-12.5,12.5-12.5s12.5,5.6,12.5,12.5C645.5,249.4,639.9,255,633,255z
		 M633,231.1c-6.3,0-11.5,5.1-11.5,11.5S626.7,254,633,254c6.3,0,11.5-5.1,11.5-11.5C644.5,236.2,639.3,231.1,633,231.1z"/>
	
		<ellipse transform="matrix(0.9958 -9.150159e-02 9.150159e-02 0.9958 -21.9041 59.0452)" class="st7" cx="633" cy="268.4" rx="12" ry="12"/>
	<path class="st3" d="M633,280.9c-6.9,0-12.5-5.6-12.5-12.5S626.1,256,633,256s12.5,5.6,12.5,12.5
		C645.5,275.3,639.9,280.9,633,280.9z M633,257c-6.3,0-11.5,5.1-11.5,11.5s5.1,11.5,11.5,11.5c6.3,0,11.5-5.1,11.5-11.5
		C644.5,262.1,639.3,257,633,257z"/>
	<path class="st3" d="M501.8,185.5c-5.4,0-9.8,4.4-9.8,9.8v236.3c0,5.4,4.4,9.8,9.8,9.8h35.9v-56.9l-35.5-45.9V185.5H501.8z"/>
	<path class="st3" d="M537.7,441.9h-35.9c-5.7,0-10.3-4.6-10.3-10.3V195.3c0-5.7,4.6-10.3,10.3-10.3h0.4c0.3,0,0.5,0.2,0.5,0.5v153
		l35.4,45.8c0.1,0.1,0.1,0.2,0.1,0.3v56.9C538.1,441.7,537.9,441.9,537.7,441.9z M501.7,185.9c-5.1,0.1-9.2,4.2-9.2,9.3v236.3
		c0,5.2,4.2,9.3,9.3,9.3h35.4v-56.2l-35.4-45.8c-0.1-0.1-0.1-0.2-0.1-0.3L501.7,185.9z"/>
	<path class="st3" d="M627.6,403.8c-0.3,0-0.5-0.2-0.5-0.5V290c0-0.3,0.2-0.5,0.5-0.5s0.5,0.2,0.5,0.5v113.3
		C628.1,403.6,627.9,403.8,627.6,403.8z"/>
	<path class="st3" d="M627.6,423.2c-0.3,0-0.5-0.2-0.5-0.5V413c0-0.3,0.2-0.5,0.5-0.5s0.5,0.2,0.5,0.5v9.8
		C628.1,423,627.8,423.2,627.6,423.2z"/>
	<path class="st3" d="M638.8,302.9c-0.3,0-0.5-0.2-0.5-0.5V290c0-0.3,0.2-0.5,0.5-0.5s0.5,0.2,0.5,0.5v12.4
		C639.3,302.7,639,302.9,638.8,302.9z"/>
	<path class="st3" d="M638.8,423.2c-0.3,0-0.5-0.2-0.5-0.5V312.9c0-0.3,0.2-0.5,0.5-0.5s0.5,0.2,0.5,0.5v109.8
		C639.3,423,639,423.2,638.8,423.2z"/>
	<path class="st7" d="M515.5,417.7v-39.9c0-2.5,2-4.5,4.5-4.5h26c2.5,0,4.5,2,4.5,4.5v39.9c0,2.5-2,4.6-4.5,4.6h-26
		C517.6,422.2,515.5,420.2,515.5,417.7z"/>
	<path class="st3" d="M546.1,422.7h-26c-2.8,0-5.1-2.3-5.1-5.1v-39.9c0-2.8,2.3-5.1,5.1-5.1h26c2.8,0,5,2.3,5,5.1v39.9
		C551.1,420.4,548.9,422.7,546.1,422.7z M520.1,373.7c-2.2,0-4.1,1.8-4.1,4.1v39.9c0,2.2,1.8,4.1,4.1,4.1h26c2.2,0,4-1.8,4-4.1
		v-39.9c0-2.2-1.8-4-4-4.1L520.1,373.7z"/>
	<rect x="528.6" y="393.2" class="st7" width="9" height="9"/>
	<path class="st3" d="M537.6,402.7h-9c-0.3,0-0.5-0.2-0.5-0.5v-9c0-0.3,0.2-0.5,0.5-0.5h9c0.3,0,0.5,0.2,0.5,0.5v9
		C538.1,402.5,537.9,402.7,537.6,402.7z M529.1,401.7h8v-8h-8V401.7z"/>
	<path class="st3" d="M527.7,422.2c-0.3,0-0.5-0.2-0.5-0.5v-5.8c0-0.3,0.2-0.5,0.5-0.5h2.7v-12.9c0-0.3,0.2-0.5,0.5-0.5
		s0.5,0.2,0.5,0.5v13.4c0,0.3-0.2,0.5-0.5,0.5h-2.7v5.3C528.1,421.9,527.9,422.2,527.7,422.2z"/>
	<path class="st3" d="M538.7,422.2c-0.3,0-0.5-0.2-0.5-0.5V416h-2.7c-0.3,0-0.5-0.2-0.5-0.5v-13c0-0.3,0.2-0.5,0.5-0.5
		s0.5,0.2,0.5,0.5V415h2.7c0.3,0,0.5,0.2,0.5,0.5v6.2C539.2,422,539,422.2,538.7,422.2z"/>
	<path class="st3" d="M533.1,422.4c-0.3,0-0.5-0.2-0.5-0.5v-19.1c0-0.3,0.2-0.5,0.5-0.5c0.3,0,0.5,0.2,0.5,0.5v19.1
		C533.6,422.1,533.4,422.4,533.1,422.4z"/>
	<path class="st3" d="M530.8,393.6c-0.3,0-0.5-0.2-0.5-0.5v-12.9h-2.7c-0.3,0-0.5-0.2-0.5-0.5v-5.8c0-0.3,0.2-0.5,0.5-0.5
		s0.5,0.2,0.5,0.5v5.3h2.7c0.3,0,0.5,0.2,0.5,0.5v13.4C531.3,393.4,531.1,393.6,530.8,393.6z"/>
	<path class="st3" d="M535.5,393.6c-0.3,0-0.5-0.2-0.5-0.5v-13c0-0.3,0.2-0.5,0.5-0.5h2.7v-5.7c0-0.3,0.2-0.5,0.5-0.5
		s0.5,0.2,0.5,0.5v6.2c0,0.3-0.2,0.5-0.5,0.5H536v12.5C536,393.4,535.8,393.6,535.5,393.6z"/>
	<path class="st3" d="M533.1,393.3c-0.3,0-0.5-0.2-0.5-0.5v-19.1c0-0.3,0.2-0.5,0.5-0.5c0.3,0,0.5,0.2,0.5,0.5v19.1
		C533.6,393,533.4,393.3,533.1,393.3z"/>
	<path class="st3" d="M528.7,398.2h-12.5c-0.3,0-0.5-0.2-0.5-0.5s0.2-0.5,0.5-0.5h12.5c0.3,0,0.5,0.2,0.5,0.5S529,398.2,528.7,398.2
		z"/>
	<path class="st3" d="M549.9,398.2h-12.2c-0.3,0-0.5-0.2-0.5-0.5c0-0.3,0.2-0.5,0.5-0.5h12.2c0.3,0,0.5,0.2,0.5,0.5
		C550.4,398,550.1,398.2,549.9,398.2z"/>
	<path class="st7" d="M666,249.9c0,0,25.5-15.7,28.9-16.1s8.6,5.2,7,11.4s-35.9,18.6-37,18.8s-28.9-26.9-28.9-26.9
		c-2.2-0.6-4.3-1.4-6.4-2.3c-1.6-0.8-8.2-2.9-10.3-3.6c-0.4-0.1-0.6-0.5-0.5-0.9l0,0c0.1-0.4,0.5-0.6,0.8-0.5l5.4,0.9l-6.4-4.1
		c-0.3-0.2-0.5-0.6-0.4-1l0,0c0.1-0.5,0.6-0.9,1.2-0.8c0,0,0.1,0,0.1,0l6.6,2.4l-7.3-5.9c-0.4-0.3-0.5-0.9-0.2-1.4l0,0
		c0.3-0.5,0.9-0.6,1.4-0.4l7.8,4.1l-4.7-5c-0.4-0.4-0.4-1,0-1.4c0.1,0,0.1-0.1,0.2-0.1l0,0c0.3-0.2,0.8-0.2,1.1,0.1l9.1,6.6l-1-3.1
		c-0.2-0.6,0.1-1.3,0.8-1.6c0,0,0.1,0,0.1,0l0,0c0.6-0.1,1.1,0.2,1.4,0.7c0.7,1.3,1.9,3.9,2.3,4.7c0.8,1.5,1.4,3.1,1.6,4.7
		c0,1,0.2,3.3,0.2,3.3L666,249.9z"/>
	<path class="st3" d="M664.9,264.4c-1,0-10.9-9.1-29.2-26.9c-2.2-0.6-4.3-1.4-6.3-2.3c-1.6-0.8-8.2-2.9-10.2-3.5
		c-0.6-0.2-1-0.9-0.8-1.5c0.2-0.6,0.8-1,1.4-0.9l2.9,0.5l-4.4-2.7c-0.7-0.4-0.9-1.3-0.5-2c0.1-0.2,0.3-0.4,0.5-0.5
		c0.4-0.2,0.8-0.3,1.2-0.1l3.8,1.4l-5-4.1c-0.7-0.5-0.8-1.5-0.2-2.2c0.5-0.6,1.3-0.7,1.9-0.4l5.1,2.7l-2.6-2.8
		c-0.3-0.3-0.5-0.8-0.4-1.2c0.1-0.4,0.3-0.8,0.7-1.1c0.5-0.3,1.2-0.3,1.7,0.1l7.8,5.7l-0.5-1.6c-0.2-0.5-0.1-1,0.1-1.4
		c0.5-0.8,1.6-1.1,2.4-0.6c0.3,0.2,0.5,0.4,0.6,0.7c0.5,1.1,1.9,3.8,2.3,4.6c0.9,1.6,1.4,3.2,1.7,5c0,0.8,0.1,2.4,0.2,3l26.9,17.1
		c2.9-1.8,25.5-15.6,28.8-16c1.6-0.2,3.5,0.7,5.2,2.5c2.3,2.6,3.2,6.1,2.4,9.5C700.6,252.1,665.3,264.4,664.9,264.4L664.9,264.4z
		 M619.5,230.4c-0.1,0-0.2,0.1-0.2,0.2c0,0.1,0,0.2,0.1,0.3c2.6,0.8,8.7,2.8,10.3,3.6c2,0.9,4.1,1.6,6.3,2.2c0.1,0,0.1,0.1,0.2,0.1
		c10.6,10.3,26.7,25.7,28.6,26.7c2.5-0.6,35-12.8,36.5-18.4c0.7-3-0.1-6.3-2.2-8.6c-1.4-1.5-3-2.4-4.3-2.2
		c-2.7,0.4-21.6,11.7-28.7,16.1c-0.2,0.1-0.4,0.1-0.5,0L638.4,233c-0.1-0.1-0.2-0.2-0.2-0.4c0-0.1-0.2-2.3-0.2-3.3
		c-0.3-1.6-0.8-3.1-1.6-4.5c-0.5-0.8-1.7-3.3-2.4-4.7c-0.1-0.3-0.5-0.5-0.8-0.4c-0.2,0-0.4,0.2-0.5,0.4c-0.1,0.2-0.1,0.4-0.1,0.6
		l1,3.1c0.1,0.3-0.1,0.5-0.3,0.6c-0.2,0.1-0.3,0-0.5-0.1l-9-6.7c-0.2-0.1-0.4-0.1-0.5,0c-0.1,0.1-0.2,0.2-0.2,0.4
		c0,0.1,0,0.3,0.1,0.4l4.7,5c0.2,0.2,0.2,0.5,0,0.6c-0.2,0.2-0.4,0.2-0.6,0.1l-7.8-4.1c-0.3-0.1-0.6-0.1-0.7,0.2
		c-0.1,0.2-0.1,0.5,0.1,0.7l7.3,5.9c0.2,0.2,0.3,0.5,0.1,0.7c-0.1,0.2-0.4,0.2-0.6,0.2l-6.6-2.4c-0.1-0.1-0.3-0.1-0.4,0
		c-0.1,0.1-0.2,0.2-0.2,0.3c0,0.2,0.1,0.4,0.2,0.5l6.4,4c0.2,0.1,0.3,0.4,0.2,0.6c-0.1,0.2-0.3,0.4-0.5,0.3L619.5,230.4L619.5,230.4
		z"/>
	<path class="st9" d="M651.5,252l0.3-0.5l5.1-7.1l9,5.5c0,0,25.5-15.7,28.9-16.1s8.6,5.2,7,11.4s-35.8,18.6-37,18.8
		C664.3,264,660.2,259.9,651.5,252z"/>
	<path class="st3" d="M664.8,264.5c-0.6,0-1.5-0.8-6.5-5.5c-1.9-1.8-4.2-3.9-7.1-6.5c-0.2-0.2-0.2-0.4-0.1-0.6l0.3-0.5l5.1-7.1
		c0.2-0.2,0.4-0.3,0.7-0.1l8.7,5.3c2.8-1.8,25.5-15.6,28.8-16c1.6-0.2,3.5,0.7,5.2,2.5c2.3,2.6,3.2,6.1,2.4,9.5
		C700.5,252.1,665.2,264.4,664.8,264.5L664.8,264.5z M652.2,252c2.7,2.5,4.9,4.5,6.8,6.2c1.9,1.9,3.8,3.6,5.9,5.2
		c2.5-0.6,35-12.8,36.5-18.4c0.7-3-0.1-6.3-2.2-8.6c-1.4-1.5-3-2.4-4.3-2.2c-2.7,0.4-21.6,11.7-28.7,16.1c-0.2,0.1-0.4,0.1-0.5,0
		l-8.6-5.2L652.2,252z"/>
	<polygon class="st9" points="660.1,246.3 652.9,255 648.8,251.7 656,242.8 	"/>
	<path class="st3" d="M652.9,255.5c-0.1,0-0.2,0-0.3-0.1l-4.1-3.3c-0.1-0.1-0.2-0.2-0.2-0.3c0-0.1,0-0.3,0.1-0.4l7.2-8.9
		c0.1-0.1,0.2-0.2,0.3-0.2c0.1,0,0.3,0,0.4,0.1l4.1,3.5c0.2,0.2,0.2,0.5,0.1,0.7c0,0,0,0,0,0l-7.2,8.7
		C653.2,255.4,653.1,255.5,652.9,255.5z M649.5,251.6l3.3,2.6l6.5-7.9l-3.4-2.8L649.5,251.6z"/>
</g>
<g id="freepik--Awning--inject-13">
	<path class="st3" d="M584,77.9H131.6v49.4c0,9.7,7.8,17.5,17.5,17.5l0,0c9,0,16.5-6.8,17.4-15.7c0.9,8.9,8.4,15.7,17.4,15.7l0,0
		c9,0,16.5-6.8,17.4-15.7c1,9.6,9.6,16.6,19.2,15.6c8.3-0.8,14.8-7.4,15.6-15.6c0.9,8.9,8.4,15.7,17.4,15.7l0,0
		c9,0,16.5-6.8,17.4-15.7c0.9,8.9,8.4,15.7,17.4,15.7l0,0c9,0,16.5-6.8,17.4-15.7c1,9.6,9.6,16.6,19.2,15.6
		c8.2-0.9,14.7-7.4,15.6-15.6c0.9,8.9,8.4,15.7,17.4,15.7l0,0c9,0,16.5-6.8,17.4-15.7c1,9.6,9.6,16.6,19.2,15.6
		c8.3-0.8,14.8-7.4,15.6-15.6c1,9.6,9.6,16.6,19.2,15.6c8.2-0.9,14.7-7.4,15.6-15.6c0.9,8.9,8.4,15.7,17.4,15.7l0,0
		c9,0,16.5-6.8,17.4-15.7c1,9.6,9.6,16.6,19.2,15.6c8.2-0.9,14.7-7.4,15.6-15.6c0.9,8.9,8.4,15.7,17.4,15.7l0,0
		c9,0,16.5-6.8,17.4-15.7c0.9,8.9,8.4,15.7,17.4,15.7l0,0c9,0,16.5-6.8,17.4-15.7c1,9.6,9.7,16.6,19.3,15.5
		c8.9-1,15.6-8.4,15.6-17.3V77.9H584z"/>
	<path class="st3" d="M601.3,145.3c-8.2,0-15.3-5.5-17.4-13.4c-2.6,9.6-12.4,15.3-22,12.8c-6.2-1.7-11.1-6.5-12.8-12.8
		c-2.6,9.6-12.4,15.3-22,12.7c-6.2-1.7-11.1-6.5-12.7-12.7c-2.6,9.6-12.4,15.3-22,12.8c-6.2-1.7-11.1-6.5-12.8-12.8
		c-2.6,9.6-12.4,15.3-22,12.8c-6.2-1.7-11.1-6.5-12.8-12.8c-2.6,9.6-12.4,15.3-22,12.8c-6.2-1.7-11.1-6.5-12.8-12.8
		c-2.6,9.6-12.4,15.3-22,12.7c-6.2-1.7-11.1-6.5-12.7-12.7c-2.6,9.6-12.4,15.3-22,12.8c-6.2-1.7-11.1-6.5-12.8-12.8
		c-2.6,9.6-12.4,15.3-22,12.8c-6.2-1.7-11.1-6.5-12.8-12.8c-2.6,9.6-12.4,15.3-22,12.8c-6.2-1.7-11.1-6.5-12.8-12.8
		c-2.6,9.6-12.4,15.3-22,12.8c-6.2-1.7-11.1-6.5-12.8-12.8c-2.6,9.6-12.4,15.3-22,12.7c-6.2-1.7-11.1-6.5-12.7-12.7
		c-2.6,9.6-12.4,15.3-22,12.8c-6.2-1.7-11.1-6.5-12.8-12.8c-2.6,9.6-12.5,15.3-22.1,12.7c-7.8-2.1-13.3-9.2-13.3-17.3V77.9
		c0-0.3,0.2-0.5,0.5-0.5h487.2c0.3,0,0.5,0.2,0.5,0.5v49.4C619.3,137.2,611.2,145.3,601.3,145.3z M583.9,128.6
		c0.3,0,0.5,0.2,0.5,0.4c1.1,9.3,9.6,16,18.9,14.9c8.5-1,14.9-8.1,15-16.6V78.4H132.1v48.9c-0.1,9.4,7.5,17,16.9,17.1
		c8.8,0.1,16.2-6.6,17-15.4c0-0.3,0.2-0.5,0.5-0.5s0.5,0.2,0.5,0.5c1,9.3,9.5,16.1,18.8,15c7.9-0.9,14.1-7.1,15-15
		c0-0.3,0.2-0.4,0.5-0.4c0.3,0,0.5,0.2,0.5,0.4c1,9.3,9.4,16.1,18.7,15.1c7.9-0.9,14.2-7.1,15.1-15.1c0-0.3,0.2-0.5,0.5-0.5
		s0.5,0.2,0.5,0.5c1,9.3,9.5,16.1,18.8,15c7.9-0.9,14.1-7.1,15-15c0-0.3,0.2-0.4,0.5-0.4c0.3,0,0.5,0.2,0.5,0.4
		c1,9.3,9.5,16.1,18.8,15c7.9-0.9,14.1-7.1,15-15c0-0.3,0.2-0.5,0.5-0.5s0.5,0.2,0.5,0.5c1,9.3,9.5,16.1,18.8,15
		c7.9-0.9,14.1-7.1,15-15c0-0.3,0.2-0.4,0.5-0.4c0.3,0,0.5,0.2,0.5,0.4c1,9.3,9.5,16.1,18.8,15c7.9-0.9,14.1-7.1,15-15
		c0-0.3,0.2-0.5,0.5-0.5s0.5,0.2,0.5,0.5c1,9.3,9.4,16.1,18.7,15.1c7.9-0.9,14.2-7.1,15.1-15.1c0-0.3,0.2-0.4,0.5-0.4
		c0.3,0,0.5,0.2,0.5,0.4c1,9.3,9.5,16.1,18.8,15c7.9-0.9,14.1-7.1,15-15c0-0.3,0.2-0.5,0.5-0.5s0.5,0.2,0.5,0.5
		c1,9.3,9.5,16.1,18.8,15c7.9-0.9,14.1-7.1,15-15c0-0.3,0.2-0.5,0.5-0.5s0.5,0.2,0.5,0.5c1,9.3,9.5,16.1,18.8,15
		c7.9-0.9,14.1-7.1,15-15c0-0.3,0.2-0.5,0.5-0.5s0.5,0.2,0.5,0.5c1,9.3,9.4,16.1,18.7,15.1c7.9-0.9,14.2-7.1,15.1-15.1
		c0-0.3,0.2-0.5,0.5-0.5s0.5,0.2,0.5,0.5c1,9.3,9.5,16.1,18.8,15c7.9-0.9,14.1-7.1,15-15C583.5,128.8,583.7,128.6,583.9,128.6z"/>
	<rect x="131.6" y="69" class="st9" width="35" height="33.5"/>
	<path class="st3" d="M166.6,103h-35c-0.3,0-0.5-0.2-0.5-0.5V69c0-0.3,0.2-0.5,0.5-0.5h35c0.3,0,0.5,0.2,0.5,0.5v33.5
		C167.1,102.8,166.8,103,166.6,103z M132.1,102h34V69.5h-34V102z"/>
	<rect x="166.4" y="69" class="st10" width="35" height="33.5"/>
	<path class="st3" d="M201.3,103h-35c-0.3,0-0.5-0.2-0.5-0.5V69c0-0.3,0.2-0.5,0.5-0.5h35c0.3,0,0.5,0.2,0.5,0.5v33.5
		C201.8,102.8,201.6,103,201.3,103z M166.9,102h34V69.5h-34V102z"/>
	<rect x="201.1" y="69" class="st9" width="35" height="33.5"/>
	<path class="st3" d="M236.1,103h-35c-0.3,0-0.5-0.2-0.5-0.5V69c0-0.3,0.2-0.5,0.5-0.5h35c0.3,0,0.5,0.2,0.5,0.5v33.5
		C236.6,102.8,236.4,103,236.1,103z M201.7,102h34V69.5h-34V102z"/>
	<rect x="235.9" y="69" class="st10" width="35" height="33.5"/>
	<path class="st3" d="M270.9,103h-35c-0.3,0-0.5-0.2-0.5-0.5V69c0-0.3,0.2-0.5,0.5-0.5h35c0.3,0,0.5,0.2,0.5,0.5v33.5
		C271.4,102.8,271.2,103,270.9,103z M236.4,102h34V69.5h-34L236.4,102z"/>
	<rect x="270.7" y="69" class="st9" width="35" height="33.5"/>
	<path class="st3" d="M305.7,103h-35c-0.3,0-0.5-0.2-0.5-0.5V69c0-0.3,0.2-0.5,0.5-0.5h35c0.3,0,0.5,0.2,0.5,0.5v33.5
		C306.2,102.8,306,103,305.7,103z M271.2,102h34V69.5h-34V102z"/>
	<rect x="305.5" y="69" class="st10" width="35" height="33.5"/>
	<path class="st3" d="M340.5,103h-35c-0.3,0-0.5-0.2-0.5-0.5V69c0-0.3,0.2-0.5,0.5-0.5h35c0.3,0,0.5,0.2,0.5,0.5v33.5
		C341,102.8,340.8,103,340.5,103z M306,102h34V69.5h-34V102z"/>
	<rect x="340.3" y="69" class="st9" width="35" height="33.5"/>
	<path class="st3" d="M375.3,103h-35c-0.3,0-0.5-0.2-0.5-0.5V69c0-0.3,0.2-0.5,0.5-0.5h35c0.3,0,0.5,0.2,0.5,0.5v33.5
		C375.8,102.8,375.6,103,375.3,103z M340.8,102h34V69.5h-34V102z"/>
	<rect x="375.1" y="69" class="st10" width="35" height="33.5"/>
	<path class="st3" d="M410.1,103h-35c-0.3,0-0.5-0.2-0.5-0.5V69c0-0.3,0.2-0.5,0.5-0.5h35c0.3,0,0.5,0.2,0.5,0.5v33.5
		C410.6,102.8,410.3,103,410.1,103z M375.6,102h34V69.5h-34V102z"/>
	<rect x="409.9" y="69" class="st9" width="35" height="33.5"/>
	<path class="st3" d="M444.9,103h-35c-0.3,0-0.5-0.2-0.5-0.5V69c0-0.3,0.2-0.5,0.5-0.5h35c0.3,0,0.5,0.2,0.5,0.5v33.5
		C445.4,102.8,445.1,103,444.9,103z M410.4,102h34V69.5h-34V102z"/>
	<rect x="444.7" y="69" class="st10" width="35" height="33.5"/>
	<path class="st3" d="M479.6,103h-35c-0.3,0-0.5-0.2-0.5-0.5V69c0-0.3,0.2-0.5,0.5-0.5h35c0.3,0,0.5,0.2,0.5,0.5v33.5
		C480.1,102.8,479.9,103,479.6,103z M445.2,102h34V69.5h-34V102z"/>
	<rect x="479.5" y="69" class="st9" width="35" height="33.5"/>
	<path class="st3" d="M514.4,103h-35c-0.3,0-0.5-0.2-0.5-0.5V69c0-0.3,0.2-0.5,0.5-0.5h35c0.3,0,0.5,0.2,0.5,0.5v33.5
		C514.9,102.8,514.7,103,514.4,103z M480,102h34V69.5h-34V102z"/>
	<rect x="514.2" y="69" class="st10" width="35" height="33.5"/>
	<path class="st3" d="M549.2,103h-35c-0.3,0-0.5-0.2-0.5-0.5V69c0-0.3,0.2-0.5,0.5-0.5h35c0.3,0,0.5,0.2,0.5,0.5v33.5
		C549.7,102.8,549.5,103,549.2,103z M514.7,102h34V69.5h-34V102z"/>
	<rect x="549" y="69" class="st9" width="35" height="33.5"/>
	<path class="st3" d="M584,103h-35c-0.3,0-0.5-0.2-0.5-0.5V69c0-0.3,0.2-0.5,0.5-0.5h35c0.3,0,0.5,0.2,0.5,0.5v33.5
		C584.5,102.8,584.3,103,584,103z M549.5,102h34V69.5h-34V102z"/>
	<rect x="583.8" y="69" class="st10" width="35" height="33.5"/>
	<path class="st3" d="M618.8,103h-35c-0.3,0-0.5-0.2-0.5-0.5V69c0-0.3,0.2-0.5,0.5-0.5h35c0.3,0,0.5,0.2,0.5,0.5v33.5
		C619.3,102.8,619.1,103,618.8,103z M584.3,102h34V69.5h-34V102z"/>
	<path class="st9" d="M149.1,135.8L149.1,135.8c-9.7,0-17.5-7.8-17.5-17.5c0,0,0,0,0,0v-16h35v16C166.6,128,158.7,135.8,149.1,135.8
		C149.1,135.8,149.1,135.8,149.1,135.8z"/>
	<path class="st3" d="M149.1,136.3c-9.9,0-18-8.1-18-18v-16c0-0.3,0.2-0.5,0.5-0.5h35c0.3,0,0.5,0.2,0.5,0.5v16
		C167.1,128.3,159,136.3,149.1,136.3z M132.1,102.8v15.5c0,9.4,7.6,17,17,17s17-7.6,17-17l0,0v-15.5L132.1,102.8z"/>
	<path class="st7" d="M166.4,102.3h35l0,0v16c0,9.7-7.8,17.5-17.5,17.5l0,0l0,0c-9.7,0-17.5-7.8-17.5-17.5c0,0,0,0,0,0L166.4,102.3
		L166.4,102.3z"/>
	<path class="st3" d="M183.9,136.3c-9.9,0-18-8.1-18-18v-16c0-0.3,0.2-0.5,0.5-0.5h35c0.3,0,0.5,0.2,0.5,0.5v16
		C201.9,128.3,193.8,136.3,183.9,136.3z M166.9,102.8v15.5c0,9.4,7.6,17,17,17s17-7.6,17-17l0,0v-15.5L166.9,102.8z"/>
	<path class="st9" d="M218.6,135.8L218.6,135.8c-9.7,0-17.5-7.8-17.5-17.5c0,0,0,0,0,0v-16h35v16C236.1,128,228.3,135.8,218.6,135.8
		C218.7,135.8,218.6,135.8,218.6,135.8z"/>
	<path class="st3" d="M218.6,136.3c-9.9,0-18-8.1-18-18v-16c0-0.3,0.2-0.5,0.5-0.5h35c0.3,0,0.5,0.2,0.5,0.5v16
		C236.6,128.3,228.6,136.3,218.6,136.3z M201.6,102.8v15.5c0,9.4,7.6,17,17,17s17-7.6,17-17v-15.5L201.6,102.8z"/>
	<path class="st7" d="M235.9,102.3h35l0,0v16c0,9.7-7.8,17.5-17.5,17.5l0,0l0,0c-9.7,0-17.5-7.8-17.5-17.5c0,0,0,0,0,0L235.9,102.3
		L235.9,102.3z"/>
	<path class="st3" d="M253.4,136.3c-9.9,0-18-8.1-18-18v-16c0-0.3,0.2-0.5,0.5-0.5h35c0.3,0,0.5,0.2,0.5,0.5v16
		C271.4,128.3,263.4,136.3,253.4,136.3z M236.4,102.8v15.5c0,9.4,7.6,17,17,17c9.4,0,17-7.6,17-17v-15.5L236.4,102.8z"/>
	<path class="st9" d="M270.7,102.3h35l0,0v16c0,9.7-7.8,17.5-17.5,17.5l0,0c-9.7,0-17.5-7.8-17.5-17.5L270.7,102.3L270.7,102.3
		L270.7,102.3z"/>
	<path class="st3" d="M288.2,136.3c-9.9,0-18-8.1-18-18v-16c0-0.3,0.2-0.5,0.5-0.5h35c0.3,0,0.5,0.2,0.5,0.5v16
		C306.2,128.3,298.2,136.3,288.2,136.3z M271.2,102.8v15.5c0,9.4,7.6,17,17,17l0,0c9.4,0,17-7.6,17-17v-15.5L271.2,102.8z"/>
	<path class="st7" d="M323,135.8L323,135.8c-9.7,0-17.5-7.8-17.5-17.5v-16h35v16C340.5,128,332.7,135.8,323,135.8
		C323,135.8,323,135.8,323,135.8z"/>
	<path class="st3" d="M323,136.3c-9.9,0-18-8.1-18-18v-16c0-0.3,0.2-0.5,0.5-0.5h35c0.3,0,0.5,0.2,0.5,0.5v16
		C341,128.3,332.9,136.3,323,136.3z M306,102.8v15.5c0,9.4,7.6,17,17,17s17-7.6,17-17l0,0v-15.5L306,102.8z"/>
	<path class="st9" d="M357.8,135.8L357.8,135.8c-9.7,0-17.5-7.8-17.5-17.5v-16h35v16C375.3,128,367.5,135.8,357.8,135.8
		C357.8,135.8,357.8,135.8,357.8,135.8z"/>
	<path class="st3" d="M357.8,136.3c-9.9,0-18-8.1-18-18v-16c0-0.3,0.2-0.5,0.5-0.5h35c0.3,0,0.5,0.2,0.5,0.5v16
		C375.8,128.3,367.7,136.3,357.8,136.3z M340.8,102.8v15.5c0,9.4,7.6,17,17,17s17-7.6,17-17l0,0v-15.5L340.8,102.8z"/>
	<path class="st7" d="M392.6,135.8L392.6,135.8c-9.7,0-17.5-7.8-17.5-17.5v-16h35v16C410.1,128,402.3,135.8,392.6,135.8
		C392.6,135.8,392.6,135.8,392.6,135.8z"/>
	<path class="st3" d="M392.6,136.3c-9.9,0-18-8.1-18-18v-16c0-0.3,0.2-0.5,0.5-0.5h35c0.3,0,0.5,0.2,0.5,0.5v16
		C410.6,128.3,402.5,136.3,392.6,136.3z M375.6,102.8v15.5c0,9.4,7.6,17,17,17c9.4,0,17-7.6,17-17v-15.5L375.6,102.8z"/>
	<path class="st9" d="M427.4,135.8L427.4,135.8c-9.7,0-17.5-7.8-17.5-17.5v-16h35v16C444.9,128,437,135.8,427.4,135.8
		C427.4,135.8,427.4,135.8,427.4,135.8z"/>
	<path class="st3" d="M427.4,136.3c-9.9,0-18-8.1-18-18v-16c0-0.3,0.2-0.5,0.5-0.5h35c0.3,0,0.5,0.2,0.5,0.5v16
		C445.4,128.3,437.3,136.3,427.4,136.3z M410.4,102.8v15.5c0,9.4,7.6,17,17,17s17-7.6,17-17l0,0v-15.5L410.4,102.8z"/>
	<path class="st7" d="M444.7,102.3h35l0,0v16c0,9.7-7.8,17.5-17.5,17.5l0,0c-9.7,0-17.5-7.8-17.5-17.5L444.7,102.3L444.7,102.3z"/>
	<path class="st3" d="M462.1,136.3c-9.9,0-18-8.1-18-18v-16c0-0.3,0.2-0.5,0.5-0.5h35c0.3,0,0.5,0.2,0.5,0.5v16
		C480.1,128.3,472.1,136.3,462.1,136.3z M445.1,102.8v15.5c0,9.4,7.6,17,17,17s17-7.6,17-17l0,0v-15.5L445.1,102.8z"/>
	<path class="st9" d="M479.5,102.3h35l0,0v16c0,9.7-7.8,17.5-17.5,17.5l0,0c-9.7,0-17.5-7.8-17.5-17.5L479.5,102.3L479.5,102.3z"/>
	<path class="st3" d="M496.9,136.3c-9.9,0-18-8.1-18-18v-16c0-0.3,0.2-0.5,0.5-0.5h35c0.3,0,0.5,0.2,0.5,0.5v16
		C514.9,128.3,506.9,136.3,496.9,136.3z M479.9,102.8v15.5c0,9.4,7.6,17,17,17s17-7.6,17-17l0,0v-15.5L479.9,102.8z"/>
	<path class="st7" d="M531.7,135.8L531.7,135.8c-9.7,0-17.5-7.8-17.5-17.5v-16h35v16C549.2,128,541.4,135.8,531.7,135.8
		C531.7,135.8,531.7,135.8,531.7,135.8z"/>
	<path class="st3" d="M531.7,136.3c-9.9,0-18-8.1-18-18v-16c0-0.3,0.2-0.5,0.5-0.5h35c0.3,0,0.5,0.2,0.5,0.5v16
		C549.7,128.3,541.7,136.3,531.7,136.3z M514.7,102.8v15.5c0,9.4,7.6,17,17,17s17-7.6,17-17l0,0v-15.5L514.7,102.8z"/>
	<path class="st9" d="M566.5,135.8L566.5,135.8c-9.7,0-17.5-7.8-17.5-17.5c0,0,0,0,0,0v-16h35v16C584,128,576.2,135.8,566.5,135.8
		C566.5,135.8,566.5,135.8,566.5,135.8z"/>
	<path class="st3" d="M566.5,136.3c-9.9,0-18-8.1-18-18v-16c0-0.3,0.2-0.5,0.5-0.5h35c0.3,0,0.5,0.2,0.5,0.5v16
		C584.5,128.3,576.5,136.3,566.5,136.3z M549.5,102.8v15.5c0,9.4,7.6,17,17,17s17-7.6,17-17l0,0v-15.5L549.5,102.8z"/>
	<path class="st7" d="M601.3,135.8L601.3,135.8c-9.7,0-17.5-7.8-17.5-17.5v-16h35v16C618.8,128,611,135.8,601.3,135.8
		C601.3,135.8,601.3,135.8,601.3,135.8z"/>
	<path class="st3" d="M601.3,136.3c-9.9,0-18-8.1-18-18v-16c0-0.3,0.2-0.5,0.5-0.5h35c0.3,0,0.5,0.2,0.5,0.5v16
		C619.3,128.3,611.3,136.3,601.3,136.3z M584.3,102.8v15.5c0,9.4,7.6,17,17,17s17-7.6,17-17l0,0v-15.5L584.3,102.8z"/>
</g>
<g id="freepik--wifi-icon--inject-13">
	<circle class="st3" cx="124.4" cy="200.3" r="42.4"/>
	<path class="st3" d="M124.4,243.2c-23.7,0-42.9-19.2-42.9-42.9s19.2-42.9,42.9-42.9c23.7,0,42.9,19.2,42.9,42.9
		C167.3,224,148.1,243.1,124.4,243.2z M124.4,158.4c-23.1,0-41.9,18.8-41.9,41.9s18.8,41.9,41.9,41.9s41.9-18.8,41.9-41.9
		C166.3,177.2,147.5,158.4,124.4,158.4z"/>
	<circle class="st11" cx="122.2" cy="196.9" r="42.4"/>
	<path class="st3" d="M122.2,239.8c-23.7,0-42.9-19.2-42.9-42.8c0-23.7,19.2-42.9,42.8-42.9c23.7,0,42.9,19.2,42.9,42.8c0,0,0,0,0,0
		C165,220.6,145.8,239.7,122.2,239.8z M122.2,155c-23.1,0-41.9,18.7-41.9,41.8c0,23.1,18.7,41.9,41.8,41.9
		c23.1,0,41.9-18.7,41.9-41.8c0,0,0,0,0,0C164,173.8,145.3,155,122.2,155L122.2,155z"/>
	<path class="st3" d="M122.2,182.7c-5.6,0-11,1.5-15.8,4.3c-2,1.3-3.8,2.7-5.6,4.2c-0.9,0.9-2.3,1.2-3.5,0.9c-1.7-0.5-2.6-2.3-2.1-4
		c0.1-0.2,0.2-0.5,0.3-0.7c0.4-0.6,0.9-1.1,1.4-1.6c5.9-5.4,13.4-8.7,21.4-9.5c11.2-1.1,20.9,2.3,29.3,9.6c0.9,0.6,1.5,1.6,1.7,2.8
		c0.2,1.8-1.1,3.4-2.8,3.6c-0.8,0.1-1.7-0.1-2.3-0.6c-0.7-0.5-1.2-1-1.9-1.6c-5.4-4.5-12.2-7.1-19.2-7.3L122.2,182.7z"/>
	<path class="st3" d="M138.7,200.5c-1,0-1.9-0.4-2.6-1.1c-7.4-7.1-18.9-7.5-26.8-0.9c-0.6,0.5-1.1,1-1.7,1.4c-1.4,1-3.3,0.8-4.4-0.5
		c-1.1-1.3-1.1-3.2,0.1-4.4c2.6-2.8,5.9-4.9,9.5-6.1c6.7-2.6,14.2-2.3,20.7,0.9c2.8,1.3,5.3,3,7.4,5.2c1,1,1.3,2.4,0.7,3.7
		C141.2,199.8,140,200.6,138.7,200.5z"/>
	<path class="st3" d="M122.1,198.2c4.4,0,8.5,1.8,11.5,5c1.2,1.2,1.3,3.2,0.1,4.5c-1.2,1.3-3.3,1.4-4.6,0.3c-1.1-1-2.3-1.8-3.7-2.5
		c-3.5-1.4-6.7-0.6-9.4,1.9c-0.9,1-2.1,1.5-3.4,1.3c-1.8-0.3-2.9-1.9-2.7-3.7c0.1-0.5,0.3-1.1,0.7-1.5c1.5-1.8,3.4-3.2,5.6-4.1
		C118,198.7,120,198.3,122.1,198.2z"/>
	<path class="st3" d="M122.2,217.8c-2.2,0-4-1.7-4-3.9c0,0,0-0.1,0-0.1c0-2.2,1.8-4,3.9-4c2.2,0,4,1.7,4,4S124.5,217.7,122.2,217.8
		L122.2,217.8z"/>
</g>
<g id="freepik--Button--inject-13">
	<path class="st3" d="M323.8,251.6h102.5c5.1,0,9.3,4.2,9.3,9.3v28.3c0,5.1-4.2,9.3-9.3,9.3H323.8c-5.1,0-9.3-4.2-9.3-9.3v-28.3
		C314.5,255.8,318.7,251.6,323.8,251.6z"/>
	<text transform="matrix(1 0 0 1 332.3261 283.5742)" class="st11 st12 st13">STORE</text>
</g>
<g id="freepik--Cursor--inject-13">
	<path class="st3" d="M272.7,328l52.3-44.3c1-0.8,1.1-2.3,0.3-3.3c-0.5-0.6-1.3-0.9-2-0.8l-68,6.7c-1.3,0.1-2.3,1.2-2.2,2.5
		c0.1,0.8,0.5,1.5,1.2,1.8l14.1,8.2L223,318.2l4.6,10.8l44.9-19l-3.6,15.8c-0.2,1.3,0.6,2.5,1.9,2.7
		C271.5,328.6,272.2,328.4,272.7,328z"/>
	<path class="st7" d="M273.4,323.5l52.3-44.3c1-0.8,1.1-2.3,0.3-3.3c-0.5-0.6-1.3-0.9-2-0.8l-68,6.7c-1.3,0.1-2.3,1.3-2.1,2.5
		c0.1,0.8,0.5,1.4,1.1,1.8l14.1,8.3l-45.4,19.2l4.6,10.8l44.9-19l-3.6,15.8c-0.3,1.3,0.5,2.5,1.8,2.8
		C272.1,324.2,272.9,324,273.4,323.5z"/>
	<path class="st3" d="M228.3,325c-0.1,0-0.1,0-0.2,0c-0.1,0-0.2-0.1-0.3-0.3l-4.6-10.8c-0.1-0.1-0.1-0.3,0-0.4
		c0.1-0.1,0.1-0.2,0.3-0.3l44.5-18.9l-13.2-7.8c-1.4-0.8-1.8-2.5-1-3.9c0.5-0.8,1.3-1.3,2.2-1.4l68-6.7c1.6-0.2,3,1,3.1,2.6
		c0.1,0.9-0.3,1.8-1,2.4l-52.3,44.3l0,0c-0.9,0.8-2.3,0.9-3.3,0.3c-1.1-0.6-1.6-1.9-1.3-3.1l3.4-14.8l-44,18.6
		C228.5,325,228.4,325,228.3,325z M224.4,314l4.2,9.9L273,305c0.2-0.1,0.4-0.1,0.5,0.1c0.1,0.1,0.2,0.3,0.2,0.5l-3.6,15.8
		c-0.2,1,0.4,2,1.4,2.2c0.6,0.1,1.2,0,1.6-0.4l52.3-44.3c0.8-0.7,0.9-1.8,0.2-2.6c-0.4-0.5-1-0.7-1.6-0.7l-68,6.7
		c-1,0.1-1.8,1-1.7,2c0.1,0.6,0.4,1.1,0.9,1.4l14.1,8.2c0.2,0.1,0.3,0.3,0.2,0.5c0,0.2-0.1,0.4-0.3,0.4L224.4,314z M273.4,323.6
		L273.4,323.6z"/>
</g>
</svg>
