<svg width="174" height="69" viewBox="0 0 174 69" fill="none" xmlns="http://www.w3.org/2000/svg">
<path d="M87.365 13.684V22.832C87.365 22.832 91.223 30.925 102.532 31.98C113.841 33.036 137.39 27.23 153.887 39.897C170.385 52.564 173.844 68.222 173.844 68.222C173.844 68.222 176.904 38.842 155.883 17.026C138.593 -0.916981 99.339 -7.60399 87.365 13.684Z" fill="#603813"/>
<path d="M170.92 47.87L170.502 46.42L170.289 45.696L170.045 44.991C169.367 43.129 168.756 41.21 167.944 39.434C167.559 38.531 167.18 37.62 166.772 36.733L165.478 34.13C165.26 33.698 165.049 33.259 164.813 32.844L164.101 31.602C163.617 30.783 163.17 29.926 162.656 29.139C160.653 25.932 158.42 22.977 155.997 20.335C153.572 17.708 150.959 15.331 148.093 13.666C150.705 15.921 153.096 18.531 155.365 21.294C155.93 21.989 156.495 22.682 157.034 23.412C157.574 24.139 158.139 24.832 158.646 25.601C159.16 26.359 159.704 27.081 160.211 27.847L161.702 30.18C162.211 30.945 162.658 31.776 163.139 32.571L163.849 33.776C164.086 34.178 164.29 34.611 164.519 35.02L165.862 37.511L167.114 40.086L167.744 41.373C167.961 41.797 168.13 42.258 168.332 42.694L169.502 45.349L169.801 46.01L170.069 46.692L170.608 48.057C170.97 48.967 171.342 49.873 171.721 50.778C171.462 49.808 171.196 48.837 170.92 47.87Z" fill="#A58167"/>
<path d="M148.01 18.0811C147.562 17.6001 147.098 17.1501 146.636 16.6961C146.172 16.2441 145.718 15.7751 145.237 15.3561C144.287 14.4951 143.329 13.6511 142.342 12.8701C140.373 11.3011 138.334 9.8681 136.192 8.7561C138.092 10.4661 139.963 12.1801 141.812 13.9331C142.725 14.8301 143.655 15.6901 144.552 16.6101C145.008 17.0561 145.458 17.5111 145.906 17.9711C146.355 18.4281 146.807 18.8811 147.24 19.3641L148.57 20.7641L149.868 22.2131C150.313 22.6781 150.726 23.1901 151.154 23.6811C151.573 24.1841 152.015 24.6571 152.424 25.1751C154.115 27.1801 155.691 29.3311 157.31 31.4981C156.101 28.9171 154.693 26.4751 153.103 24.2661C151.521 22.0441 149.818 19.9711 148.01 18.0811Z" fill="#A58167"/>
<path d="M136.684 15.7899C135.25 13.9869 133.672 12.3939 132.047 10.8929C131.208 10.1939 130.384 9.46494 129.512 8.83694C129.08 8.51594 128.645 8.20194 128.199 7.91394C127.758 7.61494 127.315 7.32194 126.856 7.06894C125.046 6.01094 123.158 5.11495 121.195 4.75195C123.011 5.76495 124.731 6.95793 126.423 8.20593C126.848 8.51193 127.259 8.85295 127.679 9.16995C128.1 9.48395 128.511 9.82295 128.918 10.1689C129.748 10.8249 130.55 11.5429 131.355 12.2489C132.149 12.9789 132.958 13.6829 133.727 14.4619C134.118 14.8399 134.52 15.2009 134.903 15.5929C135.282 15.9919 135.669 16.3799 136.059 16.7639L136.641 17.3459L137.208 17.9529L138.358 19.1509C139.125 19.9529 139.864 20.7999 140.662 21.5799C140.061 20.5469 139.432 19.5399 138.774 18.5649C138.086 17.6349 137.428 16.6509 136.684 15.7899Z" fill="#A58167"/>
<path d="M124.893 14.062C124.246 13.321 123.613 12.546 122.918 11.879C121.568 10.471 120.109 9.25604 118.608 8.14404C117.092 7.06704 115.524 6.11303 113.898 5.36603C112.276 4.62103 110.599 4.02102 108.881 3.84302C110.475 4.67902 112.011 5.59404 113.533 6.54404C113.913 6.78104 114.29 7.02804 114.667 7.27304C115.044 7.51604 115.422 7.75702 115.791 8.02402C116.541 8.52002 117.28 9.04402 118.015 9.58002C118.385 9.84202 118.745 10.125 119.112 10.396C119.482 10.658 119.844 10.938 120.204 11.223L121.295 12.059C121.649 12.358 122.008 12.648 122.371 12.933C123.099 13.497 123.799 14.12 124.525 14.702C125.25 15.287 125.947 15.927 126.699 16.488C126.122 15.647 125.522 14.834 124.893 14.062Z" fill="#A58167"/>
<path d="M110.374 11.3459C109.763 10.8229 109.132 10.3389 108.475 9.91793C107.831 9.46193 107.148 9.11393 106.475 8.74093C105.104 8.07093 103.685 7.55393 102.234 7.29693C100.79 7.03993 99.302 6.96694 97.876 7.38994C99.312 7.64594 100.685 8.06693 102.043 8.54393C103.397 9.04093 104.724 9.62292 106.035 10.2699C107.337 10.9509 108.631 11.6639 109.908 12.4649L110.391 12.7559C110.548 12.8629 110.704 12.9729 110.865 13.0729L111.826 13.6869C112.468 14.0999 113.093 14.5579 113.766 14.9389C113.254 14.2619 112.713 13.6199 112.152 13.0089C111.568 12.4479 111.001 11.8319 110.374 11.3459Z" fill="#A58167"/>
<path d="M87.365 13.684V22.832C87.365 22.832 83.507 30.925 72.198 31.98C60.889 33.036 37.34 27.23 20.843 39.897C4.34599 52.564 0.885995 68.222 0.885995 68.222C0.885995 68.222 -2.17401 38.842 18.847 17.026C36.138 -0.916981 75.391 -7.60399 87.365 13.684Z" fill="#603813"/>
<path d="M3.811 47.87L4.229 46.42L4.44199 45.696L4.686 44.991C5.364 43.129 5.97499 41.21 6.78699 39.434C7.17199 38.531 7.55101 37.62 7.95901 36.733L9.25299 34.13C9.47099 33.698 9.682 33.259 9.918 32.844L10.63 31.602C11.114 30.783 11.561 29.926 12.075 29.139C14.078 25.932 16.311 22.977 18.734 20.335C21.159 17.708 23.772 15.331 26.638 13.666C24.026 15.921 21.635 18.531 19.366 21.294C18.801 21.989 18.236 22.682 17.697 23.412C17.157 24.139 16.592 24.832 16.085 25.601C15.571 26.359 15.027 27.081 14.52 27.847L13.029 30.18C12.52 30.945 12.073 31.776 11.592 32.571L10.882 33.776C10.645 34.178 10.441 34.611 10.212 35.02L8.86899 37.511L7.617 40.086L6.987 41.373C6.77 41.797 6.60099 42.258 6.39899 42.694L5.23001 45.349L4.931 46.01L4.66299 46.692L4.12399 48.057C3.76199 48.967 3.38999 49.873 3.01099 50.778C3.26899 49.808 3.535 48.837 3.811 47.87Z" fill="#A58167"/>
<path d="M26.721 18.0811C27.168 17.6001 27.633 17.1501 28.095 16.6961C28.559 16.2441 29.013 15.7751 29.494 15.3561C30.444 14.4951 31.402 13.6511 32.389 12.8701C34.359 11.3011 36.397 9.8681 38.539 8.7561C36.639 10.4661 34.768 12.1801 32.919 13.9331C32.006 14.8301 31.076 15.6901 30.179 16.6101C29.723 17.0561 29.273 17.5111 28.825 17.9711C28.376 18.4281 27.924 18.8811 27.491 19.3641L26.161 20.7641L24.863 22.2131C24.418 22.6781 24.005 23.1901 23.577 23.6811C23.158 24.1841 22.716 24.6571 22.307 25.1751C20.616 27.1801 19.04 29.3311 17.421 31.4981C18.63 28.9171 20.038 26.4751 21.628 24.2661C23.21 22.0441 24.913 19.9711 26.721 18.0811Z" fill="#A58167"/>
<path d="M38.046 15.7899C39.481 13.9869 41.059 12.3939 42.683 10.8929C43.522 10.1939 44.346 9.46494 45.218 8.83694C45.65 8.51594 46.085 8.20194 46.531 7.91394C46.972 7.61494 47.415 7.32194 47.874 7.06894C49.683 6.01094 51.571 5.11495 53.535 4.75195C51.719 5.76495 49.999 6.95793 48.307 8.20593C47.882 8.51193 47.471 8.85295 47.051 9.16995C46.63 9.48395 46.219 9.82295 45.812 10.1689C44.982 10.8249 44.18 11.5429 43.375 12.2489C42.581 12.9789 41.772 13.6829 41.003 14.4619C40.612 14.8399 40.21 15.2009 39.827 15.5929C39.448 15.9919 39.061 16.3799 38.671 16.7639L38.089 17.3459L37.522 17.9529L36.372 19.1509C35.605 19.9529 34.866 20.7999 34.068 21.5799C34.669 20.5469 35.298 19.5399 35.956 18.5649C36.645 17.6349 37.303 16.6509 38.046 15.7899Z" fill="#A58167"/>
<path d="M49.838 14.062C50.485 13.321 51.118 12.546 51.813 11.879C53.163 10.471 54.622 9.25604 56.123 8.14404C57.639 7.06704 59.207 6.11303 60.833 5.36603C62.455 4.62103 64.132 4.02102 65.85 3.84302C64.256 4.67902 62.721 5.59404 61.199 6.54404C60.819 6.78104 60.442 7.02804 60.065 7.27304C59.688 7.51604 59.31 7.75702 58.941 8.02402C58.191 8.52002 57.452 9.04402 56.717 9.58002C56.348 9.84202 55.987 10.125 55.621 10.396C55.251 10.658 54.889 10.938 54.529 11.223L53.438 12.059C53.084 12.358 52.725 12.648 52.362 12.933C51.634 13.497 50.934 14.12 50.208 14.702C49.483 15.287 48.787 15.927 48.034 16.488C48.608 15.647 49.209 14.834 49.838 14.062Z" fill="#A58167"/>
<path d="M64.357 11.3459C64.968 10.8229 65.599 10.3389 66.256 9.91793C66.9 9.46193 67.583 9.11393 68.257 8.74093C69.628 8.07093 71.047 7.55393 72.498 7.29693C73.942 7.03993 75.43 6.96694 76.856 7.38994C75.42 7.64594 74.047 8.06693 72.689 8.54393C71.335 9.04093 70.008 9.62292 68.697 10.2699C67.395 10.9509 66.101 11.6639 64.824 12.4649L64.341 12.7559C64.184 12.8629 64.028 12.9729 63.867 13.0729L62.906 13.6869C62.264 14.0999 61.639 14.5579 60.966 14.9389C61.478 14.2619 62.019 13.6199 62.58 13.0089C63.163 12.4479 63.729 11.8319 64.357 11.3459Z" fill="#A58167"/>
</svg>
