<svg width="173" height="103" viewBox="0 0 173 103" fill="none" xmlns="http://www.w3.org/2000/svg">
<path d="M86.365 15.6489V38.0259C86.365 38.0259 108.382 54.9449 127.278 58.0379C146.174 61.1309 157.675 64.0419 162.933 78.0499C168.191 92.0579 162.933 102.428 162.933 102.428C162.933 102.428 170.82 100.063 172.463 74.2289C174.106 48.3959 167.862 24.1989 146.995 10.3729C126.128 -3.45306 99.346 -4.18106 86.365 15.6489Z" fill="#754C24"/>
<path d="M169.261 47.355C168.052 42.138 166.327 37.028 163.981 32.254C161.661 27.473 158.723 23.024 155.216 19.217C153.456 17.323 151.569 15.571 149.523 14.084C148.5 13.342 147.452 12.645 146.363 12.038C145.275 11.433 144.159 10.88 142.993 10.512C144.023 11.21 144.989 11.99 145.927 12.8C146.859 13.618 147.776 14.446 148.637 15.346C150.388 17.101 152.006 18.995 153.525 20.97C156.56 24.924 159.168 29.244 161.382 33.811C163.617 38.368 165.453 43.17 167.038 48.104C168.634 53.038 169.937 58.112 171.215 63.27C171.155 57.918 170.46 52.577 169.261 47.355Z" fill="#BC8557"/>
<path d="M156.442 32.4138C156.072 31.5488 155.692 30.6848 155.301 29.8248L155.007 29.1798L154.674 28.5618L154.001 27.3278C152.221 24.0178 150.02 20.9928 147.602 18.2208C145.189 15.4378 142.469 12.9878 139.562 10.8838C136.65 8.80083 133.529 7.01084 130.177 6.00684C132.986 8.22784 135.629 10.5298 138.179 12.9428C140.727 15.3498 143.183 17.8448 145.485 20.5058C147.791 23.1578 150.035 25.8868 152.098 28.8058C152.608 29.5388 153.19 30.2228 153.666 30.9878C154.163 31.7368 154.671 32.4828 155.189 33.2258C155.742 33.9478 156.183 34.7438 156.687 35.5078C157.184 36.2758 157.69 37.0448 158.233 37.8008C157.987 36.8858 157.703 35.9848 157.411 35.0818C157.117 34.1798 156.821 33.2728 156.442 32.4138Z" fill="#BC8557"/>
<path d="M140.209 23.6299C139.806 22.9439 139.397 22.2609 138.977 21.5849C138.558 20.9069 138.137 20.2299 137.662 19.5999C136.739 18.3149 135.794 17.0429 134.745 15.8739L133.968 14.9879C133.711 14.6899 133.446 14.4009 133.168 14.1259L131.504 12.4739C129.22 10.3539 126.748 8.45991 124.087 6.95091C123.415 6.58591 122.755 6.2049 122.056 5.8999L121.021 5.4279L119.962 5.01591C118.544 4.50291 117.087 4.07391 115.594 3.96191C116.899 4.75091 118.129 5.59091 119.339 6.46091L120.243 7.1089L121.131 7.78191C121.729 8.21291 122.301 8.69391 122.884 9.14391C125.2 10.9829 127.414 12.9469 129.59 14.9689C130.659 16.0059 131.751 17.0149 132.789 18.0989C133.313 18.6339 133.866 19.1369 134.374 19.6949C134.887 20.2459 135.41 20.7879 135.939 21.3279C136.478 21.8569 136.982 22.4239 137.499 22.9819C138.016 23.5399 138.543 24.0899 139.078 24.6379C140.122 25.7579 141.15 26.9039 142.296 27.9749C141.99 27.2259 141.649 26.4989 141.302 25.7739C140.952 25.0519 140.601 24.3249 140.209 23.6299Z" fill="#BC8557"/>
<path d="M127.428 19.4848C126.606 18.3268 125.783 17.1428 124.816 16.1198C122.964 13.9668 120.792 12.1708 118.503 10.6108C116.208 9.05283 113.708 7.87584 111.136 7.03284C108.562 6.22184 105.869 5.72284 103.19 6.00684C105.679 7.06484 108.02 8.20084 110.314 9.43184C111.461 10.0368 112.585 10.6858 113.698 11.3418C114.247 11.6888 114.805 12.0118 115.357 12.3498L116.982 13.4178C119.121 14.8858 121.26 16.3748 123.297 18.0688C124.362 18.8568 125.333 19.7718 126.391 20.6118C127.436 21.4668 128.414 22.4128 129.54 23.2468C129.233 22.5918 128.892 21.9598 128.543 21.3288C128.188 20.7018 127.848 20.0548 127.428 19.4848Z" fill="#BC8557"/>
<path d="M111.34 18.6578C110.798 17.9368 110.245 17.2068 109.606 16.5888C109.292 16.2718 108.975 15.9558 108.646 15.6568C108.311 15.3658 107.962 15.0978 107.617 14.8208C106.927 14.2648 106.174 13.8168 105.426 13.3658C103.906 12.5088 102.273 11.8878 100.593 11.5358C98.916 11.2058 97.162 11.0958 95.467 11.6038L99.884 13.9788C101.305 14.7448 102.7 15.4988 104.086 16.2848C104.438 16.4688 104.775 16.6858 105.122 16.8818C105.475 17.0658 105.82 17.2678 106.162 17.4778C106.51 17.6768 106.854 17.8848 107.212 18.0708C107.555 18.2828 107.903 18.4898 108.258 18.6898C108.981 19.0688 109.665 19.5228 110.416 19.9028C111.158 20.2968 111.883 20.7318 112.718 21.0648C112.526 20.6318 112.303 20.2268 112.074 19.8248C111.844 19.4238 111.613 19.0158 111.34 18.6578Z" fill="#BC8557"/>
<path d="M86.365 15.6489V38.0259C86.365 38.0259 64.348 54.9449 45.452 58.0379C26.557 61.1309 15.055 64.0419 9.79701 78.0499C4.53901 92.0579 9.79701 102.428 9.79701 102.428C9.79701 102.428 1.91001 100.063 0.267011 74.2289C-1.37599 48.3959 4.868 24.1989 25.735 10.3729C46.603 -3.45306 73.385 -4.18106 86.365 15.6489Z" fill="#754C24"/>
<path d="M3.47 47.355C4.679 42.138 6.404 37.028 8.75 32.254C11.07 27.473 14.007 23.024 17.515 19.217C19.275 17.323 21.162 15.571 23.208 14.084C24.231 13.342 25.279 12.645 26.368 12.038C27.456 11.433 28.572 10.88 29.738 10.512C28.708 11.21 27.742 11.99 26.804 12.8C25.872 13.618 24.954 14.446 24.094 15.346C22.343 17.101 20.725 18.995 19.207 20.97C16.172 24.924 13.564 29.244 11.35 33.811C9.11501 38.368 7.279 43.17 5.694 48.104C4.098 53.038 2.795 58.112 1.517 63.27C1.576 57.918 2.271 52.577 3.47 47.355Z" fill="#BC8557"/>
<path d="M16.289 32.4138C16.659 31.5488 17.038 30.6848 17.429 29.8248L17.723 29.1798L18.056 28.5618L18.729 27.3278C20.51 24.0178 22.71 20.9928 25.128 18.2208C27.541 15.4378 30.261 12.9878 33.168 10.8838C36.08 8.80083 39.201 7.01084 42.553 6.00684C39.744 8.22784 37.101 10.5298 34.551 12.9428C32.003 15.3498 29.547 17.8448 27.245 20.5058C24.939 23.1578 22.695 25.8868 20.632 28.8058C20.122 29.5388 19.54 30.2228 19.064 30.9878C18.567 31.7368 18.059 32.4828 17.541 33.2258C16.988 33.9478 16.547 34.7438 16.043 35.5078C15.546 36.2758 15.04 37.0448 14.497 37.8008C14.743 36.8858 15.027 35.9848 15.319 35.0818C15.614 34.1798 15.91 33.2728 16.289 32.4138Z" fill="#BC8557"/>
<path d="M32.522 23.6299C32.925 22.9439 33.334 22.2609 33.754 21.5849C34.173 20.9069 34.594 20.2299 35.069 19.5999C35.992 18.3149 36.937 17.0429 37.986 15.8739L38.763 14.9879C39.02 14.6899 39.285 14.4009 39.563 14.1259L41.227 12.4739C43.511 10.3539 45.983 8.45991 48.644 6.95091C49.316 6.58591 49.976 6.2049 50.675 5.8999L51.71 5.4279L52.769 5.01591C54.187 4.50291 55.644 4.07391 57.137 3.96191C55.832 4.75091 54.602 5.59091 53.392 6.46091L52.488 7.1089L51.6 7.78191C51.002 8.21291 50.431 8.69391 49.847 9.14391C47.531 10.9829 45.317 12.9469 43.141 14.9689C42.072 16.0059 40.98 17.0149 39.942 18.0989C39.418 18.6339 38.865 19.1369 38.357 19.6949C37.844 20.2459 37.321 20.7879 36.792 21.3279C36.253 21.8569 35.749 22.4239 35.232 22.9819C34.715 23.5399 34.188 24.0899 33.653 24.6379C32.609 25.7579 31.581 26.9039 30.435 27.9749C30.741 27.2259 31.082 26.4989 31.429 25.7739C31.779 25.0519 32.13 24.3249 32.522 23.6299Z" fill="#BC8557"/>
<path d="M45.303 19.4848C46.125 18.3268 46.948 17.1428 47.915 16.1198C49.767 13.9668 51.939 12.1708 54.227 10.6108C56.522 9.05283 59.022 7.87584 61.594 7.03284C64.168 6.22184 66.861 5.72284 69.54 6.00684C67.051 7.06484 64.71 8.20084 62.416 9.43184C61.269 10.0368 60.145 10.6858 59.032 11.3418C58.483 11.6888 57.925 12.0118 57.374 12.3498L55.748 13.4178C53.609 14.8858 51.47 16.3748 49.433 18.0688C48.368 18.8568 47.396 19.7718 46.339 20.6118C45.293 21.4668 44.316 22.4128 43.19 23.2468C43.497 22.5918 43.838 21.9598 44.187 21.3288C44.543 20.7018 44.883 20.0548 45.303 19.4848Z" fill="#BC8557"/>
<path d="M61.391 18.6578C61.933 17.9368 62.486 17.2068 63.125 16.5888C63.439 16.2718 63.756 15.9558 64.085 15.6568C64.42 15.3658 64.769 15.0978 65.114 14.8208C65.803 14.2648 66.557 13.8168 67.305 13.3658C68.825 12.5088 70.458 11.8878 72.138 11.5358C73.815 11.2058 75.569 11.0958 77.264 11.6038L72.847 13.9788C71.426 14.7448 70.031 15.4988 68.645 16.2848C68.293 16.4688 67.956 16.6858 67.609 16.8818C67.256 17.0658 66.911 17.2678 66.568 17.4778C66.22 17.6768 65.876 17.8848 65.518 18.0708C65.175 18.2828 64.827 18.4898 64.472 18.6898C63.748 19.0688 63.065 19.5228 62.314 19.9028C61.572 20.2968 60.847 20.7318 60.012 21.0648C60.204 20.6318 60.426 20.2268 60.656 19.8248C60.887 19.4238 61.118 19.0158 61.391 18.6578Z" fill="#BC8557"/>
</svg>
